<svg width="125" height="122" viewBox="0 0 125 122" fill="none" xmlns="http://www.w3.org/2000/svg">
<path d="M76.1856 95.7973C73.6284 97.7868 71.6287 99.9432 69.0166 101.617C69.017 101.893 69.0148 102.316 69.0103 102.743C69.0015 103.973 68.6768 105.099 67.7993 105.992C66.9424 106.86 66.0499 107.702 65.1471 108.526C64.6215 109.005 63.965 109.162 63.2639 109.021C61.5679 108.676 59.8696 108.334 58.1838 107.947C56.0918 107.473 54.3122 105.112 54.6229 102.742C54.8469 101.054 55.1511 99.3897 55.814 97.8042C56.1561 96.9863 56.7044 96.3624 57.5795 96.1945C58.3358 96.0468 58.6063 95.5602 58.7874 94.9216C59.9632 90.7382 61.1429 86.5572 62.3088 82.3728C62.4656 81.8144 62.566 81.2361 62.5103 80.5274C61.4181 81.4915 60.3004 82.4289 59.2428 83.4308C58.0113 84.5985 56.7991 85.7944 55.648 87.0447C54.503 88.2937 53.1614 88.6122 51.5742 88.1868C47.4897 87.0894 43.3276 86.3831 39.1511 85.8002C35.7956 85.3281 32.4095 85.0805 29.0429 84.7181C28.1402 84.6193 27.2468 84.447 26.3447 84.3221C25.5237 84.2114 24.949 83.795 24.6823 83.0006C24.0684 81.1699 23.4297 79.3449 22.8615 77.5007C22.1638 75.2405 21.6018 72.9335 20.8412 70.6973C19.5209 66.8131 18.1131 62.9584 16.7114 59.1024C16.3197 58.0274 15.8148 56.9975 15.3541 55.9479C15.1183 55.4064 14.7544 55.118 14.1188 55.0078C12.4852 54.7227 12.0175 53.7429 12.4715 52.1525C12.9023 50.6323 13.7583 49.5719 15.2215 48.9856C17.5308 48.0591 19.7924 47.007 22.1405 46.1952C27.3329 44.408 32.5204 42.6283 37.5651 40.4455C40.6444 39.1149 43.7777 37.9085 46.8753 36.616C50.1934 35.2348 53.497 33.8179 56.8099 32.4281C57.647 32.0771 58.5001 31.7679 59.3452 31.4377C59.7419 31.2802 60.1295 31.1116 60.5124 30.9506C60.2721 30.2737 60.0304 29.6913 59.853 29.0912C59.5925 28.1946 59.8325 27.3705 60.607 26.9003C61.6109 26.294 62.6705 25.7336 63.781 25.3697C64.8976 25.0044 66.0919 24.8685 67.2631 24.7021C68.1542 24.576 68.5869 24.8814 68.8181 25.7488C68.977 26.3531 69.0445 26.9845 69.1254 27.6031C69.1816 28.0258 69.1808 28.4549 69.2118 28.9093C71.2423 28.5915 73.178 28.2561 75.1218 28.0001C77.4288 27.698 79.7428 27.4268 82.0626 27.2388C83.0357 27.1592 84.0281 27.3677 85.0121 27.38C85.4749 27.3862 85.9553 27.2974 86.3984 27.1586C87.9042 26.6894 88.5551 27.0691 88.7928 28.6141C88.8282 28.8433 88.8674 29.0749 88.9209 29.3845C89.1838 29.3545 89.409 29.359 89.6189 29.2955C91.1313 28.841 93.1141 30.0416 93.5117 31.6188C94.5999 35.9874 95.6178 40.3751 95.7325 44.9077C95.7917 47.2468 94.668 49.066 93.1267 50.6902C91.7405 51.1715 91.163 52.4876 90.2452 53.4611C88.8362 54.9515 87.3421 56.3669 85.8938 57.8272C82.0845 61.6714 78.2789 65.5181 74.4785 69.3733C74.2407 69.6153 73.9497 69.9246 73.9148 70.2313C73.7274 71.8364 72.939 73.226 72.3977 74.7028C71.1856 78.0041 69.9972 81.3098 68.8414 84.6309C67.6206 88.1389 66.4449 91.6594 65.2516 95.1742C65.1912 95.3535 65.156 95.5433 65.0565 95.9524C65.4055 95.7276 65.6293 95.6252 65.8083 95.4679C68.7109 92.8482 71.5931 90.2103 74.5061 87.6077C75.0283 87.1424 75.2284 86.6749 75.1803 85.971C75.0093 83.4817 75.4227 81.0914 76.5472 78.843C76.6552 78.6302 76.715 78.3764 76.8703 78.2146C77.724 77.3172 78.4067 76.3381 78.9879 75.2259C79.4621 74.3166 80.62 74.2214 81.6091 74.083C84.0532 73.7403 86.407 74.1359 88.7029 74.967C89.5172 75.2644 90.3363 75.5542 91.1247 75.9095C92.4738 76.5185 93.1768 77.663 93.2907 79.0767C93.5075 81.7117 93.7033 84.3546 93.7461 86.9962C93.802 90.431 93.7361 93.8736 93.1469 97.2718C92.9877 98.1947 92.7016 99.1169 92.3445 99.9836C91.8782 101.115 90.9506 101.685 89.7127 101.613C88.8895 101.565 88.0725 101.414 87.2509 101.329C84.7026 101.065 82.1517 100.646 79.5989 100.607C77.5649 100.578 76.4196 99.0424 76.3625 97.0441C76.3539 96.6886 76.2645 96.3351 76.188 95.7935L76.1856 95.7973ZM89.6176 37.4089C89.9202 40.3526 90.229 43.295 90.5317 46.2388L90.8345 46.2128C90.8005 45.5284 90.8098 44.8342 90.7211 44.1524C90.4202 41.8938 90.087 39.636 89.7637 37.3792C89.8412 36.2668 89.5449 35.2256 89.1011 34.2079C89.2724 35.2707 89.445 36.3398 89.6162 37.4027L89.6176 37.4089ZM14.7399 52.0541C15.1984 51.8825 15.6442 51.5969 16.1133 51.5594C19.0212 51.3136 21.927 51.0878 24.843 50.9214C26.9281 50.8025 29.021 50.7468 31.1089 50.741C33.8696 50.7364 36.6331 50.744 39.386 50.8776C40.3023 50.9213 41.0622 50.8183 41.816 50.3138C42.4168 49.9088 43.0898 49.6077 43.7293 49.2589C41.4381 49.2423 39.2163 49.418 36.9905 49.5328C34.1574 49.6773 31.3165 49.9177 28.4872 49.8631C25.0508 49.7959 21.6279 49.9335 18.2057 50.1457C16.7826 50.2324 15.4107 50.5318 14.3788 51.778C14.5417 51.881 14.6706 51.9625 14.7918 52.0391L14.1447 52.4838C14.8845 52.941 15.2485 53.0279 16.216 52.9237C20.1853 52.5004 24.1636 52.4489 28.1498 52.6197C29.9213 52.6949 31.7024 52.755 33.4714 52.6749C35.7945 52.5738 38.1057 52.2903 40.4304 52.1531C42.0051 52.0615 43.4274 51.5818 44.7917 50.8163C45.5561 50.3874 46.3827 50.0614 47.2643 49.6484C47.3296 49.26 47.1428 48.8927 46.5839 48.9211C46.1281 48.9459 45.6377 49.0336 45.2461 49.2421C43.9276 49.9518 42.6572 50.7449 41.3477 51.4656C41.0556 51.6256 40.6794 51.7006 40.3411 51.6989C38.8847 51.6956 37.4268 51.6277 35.9691 51.6182C33.1718 51.6051 30.3711 51.5474 27.5748 51.625C24.1075 51.7239 20.6472 51.9545 17.1787 52.1057C16.3674 52.139 15.5524 52.0692 14.7409 52.0441L14.7399 52.0541ZM84.5524 55.998C84.8332 55.73 85.1037 55.4449 85.3972 55.1903C86.582 54.1468 87.7809 53.1229 88.9543 52.0722C89.3195 51.7462 89.6773 51.3732 89.5204 50.749C88.0905 52.1466 86.6952 53.4812 85.3343 54.8535C85.0138 55.1759 84.8105 55.6149 84.5524 55.998C84.0495 55.7701 83.8508 56.2438 83.5788 56.4643C82.9055 57.0091 82.295 57.6308 81.6487 58.2086C77.6883 61.7717 73.6168 65.2168 69.7901 68.9123C64.5418 73.984 59.4859 79.2463 54.3434 84.4274C53.9962 84.7753 53.7239 85.1388 54.1396 85.6138C54.2471 85.5863 54.3393 85.5915 54.3842 85.5457C56.22 83.7577 58.0596 81.9721 59.8812 80.1645C63.4141 76.6652 66.8488 73.0613 70.4814 69.6728C74.2648 66.1463 78.0218 62.603 81.5859 58.853C82.5319 57.8601 83.5606 56.946 84.5487 55.9956L84.5524 55.998ZM48.5247 47.873C59.9801 40.7594 71.6909 34.5338 83.8466 29.1144C82.564 29.1468 81.3174 29.2814 80.0718 29.4061C78.4255 29.5691 76.7635 29.9078 75.1275 29.828C73.3532 29.7404 71.6763 30.0273 69.98 30.3867C69.6856 30.4498 69.3999 30.5662 69.1272 30.6536C69.1109 30.8555 69.0741 30.9807 69.1016 31.0883C69.4175 32.476 68.7654 33.3312 67.6098 33.9847C66.0701 34.8515 64.4477 34.8759 62.7887 34.5641C62.5613 34.5211 62.3312 34.1636 62.2205 33.9026C61.9754 33.334 61.8079 32.7349 61.6179 32.1799C48.6758 37.4255 36.1196 43.3023 23.0846 48.049C23.4174 48.1852 23.7236 48.2462 24.032 48.2449C26.8332 48.2181 29.636 48.2559 32.4287 48.1336C36.727 47.9449 41.0158 47.6706 45.309 47.3726C46.4735 47.2922 47.588 47.249 48.5233 47.8669L48.5247 47.873ZM30.8671 74.1828C32.0111 75.0493 34.19 75.3609 36.4341 75.2841C37.8779 75.2317 38.9998 74.5728 39.503 73.1143C40.0259 71.5993 40.2696 70.0563 40.1026 68.4499C39.9251 66.7679 39.2148 65.2741 38.5585 63.7454C37.3181 60.8505 35.4218 58.5485 32.6529 57.0312C31.5451 56.4262 30.3906 55.8448 29.06 56.0536C26.7555 56.4104 25.4307 57.8851 24.8485 60.0308C24.224 62.3354 24.4011 64.6641 24.9998 66.9466C25.7686 69.8828 27.6801 71.9929 30.8685 74.189L30.8671 74.1828ZM56.0776 59.548C55.9297 58.834 55.7595 58.2225 55.681 57.6001C55.581 56.8104 55.9722 56.2251 56.6139 55.8141C57.1417 55.4742 57.9469 55.6015 58.4963 56.0495C59.1 56.5373 59.0166 57.1475 58.818 57.7803C58.7567 57.9696 58.7191 58.1633 58.644 58.3491C57.6281 60.9207 56.6197 63.497 55.5749 66.0555C55.2943 66.7426 55.1862 67.4167 55.318 68.1311C55.5887 69.607 55.8681 71.0776 56.1451 72.552C56.2384 73.0671 56.3255 73.5836 56.4126 74.1001L56.6624 74.1413C57.3091 73.1183 57.849 71.9959 58.6292 71.0891C60.2221 69.2323 61.9483 67.4917 63.606 65.6919C63.8072 65.4743 64.0455 65.1477 64.0221 64.8996C63.9081 63.788 63.6986 62.6851 63.5045 61.4486C63.2373 61.6616 63.087 61.7734 62.9457 61.8962C61.8931 62.8482 60.8522 63.8235 59.774 64.7488C59.5425 64.9471 59.0978 65.1221 58.8555 65.0272C58.45 64.8716 58.6128 64.4548 58.7372 64.0986C59.7409 61.2276 60.6555 58.3215 61.7445 55.4834C62.4044 53.7686 62.4263 52.1066 61.9929 50.3847C61.8551 49.8309 61.7088 49.2823 61.5467 48.6495C58.1044 49.7825 55.2986 51.6201 52.8334 54.0178C52.4312 54.4106 52.3409 54.8891 52.4934 55.4363C52.6418 55.965 52.7668 56.5054 52.8571 57.0504C53.0568 58.2109 53.2057 59.3763 53.4239 60.5325C53.5053 60.9658 53.4827 61.4713 53.8688 61.8002L56.0776 59.548ZM47.0702 52.3629C47.3049 53.8371 47.5412 55.2752 47.7613 56.7137C48.067 58.7048 48.3217 60.7009 48.6683 62.686C49.1505 65.4463 49.7107 68.1923 50.2053 70.9499C50.8167 74.3699 51.4019 77.7894 51.9824 81.2164C52.1405 82.149 52.2939 83.0892 52.3242 84.0311C52.3568 84.9692 51.8524 85.3981 50.9164 85.3685C50.4884 85.3577 50.0372 85.3164 49.6335 85.1832C45.5541 83.8344 41.3249 83.335 37.0731 82.9803C36.0102 82.8916 34.9432 82.8428 33.8897 82.6806C32.0997 82.4081 30.3056 82.117 28.5401 81.722C27.4271 81.4691 26.7451 80.6773 26.4341 79.542C25.984 77.9051 25.4945 76.2803 24.9531 74.6705C24.1904 72.3958 23.6585 70.0495 22.6464 67.8505C22.1751 66.8259 22.0434 65.6502 21.7036 64.5603C21.1521 62.7903 20.5797 61.0283 19.9825 59.2719C19.4897 57.8201 18.9464 56.3894 18.4171 54.9198L17.2573 54.8919C17.2569 55.0773 17.2341 55.1636 17.2594 55.2326C18.4431 58.41 19.675 61.57 20.8021 64.7699C22.1497 68.6024 23.4284 72.4602 24.6884 76.3222C25.1641 77.7844 25.6477 79.2675 25.877 80.7754C26.142 82.5287 26.118 82.4074 27.8014 82.6975C27.9163 82.7171 28.0359 82.7291 28.1556 82.7411C30.6262 82.9773 33.1072 83.1298 35.5663 83.4595C40.8051 84.1571 46.0234 84.9796 51.1662 86.2318C51.7917 86.3832 52.4491 86.4171 53.159 86.5106C53.042 85.429 52.9245 84.5327 52.848 83.6304C52.5804 80.4383 52.1877 77.2679 51.3775 74.1623C50.3782 70.3326 49.8682 66.4251 49.4 62.5016C48.9989 59.1349 48.4142 55.7901 47.9051 52.4347C47.8831 52.2935 47.8039 52.1586 47.735 51.9824L47.073 52.3753L47.0702 52.3629ZM74.7631 50.5194C74.3832 50.7512 74.1322 50.863 73.9275 51.0359C73.4168 51.4661 72.9217 51.922 72.4238 52.3656C71.5302 53.1583 71.2236 53.0812 70.912 51.972C70.807 51.5927 70.6821 51.2115 70.6305 50.8235C70.4416 49.4949 70.2912 48.1641 70.1061 46.8379C69.9628 45.798 69.7985 44.7661 69.618 43.5753C68.8008 44.1883 68.1092 44.6951 67.4355 45.2238C67.0462 45.5292 66.8729 45.8704 66.9925 46.4445C67.1802 47.364 67.2693 48.3219 67.2398 49.2578C67.1735 51.5016 67.1307 53.7922 66.1511 55.8616C65.5299 57.1713 66.1141 58.2354 66.3654 59.5239C66.6239 59.2577 66.761 59.1163 66.8919 58.9764C67.3769 58.461 67.8245 57.8955 68.3619 57.4397C68.9251 56.9684 69.3808 57.1452 69.5723 57.8656C69.7145 58.3956 69.7901 58.9472 69.8419 59.4944C69.9173 60.3482 69.9442 61.2031 69.9928 62.1832C70.9128 61.3488 71.7447 60.6285 72.5308 59.8633C72.6874 59.7078 72.7724 59.3637 72.7284 59.1397C72.5885 58.4467 72.3953 57.7624 72.1812 57.0861C71.8291 55.999 71.8693 55.7592 72.8338 55.1227C73.5829 54.6258 74.3848 54.2047 75.2493 53.7012C75.0972 52.7088 74.9474 51.7125 74.7655 50.5156L74.7631 50.5194ZM75.7505 44.1008C76.3296 43.6714 76.7069 43.385 77.0833 43.1085C77.6857 42.6673 78.2749 42.1967 78.9146 41.8056C79.183 41.6412 79.6423 41.5019 79.8678 41.6233C80.0744 41.7327 80.1494 42.2097 80.1658 42.5277C80.1871 42.9972 80.0321 43.4773 80.0682 43.9403C80.1552 45.1196 79.7243 46.0192 78.7601 46.6719C77.8938 47.2537 78.0338 48.0052 78.2895 48.9093C78.5386 48.7168 78.6898 48.595 78.8463 48.4817C79.0051 48.3647 79.1588 48.2391 79.3317 48.1417C79.9279 47.8026 80.331 47.962 80.443 48.6321C80.5416 49.2142 80.5747 49.8078 80.6077 50.4015C80.6782 51.565 80.7263 52.7304 80.7929 54.093C81.4191 53.5555 81.8619 53.0984 82.3721 52.7527C82.8885 52.4057 82.9605 51.9898 82.8575 51.4314C82.6667 50.3827 82.5515 49.3234 82.3583 48.2785C82.2252 47.558 82.4764 47.0432 83.0387 46.6404C83.486 46.3186 83.9424 46.0079 84.4169 45.6768C84.408 45.0029 84.5755 44.3186 84.3271 43.5623C84.0629 43.7453 83.9013 43.8499 83.7463 43.9693C83.5607 44.1119 83.3883 44.284 83.1923 44.4093C82.5935 44.7944 82.1037 44.5961 81.9847 43.8951C81.9326 43.5917 81.9695 43.265 82.0105 42.9568C82.3026 40.7921 82.9201 38.7164 83.7104 36.6864C83.851 36.3298 84.125 35.9886 83.691 35.5763C80.9512 37.3178 78.2052 39.0607 75.4115 40.8371C75.5208 41.8555 75.6272 42.8615 75.7581 44.1056L75.7505 44.1008ZM88.1811 80.1208C86.5715 81.8025 85.1926 83.4551 84.1104 85.343C83.9684 85.5927 83.9746 85.952 83.9759 86.2604C83.9926 87.7187 84.0539 89.1735 84.0606 90.6308C84.0649 92.092 84.5931 93.3116 85.6118 94.3428C85.9445 94.6804 86.3507 94.9691 86.5977 95.3585C87.0685 96.107 87.6816 96.1605 88.5153 95.924C88.6055 95.4878 88.7537 95.0352 88.7837 94.5768C88.8695 93.2416 88.9539 91.9002 88.9613 90.5631C88.9785 87.8852 88.9473 85.2085 88.916 82.5317C88.9044 81.7448 88.7454 80.9813 88.1825 80.1269L88.1811 80.1208ZM76.774 85.3292C76.8693 85.0023 76.9494 84.6659 77.0661 84.3471C77.2816 83.7462 77.6985 83.3469 78.3231 83.2062C79.2916 82.9912 80.2091 83.0834 81.0049 83.7456C81.9796 84.5527 82.6038 85.5785 82.9144 86.7984C82.9969 87.121 83.0817 87.4398 83.1703 87.761C83.2752 86.1355 84.0276 84.8028 84.8559 83.518C85.6985 82.2105 86.6017 80.9412 87.5239 79.5833C87.0065 79.3782 86.5485 79.1045 86.059 79.0231C84.1506 78.6862 82.2237 78.6135 80.2882 78.6467C79.0551 78.6679 78.2007 79.2308 77.6959 80.3648C77.0002 81.9349 76.6543 83.5724 76.774 85.3292ZM63.1864 98.6839C61.1076 99.6819 59.1742 99.9551 57.3812 97.9677C57.1615 98.55 56.891 99.0366 56.7966 99.555C56.5794 100.754 56.4434 101.967 56.2775 103.178C56.149 104.136 56.54 104.876 57.2812 105.44C58.8259 106.629 60.7082 106.865 62.4687 107.41C62.5462 107.221 62.5764 107.181 62.5646 107.158C62.5355 107.087 62.5098 107.001 62.4564 106.952C61.1899 105.801 61.1937 104.419 61.7075 102.936C62.184 101.561 62.6606 100.187 63.185 98.6777L63.1864 98.6839ZM58.9645 97.5102C59.8272 97.5465 60.4076 97.5847 60.9925 97.5992C61.9792 97.6238 63.3094 96.6775 63.6212 95.7397C64.3998 93.3841 65.1809 91.0247 65.952 88.6643C66.4082 87.2716 66.137 86.7024 64.7369 86.2998C64.1533 86.1323 63.5266 86.1338 62.8205 86.0427C62.14 90.0885 60.9683 93.8291 58.9645 97.5102ZM78.2016 97.0878C78.1213 97.8272 78.4471 98.134 78.9463 98.2587C79.7497 98.4643 80.5569 98.6724 81.3755 98.7868C83.5206 99.093 85.6736 99.3617 87.8228 99.6281C88.3305 99.6891 88.8477 99.7351 89.3599 99.7301C90.3421 99.72 90.8152 99.3827 91.0754 98.4176C91.2706 97.6978 91.3719 96.9504 91.4646 96.2082C91.9842 92.0395 92.0135 87.8577 91.8076 83.6705C91.7383 82.2955 91.5905 80.9186 91.3971 79.5554C91.2633 78.601 90.657 77.9578 89.7975 77.4887C88.0419 76.5326 86.1329 76.3226 84.1949 76.2004C84.0006 76.189 83.8013 76.2274 83.6068 76.2582C83.4618 76.2779 83.3199 76.3261 83.2333 76.3456C84.5499 76.637 85.8741 76.8325 87.1384 77.2235C88.8387 77.7469 89.9931 78.8905 90.3329 80.7016C90.5261 81.7466 90.7768 82.8013 90.7874 83.8581C90.8191 87.0124 90.7675 90.1724 90.7022 93.3291C90.6803 94.4289 90.6004 95.5451 90.3915 96.6222C90.1503 97.8592 89.1941 98.6335 87.9478 98.6252C86.8122 98.6178 85.6599 98.5363 84.5429 98.3234C83.1136 98.0508 81.7229 97.5746 80.2976 97.2622C79.6312 97.1166 78.9217 97.14 78.2078 97.0864L78.2016 97.0878ZM49.1357 50.3542C49.5824 50.0586 49.9372 49.8162 50.2972 49.5824C52.3901 48.2433 54.4439 46.8318 56.5938 45.5871C59.5959 43.8417 62.6733 42.2288 65.7093 40.5473C68.02 39.2664 70.294 37.9092 72.6372 36.686C76.416 34.7104 80.2366 32.8196 84.0351 30.8882C84.3323 30.7368 84.592 30.5191 84.9896 30.2508C84.7445 30.2443 84.6605 30.2177 84.6077 30.2426C80.5972 32.0982 76.5462 33.8752 72.5894 35.839C69.0527 37.5911 65.6505 39.6085 62.1284 41.3964C57.9688 43.513 54.0023 45.9533 50.0514 48.4193C49.3506 48.8566 48.9072 49.3399 49.1395 50.3566L49.1357 50.3542ZM67.7359 27.1754C65.8017 28.5989 63.5949 28.7257 61.6314 29.1973C62.0062 30.5003 62.3633 31.739 62.7242 32.9801C62.8423 33.3888 62.8787 33.868 63.463 33.9086C64.944 34.007 66.3811 33.8814 67.6458 33.0051C68.042 32.7306 68.283 32.3579 68.216 31.8012C68.036 30.3244 67.9068 28.8426 67.7397 27.1778L67.7359 27.1754ZM88.7011 31.4518L88.8013 32.4591C90.149 32.4414 90.4168 33.3851 90.6115 34.3354C90.8089 35.2982 90.9582 36.2783 91.0777 37.2553C91.4191 39.9532 91.7382 42.6528 92.0572 45.3524C92.1951 46.5268 92.0155 47.633 91.2616 48.5989C91.0349 48.8904 90.9316 49.1963 91.223 49.6245C92.8745 48.6481 93.6908 47.2815 93.5722 45.414C93.4768 43.8369 93.4099 42.2566 93.1857 40.6988C92.828 38.2029 92.4156 35.7095 91.8958 33.2435C91.4937 31.3294 90.7638 30.974 88.7011 31.4518ZM75.6613 93.8165C77.1531 92.6648 78.4749 91.6814 79.748 90.6408C80.0906 90.3589 80.4682 89.9294 80.5207 89.5277C80.634 88.6606 80.409 87.7918 79.8177 87.0998C79.0497 86.2006 78.2686 86.1946 77.4324 86.9971C76.5829 87.8124 75.6965 88.5937 74.8687 89.4333C74.422 89.8881 73.8149 90.2361 73.5773 90.9556C74.728 91.5347 75.609 92.2719 75.6613 93.8165ZM64.541 98.135C63.4981 99.231 62.6763 101.294 62.3275 103.222C62.0687 104.654 62.9157 105.789 63.1856 107.073C63.2937 107.582 63.7363 107.628 64.1216 107.363C64.639 107.006 65.0984 106.564 65.5978 106.185C67.4574 104.762 67.5223 102.873 66.945 100.859C66.5772 99.5867 65.6348 98.7788 64.541 98.135ZM83.317 90.0706C83.1701 90.7308 83.1133 91.1562 82.9786 91.5537C82.8276 91.9939 82.6495 92.4434 82.4065 92.836C82.1287 93.2755 81.6189 93.5366 81.1926 93.1875C80.4616 92.5822 79.871 92.9459 79.2742 93.3111C78.6431 93.697 78.0482 94.1429 77.4379 94.5631C77.7942 95.2074 78.3406 95.1233 78.8357 95.1287C80.3718 95.14 81.8996 95.2149 83.4132 95.5302C84.1945 95.6953 85.0035 95.7242 85.9039 95.8268C83.2382 92.2588 83.8539 92.8283 83.3194 90.0668L83.317 90.0706ZM68.9332 79.025C69.6351 77.9148 71.3983 73.0792 71.3568 72.39C69.175 74.373 67.0162 76.328 64.8725 78.2926C64.7412 78.4164 64.7158 78.6496 64.6369 78.833C66.1728 77.704 67.5867 78.0092 68.9332 79.025ZM67.6824 83.1928C66.5244 82.0046 65.1632 81.9766 63.7055 81.9671C63.4743 83.1044 63.2544 84.1904 63.0091 85.4089C64.5282 84.7677 65.6008 85.4618 66.769 86.1473C67.0874 85.1236 67.3861 84.1563 67.6824 83.1928ZM68.598 99.5863C69.1698 99.1098 69.8067 98.6057 70.4116 98.06C70.56 97.9258 70.7008 97.6277 70.658 97.4521C70.4119 96.4321 70.1383 95.4053 68.9876 94.927C68.1 95.6598 67.2391 96.3672 66.4346 97.0358C67.1859 97.9192 67.8632 98.7186 68.598 99.5863ZM68.6867 80.195C67.8454 79.8062 67.1035 79.369 66.2952 79.1125C65.2762 78.7865 64.3789 79.3753 64.1031 80.4154C64.0038 80.7822 63.9283 81.1534 63.8223 81.6061C64.3705 81.5444 64.8313 81.4698 65.2947 81.4498C65.8028 81.4263 66.3348 81.365 66.8141 81.4877C67.2208 81.591 67.5635 81.9296 68.0106 82.2123C68.2123 81.608 68.4083 81.0212 68.683 80.1926L68.6867 80.195ZM73.0394 91.3368L71.4064 92.8712C72.3202 93.6822 73.6851 93.9141 73.6305 95.46C74.184 95.0038 75.0042 94.8223 74.7199 93.9213C74.4152 92.9438 73.9776 92.0254 73.037 91.3406L73.0394 91.3368ZM69.532 94.4014C70.9529 94.8384 71.1761 96.0455 71.8505 96.9332L72.9674 95.9635C72.3816 94.9356 72.15 93.7921 70.9712 93.2324C70.5431 93.5823 70.1223 93.9208 69.5296 94.4052L69.532 94.4014ZM66.7958 26.5651C65.0899 26.5791 62.5626 27.389 61.9567 28.1461C63.6225 27.709 65.2807 27.6278 66.7958 26.5651ZM85.443 29.8692L85.5492 30.1962C85.8774 29.6771 86.6201 29.9452 86.8255 29.1841C86.3634 29.4116 85.9013 29.6392 85.4392 29.8668L85.443 29.8692ZM80.6649 76.4824C81.412 76.7267 81.4106 76.7205 81.9627 76.2582C81.481 76.3408 81.0995 76.4072 80.6649 76.4824Z" fill="#29FFD9"/>
<path d="M69.5616 33.7333C69.4934 34.1516 69.53 34.4293 69.427 34.4914C68.6752 34.976 67.947 35.5657 67.1145 35.8508C65.2852 36.4709 63.4221 36.6665 61.6942 35.5157C64.4099 35.7583 67.0191 35.5571 69.5554 33.7347L69.5616 33.7333Z" fill="#29FFD9"/>
<path d="M29.3139 63.2938C30.4999 64.1021 31.1773 65.522 31.717 67.0087C31.9409 67.6276 32.078 68.3083 32.0926 68.9646C32.1175 70.3008 31.1006 71.1376 29.7758 70.9682C29.5051 70.9349 29.2453 70.8343 28.9786 70.7611C26.909 70.1845 25.0011 66.5334 25.8916 64.3281C26.4841 62.8624 27.7911 62.347 29.3163 63.29L29.3139 63.2938ZM30.29 69.4C30.2564 69.0924 30.2993 68.8065 30.2007 68.7442C29.8635 68.5311 29.4808 68.3898 29.1324 68.2279C29.1857 66.4744 28.6765 65.5266 27.56 65.2291C27.4085 67.0372 28.5357 68.853 30.2886 69.3938L30.29 69.4Z" fill="#29FFD9"/>
<path d="M68.9692 50.1121C69.4336 51.1057 69.8802 51.9343 70.1874 52.8074C70.2941 53.1082 70.1457 53.603 69.9399 53.8866C69.6221 54.3221 69.1704 54.6676 68.7485 55.016C68.4388 55.271 68.0194 55.515 67.7 55.1646C67.5134 54.9564 67.4777 54.5096 67.5311 54.1986C67.7045 53.1946 67.9392 52.2027 68.1663 51.206C68.2192 50.9796 68.2794 50.7419 68.4053 50.5511C68.4964 50.4071 68.6921 50.324 68.973 50.1145L68.9692 50.1121Z" fill="#29FFD9"/>
<path d="M65.4842 100.906C65.7056 102.09 65.7396 103.135 65.416 104.151C65.1813 104.883 64.4975 105.352 64.0435 105.197C63.6498 105.065 63.3895 104.328 63.5789 103.626C63.8653 102.56 64.2521 101.537 65.4842 100.906Z" fill="#29FFD9"/>
</svg>
