<svg width="120" height="100" viewBox="0 0 120 100" fill="none" xmlns="http://www.w3.org/2000/svg">
<path d="M52.8006 6.71197C53.1111 5.85129 53.3547 5.02598 53.7045 4.2439C54.0621 3.45396 54.07 2.71904 53.398 2.17277C52.7652 1.65793 52.0539 1.18239 51.3032 0.887639C49.743 0.278482 48.0845 0.0583994 46.4143 0.00337878C45.7697 -0.0162714 45.1134 0.050542 44.4846 0.184164C44.2488 0.235254 43.9698 0.553589 43.8951 0.805112C43.7104 1.42999 43.6357 2.09023 43.5021 2.73476C43.2899 3.74478 43.0619 4.75481 42.834 5.80413C41.0576 6.03207 39.3441 6.24822 37.6345 6.4683C34.6123 6.85738 31.5901 7.26611 28.5601 7.62767C27.2553 7.78487 25.9348 7.8281 24.6222 7.95386C23.2073 8.09141 21.7768 8.15823 20.3934 8.44119C17.89 8.95209 16.3651 10.5949 15.6066 12.9843C15.4927 13.3459 15.4377 13.7271 15.3669 14.1005C15.2962 14.4581 15.0879 14.6546 14.7892 14.8865C13.5552 15.8375 12.5176 16.9576 12.6512 18.675C12.8556 21.3317 13.0246 24.0002 13.3704 26.6412C13.563 28.1032 14.07 29.5298 14.4551 30.9643C14.6634 31.7424 15.2765 32.1394 15.9761 32.4027C16.2276 32.497 16.5066 32.5284 16.7621 32.5874C17.1315 33.283 16.9861 34.0965 17.5284 34.745C17.7564 35.0162 17.4773 35.7314 17.3909 36.2345C17.214 37.2524 17.4577 37.9008 18.3891 38.3764C20.303 39.351 22.2484 40.2588 24.1663 41.2217C27.9706 43.1317 31.767 45.0614 35.5673 46.9792C35.6892 47.0421 35.8031 47.1325 35.9328 47.1718C37.1001 47.553 37.6974 48.3547 38.1533 49.518C38.8804 51.3809 39.8118 53.173 40.7943 54.9179C42.5943 58.1091 44.5082 61.2374 46.3592 64.405C47.7348 66.7631 49.0867 69.1368 50.4426 71.5066C50.6116 71.8053 50.7412 72.1276 50.9967 72.6778C49.2203 71.9979 47.719 71.2276 46.1274 70.4966C46.3082 69.9464 46.4496 69.4512 46.6304 68.9718C47.1688 67.5098 46.878 66.5233 45.5379 65.6784C44.3667 64.9395 43.1641 64.2518 41.9458 63.5955C41.4899 63.3479 41.2148 63.0688 41.0458 62.5658C39.9847 59.4414 38.3302 56.6864 35.9643 54.3481C34.8521 53.2477 33.8027 52.104 32.4115 51.3455C32.2661 51.2669 32.1207 51.1293 32.0578 50.98C31.7355 50.249 31.0792 49.9032 30.4268 49.6006C27.6601 48.3312 24.7283 47.6316 21.7179 47.3054C19.1712 47.0303 16.7935 47.6631 14.4669 48.7202C11.3622 50.1351 9.08669 52.4498 7.09415 55.1026C5.65968 57.0087 4.29989 58.9698 3.27415 61.1431C2.4174 62.9627 1.63926 64.802 1.07333 66.7356C-0.361137 71.6481 -0.207863 76.6118 0.656746 81.5676C1.09692 84.0828 1.7375 86.5744 2.79861 88.9246C3.7654 91.0625 5.12521 92.9136 6.70509 94.635C9.44433 97.6218 12.9735 98.848 16.8603 99.2921C18.9315 99.5279 21.0144 99.7126 23.0777 99.2921C25.9623 98.7065 28.9059 98.2192 31.3425 96.3996C33.0049 95.1616 34.6084 93.8372 35.9014 92.1865C36.6402 91.2433 36.9389 90.1508 36.9546 88.9875C36.9625 88.2683 37.1747 87.6866 37.5402 87.0578C38.5699 85.2972 39.5013 83.4815 40.4249 81.6619C40.8454 80.8405 41.1598 79.9641 41.5646 79.017C43.058 79.63 44.5671 80.2235 46.0527 80.8719C47.4164 81.4654 48.7448 82.1492 50.1124 82.7309C50.7727 83.0099 51.4801 83.2064 52.1836 83.3322C52.6198 83.4108 52.8124 83.6151 53.0285 83.9688C53.7242 85.1203 54.408 86.2836 55.2136 87.3565C56.8878 89.5888 59.1083 90.5556 61.934 90.1351C65.2746 89.6359 68.3989 88.6181 71.1736 86.6452C73.0089 85.3365 73.2329 83.8823 72.6198 81.9959C72.101 80.3885 71.3701 78.844 70.6744 77.3035C70.364 76.6157 69.9474 75.9594 69.4915 75.3541C68.8666 74.5288 67.8998 74.3127 66.9409 74.1437C66.7444 74.1083 66.5322 74.1398 66.4536 74.1398C63.7379 68.791 60.9947 63.568 58.0275 58.2781C58.3695 58.3764 58.5974 58.4039 58.786 58.506C61.6353 60.0113 64.4689 61.5361 67.326 63.0217C68.061 63.4029 68.847 63.6937 69.6251 63.9727C70.702 64.3579 71.7827 64.2164 72.7259 63.6426C73.1779 63.3675 73.4294 62.7701 73.8263 62.2474C74.5613 61.9606 75.4416 61.654 76.2944 61.2807C79.1909 60.0113 82.2209 59.1584 85.251 58.2781C90.3522 56.7965 95.5595 55.8218 100.759 54.7843C101.097 54.7175 101.435 54.6349 101.761 54.5131C102.079 54.3991 102.327 54.4227 102.634 54.5996C104.335 55.5703 105.4 54.7057 105.872 53.0315C106.123 52.1354 106.151 51.1804 106.363 50.2726C106.847 48.2211 107.354 46.1696 107.908 44.1378C108.517 41.9016 109.224 39.6929 109.829 37.4567C110.612 34.5799 111.555 31.766 112.683 29.011C113.217 27.6984 113.638 26.3425 114.188 25.0378C114.699 23.8273 115.328 22.668 115.866 21.4693C116.023 21.1156 116.059 20.7069 116.165 20.2785C116.833 19.9719 117.587 19.6379 118.33 19.2803C118.542 19.1781 118.755 19.0287 118.912 18.8519C120.008 17.6336 119.91 16.5371 118.633 15.586C118.031 15.138 117.312 14.8118 116.601 14.5642C114.408 13.7978 112.188 13.114 109.869 12.8586C109.287 12.7957 108.694 12.8232 108.104 12.8193C106.304 12.8153 104.5 12.8743 102.704 12.8035C100.417 12.7171 98.1297 12.5874 95.8542 12.3712C91.5744 11.9664 87.3025 11.5223 83.0344 11.0193C79.0061 10.5438 74.9857 10.0093 70.9731 9.43156C67.2671 8.89708 63.5807 8.24862 59.8825 7.68662C57.5913 7.33685 55.2922 7.05388 52.8045 6.71197H52.8006ZM24.5946 79.7912C24.2449 79.8501 23.8951 79.9091 23.5453 79.968C23.7576 79.7597 23.9894 79.7165 24.2213 79.7126C24.351 79.7126 24.4846 79.7794 24.6143 79.8148C25.4593 79.2292 26.485 79.3156 27.4243 79.0445C27.1885 79.2999 26.9173 79.4768 26.6226 79.5279C25.9505 79.6497 25.2706 79.7086 24.5907 79.7912H24.5946ZM52.2975 8.25255C53.2879 8.52372 54.1054 8.83419 54.9543 8.96389C57.2494 9.31366 59.5524 9.5809 61.8554 9.88351C67.1138 10.5713 72.3801 11.2158 77.6267 11.9625C83.3921 12.7839 89.1496 13.6681 94.97 14.0454C96.1804 14.124 97.3909 14.1987 98.6053 14.2773C98.3459 14.4463 98.0865 14.5446 97.8193 14.5917C92.9735 15.4445 88.1199 16.2659 83.2781 17.1423C80.0751 17.72 76.88 18.3567 73.6849 18.9934C72.4154 19.2449 71.1932 19.6222 70.4072 20.7894C70.3797 20.8326 70.2814 20.8287 70.3247 20.8169C69.4994 20.4946 68.7802 20.1449 68.0217 19.9287C66.3553 19.4532 64.6811 19.0091 62.9912 18.62C55.4966 16.8869 47.9941 15.2087 40.5074 13.4441C36.09 12.4027 31.7041 11.2394 27.3025 10.1311C26.8269 10.0132 26.3514 9.90316 25.8758 9.78526L25.8916 9.56125C31.4644 9.33331 36.9232 8.24469 42.4685 7.3565C42.4685 7.60016 42.4842 7.73378 42.4685 7.8674C42.2523 9.31366 42.7436 9.86386 44.0877 10.3748C45.5575 10.9328 47.1177 11.1097 48.6937 10.9879C50.4268 10.8542 51.9478 10.4023 52.2975 8.26826V8.25255ZM4.83045 76.3995C4.83045 75.6764 4.78722 75.0908 4.83831 74.5092C5.02695 72.4066 5.32957 70.3316 5.88371 68.2801C6.53609 65.8592 7.7151 63.7291 9.11027 61.7051C10.9613 59.017 13.2525 56.71 15.6852 54.5406C17.7092 52.7367 19.969 51.3966 22.6846 50.9171C23.8283 50.7167 24.0798 50.7796 24.6104 51.7857C25.0623 52.6385 25.471 53.5188 25.8601 54.4031C26.5715 56.0144 27.2867 57.6257 27.947 59.2606C28.3989 60.3768 28.7959 61.5165 28.9216 62.8016C28.1199 62.9038 27.3732 62.9902 26.6226 63.0924C24.6339 63.3597 22.6375 63.5955 20.6567 63.9138C18.9511 64.185 18.228 65.0614 18.114 66.8024C18.0904 67.1482 18.0708 67.4941 18.0158 67.836C17.6345 70.1547 17.2494 72.4774 16.8564 74.7961C16.8171 75.024 16.7306 75.2441 16.6717 75.4485C12.7181 75.7668 8.82731 76.0812 4.83045 76.4035V76.3995ZM29.9945 80.5182C29.9513 81.0645 29.9631 81.5165 29.8727 81.9488C29.5583 83.4697 29.2753 85.0024 28.8587 86.4958C28.1199 89.1604 27.1728 91.7542 25.8248 94.1869C25.5889 94.6114 25.3374 94.9533 24.8619 95.0437C23.8794 95.2323 22.8929 95.5114 21.9026 95.5389C18.0433 95.645 14.8442 94.0376 12.0971 91.4713C9.82161 89.3491 8.01379 86.8653 6.83085 83.9727C6.28064 82.6326 5.77367 81.2689 5.3335 79.8894C5.06626 79.0523 4.85796 78.172 4.96014 77.2759C8.80766 77.0087 12.5923 76.7415 16.5302 76.4664C16.3298 77.2249 16.1411 77.9126 15.9643 78.5964C15.5791 80.0899 15.756 80.7265 17.0804 81.6029C17.5599 81.9213 18.2751 82.0392 18.8686 82.0038C20.8022 81.8938 22.7357 81.7287 24.6575 81.4693C26.4025 81.2374 28.1278 80.8562 29.9985 80.5143L29.9945 80.5182ZM48.3871 43.1396C48.9806 41.5125 49.4993 40.0505 50.0417 38.5964C50.9535 36.1519 51.2718 33.6367 51.0203 31.0429C50.9613 30.4337 50.8906 29.8285 50.8198 29.1879C51.7591 29.0346 52.443 29.4944 53.1229 29.8599C53.9442 30.3001 54.7067 30.8542 55.5202 31.3101C55.7206 31.4202 56.1215 31.4438 56.259 31.318C56.4044 31.1844 56.3651 30.8267 56.3534 30.5713C56.3494 30.4494 56.2315 30.3276 56.1529 30.2176C54.8953 28.4451 53.6298 26.6727 52.3801 24.8963C52.2465 24.7076 52.1325 24.464 52.1168 24.24C52.0853 23.7251 52.1325 23.2024 52.1168 22.6837C52.105 22.1571 52.0578 21.6304 52.0224 21.0448C56.7188 22.2946 61.3249 23.5247 66.0409 24.7784C65.6401 26.7041 65.2313 28.6574 64.8108 30.6735C64.5711 30.5556 64.292 30.4377 64.0327 30.2922C62.3781 29.349 60.7314 28.394 59.0769 27.4548C58.7782 27.2858 58.4599 27.1286 58.1297 27.0421C57.5166 26.877 57.1394 27.2622 57.4066 27.8281C57.6856 28.4137 58.0629 28.96 58.452 29.4866C59.0651 30.3198 59.7371 31.1136 60.3541 31.9468C60.5271 32.1826 60.7118 32.5284 60.6725 32.7878C60.5271 33.731 60.2873 34.6625 60.0672 35.6607C59.0022 35.3895 58.0315 35.1419 57.0568 34.8943C55.9407 34.6114 55.4848 34.8943 55.3473 36.0301C55.2018 37.2327 55.1193 38.4432 54.9975 39.6497C54.9268 40.3689 55.1547 40.9898 55.7363 41.3828C56.88 42.1571 58.0511 42.8959 59.2459 43.5915C59.7764 43.8981 60.2205 43.678 60.3463 43.0845C60.4445 42.6169 60.4249 42.1217 60.4327 41.6422C60.4445 40.8562 60.4327 40.0663 60.4327 39.182C62.0008 39.6497 63.4549 40.2274 64.8737 40.9623C64.4886 42.5894 64.0051 44.1181 63.7851 45.6862C63.565 47.2425 63.6004 48.8381 63.5218 50.4652C61.1598 48.9718 58.8568 47.3958 56.4398 46.0164C53.9717 44.6055 51.2246 43.8431 48.3871 43.1474V43.1396ZM80.586 39.6143C80.586 39.9798 80.5742 40.3492 80.586 40.7226C80.7236 44.4994 83.5886 47.219 86.7208 47.7024C87.8134 47.8713 88.9295 47.8792 90.0338 47.9617C90.3011 47.9814 90.5644 47.9971 90.8238 48.0168C90.7609 49.6988 90.698 51.3101 90.6391 52.9568C84.8776 54.3874 79.1555 55.9594 73.4333 58.0109C73.4333 57.2838 73.4373 56.7336 73.4333 56.1834C73.4255 55.2834 73.453 54.3756 73.3862 53.4795C73.1111 49.742 72.9539 46.0006 73.0953 42.2553C73.115 41.7798 73.1818 41.3082 73.2211 40.923C75.7128 40.4829 78.0904 40.0663 80.5899 39.6222L80.586 39.6143ZM36.8878 16.7218C37.3594 16.824 37.831 16.8986 38.2869 17.0362C40.5742 17.724 42.8576 18.4274 45.1409 19.127C45.5693 19.2606 46.0055 19.3824 46.4182 19.5514C47.1924 19.8737 47.2121 19.8894 47.0902 20.7029C46.6972 23.2693 46.3278 25.8434 45.8719 28.398C45.2274 32.0175 44.8187 35.6646 44.5003 39.3274C44.4335 40.0938 44.3313 40.8601 44.2331 41.7208C41.372 39.9444 38.4756 38.5807 35.3983 37.7082C35.7874 34.3088 36.1608 31.0272 36.5459 27.6395C37.0097 27.7809 37.4341 27.9028 37.8546 28.0443C39.1358 28.4687 40.4131 28.9167 41.6982 29.3255C42.3034 29.518 42.6178 29.3608 42.72 28.8106C42.9598 27.5216 43.1916 26.2286 43.3528 24.9277C43.3921 24.6015 43.2466 24.1064 43.0069 23.9256C42.2406 23.3439 41.4113 22.833 40.5624 22.385C40.1065 22.1413 39.7411 22.3378 39.6231 22.8723C39.517 23.3636 39.5642 23.8941 39.5838 24.409C39.5996 24.8138 39.6703 25.2146 39.7332 25.7413C38.5738 25.5172 37.5402 25.3168 36.3809 25.0928C36.5459 22.3339 36.707 19.6222 36.88 16.7257L36.8878 16.7218ZM21.4703 13.2791C21.7375 13.3459 21.9733 13.3852 22.1934 13.4677C24.4964 14.3127 26.7994 15.1655 29.1024 16.0183C29.46 16.1519 29.8059 16.317 30.1714 16.4153C30.7412 16.5685 30.9417 16.9615 30.9456 17.496C30.9456 17.8772 30.9456 18.2584 30.9063 18.6357C30.7766 19.8069 30.6862 20.9859 30.4779 22.1413C29.9316 25.1517 29.7312 28.1818 29.7076 31.2355C29.6998 32.442 29.6094 33.6485 29.5465 35.0515C26.8544 33.4088 23.9619 32.6149 21.148 31.6245C21.1755 31.3062 21.1794 31.0979 21.2148 30.8975C22.1462 25.7688 21.9654 20.6243 21.4821 15.472C21.4152 14.7646 21.2463 14.0454 21.4742 13.283L21.4703 13.2791ZM34.6752 90.0722L34.7813 90.1233C34.5534 90.5359 34.408 91.039 34.0818 91.3455C32.8006 92.556 31.5312 93.7939 30.1321 94.859C28.0334 96.4585 25.4671 96.934 22.948 97.3978C21.7336 97.6218 20.4642 97.6297 19.2262 97.5904C18.0904 97.555 16.9547 97.3467 15.8228 97.1738C13.9207 96.8751 12.1128 96.2777 10.5447 95.1341C8.17098 93.4049 6.53609 91.0429 5.16843 88.5002C3.99728 86.319 3.35668 83.9413 2.86935 81.5243C2.24841 78.4432 2.13051 75.3267 2.31129 72.2062C2.40169 70.6263 2.64534 69.0229 3.07764 67.5019C3.92261 64.5308 5.29027 61.7798 6.99198 59.182C8.70941 56.5607 10.588 54.0847 13.0285 52.1119C15.5123 50.1075 18.338 49.015 21.596 49.349C21.7729 49.3687 21.9497 49.4237 22.158 49.4709C22.0873 49.5848 22.0755 49.6281 22.0519 49.6359C21.7611 49.7342 21.4703 49.8482 21.1716 49.9228C19.1122 50.4337 17.3123 51.4555 15.6852 52.776C12.663 55.2284 9.94738 57.9912 7.75441 61.2139C6.80727 62.609 5.91908 64.0906 5.29813 65.6509C4.55535 67.5059 4.04444 69.4591 3.80471 71.4713C3.38026 74.9808 3.3056 78.4275 4.65753 81.8073C5.36494 83.5758 6.04484 85.3365 7.02735 86.9832C8.90984 90.1311 11.2954 92.7761 14.5102 94.5917C17.3594 96.1991 20.3895 96.993 23.6947 96.4074C26.3475 95.9358 28.7016 94.7764 30.867 93.2634C32.2189 92.3202 33.4137 91.1451 34.6791 90.0722H34.6752ZM60.9869 88.6416C61.2227 86.7867 60.5781 85.2422 59.7332 83.8116C58.8922 82.3889 57.8586 81.0763 56.9193 79.7086C56.6756 79.3549 56.4791 78.9737 56.1961 78.4982C57.2848 78.2427 58.2358 78.058 59.1673 77.8026C61.5371 77.1541 63.899 76.4742 66.261 75.8061C67.1335 75.5585 67.2278 75.5428 67.6522 76.3799C68.6072 78.2545 69.5072 80.1567 70.4072 82.0588C70.5644 82.3929 70.6548 82.7662 70.7177 83.1317C70.8827 84.0749 70.7648 84.9317 69.8766 85.5133C69.5858 85.702 69.3186 85.9221 69.0238 86.1028C67.5697 86.9989 65.9859 87.6002 64.3549 88.0836C63.2977 88.398 62.2406 88.732 60.983 88.6416H60.9869ZM73.2172 39.9287C73.6809 35.4013 74.1447 31.0743 75.3276 26.8377C75.7363 26.9006 76.0114 26.9242 76.2787 26.9871C78.3105 27.4665 80.3306 27.3919 82.3388 26.877C83.2781 26.6373 84.2095 26.374 85.1449 26.1343C85.5536 26.0281 85.9662 25.9535 86.5754 25.8199C84.9759 27.836 83.5807 29.7067 82.5785 31.8564C81.5764 34.0022 81.0301 36.2659 80.6292 38.5925C78.173 39.0366 75.7953 39.461 73.2093 39.9287H73.2172ZM45.5104 52.0175C46.2099 52.3752 47.0824 52.4577 47.5147 53.1926C48.1631 54.293 48.7251 55.4445 49.3107 56.5803C49.6448 57.2249 49.9356 57.889 50.2696 58.5336C51.319 60.5575 52.4154 62.5619 53.4333 64.6015C54.2822 66.3033 55.025 68.0561 55.8542 69.7617C56.3376 70.756 56.9154 71.6992 57.4302 72.6778C58 73.7664 58.5424 74.8708 59.1122 76.0026C58.4402 76.0419 58.4441 76.0419 58.1258 75.4721C57.159 73.7546 56.1922 72.0411 55.2176 70.3276C55.0722 70.0761 54.8796 69.8482 54.7067 69.6124L54.518 69.7224C55.6459 71.9075 56.7778 74.0926 57.9136 76.2974C57.5088 76.5057 57.2494 76.4113 57.0411 76.038C56.0822 74.3166 55.1075 72.6031 54.1486 70.8818C53.3429 69.4394 52.553 67.9893 51.7552 66.543C52.9696 70.1075 55.0093 73.2555 56.876 76.4742C56.2355 76.8751 56.0232 76.5292 55.8189 76.1245C55.1665 74.8275 54.5259 73.5228 53.846 72.2376C52.4626 69.6477 51.0753 67.0578 49.6566 64.4915C48.4225 62.2632 47.1374 60.0584 45.8719 57.8458L45.6597 57.9637C46.3317 59.2331 46.9959 60.5064 47.6719 61.7758C48.3361 63.0256 49.012 64.2714 49.6841 65.5172C50.3758 66.7945 51.0714 68.0679 51.7591 69.3451C52.4312 70.5909 53.06 71.8643 53.7713 73.0865C54.7971 74.8472 55.4966 76.3838 55.4298 77.1698C55.1193 76.7061 54.8717 76.3917 54.6831 76.0458C53.7359 74.3166 52.8163 72.5756 51.8692 70.8464C50.6234 68.5748 49.3893 66.2915 48.0924 64.0474C46.0684 60.5497 43.9894 57.0834 41.9419 53.5935C41.7257 53.2241 41.5724 52.8193 41.2934 52.2298C41.8908 52.6385 42.2406 52.9332 42.6336 53.1415C43.9344 53.8214 44.8855 53.5974 45.3217 52.3241C45.3532 52.2298 45.4278 52.1551 45.5143 52.0175H45.5104ZM29.574 79.0287C29.688 78.5375 29.7705 78.2074 29.8413 77.8772C30.1792 76.2895 30.5133 74.7018 30.8552 73.114C31.2561 71.2669 30.5762 69.9268 28.9374 69.0582C27.4714 68.2801 26.0055 67.498 24.5043 66.7867C23.7654 66.4369 22.948 66.2404 22.1698 65.9692C21.989 65.9063 21.8161 65.8238 21.5214 65.698C21.7611 65.6351 21.8554 65.5998 21.9537 65.588C26.4221 65.0417 30.8945 64.5033 35.363 63.9531C36.876 63.7684 38.3184 63.8863 39.6782 64.6723C40.9672 65.4151 42.3034 66.0753 43.6121 66.7827C45.3925 67.7417 45.3139 67.5373 44.9012 69.5848C44.8894 69.6399 44.8187 69.6831 44.7086 69.801L43.6829 69.3255C43.789 67.8399 43.3881 67.6945 42.1344 67.663C41.7886 67.6552 41.431 67.6513 41.1008 67.7377C38.4205 68.4294 35.7481 69.1525 33.0678 69.8521C32.1639 70.0879 31.7513 70.7167 31.6766 71.5813C31.5508 73.004 31.6059 74.4227 31.9792 75.81C32.2071 76.6629 32.4901 76.8711 33.3901 76.8751C33.9442 76.8751 34.5219 76.8908 35.0407 76.7375C35.8582 76.4978 36.3926 76.8633 37.104 77.3978C34.518 77.9519 32.0971 78.4746 29.5662 79.017L29.574 79.0287ZM91.6727 47.9224C92.0028 47.8281 92.2622 47.7456 92.5294 47.6748C94.522 47.1679 96.2787 46.2168 97.6699 44.7116C99.3913 42.8527 100.861 40.8051 101.808 38.4235C102.201 37.4331 102.622 36.4506 103.07 35.3738C103.899 35.2755 104.72 34.7568 105.675 34.8236C105.691 34.9415 105.727 35.0162 105.707 35.0712C104.461 38.6357 103.714 42.326 102.956 46.0124C102.696 47.2661 102.437 48.5198 102.217 49.7774C102.134 50.249 101.958 50.4927 101.458 50.5988C98.3105 51.263 95.1704 51.9586 92.0303 52.6385C91.767 52.6935 91.4958 52.721 91.0753 52.78C91.2757 51.1333 91.4683 49.5691 91.6727 47.9146V47.9224ZM102.645 31.039C102.622 31.487 102.653 31.9507 102.559 32.383C102.335 33.4284 102.091 34.4738 101.781 35.4996C100.633 39.2842 98.5385 42.4636 95.3866 44.8452C93.5159 46.26 91.3308 46.9674 88.9374 46.4447C87.3929 46.1107 86.0488 45.2854 85.2195 43.9727C84.4414 42.7426 84.1466 41.2453 84.3196 39.7754C84.4807 38.4078 84.7086 37.0087 85.1685 35.7196C85.6754 34.3009 86.4104 32.945 87.1767 31.6363C88.4225 29.5023 89.9277 27.5727 92.0814 26.2364C93.4962 25.36 94.911 24.4718 96.5538 24.1024C98.0551 23.7644 99.3795 23.9649 100.496 25.2421C101.965 26.9242 102.653 28.8303 102.645 31.035V31.039ZM26.4496 94.2616C28.8548 89.8521 30.4504 85.2343 30.8002 80.2353C33.6848 79.5121 36.483 78.8126 39.3834 78.0855C39.3205 78.4432 39.3048 78.675 39.238 78.8951C38.2634 82.1335 36.652 85.0496 34.7145 87.8045C33.3233 89.7813 31.6176 91.4202 29.6172 92.7564C28.6505 93.4009 27.6522 93.9983 26.4496 94.2577V94.2616ZM19.9808 67.8988C20.6842 68.2683 21.2934 68.5905 21.9026 68.9128C23.4589 69.7342 25.0034 70.587 26.5793 71.3691C27.3182 71.7346 27.5343 72.2612 27.4832 73.0394C27.3889 74.4895 27.3496 75.9397 27.3025 77.3938C27.2671 78.4668 27.271 78.5453 26.1509 78.7301C23.8322 79.1152 21.5017 79.4414 19.1751 79.7715C18.6642 79.8423 18.1494 79.7833 17.5874 79.4218C18.3812 75.6096 19.1712 71.7975 19.9808 67.9028V67.8988ZM24.6654 50.8778C29.5347 50.8857 36.8171 56.6314 38.7271 61.9527C37.9175 61.9527 37.0961 61.8977 36.2865 61.9645C35.1154 62.0627 33.9521 62.2553 32.7888 62.4007C31.8063 62.5226 30.8198 62.6326 29.7587 62.7584C29.688 60.699 28.7448 59.0484 28.0413 57.3388C27.44 55.8808 26.8584 54.3913 25.8876 53.1062C25.3728 52.4263 24.8029 51.7739 24.6732 50.8818L24.6654 50.8778ZM74.3451 22.3457L74.3294 22.1492C74.8049 22.0588 75.2765 21.9566 75.7521 21.8741C84.1506 20.4239 92.553 19.0091 100.944 17.5196C104.724 16.8476 108.481 16.0301 112.25 15.2913C112.514 15.2402 112.805 15.2323 113.064 15.2913C113.771 15.4603 114.467 15.6646 115.163 15.8729C115.394 15.9436 115.611 16.0655 115.937 16.207C115.677 16.3131 115.559 16.3917 115.426 16.4153C112.168 17.0676 108.906 17.7161 105.644 18.3606C99.4267 19.5868 93.1897 20.7383 86.992 22.0588C83.3606 22.833 79.7568 23.285 76.0743 22.5501C75.5045 22.4361 74.9189 22.4086 74.3412 22.3418L74.3451 22.3457ZM110.843 21.1863C108.658 25.3443 107.676 29.687 106.009 33.7546C105.125 33.9747 104.265 34.1869 103.302 34.4267C104.206 30.0761 103.844 26.1225 99.9611 23.1474C103.612 22.4911 107.114 21.8584 110.843 21.1863ZM117.78 17.3467C117.328 17.5314 116.935 17.7357 116.515 17.8536C115.579 18.113 114.64 18.3646 113.693 18.5571C109.448 19.4139 105.2 20.2588 100.948 21.092C94.8599 22.2828 88.7959 23.5561 82.8144 25.2107C81.7925 25.4937 80.7 25.6391 79.6428 25.6234C77.3712 25.5919 75.2058 24.9199 73.0521 24.2518C72.8202 24.181 72.6002 24.0749 72.384 23.9609C72.0146 23.7684 71.9478 23.4776 72.0814 23.1396C73.7163 23.3439 75.304 23.4854 76.8682 23.7448C79.8275 24.2321 82.7161 23.9845 85.6204 23.2653C88.7134 22.499 91.8377 21.8544 94.9621 21.2492C102.276 19.8344 109.602 18.4825 116.852 16.7768C117.336 16.6628 117.544 16.8593 117.78 17.3506V17.3467ZM73.6416 26.4054C73.5355 26.9714 73.4648 27.4469 73.3587 27.9146C73.0482 29.2979 72.6513 30.6695 72.4272 32.0647C72.1089 34.0454 71.9281 36.0498 71.6687 38.0423C71.26 41.1785 71.0596 44.3147 71.2993 47.4783C71.429 49.1683 71.5351 50.866 71.6019 52.5599C71.708 55.1891 71.7631 57.8222 71.8535 60.4553C71.877 61.1038 71.9438 61.7483 71.991 62.4047C71.1578 62.5736 70.9653 62.0117 70.8513 61.5322C70.5133 60.0859 70.1478 58.6357 69.9828 57.1659C69.8098 55.6214 69.8216 54.0533 69.8177 52.4931C69.7862 46.0753 70.2579 39.6851 71.0674 33.3223C71.3504 31.09 71.6805 28.8656 71.9949 26.6412C72.0224 26.4487 72.0971 26.264 72.1718 25.9928L73.6377 26.4133L73.6416 26.4054ZM52.3447 55.4917L52.439 55.3463C53.3901 55.814 54.349 56.2698 55.2883 56.7611C55.4494 56.8476 55.5595 57.0676 55.6499 57.2484C56.9154 59.7401 58.169 62.2435 59.4424 64.7312C59.914 65.6509 60.4209 66.5548 60.9397 67.4508C61.8083 68.9443 62.7161 70.4141 63.5768 71.9154C64.0523 72.7446 64.461 73.6092 64.9484 74.5446C64.0405 74.7764 63.2152 74.9847 62.2995 75.2205C61.2227 72.8468 60.1694 70.5241 59.0926 68.1543C59.631 67.4705 59.631 66.7356 59.3009 65.9299C58.9157 64.9985 58.173 64.8216 57.3359 64.8924C55.6499 61.7169 53.9993 58.6082 52.3486 55.4956L52.3447 55.4917ZM52.0067 82.2003C51.5941 82.0117 51.1853 81.8348 50.7884 81.6344C46.5557 79.5004 42.2406 77.555 37.8193 75.8454C37.045 75.5467 36.259 75.2559 35.5438 74.8472C34.4473 74.2223 34.4237 73.2987 35.4927 72.3752C41.0301 74.969 46.5086 77.8222 52.2661 79.8344C52.1757 80.6754 52.0971 81.3829 52.0067 82.2003ZM103.746 53.5738C103.746 52.7918 103.671 52.214 103.758 51.6638C104.072 49.7185 104.437 47.7849 104.787 45.8474C104.984 44.7588 105.121 43.6505 105.42 42.5894C106.3 39.465 107.204 36.3484 108.183 33.2516C109.11 30.3198 110.136 27.4194 111.138 24.5111C111.551 23.3086 112.011 22.1178 112.463 20.8876C113.084 20.7894 113.685 20.699 114.467 20.5772C114.039 21.4143 113.669 22.0745 113.363 22.7584C112.73 24.1771 112.077 25.5919 111.527 27.0421C110.56 29.5927 109.594 32.1472 108.761 34.7411C107.927 37.3388 107.208 39.972 106.544 42.6169C105.785 45.6312 104.807 48.5984 104.461 51.711C104.398 52.2887 104.265 52.8979 103.746 53.5738ZM69.6959 62.1885C54.4394 54.5328 39.3795 46.9792 24.3195 39.4217C24.9641 39.52 25.5772 39.7165 26.1588 39.9877C28.1317 40.9112 30.1046 41.8426 32.0578 42.8055C34.4158 43.9688 36.7424 45.1911 39.1004 46.3583C41.427 47.5098 43.7576 48.6495 46.1077 49.7381C49.5897 51.3534 53.0993 52.9214 56.5931 54.5131C59.3009 55.7472 61.993 57.0126 64.7126 58.2113C66.5125 59.0012 67.8998 60.3571 69.4404 61.5086C69.5544 61.5951 69.5662 61.8191 69.6998 62.1885H69.6959ZM93.4255 24.1496C93.1111 24.4168 93.001 24.5544 92.8556 24.6291C90.0967 26.0596 88.116 28.2919 86.4418 30.8346C84.6261 33.5935 83.451 36.6 83.1248 39.9051C83.0816 40.3453 83.113 40.8051 83.1956 41.2414C83.4392 42.554 83.6279 43.8902 84.4139 45.0417C82.9362 44.1024 82.2366 42.7544 82.1777 41.0488C82.0873 38.4235 82.4292 35.8965 83.455 33.4363C84.7165 30.4259 86.4693 27.777 88.7527 25.4622C88.9099 25.3011 89.1457 25.1753 89.3697 25.1203C90.6391 24.798 91.9163 24.5072 93.4255 24.1457V24.1496ZM53.4648 76.9851L53.2918 77.1345C52.8753 76.9733 52.4508 76.8279 52.0421 76.6432C50.081 75.7668 48.1474 74.8315 46.1627 74.0179C44.2999 73.2555 42.496 72.3909 40.7629 71.3691C40.4092 71.1608 40.0004 70.9486 40.1969 70.4062C40.3816 69.8992 40.865 69.7027 41.4742 69.9032C41.8004 70.0093 42.1266 70.1429 42.4331 70.2962C45.3453 71.7542 48.2575 73.2044 51.3897 74.1516C51.6098 74.2184 51.8731 74.3363 51.9871 74.5131C52.5019 75.3188 52.9735 76.1559 53.4608 76.9812L53.4648 76.9851ZM110.156 14.3913L110.187 14.6782C97.7485 16.993 85.306 19.2606 72.7849 21.1274C73.4294 20.6794 74.184 20.5614 74.915 20.42C80.0476 19.4296 85.1763 18.4196 90.3207 17.4921C95.7717 16.5056 101.234 15.586 106.701 14.6782C107.837 14.4895 109 14.4856 110.152 14.3952L110.156 14.3913ZM101.675 52.8311C91.9753 54.462 82.5039 56.5371 73.5041 60.5222C73.4805 60.2785 73.4412 60.0781 73.4451 59.8776C73.4451 59.6418 73.4884 59.41 73.508 59.1899C73.7242 59.1348 73.8971 59.1034 74.0582 59.0484C81.2659 56.5725 88.6269 54.6546 96.0547 52.9922C97.8114 52.5992 99.5681 52.2219 101.329 51.8446C101.447 51.821 101.576 51.8682 101.745 51.8878C101.722 52.214 101.698 52.4813 101.671 52.835L101.675 52.8311ZM16.8289 31.0154C16.0704 30.9564 15.9328 30.8857 15.7953 30.1193C15.3748 27.8085 14.9189 25.4976 14.6163 23.1671C14.4001 21.5243 14.4158 19.854 14.3097 18.1956C14.2704 17.6021 14.4984 17.2013 15.025 16.9497C15.2647 16.8318 15.4887 16.6825 15.7992 16.5056C16.149 21.4103 16.4909 26.2168 16.8289 31.0154ZM48.6033 9.33331C48.9688 7.47833 49.3146 5.70195 49.6762 3.87448H51.8456C51.8102 4.0867 51.8063 4.29106 51.7473 4.4797C51.3543 5.72553 50.9456 6.96742 50.5526 8.21718C50.2186 9.27829 49.9513 9.45121 48.6033 9.33331ZM57.945 82.4361C56.9743 82.8212 56.1726 83.1396 55.3198 83.4776C53.6731 81.7876 53.8263 80.361 55.5948 78.8991C56.3887 80.0938 57.1826 81.2846 57.945 82.4361ZM20.2362 66.543C20.696 66.7867 21.2187 66.9753 21.6314 67.3015C22.7868 68.2133 24.1034 68.8028 25.42 69.4119C26.202 69.7735 26.9723 70.1626 27.7308 70.5713C28.7605 71.1294 28.7684 71.1883 28.6387 72.3712C28.5404 73.2634 28.4579 74.1594 28.3793 75.0515C28.3243 75.6725 28.2889 76.2974 28.2417 76.9183H28.0413C28.0177 76.4467 27.9666 75.9751 27.9745 75.5074C27.9863 74.7136 27.9784 73.9118 28.0806 73.1258C28.2142 72.0765 27.7387 71.4005 26.8937 70.9289C25.2392 70.0014 23.5689 69.1015 21.9065 68.1897C21.3917 67.9067 20.8808 67.6238 20.3816 67.3172C20.134 67.1679 19.9375 66.9635 20.2362 66.543ZM47.6208 3.57972C47.1806 5.52117 46.7601 7.38007 46.3239 9.3058L45.589 9.10537C45.8444 7.13248 46.0881 5.2382 46.3435 3.24567C46.8702 3.38322 47.2907 3.48933 47.6208 3.57579V3.57972ZM55.1822 66.484C56.1097 66.2246 56.9546 65.9692 57.8153 65.757C58.2594 65.6469 58.6289 66.0006 58.7821 66.598C58.9157 67.1246 58.7978 67.2818 58.2516 67.4862C57.5284 67.7534 56.8171 68.06 56.0114 68.3862C55.7638 67.8203 55.4809 67.1718 55.1822 66.488V66.484ZM45.923 3.05703C45.5143 5.10065 45.1331 7.00279 44.7519 8.90494C43.9187 8.66127 43.8479 8.5866 43.9816 7.81238C44.1938 6.59014 44.4492 5.37575 44.6615 4.15744C44.7479 3.66225 44.7754 3.15921 44.8383 2.56577L45.9191 3.06095L45.923 3.05703ZM49.3146 3.83911C48.3754 5.61942 48.5208 7.58444 47.9706 9.3844C47.7859 9.39619 47.6483 9.41584 47.5147 9.40405C47.4204 9.39619 47.3339 9.33331 47.157 9.26257C47.4361 7.41151 47.6129 5.54474 48.116 3.66225C48.5522 3.72513 48.9099 3.78016 49.3146 3.83911ZM56.3337 84.2557C56.1765 83.7094 56.4791 83.4383 56.9271 83.3479C57.218 83.2889 57.5559 83.2928 57.835 83.3872C58.7035 83.6701 59.5013 84.9002 59.4659 85.812C59.4306 86.7277 58.7664 87.1364 57.9804 86.6963C57.0254 86.1579 56.3651 85.4072 56.3337 84.2596V84.2557ZM50.7098 56.2109L50.9142 56.1126C52.5255 58.0384 55.528 63.6662 55.4534 64.7155C55.2687 64.5583 55.0682 64.464 54.9857 64.3107C53.5512 61.6147 52.1325 58.9148 50.7098 56.2148V56.2109ZM45.3217 1.60291C47.4715 1.42606 51.1618 2.33783 51.7159 3.15135C49.4915 3.17493 47.4007 2.8566 45.3217 1.60291ZM19.5838 34.9729C20.134 35.7707 20.5664 36.5253 21.1244 37.162C21.6825 37.8026 22.3702 38.3253 22.9833 38.8833C22.9558 38.8833 22.8811 38.8991 22.8261 38.8715C21.9497 38.4785 21.0615 38.0973 20.1969 37.6768C18.566 36.8869 18.5306 36.7179 19.5838 34.969V34.9729ZM44.6851 51.6206C44.3667 52.4931 44.1506 52.7053 43.6868 52.6385C42.6807 52.497 41.5725 51.2158 41.5174 50.1429C42.5471 50.6263 43.5846 51.1097 44.6851 51.6206ZM60.2755 74.1869L60.0555 74.3048L56.9939 69.5023C57.3319 69.4316 57.6896 69.353 58.1101 69.2626C58.8529 70.9525 59.5642 72.5678 60.2755 74.183V74.1869ZM60.2048 87.0696C60.0948 87.6788 60.0201 88.0836 59.9179 88.6416C59.4306 88.3705 59.1005 88.1897 58.6564 87.9421L60.2009 87.0696H60.2048ZM22.7357 79.9995V80.0702H22.1423V79.9995H22.7357Z" fill="#29FFD9"/>
<path d="M7.42064 79.4612C7.18484 80.369 7.48352 81.1786 7.80186 81.9568C8.93764 84.7392 10.7022 87.1287 12.5847 89.4435C13.7716 90.9055 15.0607 92.2378 16.668 93.2439C18.1222 94.1517 19.647 94.8198 21.616 94.8434C20.8771 94.5526 20.3505 94.2892 19.7885 94.136C17.6859 93.5661 15.9174 92.4382 14.4476 90.8819C12.3253 88.6418 10.4428 86.1973 8.95336 83.4934C8.37564 82.4441 8.07696 81.2454 7.65251 80.1096C7.56998 79.8935 7.49924 79.6773 7.42064 79.4612Z" fill="#29FFD9"/>
<path d="M11.9485 85.2697C12.1686 86.5744 12.8564 87.4233 13.5206 88.2133C15.069 90.0447 16.9161 91.5459 19.0698 92.6424C20.2881 93.2594 21.5614 93.5463 22.988 93.1848C17.9379 92.5127 14.6367 89.4905 11.9485 85.2736V85.2697Z" fill="#29FFD9"/>
<path d="M22.2286 91.4869C20.1496 90.862 18.2043 90.0053 16.4004 88.7477C16.8288 89.9503 20.1064 91.4869 22.2286 91.4869Z" fill="#29FFD9"/>
<path d="M22.5035 89.8989C21.6743 89.4666 21.0455 89.1404 20.4128 88.8142C20.7311 89.4745 21.0534 89.6277 22.5035 89.8989Z" fill="#29FFD9"/>
<path d="M22.3984 88.5236C22.6538 89.1131 23.1254 89.1681 23.7424 89.0305C23.2472 88.8419 22.8228 88.6808 22.3984 88.5236Z" fill="#29FFD9"/>
<path d="M38.8487 31.121C38.6679 32.3668 38.4321 33.5694 38.3339 34.7799C38.271 35.5659 38.7544 36.0139 39.4068 36.006C39.8862 36.0021 40.2282 35.7899 40.2557 35.2947C40.3146 34.1943 40.3657 33.0939 40.3461 31.9935C40.3421 31.7655 40.0552 31.4747 39.8234 31.3371C39.5797 31.1917 39.2456 31.1996 38.8526 31.1171L38.8487 31.121Z" fill="#29FFD9"/>
<path d="M23.887 24.0284C23.887 24.9952 23.8555 25.9659 23.8948 26.9327C23.9341 27.8209 24.2014 28.0882 25.0503 28.2729C25.8441 28.4419 26.2136 28.1825 26.304 27.3532C26.524 25.3057 26.4219 23.2464 26.5437 21.1909C26.6066 20.0945 25.797 19.4853 24.7005 19.7015C24.5079 19.7408 24.2564 19.9412 24.1975 20.122C24.0599 20.5425 23.9695 20.9944 23.9538 21.4346C23.9184 22.2992 23.942 23.1638 23.942 24.0284H23.8909H23.887Z" fill="#29FFD9"/>
<path d="M61.1081 83.399C62.3579 83.6073 68.0015 81.9764 69.3141 81.0842C67.7106 80.9899 62.1614 82.5226 61.1081 83.399Z" fill="#29FFD9"/>
<path d="M69.7086 82.9547C67.3506 83.0215 63.0432 84.3695 62.1079 85.3717C63.5934 85.2224 64.8039 84.6525 66.0576 84.2909C67.3034 83.9333 68.6121 83.7211 69.7125 82.9547H69.7086Z" fill="#29FFD9"/>
<path d="M69.9039 84.3462C67.2236 84.8296 64.8774 86.2641 62.2757 86.9911C63.3918 87.2977 68.1865 85.6431 69.9039 84.3462Z" fill="#29FFD9"/>
<path d="M100.421 31.302C100.366 29.7143 100.079 28.2012 99.1559 26.865C98.6018 26.0633 97.9101 25.7921 96.8765 25.7764C93.7717 25.7332 91.7674 27.5528 89.991 29.675C88.0614 31.9819 86.7448 34.6544 86.0728 37.6098C85.7898 38.8634 85.6248 40.1328 85.8841 41.4219C86.2261 43.1236 87.4051 44.2044 89.1461 44.3969C91.5277 44.6563 93.5713 43.831 95.4459 42.4516C97.2263 41.1389 98.3738 39.3586 99.2817 37.374C100.17 35.4325 100.39 33.3889 100.421 31.306V31.302ZM95.7132 27.0851C96.0944 27.5292 96.5228 27.8947 96.7782 28.3584C97.0612 28.8654 97.2695 29.4431 97.3599 30.0169C97.7647 32.5557 97.3874 35.0356 96.2477 37.2993C94.9429 39.8892 92.8521 41.807 90.2779 43.1668C90.16 43.2297 90.0186 43.2651 89.8849 43.2769C88.9142 43.3398 87.295 42.7817 87.1693 41.3865C87.0985 40.6005 86.9767 39.7791 87.126 39.0206C87.3618 37.8102 87.7588 36.6194 88.1714 35.4522C89.0203 33.0627 90.4351 31.023 92.2351 29.2545C93.2019 28.3034 94.2551 27.4584 95.7132 27.089V27.0851Z" fill="#29FFD9"/>
<path d="M56.8359 84.8847C57.0717 85.2384 57.2132 85.5488 57.4411 85.7689C57.7712 86.0873 58.1957 86.1226 58.5533 85.8082C58.8992 85.5056 58.7656 85.1126 58.6123 84.7668C58.5494 84.6174 58.4158 84.4759 58.2782 84.3895C58.0031 84.2205 57.6101 83.9061 57.4333 83.9925C57.17 84.1222 57.0481 84.5467 56.8359 84.8925V84.8847ZM57.3979 84.5821L57.6023 84.417L58.011 85.0812L57.842 85.1912L57.3979 84.586V84.5821Z" fill="#29FFD9"/>
<path d="M94.3566 30.068C93.8889 30.2606 93.3859 30.3942 92.9614 30.6575C91.2558 31.7186 89.9314 35.2242 90.5445 37.1067C90.7606 37.7748 90.9807 38.4704 91.7235 38.7023C92.1597 38.8359 92.6903 38.9145 93.1147 38.7966C94.223 38.4901 95.0326 37.763 95.5592 36.7176C96.2823 35.2871 96.3491 33.719 96.4945 32.1863C96.5967 31.1134 95.5317 30.2055 94.3566 30.0719V30.068ZM93.8182 35.0434L93.6846 34.9963C93.7042 34.8823 93.7042 34.7565 93.7553 34.6583C93.8025 34.5679 93.9007 34.505 93.9793 34.4303L94.0972 34.5247L93.8182 35.0434Z" fill="#29FFD9"/>
</svg>
