<svg width="60" height="61" viewBox="0 0 60 61" fill="none" xmlns="http://www.w3.org/2000/svg">
<path d="M19.9306 18.4475C19.9306 18.1879 19.9429 18.0396 19.9306 17.8995C19.465 13.8202 23.7626 11.8877 26.7087 12.9179C26.9148 12.9879 27.129 13.0497 27.3144 13.161C27.8171 13.4576 28.2663 13.503 28.839 13.2351C29.214 13.0621 29.7867 13.0827 30.1864 13.2351C31.7563 13.8367 32.5763 15.0811 32.7905 16.7087C33.1408 19.3499 31.5791 22.02 29.0904 22.9924C28.0314 23.4045 26.993 23.6146 25.9176 22.774C25.4438 22.4032 24.6155 22.4815 23.8945 22.3496C24.2983 23.7629 25.5591 24.7148 27.0961 24.8178C30.6932 25.0526 34.5912 22.7905 35.6419 19.3417C35.6955 19.1686 35.7738 19.0038 35.8109 18.8266C36.054 17.6811 36.1281 17.5039 37.253 17.4669C39.3586 17.3927 41.4724 17.335 43.5656 17.5081C44.4762 17.5822 45.4074 18.1385 46.1986 18.6742C46.6024 18.9502 46.8496 19.6425 46.9238 20.1781C47.0268 20.9198 46.9856 21.7109 46.8578 22.4526C46.3139 25.6007 45.7206 28.7405 45.1396 31.8803C44.435 35.6999 43.6974 39.5114 43.0217 43.3393C42.6879 45.2347 42.5066 47.1548 42.1687 49.0503C41.5218 52.6928 40.8172 56.327 40.1332 59.9654C40.1085 60.1014 40.0137 60.2209 39.9396 60.3857H6.44426C6.38245 59.0177 6.46898 57.6826 6.72857 56.3806C7.43317 52.8864 7.94823 49.3675 8.37676 45.8363C8.67755 43.3517 9.02368 40.867 9.32448 38.3824C9.40277 37.7354 9.3904 37.0762 9.43572 36.4251C9.58406 34.3979 9.74475 32.3706 9.89309 30.3433C10.0332 28.4974 10.1609 26.6473 10.3051 24.8013C10.3381 24.4057 10.4205 24.0102 10.4864 23.6187C10.7213 22.2342 11.5742 21.3854 12.9134 21.1629C14.6275 20.8745 16.3664 20.6973 18.1011 20.5407C18.9952 20.4583 19.9017 20.5284 20.87 20.5284C20.6063 19.6425 20.1366 19.3005 19.3166 19.3664C17.4047 19.523 15.4722 19.4282 13.585 19.9144C12.8145 20.1122 12.0028 20.1246 11.2116 20.2605C10.0043 20.4624 9.55522 20.8786 9.42749 22.0859C9.13081 24.9043 8.86298 27.7268 8.62812 30.5494C8.30672 34.3896 8.05124 38.234 7.70512 42.0702C7.56915 43.5865 7.25599 45.0822 7.03761 46.5903C6.46486 50.5089 5.90449 54.4275 5.31938 58.3419C5.24109 58.8776 5.07214 59.4009 4.92793 59.9283C4.81256 60.3527 4.55297 60.5299 4.01318 60.295C4.10383 59.3968 4.16152 58.4614 4.2975 57.5384C4.8414 53.8012 5.31113 50.0515 5.991 46.339C6.76565 42.1402 6.92224 37.8961 7.24776 33.6603C7.47438 30.6894 7.78341 27.7268 8.05536 24.756C8.12953 23.9236 8.15013 23.0831 8.26962 22.259C8.52509 20.5078 9.14316 19.8403 10.8326 19.4488C13.6592 18.7978 16.4941 18.1797 19.4279 18.497C19.5638 18.5135 19.7039 18.4764 19.9264 18.4599L19.9306 18.4475ZM22.3575 33.4666C23.1857 34.0806 24.0181 34.6904 24.9575 35.3868C25.2789 32.9104 25.4891 30.5164 25.3613 27.8463C24.1293 29.6552 23.0621 31.2292 21.9949 32.7991C22.1062 32.9969 22.238 33.24 22.3699 33.4831C22.135 33.3307 21.9043 33.1741 21.6323 32.9969C20.5116 34.1506 19.638 35.4198 18.8757 36.7713C18.6573 37.1586 18.6821 37.5212 18.9828 37.8549C18.8304 37.7354 18.6738 37.6118 18.373 37.377C17.7838 38.8109 17.2028 40.113 16.7125 41.4521C16.4941 42.0496 16.4117 42.713 16.7537 43.331C16.56 43.8543 16.5724 44.1922 16.9638 44.8433C18.1382 46.8087 19.4237 48.6877 21.0802 50.2947C21.8631 51.0528 22.6212 51.8316 23.4989 52.7092C23.5607 51.7121 23.6184 50.8221 23.6678 50.0268C23.0621 49.4829 22.5182 49.0585 22.0485 48.5641C20.528 46.9735 19.0323 45.3542 17.5242 43.7513C19.5268 45.4366 21.5334 47.1219 23.6596 48.9143C23.7214 48.4775 23.7873 48.1438 23.8162 47.8018C23.9315 46.4338 23.9521 45.0493 24.1705 43.7019C24.3024 42.8902 24.0387 42.4245 23.4618 41.9507C22.2669 40.9659 21.1131 39.9317 19.9429 38.918C20.4044 39.1941 20.8783 39.4496 21.3192 39.7504C22.2916 40.4138 23.2475 41.0978 24.2653 41.8106C24.4672 39.8616 24.665 38.0033 24.8422 36.2974C23.9645 35.3085 23.161 34.3979 22.3534 33.4873L22.3575 33.4666ZM28.2622 34.4061L25.5262 36.796C25.419 38.2258 25.3036 39.7174 25.1759 41.3903C25.9753 40.8547 26.5934 40.4344 27.2197 40.0223C27.8542 39.6061 28.497 39.2065 29.1357 38.7985C28.0973 39.9111 26.9807 40.8835 25.8022 41.79C25.3284 42.1526 25.0729 42.5482 25.0358 43.1292C24.9575 44.3241 24.8669 45.5149 24.7515 46.7057C24.6732 47.5174 24.5455 48.3251 24.4054 49.3634C25.0523 48.8319 25.4973 48.4157 25.9835 48.0737C27.1702 47.2414 28.3734 46.4379 29.5725 45.622C30.1081 45.2594 30.6397 44.8968 31.1753 44.5342C30.6108 45.0864 30.0834 45.6756 29.4777 46.1783C27.9737 47.4227 26.4285 48.6259 24.9081 49.8538C24.1952 50.4306 24.1046 50.8674 24.4837 51.9717C24.9699 51.5555 25.419 51.1517 25.8846 50.7726C27.0672 49.8208 28.3363 48.9555 29.4241 47.9048C30.3512 47.0106 31.1712 45.9599 31.1712 44.5383C31.2248 44.0769 31.3154 43.6154 31.3195 43.1497C31.3525 40.8052 30.7056 38.5719 30.1205 36.3345C29.9392 35.6422 29.6343 34.9747 29.3417 34.3155C29.2758 34.163 29.0327 34.0888 28.872 33.9776C29.1687 33.7015 29.0862 33.3925 28.942 33.0834C28.1056 31.2869 27.2732 29.4863 26.4244 27.6939C26.3791 27.5991 26.2184 27.562 25.9876 27.4219C25.9876 27.9493 26.0082 28.3408 25.9876 28.7281C25.93 29.7005 25.8846 30.673 25.7693 31.6413C25.7198 32.0492 25.3943 32.4365 25.3984 32.8362C25.4025 33.7922 25.5262 34.7522 25.6086 35.7741C26.5645 35.2797 27.4133 34.8429 28.2622 34.4061ZM25.7816 21.4431C27.059 21.4431 27.8542 21.2742 28.4146 20.8456C30.7715 19.0409 30.5284 15.9753 28.2828 14.3394C26.7911 13.2475 24.9081 13.0827 23.0951 13.9233C20.1737 15.283 20.3302 18.8884 22.4523 20.3265C23.5566 21.0764 24.7268 21.4101 25.7816 21.4431ZM45.9019 19.6136C45.8689 18.8843 45.2673 18.806 44.6863 18.7401C43.9282 18.6536 43.1659 18.5711 42.4077 18.5547C40.809 18.5176 39.2102 18.5176 37.6074 18.5217C37.3231 18.5217 37.0099 18.5753 36.7668 18.7071C36.6102 18.7936 36.5567 19.0656 36.4413 19.284C39.6759 19.3994 42.7827 19.5065 45.906 19.6177L45.9019 19.6136ZM22.6377 56.6196C23.2146 55.8326 23.4618 53.9866 23.1404 53.4097C22.9674 54.514 22.8025 55.5647 22.6377 56.6196Z" fill="#29FFD9"/>
<path d="M24.8423 9.63366C23.7833 9.10624 22.9469 8.68184 22.1063 8.26979C21.9127 8.17502 21.6943 8.12557 21.5006 8.02668C20.8207 7.67644 20.7754 7.08722 21.4347 6.71637C21.8385 6.48975 22.3165 6.39086 22.7615 6.2384C23.0334 6.14363 23.3054 6.0571 23.6639 5.94172C23.3383 5.0311 23.0375 4.14932 22.712 3.27578C22.3453 2.29511 22.4813 1.94898 23.4784 1.69763C25.72 1.12489 27.9698 0.585107 30.3514 0C30.5327 1.56166 29.7457 2.94201 29.6509 4.49131C30.0382 4.46247 30.3926 4.42538 30.747 4.41302C31.0354 4.40478 31.3362 4.38006 31.6123 4.44599C32.2303 4.59021 32.3828 5.00226 31.9419 5.46787C31.1961 6.259 30.3802 6.98833 29.6138 7.75885C29.1606 8.20798 28.7403 8.69007 28.1387 9.33286C29.1564 9.24633 29.9105 9.11448 30.6563 9.13097C33.3799 9.19689 36.1036 9.31638 38.8272 9.41115C40.7514 9.4812 42.6757 9.55125 44.6 9.60894C46.7426 9.67075 48.8894 9.71607 51.032 9.77376C52.6184 9.81496 53.8999 10.4866 54.8929 11.7145C55.9889 13.0701 57.085 14.4175 58.1769 15.7773C59.207 17.0629 59.6397 18.4968 59.3307 20.1532C58.9845 22.0074 58.6879 23.8699 58.3953 25.7323C58.2758 26.4823 58.317 27.2652 58.1357 27.9986C57.1921 31.8718 56.9449 35.8151 56.7677 39.779C56.7224 40.7885 56.4875 41.7898 56.3351 42.7952C56.1661 43.9077 56.026 45.0285 55.82 46.1328C55.5068 47.8057 55.0824 49.4621 54.8229 51.1433C54.4809 53.3684 54.2542 55.6099 53.9782 57.8432C53.8752 58.6673 53.7721 59.4872 53.665 60.369H51.3122C51.4111 59.4131 51.4688 58.5189 51.6006 57.633C51.819 56.162 52.0828 54.6992 52.3341 53.2365C52.7544 50.8054 53.2241 48.3826 53.6032 45.9432C54.1224 42.6098 54.6704 39.2804 54.8641 35.8975C55.0371 32.8566 55.4492 29.8281 55.8365 26.8037C56.1208 24.5745 56.5328 22.3577 56.8996 20.1367C57.0561 19.2055 56.9655 18.3485 56.3886 17.5491C55.9931 17.0052 55.7129 16.3748 55.375 15.7732C55.2267 15.8885 55.1319 15.9256 55.1278 15.9709C54.9629 18.1795 54.8105 20.3881 54.6457 22.5967C54.6004 23.1735 54.4932 23.7504 54.4561 24.3273C54.4026 25.1884 54.0729 26.0455 54.6374 26.9067C54.8641 27.2569 54.8394 27.8214 54.8105 28.2829C54.7116 29.9517 54.5674 31.6164 54.4314 33.2811C54.3531 34.2576 53.9823 35.0405 52.878 35.3536C52.5236 38.0114 52.1198 40.6649 51.8355 43.335C51.5759 45.7908 51.3122 48.259 51.3122 50.723C51.3122 52.3011 50.8878 53.7021 50.4593 55.1608C50.1296 56.2692 50.0308 57.4435 49.8083 58.5807C49.7135 59.0793 49.5981 59.5779 49.4333 60.0559C49.3715 60.2331 49.1284 60.3484 48.8523 60.4308C48.7452 59.3059 48.9265 58.247 49.1737 57.2127C49.5445 55.6634 49.9937 54.1347 50.4057 52.5937C50.4428 52.4536 50.4675 52.3094 50.4799 52.1652C50.69 49.1243 50.826 46.0792 51.1309 43.0507C51.3369 40.9987 51.7737 38.9714 52.1075 36.9318C52.1775 36.5033 52.2805 36.0747 52.3053 35.6421C52.3217 35.3825 52.3053 35.0487 52.1569 34.8592C51.8355 34.443 51.7902 34.0104 51.8273 33.5242C51.9715 31.5669 52.1281 29.6097 52.2393 27.6525C52.2929 26.7213 52.5484 26.0002 53.6897 25.9136C53.8463 24.2655 53.9823 22.6461 54.1553 21.0309C54.3119 19.5516 54.4396 18.0642 54.7157 16.6055C54.9217 15.5012 54.9217 14.5288 54.1018 13.6676C53.9122 13.4698 53.801 13.1979 53.5208 12.7405C53.3683 14.2033 53.2488 15.4229 53.117 16.6385C52.7255 20.215 52.3629 23.7916 51.9179 27.3599C51.5801 30.063 51.2092 32.7619 50.723 35.4402C50.2739 37.9372 49.6393 40.4012 49.1201 42.8859C48.8234 44.3074 48.568 45.7372 48.3372 47.1753C47.8716 50.0802 47.4513 52.9934 46.9857 55.8942C46.7797 57.1839 46.4954 58.4571 46.2523 59.7427C46.1616 60.2331 45.9845 60.5874 45.3252 60.3443C45.115 59.446 45.2428 58.5231 45.4076 57.6001C45.7908 55.4945 46.1946 53.3889 46.5572 51.2793C47.0063 48.6669 47.3607 46.038 47.8592 43.438C48.296 41.1594 48.9429 38.922 49.3797 36.6433C49.7711 34.612 50.0143 32.5517 50.2986 30.5038C50.6859 27.6978 51.065 24.8918 51.4235 22.0816C51.8314 18.913 52.2187 15.7402 52.6019 12.5674C52.7255 11.5538 52.5854 11.3272 51.5182 11.2736C50.0678 11.1994 48.6133 11.183 47.1629 11.2613C44.4722 11.4055 41.7898 11.2612 39.0991 11.1994C34.6325 11.1005 30.1577 11.1665 25.6911 11.2901C23.5073 11.3519 21.41 12.0812 19.3085 12.6499C17.1906 13.2226 15.0356 13.4863 12.8435 13.511C11.7887 13.5234 10.7379 13.5976 9.68311 13.6223C8.6159 13.647 7.70116 14.1044 6.88943 14.7266C6.57627 14.9656 6.31255 15.4147 6.25075 15.802C5.97055 17.6315 5.65329 19.4651 5.56264 21.3111C5.2948 26.6842 5.15058 32.0614 4.89923 37.4304C4.82919 38.9508 4.52015 40.4548 4.38417 41.9752C4.22348 43.747 4.07927 45.5271 4.02982 47.303C3.94329 50.517 3.45708 53.6691 2.66595 56.7718C2.35691 57.9915 1.89953 59.1741 1.50397 60.3855H0C0.111253 59.5738 0.1813 58.8238 0.321396 58.0904C0.960069 54.7734 1.53694 51.4564 1.64819 48.0612C1.70587 46.2894 1.96547 44.5093 2.31983 42.7705C2.88021 40.0057 2.95849 37.212 3.02854 34.4183C3.16039 29.1853 3.2428 23.9523 3.3417 18.7193C3.37878 16.8033 3.9062 15.0603 5.15882 13.5893C5.4761 13.2185 5.89227 12.8311 6.33729 12.6828C7.26027 12.382 8.22857 12.0936 9.18864 12.0606C14.4052 11.867 19.531 11.1088 24.8299 9.65015L24.8423 9.63366ZM23.6639 2.77308C23.977 3.60954 24.2572 4.38418 24.5621 5.15059C25.0071 6.27136 24.797 6.72873 23.635 7.09958C23.3589 7.19023 23.0829 7.28088 22.7409 7.39625C24.0924 8.14206 25.3162 8.81781 26.5688 9.51005C27.7761 8.24095 28.9628 6.99656 30.2855 5.61208C29.8899 5.61208 29.688 5.61208 29.4902 5.61208C28.4724 5.60796 28.3571 5.42255 28.6785 4.45012C29.0163 3.42824 29.2718 2.38575 29.3501 1.31031C27.4341 1.80476 25.5881 2.27863 23.6639 2.77308ZM52.742 34.167L53.117 34.1917C53.1953 33.9403 53.3107 33.6931 53.3395 33.4376C53.562 31.4227 53.768 29.4037 53.9576 27.3846C53.9699 27.2569 53.8298 27.0221 53.7227 26.9932C53.3642 26.8984 53.3271 27.1951 53.2942 27.4506C53.0675 29.3213 52.8368 31.1879 52.6349 33.0627C52.5978 33.4253 52.7008 33.8002 52.7379 34.1711L52.742 34.167Z" fill="#29FFD9"/>
<path d="M40.834 13.2593C41.4479 13.2593 42.066 13.251 42.6799 13.2593C42.9684 13.2634 43.265 13.2675 43.5411 13.3376C43.9614 13.4447 44.4435 13.5807 44.427 14.1287C44.4105 14.6438 44.0521 14.9899 43.5782 15.1423C43.3104 15.2289 43.0055 15.1959 42.717 15.2041C41.2707 15.2495 39.8245 15.2989 38.3741 15.3319C37.9785 15.3401 37.5664 15.3484 37.1915 15.2577C36.9525 15.2 36.6146 14.9734 36.5858 14.7839C36.5446 14.5037 36.6517 14.0545 36.8536 13.9227C37.2945 13.6384 37.8219 13.4035 38.337 13.3458C39.1569 13.2552 39.9975 13.3211 40.8299 13.3211V13.2593H40.834ZM42.9684 14.3018V14.1864H37.8178V14.3018H42.9684Z" fill="#29FFD9"/>
<path d="M16.6425 14.7175C17.1287 14.7711 17.549 14.8494 17.6685 15.3933C17.7715 15.8589 17.3924 16.3657 16.8156 16.4564C15.7401 16.6212 14.6564 16.7242 13.5769 16.8684C13.0742 16.9343 12.5756 17.0662 12.0729 17.1033C11.7227 17.128 11.3353 17.1074 11.0263 16.9714C10.8162 16.8808 10.6143 16.5594 10.5854 16.3245C10.5648 16.1515 10.8162 15.9207 10.9851 15.76C11.0799 15.6694 11.2488 15.6488 11.393 15.624C13.1401 15.3191 14.8913 15.0224 16.6384 14.7217L16.6425 14.7175ZM13.7788 15.9166L13.7458 16.0608C13.9972 16.0484 14.2485 16.032 14.4999 16.0196L14.4875 15.9166H13.7788ZM16.2634 15.7971V15.727H15.4476V15.7971H16.2634Z" fill="#29FFD9"/>
<path d="M23.6422 18.5378C22.781 18.546 22.1876 17.965 22.1959 17.1203C22.2041 16.255 22.8758 15.5298 23.6669 15.534C24.2438 15.534 25.1214 16.5064 25.1379 17.1657C25.1585 17.9527 24.5281 18.5295 23.6422 18.5378ZM24.0748 16.2756C23.4032 16.2262 23.0653 16.4693 23.0612 16.9802C23.0612 17.1821 23.3208 17.4582 23.5268 17.5612C23.6257 17.6107 23.9842 17.3676 24.0501 17.1904C24.1449 16.9431 24.0748 16.6341 24.0748 16.2756Z" fill="#29FFD9"/>
</svg>
