<svg width="61" height="71" viewBox="0 0 61 71" fill="none" xmlns="http://www.w3.org/2000/svg">
<path d="M40.1879 25.2399C42.0969 29.4727 44.0951 33.6675 45.8894 37.9464C47.3156 41.3433 48.5018 44.8413 49.774 48.3028C49.9152 48.6837 49.8982 49.12 49.9911 49.5236C50.2949 50.8193 49.849 51.7877 48.7598 52.4831C47.2732 53.4315 45.8482 54.5038 44.2856 55.3052C41.6608 56.6553 39.1855 58.2224 36.776 59.9225C36.0148 60.4609 35.1188 60.8054 34.2707 61.2131C34.0652 61.3092 33.8098 61.3615 33.5859 61.3396C32.6501 61.2445 31.7066 61.1567 30.7833 60.9701C30.4869 60.9112 30.1598 60.6134 29.9894 60.3356C28.8782 58.542 27.7445 56.7552 26.7333 54.9075C25.2632 52.2202 23.8976 49.4728 22.464 46.761C21.5301 45 20.5281 43.2746 19.6064 41.5079C18.1848 38.7905 16.8116 36.0504 15.4112 33.3231C13.8888 30.3585 12.3165 27.421 10.841 24.4307C9.6994 22.115 9.91577 21.5222 11.7742 19.9195C14.1677 17.8543 16.8643 16.2248 19.4942 14.4997C21.341 13.2898 23.1703 12.0583 25.0475 10.8976C26.0452 10.2821 27.1253 9.79572 28.1692 9.25549C29.5052 8.56008 30.7262 8.8161 31.8729 9.73261C32.314 10.0851 32.7598 10.4242 33.2133 10.756C33.7831 11.1712 34.0847 11.7454 34.3533 12.3908C34.9004 13.7106 35.5517 14.9854 36.1321 16.2897C37.4639 19.28 38.7776 22.2788 40.1004 25.2734L40.185 25.2338L40.1879 25.2399ZM21.4934 15.4907C23.1838 13.9778 25.0553 12.9388 27.0321 12.0779C28.0515 11.6348 28.6889 11.8322 29.3011 12.7714C29.4617 13.0204 29.598 13.2882 29.7177 13.56C30.4374 15.1939 31.1421 16.8348 31.8679 18.4659C33.1171 21.2639 34.4071 24.0466 35.6322 26.8559C37.202 30.4576 38.7265 34.0805 40.2677 37.6919C40.3844 37.9651 40.5055 38.24 40.5801 38.5254C41.336 41.379 42.3317 44.1466 43.5247 46.848C43.9538 47.8207 44.2768 48.8504 44.5581 49.8774C44.8391 50.9118 44.7001 51.2525 43.7875 51.8058C42.8325 52.3864 41.8198 52.8673 40.8446 53.4127C39.8194 53.9851 38.7811 54.5451 37.7891 55.1728C36.0494 56.273 34.3487 57.4332 32.6119 58.5395C31.6183 59.1717 31.1084 59.0264 30.5156 58.0185C30.0324 57.1978 29.5734 56.3657 29.0993 55.5407C28.4608 54.435 27.8178 53.3277 27.1793 52.222C26.9558 51.8385 26.7248 51.4548 26.5225 51.0615C26.1552 50.3467 25.8378 49.6049 25.4507 48.9031C23.9816 46.2414 22.6469 43.5206 21.4469 40.7256C21.0582 39.8234 20.6562 38.9163 20.1402 38.0885C18.8165 35.9585 17.7104 33.7268 16.6591 31.4545C16.0006 30.0304 15.1412 28.6965 14.3936 27.3102C13.8028 26.212 13.1985 25.1164 12.6818 23.9798C12.218 22.9563 12.2629 21.9259 13.1184 21.1087C13.7126 20.5441 14.3595 20.0293 15.0179 19.5389C15.6186 19.0905 16.2642 18.7067 16.9303 18.2723C16.408 17.8721 15.9869 17.9089 15.5668 18.2394C14.2688 19.2523 12.9723 20.2607 11.6729 21.2705C10.947 21.8371 10.9485 22.5888 11.2279 23.3596C11.4069 23.8607 11.684 24.3272 11.9354 24.8018C12.823 26.4876 13.7455 28.1534 14.6059 29.8519C15.9882 32.5877 17.3175 35.352 18.6907 38.0921C19.2625 39.2364 19.8797 40.3595 20.4879 41.4869C22.2851 44.8109 24.0626 48.1479 25.8931 51.4563C27.2473 53.9036 28.6651 56.3136 30.0783 58.7296C30.3393 59.1775 30.7108 59.5625 31.0383 59.9792C31.8135 59.5497 32.5025 59.1643 33.1914 58.7863C33.7334 58.4882 34.2782 58.1962 34.8144 57.8934C36.3758 57.0106 37.9346 56.1142 39.4989 55.2375C41.3434 54.2038 43.2047 53.2218 44.8692 51.8662C45.859 51.0607 45.9979 50.2471 45.6431 49.1652C45.615 49.0815 45.5855 48.9947 45.5574 48.911C44.4342 45.6815 43.3487 42.4382 42.1743 39.2253C41.4305 37.1854 40.6099 35.1703 39.7272 33.188C38.4197 30.2496 37.0154 27.3564 35.6746 24.4336C34.905 22.756 34.1323 21.0798 33.4397 19.3699C32.3295 16.641 31.2163 13.9134 29.8826 11.2815C29.6588 10.8423 29.3821 10.4316 29.1267 10.0035C28.8916 10.0836 28.7502 10.1199 28.6173 10.1746C26.062 11.2241 23.9351 13.0007 21.5702 14.3709C21.1157 14.6356 21.1641 15.0227 21.5009 15.4909L21.4934 15.4907ZM28.5897 53.1903C29.6449 54.943 30.648 56.6157 31.6671 58.3071C31.8206 58.2651 31.9434 58.2598 32.0358 58.2054C32.9379 57.6533 33.8515 57.1181 34.729 56.5291C36.5553 55.299 38.3179 53.972 40.2818 52.9495C41.3243 52.4062 42.3537 51.8429 43.3703 51.2522C44.002 50.886 44.0758 50.6578 43.9183 49.9269C43.842 49.5827 43.7328 49.2389 43.5918 48.9137C43.1532 47.9045 42.7008 46.9055 42.244 45.9048C42.1482 45.7 42.0283 45.5065 41.8829 45.2429C37.4468 47.8944 33.0697 50.5146 28.5987 53.186L28.5897 53.1903ZM34.1882 32.9134C33.7328 31.7109 32.7579 30.8705 31.522 30.3384C28.3596 28.9787 24.3891 30.6488 23.054 33.8432C21.8102 36.8235 23.5087 40.6295 27.2753 41.1703C29.5971 41.5039 31.5845 40.705 33.1696 39.0141C34.7394 37.3378 35.1881 34.8708 34.1868 32.9103L34.1882 32.9134ZM29.8413 9.88542C30.8892 12.0401 31.9391 14.1044 32.9028 16.2128C33.668 17.8887 34.276 19.6382 35.0517 21.313C36.7258 24.9329 38.4891 28.5075 40.1572 32.1303C40.9913 33.9379 41.7332 35.7924 42.4419 37.6549C43.1212 39.4307 43.722 41.2356 44.3259 43.0392C45.073 45.2674 45.7901 47.5022 46.5237 49.7331C46.8043 50.5852 46.6743 51.3314 45.9591 51.8892C44.9381 52.6832 43.963 53.5675 42.8511 54.2066C39.4593 56.1612 36.0129 58.0147 32.5895 59.9095C32.5502 59.9279 32.5368 59.9938 32.4763 60.0928C33.0579 60.2418 33.6198 60.4037 34.1793 60.1272C35.0458 59.696 35.9531 59.3128 36.7488 58.7694C38.8927 57.3126 41.0985 55.9646 43.3911 54.7549C44.7923 54.0178 46.1003 53.0971 47.4571 52.2728C47.9407 51.9759 48.1354 51.6204 47.9616 51.02C47.6024 49.7949 47.3727 48.5316 46.9727 47.3218C46.1125 44.7255 45.2235 42.139 44.2576 39.5847C43.6071 37.8625 42.8375 36.1849 42.0542 34.5174C41.1724 32.6315 40.1893 30.7967 39.3015 28.9136C38.6825 27.5976 38.1542 26.2392 37.5836 24.9006C37.5366 24.7922 37.4915 24.6643 37.4047 24.5969C36.6793 24.0458 36.4286 23.1946 36.0641 22.4227C35.9411 22.1598 35.9023 21.7459 36.0227 21.5071C36.2899 20.9836 36.1674 20.5641 35.9416 20.0811C35.1356 18.3572 34.3765 16.6076 33.5554 14.8908C32.9388 13.6035 32.2692 12.3447 31.5982 11.0828C31.226 10.3815 30.5655 10.0794 29.8354 9.88071L29.8413 9.88542ZM32.3551 11.6303C32.6967 12.2193 33.0732 12.7882 33.3665 13.3997C34.2823 15.3033 35.1769 17.2167 36.0504 19.14C36.2945 19.6778 36.4388 20.2621 36.6419 20.8227C36.7802 21.2051 36.8971 21.6048 37.0974 21.9544C37.5626 22.7761 38.1592 23.5401 37.9599 24.5869C37.9262 24.759 38.0725 24.9774 38.1627 25.1625C39.9951 29.0027 41.8335 32.8401 43.6658 36.6804C43.9332 37.2445 44.2232 37.8017 44.4348 38.3881C45.4897 41.3217 46.5325 44.261 47.5601 47.2073C48.0232 48.5366 48.5104 49.8621 48.6248 51.3357C49.114 51.0586 49.1407 50.6587 49.0814 50.2878C48.9633 49.5311 48.8651 48.7538 48.6236 48.0324C48.0827 46.4266 47.4846 44.8401 46.8639 43.2605C45.5928 40.022 44.4275 36.734 42.9827 33.573C39.8177 26.6459 36.4819 19.795 33.6447 12.7184C33.4049 12.1191 33.0359 11.7552 32.3581 11.6289L32.3551 11.6303ZM16.9922 17.2861C17.5385 17.8874 18.0644 18.3976 18.5126 18.9703C19.2359 19.8948 19.7184 20.0603 20.7878 19.5826C21.0778 19.4545 21.3526 19.2702 21.6023 19.0715C22.1517 18.6395 22.2071 18.4982 21.9067 17.8713C21.4603 16.9402 20.9595 16.0346 20.454 15.0716C19.2829 15.8203 18.1496 16.5475 16.9892 17.2875L16.9922 17.2861ZM36.5913 21.8409L36.426 21.9443L36.8274 22.6766L36.9031 22.6338C36.7982 22.37 36.6962 22.1047 36.5913 21.8409Z" fill="#29FFD9"/>
<path d="M18.876 13.7976C18.0593 14.6898 17.8653 14.6687 17.2535 13.7777C16.6519 12.9006 16.0396 12.0322 15.4046 11.1782C14.9483 10.5646 14.9284 10.2386 15.3922 9.4817C15.659 9.04406 16.0334 9.02547 16.4282 9.37353C16.4722 9.41254 16.5177 9.45461 16.551 9.50233C17.4549 10.8527 18.3846 12.1873 18.8746 13.7945L18.876 13.7976ZM17.7534 12.7357L16.0701 10.2226C16.0218 10.8598 16.9529 12.2682 17.7534 12.7357Z" fill="#29FFD9"/>
<path d="M41.2113 57.9458C42.2439 59.0907 42.7862 60.4239 43.182 61.8219C43.357 62.4403 43.0937 62.854 42.5555 62.979C41.9601 63.1158 41.6546 62.9271 41.4596 62.2659C41.1558 61.2458 40.8655 60.2231 40.5752 59.2005C40.4014 58.5926 40.4499 58.4992 41.2144 57.9443L41.2113 57.9458ZM42.1826 62.1737L42.4035 62.1263L41.9961 60.987L41.8937 61.02L42.1796 62.1751L42.1826 62.1737Z" fill="#29FFD9"/>
<path d="M18.7872 43.4816C18.4961 43.7332 18.2712 43.9613 18.016 44.1402C17.0972 44.7746 16.1668 45.3922 15.2378 46.0128C15.0435 46.1408 14.841 46.3063 14.6232 46.3448C14.3934 46.3889 14.0299 46.3913 13.9177 46.2538C13.7648 46.0608 13.7528 45.72 13.7662 45.4493C13.7739 45.3004 13.9374 45.1457 14.0656 45.0262C14.9195 44.2135 15.807 43.441 16.8947 42.9473C17.8314 42.5243 17.9606 42.5644 18.7919 43.4757L18.7872 43.4816ZM14.3337 45.765C15.0173 45.6279 16.5928 44.5151 17.2539 43.7627C16.0947 44.2376 15.2019 44.9829 14.3337 45.765Z" fill="#29FFD9"/>
<path d="M45.8325 24.9847C45.887 24.9592 45.9383 24.9352 45.9927 24.9098C46.3096 24.784 46.6307 24.5333 46.9502 24.9016C47.1691 25.1569 47.212 25.7924 46.9755 26.0743C46.7344 26.3621 46.4343 26.6104 46.1201 26.8207C45.2942 27.3782 44.4495 27.9034 43.6106 28.4409C43.4892 28.52 43.346 28.6392 43.2206 28.6308C42.9801 28.6128 42.6516 28.5876 42.5294 28.4287C42.413 28.282 42.4215 27.8907 42.5401 27.7347C42.8033 27.3918 43.1623 27.1197 43.4961 26.8332C44.2477 26.1876 45.0081 25.5452 45.7655 24.9043L45.837 24.9863L45.8325 24.9847ZM44.043 27.2703C44.7733 26.847 45.5092 26.4358 46.2323 25.9972C46.4294 25.8752 46.5669 25.6731 46.3684 25.3823C45.3736 25.7282 44.6757 26.4493 44.043 27.2703Z" fill="#29FFD9"/>
<path d="M32.9655 8.77448C32.2686 9.11151 31.926 8.90664 31.9266 8.26197C31.9292 7.73184 31.9603 7.19957 32.0033 6.66917C32.0357 6.28155 32.2141 5.98579 32.6569 5.98738C33.0412 5.99018 33.5864 6.36849 33.5673 6.69777C33.5306 7.28108 33.4192 7.86209 33.2841 8.43183C33.2446 8.59931 33.019 8.72341 32.9655 8.77448Z" fill="#29FFD9"/>
<path d="M53.3586 51.1631C52.6954 51.462 51.4142 51.1559 51.057 50.7307C50.7742 50.3936 50.8159 50.0575 51.2224 49.8712C51.9853 49.5256 52.7614 49.6023 53.4921 49.9833C53.6237 50.0521 53.7504 50.3467 53.7113 50.4916C53.6318 50.7784 53.4363 51.0299 53.3586 51.1631ZM52.259 50.4183L53.1328 50.5461C52.808 49.9381 52.5281 50.2217 52.259 50.4183Z" fill="#29FFD9"/>
<path d="M31.5391 61.954C31.7957 62.81 31.3588 63.4985 30.9862 64.1904C30.8193 64.5031 30.5053 64.635 30.1552 64.5007C29.8141 64.3697 29.7699 64.0626 29.8484 63.7577C29.9711 63.2719 30.0925 62.7831 30.279 62.3234C30.4766 61.84 30.8177 61.7661 31.5391 61.954ZM30.703 63.2538L31.173 62.2817C30.6116 62.5069 30.601 62.8545 30.703 63.2538Z" fill="#29FFD9"/>
<path d="M6.98625 22.1243C7.3255 22.2749 7.69752 22.4325 8.06173 22.6048C8.3889 22.761 8.50861 23.0328 8.50518 23.3958C8.49846 23.9092 8.30415 24.1081 7.82316 24.0089C7.62361 23.9681 7.43396 23.8854 7.24254 23.8148C6.23614 23.4584 6.14377 22.9615 6.99069 22.126L6.98625 22.1243ZM7.57817 23.2407L7.67416 23.0915L7.12132 22.7205L7.00829 22.8962L7.57817 23.2407Z" fill="#29FFD9"/>
<path d="M39.6573 52.3768C39.4377 52.5689 39.2333 52.8171 38.9727 52.9688C38.182 53.4204 37.3712 53.8368 36.5646 54.2623C36.4103 54.3419 36.2418 54.4542 36.0788 54.4522C35.9009 54.4497 35.6465 54.3862 35.564 54.2571C35.4802 54.125 35.5187 53.8686 35.5867 53.6989C35.6483 53.5472 35.8009 53.4088 35.9478 53.329C36.8258 52.8514 37.7095 52.3861 38.5989 51.933C39.0361 51.71 39.3867 51.8217 39.6587 52.3799L39.6573 52.3768Z" fill="#29FFD9"/>
<path d="M29.2824 38.429C28.1455 38.9122 27.0547 38.8635 26.1304 37.8951C25.0395 36.7514 24.9147 35.1373 25.9045 33.9221C25.9414 33.875 25.9739 33.8263 26.0137 33.7854C26.8899 32.9101 28.9371 32.5936 30.0553 33.1025C31.2699 33.6521 32.0182 35.4179 31.0646 36.8918C30.6249 37.5742 29.998 38.061 29.281 38.426L29.2824 38.429ZM28.3041 36.3052C28.7029 36.1262 28.8702 35.7276 28.6985 35.3684C28.5399 35.0291 28.1234 34.8551 27.824 35.0025C27.446 35.1867 27.2343 35.7028 27.3976 36.0362C27.5565 36.3605 27.9325 36.4715 28.3027 36.3021L28.3041 36.3052Z" fill="#29FFD9"/>
<path d="M20.4502 19.0103C19.9593 19.2287 19.5007 19.0669 19.2806 18.5962C19.0805 18.1683 19.23 17.6216 19.5974 17.4461C19.9542 17.2718 20.723 17.6164 20.9291 18.0415C21.1038 18.3993 20.9019 18.8103 20.4472 19.0117L20.4502 19.0103ZM20.419 18.0453C20.2371 17.9478 20.089 17.8122 20.0225 17.8433C19.9046 17.8984 19.8367 18.0605 19.7474 18.1768C19.8582 18.2404 19.9782 18.3631 20.0832 18.3513C20.1851 18.3409 20.2662 18.1912 20.419 18.0453Z" fill="#29FFD9"/>
</svg>
