<svg width="68" height="70" viewBox="0 0 68 70" fill="none" xmlns="http://www.w3.org/2000/svg">
<path d="M29.152 67.6554C28.4213 66.8722 27.6844 66.0968 26.9637 65.3055C26.348 64.6252 25.7857 63.9005 25.1453 63.2423C23.8531 61.917 22.8741 60.3806 21.7176 58.967C19.2633 55.9618 17.4185 52.6268 15.3656 49.4063C15 48.8358 14.6884 48.2342 14.4052 47.6293C13.9891 46.7415 13.9498 45.8489 14.2017 45.009C14.5566 43.8254 14.9598 42.6604 15.3546 41.492C16.2461 38.8458 17.6635 36.4808 18.8692 34.0041C19.6096 32.4842 20.4432 31.015 21.1477 29.4797C21.9917 27.6388 22.7549 25.7505 23.5279 23.8732C24.0562 22.5956 24.5218 21.2849 25.0586 20.0107C25.3953 19.2086 25.8414 18.4602 26.1865 17.6615C26.7707 16.3127 27.3112 14.9394 27.8754 13.5783C28.0122 13.2482 28.1765 12.9301 28.3049 12.5966C28.8276 11.2413 29.3175 9.86656 29.8747 8.52861C30.2005 7.74984 30.6464 7.03002 31.012 6.26647C31.2529 5.76582 31.5045 5.26085 31.646 4.7174C31.9097 3.72085 32.638 3.30529 33.656 3.33064C35.3944 3.37471 37.1422 3.49636 38.8902 3.59896C39.7231 3.64843 40.4455 4.0134 40.9605 4.71376C41.679 5.6917 42.3875 6.67774 43.0359 7.6933C44.3615 9.77253 45.6071 11.888 46.9535 13.9548C48.1619 15.8113 49.5212 17.5882 50.6973 19.4576C51.7664 21.1572 52.6831 22.9287 53.6567 24.6746C53.8868 25.088 53.9269 25.4705 53.6769 25.865C53.1543 26.6875 52.7477 27.5881 52.1817 28.3765C51.3613 29.5177 50.7861 30.7938 50.1537 32.044C49.2314 33.8714 48.2106 35.6408 47.2624 37.4542C46.884 38.1822 46.6018 38.9665 46.2601 39.7137C45.8903 40.525 45.454 41.3034 45.127 42.1355C44.1546 44.6162 43.0086 47.0025 41.8329 49.3749C41.24 50.57 40.6295 51.7544 40.0649 52.9652C39.2849 54.6393 38.5402 56.3345 37.7778 58.0192C37.0716 59.585 36.3624 61.1453 35.6623 62.7128C35.354 63.4032 35.0381 64.0939 34.7703 64.8033C34.5816 65.3034 34.4671 65.836 34.3189 66.355C34.2716 66.5286 34.2227 66.7041 34.1776 66.8795C33.9215 67.8851 33.2767 68.4204 32.1365 68.4142C31.1091 68.4103 30.0954 68.4266 29.1459 67.6538L29.152 67.6554ZM35.8621 44.8334C35.9321 45.9319 36.0059 47.0303 36.0698 48.1272C36.1362 49.2963 36.1811 50.4645 36.2575 51.635C36.3096 52.4546 36.4047 53.276 36.4684 54.0951C36.4866 54.3264 36.5081 54.6337 36.2111 54.6403C36.01 54.6423 35.7294 54.5055 35.5687 54.3476C35.1529 53.9356 34.7873 53.4735 34.3923 53.0396C34.2835 52.9192 34.1345 52.8312 33.9835 52.7128C33.9197 52.8225 33.8678 52.8935 33.8349 52.9731C33.2419 54.3946 32.6442 55.8125 32.0641 57.241C31.7873 57.9242 31.5832 58.6419 31.2973 59.3179C31.0239 59.959 30.7069 59.9723 30.1911 59.3767C29.5749 58.6641 28.9789 57.9353 28.402 57.196C27.186 55.6368 25.9986 54.0552 24.7773 52.4981C24.2764 51.8599 23.7007 51.2747 23.186 50.6448C22.8545 50.2382 22.8597 50.0572 23.1195 49.6926C23.2467 49.5115 23.4014 49.3518 23.5469 49.1849C24.6288 47.955 25.6902 46.709 26.4694 45.1301C26.0104 44.7353 25.5108 44.3406 25.0522 43.9078C24.6857 43.56 24.3317 43.1869 24.0401 42.786C23.8388 42.5102 23.9725 42.283 24.2951 42.239C24.5516 42.2039 24.8194 42.2062 25.0797 42.1804C26.7769 41.9943 28.4733 41.8044 30.1705 41.6183C30.6367 41.5654 31.1028 41.5126 31.5974 41.4565C31.5279 39.2732 31.474 37.1501 31.3865 35.0229C31.3505 34.0883 31.3016 33.1467 31.1644 32.2094C30.9236 30.5653 30.6059 28.9248 30.3382 27.282C30.3126 27.1215 30.3681 26.8809 30.4829 26.8145C30.6016 26.7479 30.869 26.7979 31.0133 26.8918C31.2867 27.0709 31.5459 27.2964 31.7643 27.5409C32.44 28.2906 33.0934 29.0548 33.756 29.8165C33.7475 29.8226 33.8021 29.8048 33.8115 29.7739C34.086 28.5846 34.342 27.3905 34.6333 26.2081C34.7291 25.8172 34.8701 25.4298 35.0577 25.082C35.246 24.7285 35.4732 24.7214 35.8179 25.0075C36.0535 25.2017 36.2836 25.4171 36.4745 25.6496C37.0858 26.3968 37.7163 27.1334 38.2706 27.9156C39.708 29.9324 41.1106 31.9699 42.5218 34.0012C42.8915 34.5335 43.2473 35.074 43.5637 35.5422C42.9083 36.4776 42.2963 37.3481 41.6905 38.2203C41.5485 38.425 41.4241 38.6403 41.6399 38.9211C42.3086 39.8025 43.0196 40.6533 43.8133 41.4316C43.8904 41.3803 43.9396 41.3647 43.9567 41.3334C44.9779 39.309 45.9793 37.2722 47.0264 35.2618C47.5496 34.2547 48.1676 33.3059 48.7152 32.3147C49.735 30.4712 50.7343 28.6115 51.7564 26.7698C51.905 26.5 52.1323 26.276 52.3228 26.0327C52.4855 25.8251 52.6498 25.6155 52.845 25.3663C52.4801 24.7102 52.1344 24.0531 51.7525 23.4091C50.988 22.1175 50.2474 20.8095 49.4159 19.5515C48.1952 17.7013 46.8612 15.9156 45.6567 14.0589C44.1776 11.7796 42.7932 9.45006 41.3403 7.15619C40.9255 6.50241 40.4484 5.86685 39.928 5.27713C39.3536 4.62912 38.34 4.61686 37.9333 5.23966C37.3402 6.14734 36.7165 7.04698 36.261 8.0337C35.495 9.68997 34.8567 11.4143 34.1534 13.1038C33.4844 14.7116 32.788 16.3074 32.1336 17.9203C31.2252 20.1543 30.3901 22.4267 29.4389 24.64C28.3392 27.2029 27.1555 29.7223 26 32.2574C25.7417 32.8274 25.4269 33.3659 25.1916 33.9443C24.5826 35.4332 23.9989 36.9322 23.4114 38.4315C23.1994 38.9707 23.0111 39.5222 22.8105 40.0703C22.3789 41.2481 21.9793 42.4415 21.5026 43.5967C21.0789 44.6276 20.5804 45.6221 20.0925 46.6217C19.9202 46.9783 19.8935 47.2764 20.2421 47.6422C20.5048 47.9151 20.718 48.2417 20.9035 48.5658C22.3456 51.0714 24.1677 53.3609 25.9435 55.6717C28.1707 58.5659 30.3802 61.4686 32.4202 64.4746C32.6539 64.8173 32.8684 65.1705 33.1627 65.6341C33.277 65.3279 33.3413 65.1421 33.4125 64.9617C34.012 63.3953 34.5558 61.8011 35.2249 60.2731C36.1454 58.1698 37.1629 56.1171 38.1308 54.0381C38.7127 52.7865 39.2853 51.5278 39.8542 50.2692C40.9287 47.894 41.9985 45.5152 43.073 43.1399C43.2431 42.7626 43.4331 42.3976 43.6232 42.0136C42.4426 41.663 38.1995 43.4766 35.8528 44.8358L35.8621 44.8334ZM30.6616 58.9507C30.8602 58.4616 31.0078 58.1176 31.1386 57.7669C31.4134 57.0343 31.6799 56.2984 31.944 55.5606C32.0733 55.2024 32.1689 54.8305 32.3174 54.4808C32.6728 53.6359 33.0329 52.7946 33.419 51.9673C33.5655 51.6577 33.8896 51.6307 34.2116 51.8607C34.3742 51.9785 34.515 52.1335 34.6566 52.2828C34.9657 52.6048 35.2678 52.9309 35.6462 53.3295C35.4769 50.6467 35.3159 48.0758 35.1472 45.5052C35.1425 45.4217 35.0726 45.3318 35.0114 45.1978C34.7124 45.372 34.4473 45.5312 34.1791 45.6849C33.7699 45.9196 33.3697 46.171 32.9415 46.378C32.327 46.6721 32.0244 46.502 31.8733 45.7804C31.7992 45.4319 31.7704 45.0774 31.7462 44.7265C31.6876 43.8444 31.6421 42.9597 31.5914 42.0487C29.3778 42.3376 27.2195 42.622 25.0382 42.9075C25.5486 43.6042 25.9591 44.3153 26.5211 44.8897C26.8988 45.275 26.9256 45.5897 26.8445 45.957C26.7866 46.2148 26.6635 46.4662 26.5084 46.6735C25.7892 47.6291 25.0455 48.5687 24.3125 49.5136C24.1265 49.7509 23.9406 49.9882 23.733 50.2532C24.2083 50.7118 24.663 51.0649 25.0043 51.4919C25.9985 52.7402 26.9542 54.0189 27.9161 55.2896C28.802 56.4594 29.6794 57.6352 30.6632 58.9487L30.6616 58.9507ZM37.4265 4.76918C36.8406 4.72499 36.3666 4.70778 35.8928 4.65249C35.4412 4.60185 35.2013 4.77131 35.0542 5.15709C34.5923 6.36867 34.1007 7.56646 33.6136 8.76784C33.4126 9.26467 33.1857 9.74752 33.3124 10.3447C33.3406 10.4785 33.3164 10.6319 33.2664 10.7523C32.7835 11.9059 32.3068 13.0611 31.7887 14.1935C31.6873 14.4172 31.4583 14.6718 31.2232 14.7079C30.8437 14.7679 30.7452 15.0067 30.6335 15.2671C30.2884 16.0658 29.973 16.8784 29.6126 17.6683C29.281 18.3979 28.8722 19.0893 28.562 19.8292C27.6875 21.9303 26.8789 24.0606 25.9807 26.1495C25.4637 27.3561 24.8595 28.5136 24.4387 29.7765C23.9512 31.2425 23.2862 32.6332 22.6993 34.0563C22.6477 34.1787 22.5839 34.2978 22.543 34.4254C22.0051 36.1678 21.3601 37.8582 20.566 39.4796C20.4195 39.7798 20.2707 40.0781 20.1417 40.3887C19.485 41.9998 18.8352 43.6162 18.1763 45.2255C18.0262 45.5867 17.8372 45.9269 17.6705 46.2622C18.3878 46.4828 19.0416 46.6855 19.7214 46.8927C19.7587 46.8262 19.8352 46.7521 19.8351 46.6722C19.844 45.3834 20.351 44.2933 20.8381 43.1909C21.0083 42.804 21.18 42.4152 21.3219 42.0125C21.812 40.6188 22.2806 39.2147 22.7768 37.8225C22.9172 37.4219 23.1486 37.0606 23.2843 36.6563C24.1384 34.0957 25.3931 31.7404 26.4559 29.2858C26.8893 28.2849 27.393 27.3168 27.8195 26.3105C28.7186 24.1969 29.5917 22.0692 30.4717 19.9469C31.2657 18.0286 32.0452 16.1052 32.8484 14.194C33.5313 12.5684 34.2661 10.9707 34.9299 9.33648C35.4427 8.06916 36.0075 6.83931 36.7832 5.72685C36.9795 5.44339 37.1643 5.15097 37.422 4.7656L37.4265 4.76918ZM17.0512 46.2653C17.5917 44.911 18.1129 43.5577 18.6685 42.2217C19.328 40.6352 20.0174 39.0626 20.6961 37.4847C20.818 37.1972 20.9712 36.9215 21.0617 36.6222C21.5173 35.1121 22.0547 33.6438 22.7367 32.2409C22.9588 31.783 23.1176 31.2882 23.2984 30.8075C23.711 29.7201 24.0479 28.5926 24.5445 27.5487C25.5222 25.4997 26.4967 23.4547 27.2397 21.2857C27.8602 19.4804 28.7261 17.8003 29.5247 16.0835C29.8859 15.3068 30.3082 14.5462 30.3061 13.6062C30.3043 13.3399 30.4343 13.0843 30.5397 12.8414C30.9294 11.9435 31.3313 11.0488 31.7355 10.1559C31.8744 9.84661 32.0461 9.56624 32.4205 9.47024C32.7411 9.38634 32.8673 9.13098 32.9723 8.84619C33.2737 8.05147 33.5926 7.26732 33.9047 6.4778C34.1402 5.88035 34.3779 5.2847 34.6181 4.6718C33.6329 4.46788 33.356 4.55729 32.9338 5.19034C32.8112 5.37512 32.6893 5.56367 32.6011 5.76582C32.2085 6.63914 31.8183 7.51424 31.4472 8.39795C30.876 9.7537 30.3187 11.1202 29.7605 12.483C29.2118 13.8243 28.7005 15.1886 28.1173 16.5126C27.7044 17.4497 27.1584 18.3209 26.75 19.2615C26.0574 20.8572 25.4328 22.4839 24.7662 24.0935C24.0323 25.8643 23.3054 27.6405 22.5356 29.3959C22.1859 30.1911 21.7001 30.9147 21.3435 31.7045C20.7036 33.1244 20.1393 34.5845 19.5018 36.0062C18.378 38.5056 17.226 40.9892 16.0801 43.4744C15.8461 43.9805 15.5517 44.4551 15.3452 44.9732C15.1716 45.4116 14.9832 45.8736 15.1813 46.3608C15.8277 46.3278 16.4226 46.2993 17.0512 46.2653ZM15.7234 47.6441C16.4094 48.8614 16.9107 49.9469 17.5955 50.9302C19.4591 53.6002 21.3991 56.2247 23.3083 58.8697C23.9887 59.8114 24.5734 60.8281 25.3526 61.6909C26.8198 63.3161 28.3865 64.8661 29.9355 66.4246C30.148 66.639 30.4869 66.7673 30.7831 66.8654C31.0633 66.9604 31.3684 66.9953 31.6554 66.9967C31.95 66.9978 32.2367 66.9288 32.514 66.8908C32.5171 66.2836 32.1702 65.8777 31.8986 65.4702C30.0214 62.6619 28.0008 59.9424 25.8777 57.2829C23.978 54.9039 22.063 52.5352 20.4078 49.9998C20.0505 49.4517 19.704 48.8993 19.3313 48.3615C19.1263 48.0669 18.8581 47.8152 18.4739 47.7918C17.6294 47.7429 16.7842 47.6997 15.7249 47.6421L15.7234 47.6441ZM30.9181 14.0602L31.1008 14.1523C31.4913 13.5455 31.6587 12.8181 31.9323 12.1484C32.2082 11.471 32.631 10.8608 32.722 10.0895C32.5857 10.1455 32.4701 10.2177 32.4194 10.3248C31.903 11.4552 31.3934 12.5911 30.8944 13.7321C30.857 13.8177 30.9082 13.9503 30.9181 14.0602Z" fill="#29FFD9"/>
<path d="M46.0239 19.2843C46.058 19.2408 46.1262 19.1538 46.1944 19.0668C46.8451 18.2458 47.1832 18.182 48.1911 18.8377C48.5821 19.093 48.9792 19.4489 49.2095 19.8336C50.1515 21.3984 51.035 22.9908 51.9254 24.579C51.9973 24.7087 51.9975 24.8876 51.9811 25.0311C51.9009 25.7981 51.6233 26.487 51.1671 27.0551C50.3289 28.1058 49.7919 29.3191 49.2754 30.5581C49.0277 31.1523 48.692 31.7032 48.3839 32.266C48.2999 32.4204 48.1746 32.552 48.0456 32.6743C47.711 32.9834 47.4378 32.9832 47.0196 32.6779C46.8769 32.5724 46.7336 32.4537 46.6202 32.3202C45.2808 30.7536 43.949 29.1866 43.0574 27.3549C42.7694 26.7654 42.7141 26.2657 42.9181 25.6754C43.6179 23.6322 44.5462 21.7169 45.6174 19.8785C45.7293 19.6886 45.8695 19.5144 46.0262 19.2861L46.0239 19.2843ZM48.3558 22.7521C47.6203 22.9034 47.203 23.403 47.267 23.9766C47.2814 24.0996 47.3629 24.2784 47.4607 24.3327C47.5524 24.3854 47.7522 24.3473 47.8294 24.2769C48.2336 23.8979 48.5124 23.4525 48.3558 22.7521ZM49.2054 26.9094C49.3723 26.654 49.5244 26.4222 49.6704 26.1887C49.7535 26.0591 49.8443 25.9292 49.8952 25.784C49.9391 25.662 49.9811 25.4906 49.9205 25.3888C49.8591 25.2833 49.6292 25.1478 49.543 25.1729C48.9639 25.351 48.7847 26.216 49.2031 26.9077L49.2054 26.9094ZM47.6691 29.2707C48.284 29.028 48.3871 28.7928 48.2774 27.9759C47.661 28.211 47.5161 28.4997 47.6691 29.2707ZM46.1124 26.7934C46.6929 26.5429 46.9121 26.0699 46.7185 25.4873C46.0776 25.716 45.9122 26.0684 46.1124 26.7934ZM49.1366 24.9374C48.4732 25.1995 48.4055 25.3188 48.5623 25.8023C48.7625 25.4996 48.9495 25.2185 49.1366 24.9374ZM47.7177 27.6012C47.2677 27.6571 47.0487 27.8941 47.0638 28.4357L47.7177 27.6012ZM47.2058 22.7254C46.9096 22.9242 46.5696 23.1461 46.8117 23.7986C46.9747 23.355 47.0914 23.0411 47.2058 22.7254ZM46.036 25.2175L45.992 25.1511L45.5427 25.7245L45.6022 25.7712L46.036 25.2175Z" fill="#29FFD9"/>
<path d="M45.4381 32.5845C45.7521 32.1603 46.3034 32.3146 46.6403 32.9169C46.8258 33.2506 46.7748 33.9096 46.5442 34.1662C46.3121 34.4247 45.9685 34.4012 45.6576 34.1097C45.1776 33.657 45.0908 33.056 45.4404 32.5863L45.4381 32.5845ZM46.5619 33.347L45.9257 32.8485C45.6062 33.0865 45.727 33.3471 45.92 33.61C45.9435 33.6412 46.0025 33.6555 46.082 33.6954L46.5619 33.347Z" fill="#29FFD9"/>
<path d="M24.7752 57.2166C25.3516 57.914 25.9349 58.6073 26.5013 59.3128C26.6244 59.4667 26.7097 59.6549 26.7759 59.8344C26.9918 60.4121 26.7041 60.7132 26.1095 60.4963C25.8654 60.4071 25.5997 60.2277 25.4416 60.024C24.9332 59.3671 24.4696 58.6814 23.9959 58.0038C23.926 57.9044 23.8534 57.7709 23.8603 57.6678C23.8788 57.4557 23.8808 57.1891 24.0137 57.0667C24.2331 56.862 24.4987 57.051 24.773 57.2148L24.7752 57.2166ZM24.4104 57.3616C24.5677 58.1838 25.4772 59.4837 26.0899 59.833C25.5098 59.0178 25.0838 58.1191 24.4104 57.3616Z" fill="#29FFD9"/>
<path d="M20.4959 50.8201C21.036 51.3328 21.4241 52.0773 21.6613 52.8728C21.7781 53.2611 21.4732 53.4946 21.0768 53.3595C20.8503 53.2809 20.5757 53.1552 20.4436 52.975C19.9916 52.3687 19.5897 51.7314 19.174 51.1024C19.1193 51.0213 19.0901 50.9219 19.0739 50.8294C18.9922 50.3728 19.3393 50.1373 19.7842 50.3614C19.9867 50.4659 20.1713 50.6073 20.4997 50.82L20.4959 50.8201ZM19.8302 50.6751L19.6651 50.7915C19.9611 51.215 20.2557 51.6405 20.5517 52.064L20.6673 52.0013L19.8279 50.6733L19.8302 50.6751Z" fill="#29FFD9"/>
<path d="M31.4398 65.9186C30.8413 66.2157 30.4289 66.0585 30.0822 65.6336C29.7439 65.2216 29.4209 64.7994 29.1065 64.3711C29.0016 64.2315 28.9215 64.0698 28.8652 63.9107C28.7697 63.6413 28.7597 63.343 29.0282 63.2502C29.1659 63.2017 29.435 63.3391 29.6099 63.4506C30.2758 63.8735 30.7315 64.4891 31.1457 65.1201C31.2982 65.3545 31.3436 65.6454 31.4398 65.9186ZM29.7455 64.3899C29.8053 64.3985 29.8321 64.4067 29.8521 64.4C29.8613 64.3977 29.8646 64.3652 29.8571 64.3465C29.7623 64.0999 29.7661 63.7933 29.2925 63.6105C29.488 63.9456 29.622 64.1751 29.7448 64.3862L29.7455 64.3899Z" fill="#29FFD9"/>
</svg>
