<svg width="59" height="71" viewBox="0 0 59 71" fill="none" xmlns="http://www.w3.org/2000/svg">
<path d="M43.665 35.5093C41.8366 39.7775 40.0965 44.0857 38.1565 48.3007C36.6176 51.648 34.842 54.8868 33.1514 58.1644C32.9662 58.526 32.6332 58.8084 32.3987 59.1497C31.6493 60.2495 30.6343 60.5756 29.3854 60.2432C27.6816 59.7889 25.9282 59.4638 24.2812 58.8541C21.512 57.8327 18.6838 57.0681 15.8021 56.4421C14.8908 56.2452 14.0312 55.8178 13.1575 55.4685C12.9477 55.382 12.7364 55.2292 12.6013 55.0494C12.0387 54.2955 11.4656 53.541 10.9789 52.7344C10.8219 52.4763 10.8202 52.034 10.9097 51.7205C11.4801 49.6892 12.0303 47.6459 12.7082 45.6516C13.6945 42.7516 14.7958 39.888 15.8248 36.9983C16.4911 35.1197 17.0851 33.2149 17.7638 31.3414C18.8051 28.4568 19.8958 25.5925 20.9588 22.7168C22.1141 19.5908 23.2157 16.4464 24.4216 13.3376C25.3562 10.9309 25.9393 10.6895 28.3766 10.9754C31.5164 11.343 34.5402 12.2284 37.5893 13.0001C39.7293 13.543 41.8735 14.0584 43.9978 14.6569C45.1258 14.976 46.2144 15.443 47.3182 15.847C48.7339 16.3614 49.3706 17.4341 49.4705 18.8987C49.509 19.462 49.5605 20.0198 49.6226 20.5783C49.7019 21.2788 49.4827 21.8892 49.1887 22.5235C48.586 23.8189 48.087 25.1606 47.5182 26.47C46.2151 29.4729 44.8935 32.4683 43.5812 35.4675L43.6676 35.5031L43.665 35.5093ZM38.2106 15.1432C40.4682 15.3659 42.499 16.0426 44.4698 16.9172C45.4854 17.3688 45.7709 17.9719 45.4927 19.058C45.4178 19.3447 45.3126 19.6261 45.1933 19.8981C44.4759 21.533 43.7431 23.1616 43.0319 24.7991C41.8147 27.6112 40.6363 30.4429 39.3944 33.2449C37.8017 36.8365 36.1628 40.4091 34.5436 43.9861C34.4211 44.2568 34.3005 44.5319 34.1405 44.7798C32.5489 47.266 31.1826 49.8707 29.9986 52.5761C29.5719 53.5498 29.0316 54.484 28.465 55.3855C27.8928 56.2919 27.5477 56.4197 26.5231 56.1213C25.4496 55.8101 24.4106 55.3891 23.3495 55.0391C22.2346 54.6707 21.12 54.2842 19.9869 53.9776C18 53.4394 15.9955 52.9706 14.006 52.4387C12.8685 52.134 12.6309 51.66 12.9728 50.5419C13.2509 49.6309 13.5537 48.7302 13.8411 47.8231C14.2242 46.6051 14.6055 45.3827 14.9886 44.1647C15.12 43.7408 15.2466 43.3112 15.3997 42.8962C15.678 42.1423 16.0101 41.407 16.2656 40.6473C17.2336 37.7653 18.3362 34.9424 19.5845 32.1687C19.9865 31.2724 20.3831 30.3629 20.6443 29.4231C21.3189 27.0077 22.2157 24.6839 23.1793 22.3731C23.7835 20.9251 24.1854 19.3901 24.7015 17.902C25.1113 16.7243 25.5101 15.5383 25.9983 14.3892C26.4389 13.3555 27.2286 12.692 28.409 12.7699C29.2268 12.826 30.0435 12.9547 30.8499 13.1084C31.5864 13.2478 32.3057 13.464 33.0761 13.6612C33.0179 13.0058 32.7061 12.7204 32.1786 12.6343C30.5547 12.3626 28.9352 12.089 27.3126 11.8142C26.4044 11.6623 25.8515 12.1716 25.4724 12.8986C25.2242 13.3693 25.0678 13.8887 24.8879 14.3949C24.2458 16.1886 23.642 17.9945 22.9722 19.7767C21.8907 22.6448 20.7524 25.4931 19.6617 28.3574C19.2051 29.5524 18.7948 30.7664 18.3752 31.9767C17.1409 35.5482 15.8837 39.1139 14.6833 42.6994C13.7954 45.3517 12.978 48.0257 12.1532 50.7003C11.9996 51.1954 11.9671 51.7294 11.8813 52.2525C12.7219 52.5334 13.4718 52.7805 14.2159 53.0326C14.802 53.2304 15.3856 53.4345 15.9711 53.6248C17.6772 54.1786 19.3916 54.7212 21.0951 55.2812C23.1037 55.9415 25.0856 56.6492 27.2098 56.9592C28.4725 57.1441 29.166 56.6964 29.7233 55.7035C29.766 55.6262 29.81 55.5458 29.8527 55.4685C31.473 52.4577 33.1291 49.4652 34.7026 46.4277C35.7029 44.5006 36.6329 42.5336 37.497 40.5431C38.7782 37.5931 39.9607 34.6025 41.208 31.6385C41.9239 29.9373 42.6367 28.2348 43.4284 26.5684C44.6887 23.9055 45.9459 21.2413 46.9837 18.4793C47.156 18.0175 47.2716 17.5359 47.4144 17.0582C47.1964 16.9392 47.074 16.8595 46.944 16.7986C44.4431 15.6252 41.6961 15.259 39.0877 14.4427C38.5854 14.2867 38.3329 14.5841 38.2155 15.1488L38.2106 15.1432ZM15.2285 45.8586C14.6504 47.821 14.0959 49.691 13.5386 51.5854C13.6733 51.6701 13.7602 51.757 13.8628 51.7884C14.8794 52.0798 15.8915 52.3912 16.9187 52.6396C19.0598 53.1537 21.2292 53.5554 23.3103 54.3113C24.4154 54.7122 25.5264 55.0899 26.649 55.4396C27.3459 55.6576 27.5639 55.5577 27.9959 54.9475C28.1981 54.6586 28.3776 54.3457 28.5219 54.022C28.9689 53.0165 29.3993 52.0078 29.8278 50.9946C29.914 50.7856 29.9755 50.5665 30.0714 50.2812C25.1187 48.8049 20.2289 47.3509 15.2378 45.8624L15.2285 45.8586ZM33.9547 36.276C34.5329 35.1274 34.4931 33.8409 34.0497 32.5705C32.9137 29.321 28.9988 27.5244 25.7423 28.7001C22.7055 29.7984 21.0492 33.623 23.1971 36.7641C24.5208 38.7004 26.4531 39.6248 28.7706 39.6497C31.0671 39.6731 33.1883 38.336 33.956 36.2728L33.9547 36.276ZM47.9844 17.505C47.1052 19.7338 46.2939 21.903 45.3918 24.0384C44.6741 25.7353 43.796 27.366 43.0863 29.0698C41.5507 32.7507 40.1089 36.4665 38.567 40.1448C37.7989 41.9815 36.9339 43.7819 36.0407 45.5633C35.1914 47.2643 34.2676 48.9272 33.3468 50.5915C32.21 52.6484 31.048 54.6876 29.9002 56.7363C29.4619 57.5192 28.8243 57.9278 27.9297 57.778C26.6544 57.5624 25.3436 57.4416 24.121 57.0544C20.3877 55.8765 16.692 54.59 12.9814 53.3484C12.9413 53.3319 12.8837 53.3665 12.7698 53.3889C13.0532 53.9182 13.3138 54.4417 13.8957 54.667C14.7993 55.014 15.6951 55.4235 16.6334 55.6425C19.1562 56.2374 21.6407 56.9515 24.082 57.823C25.5724 58.3572 27.1351 58.6986 28.6597 59.141C29.2055 59.2967 29.5991 59.1998 29.9239 58.6659C30.5838 57.5729 31.3594 56.5496 31.9805 55.4371C33.312 53.048 34.617 50.6443 35.8462 48.2058C36.6754 46.5622 37.3913 44.861 38.0904 43.1565C38.884 41.2318 39.5714 39.2669 40.3588 37.3397C40.91 35.9939 41.5538 34.6863 42.1544 33.3609C42.2025 33.253 42.2663 33.1333 42.2573 33.0238C42.173 32.1167 42.6308 31.3565 42.9531 30.566C43.0637 30.2977 43.3424 29.9893 43.5998 29.9166C44.1662 29.7596 44.3925 29.3857 44.5957 28.8928C45.3211 27.1335 46.0971 25.3913 46.8071 23.6256C47.3388 22.301 47.8137 20.9566 48.2899 19.6091C48.5551 18.8607 48.3311 18.1698 47.9839 17.4975L47.9844 17.505ZM48.3981 20.5369C48.1951 21.1868 48.0304 21.8489 47.7781 22.4784C46.9946 24.4401 46.1894 26.3929 45.3627 28.3368C45.1315 28.8801 44.7984 29.3815 44.5227 29.9102C44.3344 30.2706 44.1189 30.627 43.9967 31.0109C43.7057 31.9092 43.5461 32.8653 42.64 33.4261C42.4904 33.5177 42.4284 33.7731 42.353 33.9647C40.762 37.911 39.1772 41.8599 37.5862 45.8063C37.3513 46.3847 37.1368 46.9751 36.8477 47.5274C35.3991 50.288 33.9383 53.0434 32.462 55.7925C31.7956 57.0324 31.1482 58.2874 30.1397 59.368C30.6746 59.5411 30.9873 59.2904 31.2205 58.9961C31.6983 58.3974 32.2046 57.7996 32.5729 57.1339C33.3906 55.6498 34.1552 54.1365 34.8996 52.6113C36.4266 49.4853 38.0616 46.4038 39.4141 43.2022C42.3787 36.187 45.1718 29.0975 48.4682 22.2228C48.7477 21.641 48.7664 21.1231 48.4012 20.5382L48.3981 20.5369ZM33.8447 13.0401C33.7709 13.8492 33.7504 14.5816 33.6315 15.299C33.4392 16.457 33.6434 16.9244 34.7184 17.3896C35.0089 17.5166 35.3305 17.5945 35.6457 17.6441C36.3354 17.757 36.477 17.7022 36.7358 17.0571C37.1201 16.0987 37.4489 15.1174 37.8168 14.0939C36.4734 13.7371 35.1714 13.3937 33.8416 13.0389L33.8447 13.0401ZM43.7382 30.5612L43.5503 30.5093L43.282 31.3002L43.3647 31.327C43.4882 31.0713 43.6147 30.8169 43.7382 30.5612Z" fill="#29FFD9"/>
<path d="M37.6888 12.0697C36.4792 12.071 36.3636 11.9139 36.6065 10.8607C36.8461 9.82443 37.0721 8.78617 37.2721 7.74086C37.4157 6.98984 37.6425 6.75487 38.5138 6.58489C39.0167 6.48565 39.2834 6.74893 39.2938 7.27513C39.2949 7.33395 39.2946 7.39588 39.282 7.45273C38.898 9.03171 38.5431 10.619 37.69 12.0666L37.6888 12.0697ZM37.7123 10.5246L38.4261 7.58528C37.924 7.98044 37.5156 9.61869 37.7123 10.5246Z" fill="#29FFD9"/>
<path d="M20.2572 58.3738C20.1116 59.9087 19.4958 61.2096 18.7333 62.4464C18.3959 62.9934 17.9131 63.079 17.4571 62.7669C16.9538 62.4207 16.8863 62.0681 17.2417 61.4774C17.788 60.5639 18.3453 59.6586 18.9026 58.7533C19.2331 58.2143 19.3346 58.1869 20.2603 58.3751L20.2572 58.3738ZM17.7984 61.9478L17.9827 62.0785L18.5468 61.0081L18.4532 60.9549L17.7953 61.9465L17.7984 61.9478Z" fill="#29FFD9"/>
<path d="M15.7557 32.072C15.3735 32.0276 15.0534 32.016 14.7491 31.9489C13.6604 31.7008 12.5763 31.4327 11.491 31.1677C11.2653 31.1112 11.0065 31.0738 10.8309 30.9393C10.643 30.7998 10.3955 30.5335 10.421 30.3579C10.4599 30.1148 10.7029 29.8756 10.9114 29.7024C11.0263 29.6075 11.2508 29.6234 11.4256 29.637C12.6017 29.7168 13.7709 29.8485 14.87 30.3163C15.8149 30.7205 15.8728 30.8429 15.7632 32.0714L15.7557 32.072ZM11.0624 30.334C11.6256 30.7451 13.5106 31.1537 14.512 31.1322C13.3784 30.5991 12.2257 30.445 11.0624 30.334Z" fill="#29FFD9"/>
<path d="M47.6691 39.4959C47.7246 39.5187 47.7771 39.5404 47.8326 39.5633C48.1395 39.7117 48.5413 39.7788 48.4859 40.2633C48.4457 40.5971 48.0065 41.0584 47.6389 41.0747C47.2638 41.0916 46.8779 41.0383 46.5106 40.9489C45.5415 40.7172 44.5834 40.45 43.6202 40.1952C43.4798 40.1592 43.2953 40.1342 43.2166 40.0361C43.0673 39.8468 42.8638 39.5877 42.8983 39.3902C42.9276 39.2052 43.2218 38.9469 43.4169 38.9288C43.8475 38.891 44.2907 38.9716 44.7275 39.0239C45.7113 39.1412 46.6987 39.2673 47.683 39.3921L47.6709 39.5002L47.6691 39.4959ZM44.7751 39.7224C45.5807 39.9743 46.3812 40.2386 47.1933 40.4749C47.4164 40.5377 47.6583 40.5024 47.7383 40.1595C46.8109 39.6603 45.8078 39.6336 44.7751 39.7224Z" fill="#29FFD9"/>
<path d="M50.9152 19.056C50.1957 18.7703 50.1151 18.3793 50.5905 17.944C50.9829 17.5875 51.3961 17.2505 51.816 16.9236C52.1235 16.6855 52.4621 16.617 52.7603 16.9443C53.0181 17.2294 53.1079 17.8869 52.8523 18.0954C52.3977 18.4628 51.8942 18.7735 51.3831 19.0591C51.2329 19.1432 50.989 19.0608 50.9152 19.056Z" fill="#29FFD9"/>
<path d="M33.4671 62.7393C32.7985 62.4527 32.1578 61.3016 32.2297 60.751C32.2869 60.3147 32.5628 60.1182 32.9748 60.2917C33.7452 60.6203 34.2135 61.244 34.4266 62.04C34.4649 62.1835 34.3335 62.476 34.2003 62.5452C33.9352 62.6805 33.6177 62.7065 33.4671 62.7393ZM33.2725 61.4255L33.769 62.1557C33.9975 61.5054 33.5993 61.4908 33.2725 61.4255Z" fill="#29FFD9"/>
<path d="M10.7648 53.9565C10.3075 54.7242 9.50485 54.8677 8.74307 55.0609C8.39985 55.1494 8.09036 55.0072 7.95266 54.6584C7.81854 54.3184 8.01501 54.0783 8.2927 53.93C8.73364 53.692 9.17588 53.451 9.64072 53.2777C10.1305 53.0964 10.4155 53.2979 10.7648 53.9565ZM9.24176 54.2191L10.2758 53.9082C9.73035 53.6468 9.46704 53.874 9.24176 54.2191Z" fill="#29FFD9"/>
<path d="M23.5151 8.9378C23.6335 9.28956 23.7689 9.67021 23.8881 10.0551C23.9942 10.4018 23.8748 10.6738 23.6051 10.9166C23.2222 11.2587 22.9443 11.25 22.6922 10.8285C22.5874 10.6539 22.5201 10.4583 22.4427 10.2694C22.025 9.28696 22.3287 8.88297 23.5169 8.94219L23.5151 8.9378ZM23.0927 10.1286L23.2675 10.0985L23.1671 9.44035L22.9612 9.47588L23.0927 10.1286Z" fill="#29FFD9"/>
<path d="M23.3101 53.4638C23.0201 53.4319 22.699 53.4491 22.4111 53.3596C21.5438 53.0823 20.6888 52.7663 19.83 52.4597C19.667 52.3998 19.4704 52.3515 19.3617 52.2301C19.2432 52.0973 19.118 51.8668 19.1574 51.7188C19.1981 51.5677 19.413 51.4227 19.584 51.3582C19.7375 51.301 19.9426 51.3199 20.1007 51.3742C21.0462 51.6983 21.9865 52.0349 22.9217 52.3839C23.3815 52.5553 23.5362 52.8892 23.3088 53.467L23.3101 53.4638Z" fill="#29FFD9"/>
<path d="M26.5738 36.3897C25.4492 35.8786 24.7476 35.0418 24.8364 33.7061C24.9416 32.129 26.0466 30.9459 27.6112 30.8537C27.6708 30.8491 27.7287 30.8401 27.7858 30.8418C29.0231 30.8957 30.6403 32.1902 31.0212 33.3583C31.4374 34.6248 30.6421 36.3699 28.9114 36.6637C28.1113 36.801 27.3288 36.6681 26.5751 36.3866L26.5738 36.3897ZM27.4775 34.233C27.879 34.4058 28.2857 34.2597 28.4344 33.8903C28.5772 33.544 28.4238 33.1195 28.1127 32.9985C27.7215 32.8445 27.198 33.0375 27.0627 33.3832C26.9313 33.7195 27.1037 34.0716 27.4787 34.2299L27.4775 34.233Z" fill="#29FFD9"/>
<path d="M34.9119 16.7537C34.4192 16.5396 34.2283 16.0923 34.4263 15.6119C34.6064 15.1752 35.1103 14.9158 35.488 15.0678C35.8576 15.2129 36.1235 16.0123 35.9496 16.4516C35.804 16.8222 35.3646 16.9513 34.9089 16.7525L34.9119 16.7537ZM35.6019 16.0783C35.5507 15.8784 35.5505 15.6776 35.4827 15.6496C35.3624 15.6 35.1971 15.6596 35.051 15.6724C35.079 15.797 35.0697 15.9684 35.1494 16.0377C35.226 16.1058 35.3911 16.0644 35.6019 16.0783Z" fill="#29FFD9"/>
</svg>
