<svg width="176" height="124" viewBox="0 0 176 124" fill="none" xmlns="http://www.w3.org/2000/svg">
<path d="M37.2555 20.1321C38.9409 18.2463 41.0153 17.4802 43.2782 16.997C45.5057 16.5138 47.6979 15.8302 49.9019 15.2409C50.503 15.0877 51.2573 14.6987 51.6816 14.9227C52.5302 15.3588 53.4967 15.9952 53.8974 16.8084C54.4513 17.9163 53.6263 18.7296 52.542 19.1774C49.7841 20.3325 47.0261 21.5111 43.9618 22.8193C44.115 23.9154 44.28 25.1765 44.5039 26.7676C45.3997 26.3433 45.989 26.1783 46.4368 25.8247C48.3933 24.2336 50.5855 24.2219 52.9427 24.599C56.0542 25.1058 59.0243 25.5537 59.4486 29.6316C59.5429 30.5038 60.6036 31.3288 61.3343 32.0477C62.454 33.1556 63.6562 32.7785 64.1158 31.2699C64.6933 29.3605 64.0451 28.0169 62.0062 26.579C60.415 25.4594 58.9064 24.2218 57.3389 23.0432C55.2292 21.4521 55.1467 19.3542 55.9835 17.1502C56.95 14.6045 58.3053 12.3416 60.7333 10.8212C62.8076 9.51292 64.9055 9.25361 66.862 10.6561C68.4649 11.8112 69.8438 11.5637 71.4821 10.9508C73.91 10.0433 76.3851 9.21825 78.8837 8.54644C82.8438 7.4857 85.0596 8.52287 87.1221 12.153C87.3107 12.483 87.5464 12.8012 87.6996 13.0487C89.2318 12.9898 89.1139 11.8701 89.3614 11.0215C89.7386 9.78398 90.4929 9.18289 91.8601 9.13574C93.298 9.0886 94.7359 8.79396 96.1738 8.55824C97.9181 8.27538 99.4974 8.39323 100.7 10.1729C101.454 9.35968 102.114 8.58183 102.856 7.87467C104.683 6.13034 106.71 5.69426 109.162 6.66071C110.234 7.08501 111.625 7.17929 112.733 6.90821C116.363 6.02426 119.934 4.93993 123.117 2.84202C124.578 1.87557 126.205 1.13305 127.831 0.449466C128.656 0.107672 129.658 -0.0691011 130.542 0.0251869C132.451 0.225549 133.217 1.69879 132.333 3.40776C131.119 5.76496 128.962 7.03787 126.535 7.80396C124.873 8.32254 123.117 8.54645 121.16 8.95896C121.16 11.8937 121.03 14.7695 121.195 17.6335C121.337 20.1203 121.82 22.5718 122.115 25.0468C122.233 25.9779 122.315 26.9091 122.339 27.8402C122.362 28.7948 122.256 29.9734 121.101 30.0088C120.347 30.0324 119.18 29.4431 118.862 28.7948C117.86 26.7558 116.988 24.6108 116.387 22.4304C115.196 18.0931 114.513 13.6969 116.198 9.1711H111.719C111.472 11.0686 112.474 13.5555 110.022 14.3334C109.02 14.6516 107.653 13.8266 106.322 13.4848C104.412 16.5963 104.872 20.1085 108.007 23.9036C108.679 23.3025 109.268 22.5836 110.034 22.1475C110.564 21.8411 111.578 21.6407 111.92 21.9354C112.45 22.3832 112.91 23.3379 112.839 23.9979C112.509 26.8148 109.904 29.3252 107.3 29.5727C104.695 29.8202 102.137 28.1466 101.018 25.3769C99.7567 22.2418 99.2499 18.9888 99.7567 15.618C99.8864 14.7105 99.9924 13.803 100.122 12.7305C97.9534 12.9544 95.9498 13.1548 93.8284 13.3669C93.6987 15.4295 93.5926 17.1738 93.4748 19.1067C95.6198 18.8592 97.8002 17.8103 99.3088 20.3089C98.2245 22.8193 95.8555 22.7722 93.2744 22.9018C93.133 24.8701 93.0033 26.7794 92.8501 29.0305C94.4294 29.1955 95.832 29.3723 97.2345 29.4902C97.6352 29.5255 98.0595 29.3723 98.472 29.3723C99.4738 29.3723 100.417 29.5963 100.629 30.7277C100.841 31.8709 100.075 32.4485 99.0731 32.6724C97.6588 33.0024 96.2091 33.191 94.8184 33.5799C93.2037 34.0396 91.6479 34.6524 90.0922 35.7603C88.8546 35.3007 87.6171 34.841 86.0849 34.2753C87.6761 33.0378 87.9235 31.4938 87.7703 29.7141C87.511 26.8266 87.4639 23.9154 87.2871 20.2735C85.036 23.9743 82.5609 26.5908 79.0487 28.0641C79.0487 29.6434 79.0487 31.0813 79.0487 32.531C79.0487 33.2617 79.0723 33.9924 79.0133 34.7114C78.8248 36.9036 77.988 38.0704 76.5619 38.2118C75.289 38.3415 74.5582 37.5636 74.1693 35.1828C73.6625 32.1185 73.2382 29.0305 72.9436 25.9308C72.531 21.6053 72.2835 17.2563 71.9535 12.8012H69.8792C69.9028 13.2373 69.8556 13.5673 69.9617 13.8266C70.4921 15.1702 71.2228 16.4431 71.5882 17.8221C71.8828 18.9771 71.4939 20.1321 70.1974 20.6153C68.7713 21.1457 68.1938 20.2146 67.5338 19.1656C66.5673 17.6335 66.3552 15.5238 64.2219 14.7223C62.454 15.3588 62.0769 16.9499 61.6526 18.7178C62.4776 19.0478 63.2437 19.3306 63.998 19.6371C68.8538 21.6643 72.0832 28.7712 70.2446 33.4149C68.4295 38.0115 63.3733 39.9208 58.9536 37.6697C58.4939 37.434 58.0932 37.0921 57.3389 36.5854C53.1077 38.5183 48.7233 40.5337 43.9971 42.7023C44.9164 43.6687 45.5529 44.2934 46.1422 44.9534C46.8611 45.7431 47.5565 46.6388 46.8847 47.7231C46.1893 48.8664 45.0343 48.996 43.8557 48.5717C42.7832 48.1946 41.7224 47.7703 40.6971 47.2635C36.8666 45.4013 33.0715 43.4802 29.2411 41.6298C28.3218 41.1819 27.3435 40.899 25.9056 40.3569C26.0824 42.9498 26.2592 45.1773 26.3889 47.4167C26.5421 50.1157 26.7542 52.8147 26.7424 55.5137C26.7306 57.8944 25.611 59.1909 23.8667 59.297C22.2166 59.403 20.6962 58.1184 20.3898 56.0087C20.0362 53.5454 19.9183 51.0468 19.7416 48.5717C19.3526 42.9734 18.9401 37.375 18.669 31.7649C18.5512 29.3134 18.7633 26.8501 18.8458 23.9861C12.5874 24.7758 6.37623 26.8147 0 28.5119C2.20398 27.2155 4.36081 25.8365 6.62373 24.6579C11.1378 22.3125 15.6754 20.0025 20.2719 17.8221C22.1341 16.9381 24.1495 16.3252 26.1531 15.8302C30.6907 14.7223 34.5919 15.6416 37.2791 20.0614L37.2555 20.1321ZM53.6381 28.4766C50.7623 28.7359 47.9337 28.9834 44.9518 29.2427C45.4704 31.5174 45.9536 33.5917 46.4251 35.6307C49.3126 35.1239 52.1059 34.6407 54.9228 34.1456L53.6381 28.4648V28.4766ZM39.2827 39.3315C38.7641 34.57 38.3045 30.3623 37.8331 26.0369C35.7351 29.4312 33.7904 32.6017 31.7868 35.8428C34.038 36.8918 36.3598 37.9761 39.2827 39.3315V39.3315ZM25.6228 31.9299C28.581 31.0106 29.8893 28.9598 30.6436 26.3433C31.0443 24.9644 31.2918 23.3968 30.0779 22.6543C29.2411 22.1593 27.7914 22.6896 26.6128 22.7604C26.5303 22.7604 26.4478 22.8664 26.2946 22.9843C26.0824 25.8837 25.8585 28.8301 25.6228 31.9299V31.9299ZM78.5419 21.6643C81.7123 19.5899 82.7141 17.6335 81.948 15.2763C81.2998 13.2844 80.0741 12.5183 77.2336 12.5066C77.6697 15.5473 78.1058 18.5528 78.5537 21.6643H78.5419Z" fill="#29FFD9"/>
<path d="M89.8319 74.7578C88.6415 75.135 87.7811 75.4178 86.5907 75.8068C86.5907 78.1286 86.6379 80.3915 86.5672 82.6544C86.5318 83.892 86.3904 85.1531 86.1075 86.3552C85.5182 88.8421 84.2925 89.1956 82.1239 87.6163C81.8881 87.4395 81.617 87.3099 81.2517 87.086C80.8627 87.7578 80.521 88.3824 80.1556 88.9953C78.3877 91.9654 75.3115 92.5782 72.919 90.1739C71.7404 88.9835 70.4557 88.4414 68.9589 87.9699C66.0006 87.0506 63.0895 85.9427 59.8483 84.7995C59.5655 87.2156 59.3062 89.455 59.0469 91.6943C58.9408 92.6254 58.929 93.5801 58.6697 94.464C58.1629 96.2083 56.8429 96.9509 55.3696 96.0787C54.2971 95.4423 53.3071 95.5719 52.2463 95.3833C50.8438 95.1358 49.4177 94.1811 48.3098 93.1911C46.3062 91.4114 44.0551 90.2682 41.1557 89.6318C40.8964 90.6336 40.6725 91.6 40.4132 92.5547C40.1068 93.6508 39.9182 94.8058 39.4232 95.8194C38.8339 97.0451 37.7024 97.6344 36.3117 97.2927C34.8266 96.9273 34.3906 95.843 34.6381 94.4169C34.8149 93.3915 35.0034 92.3779 35.2156 91.3643C35.4041 90.4686 35.6163 89.5846 35.8992 88.3117C31.5148 87.7814 27.3543 87.2628 23.1938 86.756V86.4613C27.4957 86.1549 31.8212 85.8367 36.406 85.5067C36.677 84.222 36.9363 82.9255 37.231 81.6408C37.9971 78.3054 38.7867 74.9817 39.5764 71.6463C39.6942 71.1395 39.8475 70.6445 40.036 70.1613C41.6154 66.1894 43.9726 65.5294 47.6027 68.1577C50.5609 65.5058 54.0142 63.7497 58.3397 63.125C57.1258 59.8485 57.3025 56.6781 59.0587 53.1069C54.0732 54.4741 49.6298 55.6881 45.1983 56.8902C49.2055 53.708 52.6235 49.7597 57.7033 48.1097C59.4712 47.5321 61.1448 46.6718 62.8537 45.9057C65.2699 44.8214 67.4739 44.9628 69.3714 46.9664C70.1964 46.7896 70.9979 46.6246 71.7404 46.4596C73.3433 47.2729 73.3079 48.7461 73.2254 50.3254C75.229 49.5358 76.4194 48.4397 76.3723 46.3771C76.3723 46.271 76.4194 46.1767 76.443 46.0707C76.9498 43.7606 78.1284 42.5231 79.4838 42.8885C80.6977 43.2185 81.3696 44.9392 81.0513 46.8957C80.462 50.5611 79.967 54.2384 79.2363 57.8803C78.7177 60.4732 77.657 61.5221 76.3723 61.2864C75.2055 61.0742 74.7105 59.8839 74.7576 57.3263C74.7694 56.2891 74.8283 55.252 74.8283 54.2148C74.8283 54.038 74.6397 53.8612 74.5454 53.6726C73.3197 53.543 72.9426 54.1087 72.9426 55.3109C72.9426 56.8549 72.8719 58.4342 72.5418 59.9428C72.0233 62.3825 71.1629 63.1132 69.6189 62.8657C68.2517 62.6536 67.6742 61.7225 67.8274 59.4242C67.9335 57.786 68.1221 56.0888 68.6524 54.5448C69.3007 52.6473 69.006 50.9147 68.6289 48.805C67.7449 49.2057 67.1203 49.4886 66.4956 49.7833C64.5156 50.7144 62.842 53.2837 63.5609 55.1931C64.6688 58.1396 63.337 60.4496 62.2998 63.1486C62.9716 63.455 63.7023 63.7615 64.3977 64.1386C69.0296 66.6726 69.0532 72.377 64.4213 75.241C63.0305 76.1014 61.5101 76.7614 59.7422 77.669C62.8891 80.6862 65.871 83.4205 69.4303 85.3181C69.3125 81.193 69.1121 77.1621 69.1121 73.1431C69.1121 70.5266 69.5717 67.9927 71.4104 65.883C74.074 62.8422 78.5055 63.5022 79.9906 67.2265C80.6624 68.8884 80.3795 70.4913 79.307 71.1984C78.3641 71.8231 77.433 71.5756 75.7594 70.2674C73.9208 74.9582 74.6987 82.3244 77.4802 85.9309C79.7077 84.7877 80.6152 82.843 80.8745 80.474C81.1574 77.9164 81.4638 75.3589 81.676 72.7895C81.7939 71.3517 81.7349 69.8902 81.7821 68.4405C81.8174 67.5094 81.8174 66.5665 81.9824 65.6472C82.1828 64.504 82.4774 63.3018 83.9978 63.3254C85.5182 63.349 86.249 64.3861 86.414 65.7179C86.5907 67.1558 86.5554 68.6173 86.5436 70.067C86.5436 71.0688 86.414 72.0824 86.3197 73.4614C89.0187 71.9645 90.7276 70.5384 90.044 67.2737C89.6904 65.6237 90.2091 63.7733 90.3976 62.0172C90.5391 60.6853 91.3641 59.9428 92.6959 59.9664C94.0631 59.9899 94.7349 60.8621 94.8645 62.1586C94.9352 62.8775 95.0177 63.6082 94.9824 64.339C94.8527 67.3444 94.5817 70.3263 95.4538 73.3081C95.7603 74.3453 95.501 75.5828 95.336 76.7025C94.9352 79.3661 94.452 82.0298 93.9806 84.6816C93.8509 85.4006 93.6859 86.1077 93.5091 86.8149C93.2027 88.0171 92.6134 89.0189 91.1755 88.8067C89.8673 88.6181 89.6551 87.4985 89.6551 86.426C89.6669 83.3145 89.7612 80.1912 89.8201 77.0797C89.8201 76.4668 89.8201 75.8539 89.8201 74.7342L89.8319 74.7578ZM48.0977 86.367C47.308 81.8412 46.424 77.6572 44.2554 73.0488C43.3008 77.6689 42.4993 81.5583 41.6507 85.6245C43.8901 85.8838 45.8112 86.0959 48.0977 86.367ZM52.8356 84.3752L53.5546 84.2809C52.5174 79.7197 54.5328 75.1703 53.6017 70.1141L49.6181 72.6953C50.7377 76.785 51.7867 80.5801 52.8356 84.3752V84.3752ZM58.7286 68.8766V74.7932C61.3805 73.3906 62.0994 71.4459 62.3823 68.8766H58.7286Z" fill="#29FFD9"/>
<path d="M93.6373 106.664C102.76 101.243 110.138 94.8899 118.294 88.7612C117.245 88.6198 116.608 88.5255 115.984 88.4666C113.509 88.2191 111.022 88.0423 108.57 87.7005C107.474 87.5473 106.472 86.7576 106.755 85.5908C106.92 84.8837 107.851 84.1176 108.606 83.8583C109.761 83.4693 111.045 83.4104 112.283 83.3632C117.174 83.1629 121.994 82.6325 126.709 81.1239C129.042 80.3696 131.518 79.9924 133.957 79.6271C135.501 79.3913 137.033 79.6506 138.377 80.9235C137.764 82.1964 137.222 83.3986 136.609 84.5772C134.346 88.997 132.024 93.4049 129.809 97.8483C129.208 99.0386 128.665 100.182 127.11 99.8283C125.613 99.4865 125.177 98.1783 125.342 96.9171C125.672 94.3832 126.249 91.8845 126.756 89.2562C123.904 91.3188 120.922 93.3931 118.034 95.5853C111.175 100.795 104.374 106.087 97.515 111.296C96.2774 112.227 94.9456 113.076 93.5548 113.759C90.2194 115.374 87.3436 113.641 87.3907 109.917C87.4261 107.548 87.9565 105.191 88.2865 102.822C88.4279 101.832 88.6401 100.842 88.9465 99.1211C86.884 100.029 85.3753 100.583 83.9728 101.337C76.0526 105.674 68.0853 109.929 60.2947 114.478C57.0889 116.352 54.3428 118.981 51.2667 121.09C49.8641 122.057 48.2141 122.964 46.5758 123.2C43.9358 123.589 42.5214 121.255 43.8651 118.933C44.4072 117.991 45.3619 117.248 46.2223 116.517C57.7372 106.853 71.2086 100.618 84.7978 94.5835C86.3182 93.9117 87.8151 93.1338 89.4062 92.7095C93.2248 91.6842 95.5231 93.7467 95.0163 97.6832C94.6509 100.441 94.1677 103.187 93.6255 106.641L93.6373 106.664Z" fill="#29FFD9"/>
<path d="M119.347 59.9318C119.677 59.8257 120.183 59.8257 120.313 59.6136C121.138 58.1757 122.069 57.5628 123.884 58.1639C124.733 58.4468 126.053 57.8692 126.949 57.3271C128.917 56.1013 130.755 55.8067 132.641 57.4803C133.313 56.9028 133.938 56.3842 134.55 55.842C136.919 53.7677 139.618 53.3316 142.353 54.7813C143.767 55.5238 144.675 55.076 145.771 54.416C148.529 52.7541 151.275 51.0805 154.056 49.4658C155.423 48.6762 156.838 48.0397 158.452 48.9826C160.114 49.9608 160.279 51.7523 158.57 52.6245C157.121 53.367 155.459 53.697 153.726 54.2627V59.0714C156.885 58.1993 156.873 58.211 158.759 60.9218C160.114 62.8783 161.387 64.9291 162.955 66.7087C163.862 67.7459 165.218 68.4884 166.502 69.0895C167.092 69.3606 168.306 69.2663 168.647 68.8538C169.06 68.3588 169.166 67.1448 168.836 66.5909C168.034 65.2944 167.009 64.0805 165.866 63.0551C164.64 61.959 163.143 61.1575 161.811 60.1557C158.641 57.7514 158.417 54.4395 161.199 51.6109C165.607 47.1204 173.338 48.7115 175.66 54.5927C176.061 55.6181 176.285 56.6789 175.295 57.4332C174.305 58.1875 173.303 57.7396 172.454 57.0324C171.9 56.5728 171.452 55.9835 170.898 55.5002C168.812 53.6852 167.917 53.7088 165.288 55.7713C166.408 56.6081 167.516 57.3271 168.518 58.1875C170.156 59.6018 171.912 60.9572 173.267 62.619C176.426 66.473 175.66 71.8239 171.629 74.2871C170.557 74.9471 169.095 75.2536 167.822 75.23C163.202 75.1475 159.784 72.8021 157.18 69.1249C156.307 67.8874 155.412 66.6616 153.962 65.5891C153.797 67.3098 153.667 69.0188 153.479 70.7396C153.314 72.1775 153.196 73.6389 152.878 75.0532C152.371 77.3515 151.192 78.4947 149.778 78.2708C148.317 78.0469 147.397 76.7151 147.503 74.3461C147.633 71.2346 147.987 68.1349 148.293 65.0351C148.588 61.959 148.953 58.8946 149.342 55.2292C147.444 55.7831 146.124 56.1721 144.816 56.561C145.311 59.3307 144.969 60.7922 143.614 61.3343C141.327 62.2536 140.644 60.1086 139.501 58.93C137.851 59.4014 136.919 60.4032 136.542 61.9236C135.67 65.5066 135.588 69.0659 137.014 72.7078C140.267 72.2953 140.561 69.2663 142.117 67.3688C142.895 70.9635 142.023 73.9689 139.465 76.5501C136.79 79.2491 133.089 78.6362 131.675 75.0886C131.227 73.9571 130.979 72.6607 130.991 71.4467C131.015 67.9345 131.215 64.4105 131.356 60.7332C129.942 60.5918 128.351 60.3679 126.76 60.2972C124.792 60.2147 124.32 60.6743 124.238 62.5718C124.191 63.7033 124.238 64.8465 124.238 66.1902C125.251 65.7894 126.065 65.3533 126.937 65.153C128.021 64.9055 129.105 65.1058 129.424 66.3787C129.73 67.6163 128.952 68.4059 127.856 68.677C126.359 69.0424 124.815 69.2192 123.189 69.4903C122.505 71.7532 121.857 73.8864 121.067 76.5029C122.104 76.0904 122.717 75.6897 123.354 75.619C124.874 75.4539 126.454 75.23 127.939 75.454C129.094 75.6308 129.989 76.6208 129.683 77.988C129.424 79.1783 128.351 79.1312 127.408 79.0722C123.99 78.8601 120.584 78.813 117.484 80.2626C115.422 78.4476 115.811 76.4911 116.365 74.405C117.378 70.5981 118.274 66.7559 119.146 62.9136C119.37 61.9354 119.335 60.8982 119.417 59.8846L119.382 59.9318H119.347Z" fill="#29FFD9"/>
<path d="M119.379 59.8862C118.33 60.334 117.293 60.8055 116.232 61.218C115.266 61.5951 114.287 61.9134 113.286 62.2552C112.708 64.6359 112.437 66.8753 112.449 69.315C112.449 72.9804 111.341 76.6577 110.563 80.3113C110.304 81.5606 109.196 82.1971 107.923 81.9967C106.544 81.7846 106.108 80.5589 106.179 79.4038C106.355 76.6105 106.733 73.829 107.015 71.0475C107.287 68.3957 107.546 65.732 107.852 62.6323C106.037 62.9506 104.658 63.1862 103.044 63.4573C102.973 65.791 102.678 67.9832 102.902 70.1164C103.397 74.878 101.971 79.392 101.405 84.0121C101.323 84.6486 100.38 85.7093 99.9438 85.6504C99.2013 85.5679 98.2584 84.8961 97.9166 84.2125C97.4334 83.2225 97.2095 82.0085 97.2448 80.8888C97.3391 77.7891 97.6573 74.6894 97.8106 71.5897C97.9166 69.315 97.9638 67.0285 97.9166 64.7538C97.8813 62.7855 98.5648 61.5362 100.321 60.8762C100.792 60.6994 101.335 60.6758 101.771 60.4401C102.077 60.2751 102.277 59.8862 102.714 59.3558C102.855 60.3576 102.949 61.0412 103.114 62.1373C106.485 60.723 109.679 59.3912 112.873 58.0476C113.545 57.7647 114.17 57.3993 114.841 57.1047C118.118 55.655 119.461 56.5036 119.355 59.9451L119.391 59.8862H119.379Z" fill="#29FFD9"/>
<path d="M87.0136 46.9198C87.4261 46.9787 87.7207 47.073 88.0154 47.073C88.9583 47.073 90.019 46.9551 90.2547 48.1927C90.4787 49.3595 89.5122 49.7013 88.699 50.2081C88.039 50.6206 87.5439 51.316 86.9664 51.8817L87.2964 52.4238C87.8622 52.4238 88.4279 52.3767 88.9818 52.4238C90.1604 52.5535 90.4905 53.3313 90.4433 54.4039C90.3962 55.4057 90.1368 56.5136 89.0172 56.4547C86.9075 56.3486 85.3753 57.1382 83.796 58.4465C82.4995 59.5308 80.8495 58.8118 80.5195 57.0557C80.2602 55.6768 80.2248 54.1446 80.5666 52.801C81.2502 50.1256 82.252 47.5326 83.1713 44.9162C83.3363 44.4447 83.6546 43.9733 84.0199 43.655C85.175 42.6414 86.3064 41.5689 87.6029 40.7439C88.5104 40.1664 89.6419 39.7421 90.7026 39.6596C91.7869 39.5771 92.6709 40.296 92.8359 41.51C92.9891 42.665 92.5883 43.5961 91.4215 43.9497C90.3372 44.2797 89.2058 44.4801 88.0979 44.6922C86.9428 44.9162 86.4596 45.4819 87.0253 46.908L87.0136 46.9198Z" fill="#29FFD9"/>
</svg>
