<svg width="295" height="295" viewBox="0 0 295 295" fill="none" xmlns="http://www.w3.org/2000/svg">
<g style="mix-blend-mode:color-dodge">
<path d="M147.5 1L20.6273 220.75H274.373L147.5 1Z" stroke="white" stroke-opacity="0.5" stroke-width="0.339407" stroke-miterlimit="10"/>
<path d="M74.2499 20.6274V274.373L294 147.5L74.2499 20.6274Z" stroke="white" stroke-opacity="0.5" stroke-width="0.339407" stroke-miterlimit="10"/>
<path d="M20.6273 74.25L147.5 294L274.373 74.2502L20.6273 74.25Z" stroke="white" stroke-opacity="0.5" stroke-width="0.339407" stroke-miterlimit="10"/>
<path d="M1 147.5L220.75 274.373V20.6274L1 147.5Z" stroke="white" stroke-opacity="0.5" stroke-width="0.339407" stroke-miterlimit="10"/>
<path d="M274.373 220.75L147.5 294L20.6273 220.75V74.25L147.5 1L274.373 74.25V220.75Z" stroke="white" stroke-opacity="0.5" stroke-width="0.339407" stroke-miterlimit="10"/>
<path d="M74.25 274.373L1 147.5L74.25 20.6274H220.75L294 147.5L220.75 274.373H74.25Z" stroke="white" stroke-opacity="0.5" stroke-width="0.339407" stroke-miterlimit="10"/>
<path d="M113.504 274.373L181.495 20.6274" stroke="white" stroke-opacity="0.5" stroke-width="0.339407" stroke-miterlimit="10"/>
<path d="M74.2499 274.373L220.75 20.6274" stroke="white" stroke-opacity="0.5" stroke-width="0.339407" stroke-miterlimit="10"/>
<path d="M54.872 240.128L240.47 54.5298" stroke="white" stroke-opacity="0.5" stroke-width="0.339407" stroke-miterlimit="10"/>
<path d="M20.6273 220.75L274.373 74.25" stroke="white" stroke-opacity="0.5" stroke-width="0.339407" stroke-miterlimit="10"/>
<path d="M20.6274 181.495L274.373 113.504" stroke="white" stroke-opacity="0.5" stroke-width="0.339407" stroke-miterlimit="10"/>
<path d="M1 147.5H294" stroke="white" stroke-opacity="0.5" stroke-width="0.339407" stroke-miterlimit="10"/>
<path d="M20.6274 113.505L274.373 181.496" stroke="white" stroke-opacity="0.5" stroke-width="0.339407" stroke-miterlimit="10"/>
<path d="M20.6273 74.25L274.373 220.75" stroke="white" stroke-opacity="0.5" stroke-width="0.339407" stroke-miterlimit="10"/>
<path d="M54.872 54.8726L240.47 240.47" stroke="white" stroke-opacity="0.5" stroke-width="0.339407" stroke-miterlimit="10"/>
<path d="M74.2499 20.6274L220.75 274.373" stroke="white" stroke-opacity="0.5" stroke-width="0.339407" stroke-miterlimit="10"/>
<path d="M113.505 20.6274L181.496 274.376" stroke="white" stroke-opacity="0.5" stroke-width="0.339407" stroke-miterlimit="10"/>
<path d="M147.5 1V294" stroke="white" stroke-opacity="0.5" stroke-width="0.339407" stroke-miterlimit="10"/>
</g>
</svg>
