<svg width="1513" height="915" viewBox="0 0 1513 915" fill="none" xmlns="http://www.w3.org/2000/svg">
<g style="mix-blend-mode:color-dodge" opacity="0.5">
<path d="M999.419 214.574C865.343 80.4976 647.856 80.2815 513.564 214.574C379.488 348.65 379.272 566.136 513.564 700.428C647.64 834.504 865.127 834.72 999.419 700.428C1133.49 566.352 1133.71 348.866 999.419 214.574Z" stroke="white" stroke-width="0.603504" stroke-miterlimit="10"/>
<path d="M941.148 272.844C839.233 170.93 673.915 170.765 571.835 272.844C469.921 374.759 469.756 540.077 571.835 642.157C673.751 744.071 839.068 744.236 941.148 642.157C1043.06 540.242 1043.23 374.924 941.148 272.844Z" stroke="white" stroke-width="0.603504" stroke-miterlimit="10"/>
<path d="M1017.63 457.501L941.148 272.845" stroke="white" stroke-width="0.603504" stroke-miterlimit="10"/>
<path d="M1017.63 457.501L756.491 196.357" stroke="white" stroke-width="0.603504" stroke-miterlimit="10"/>
<path d="M1017.63 457.501L571.835 272.845" stroke="white" stroke-width="0.603504" stroke-miterlimit="10"/>
<path d="M1017.63 457.5H495.348" stroke="white" stroke-width="0.603504" stroke-miterlimit="10"/>
<path d="M1017.63 457.5L571.835 642.157" stroke="white" stroke-width="0.603504" stroke-miterlimit="10"/>
<path d="M1017.63 457.5L756.491 718.644" stroke="white" stroke-width="0.603504" stroke-miterlimit="10"/>
<path d="M1017.63 457.5L941.148 642.157" stroke="white" stroke-width="0.603504" stroke-miterlimit="10"/>
<path d="M941.147 272.844L756.491 196.357" stroke="white" stroke-width="0.603504" stroke-miterlimit="10"/>
<path d="M941.148 272.845H571.835" stroke="white" stroke-width="0.603504" stroke-miterlimit="10"/>
<path d="M941.147 272.845L495.348 457.501" stroke="white" stroke-width="0.603504" stroke-miterlimit="10"/>
<path d="M941.148 272.845L571.835 642.157" stroke="white" stroke-width="0.603504" stroke-miterlimit="10"/>
<path d="M941.147 272.845L756.491 718.644" stroke="white" stroke-width="0.603504" stroke-miterlimit="10"/>
<path d="M941.148 272.845V642.157" stroke="white" stroke-width="0.603504" stroke-miterlimit="10"/>
<path d="M756.491 196.357L571.835 272.844" stroke="white" stroke-width="0.603504" stroke-miterlimit="10"/>
<path d="M756.491 196.357L495.348 457.501" stroke="white" stroke-width="0.603504" stroke-miterlimit="10"/>
<path d="M756.491 196.357L571.835 642.157" stroke="white" stroke-width="0.603504" stroke-miterlimit="10"/>
<path d="M756.491 196.357V718.644" stroke="white" stroke-width="0.603504" stroke-miterlimit="10"/>
<path d="M756.491 196.357L941.147 642.157" stroke="white" stroke-width="0.603504" stroke-miterlimit="10"/>
<path d="M571.835 272.845L495.348 457.501" stroke="white" stroke-width="0.603504" stroke-miterlimit="10"/>
<path d="M571.835 272.845V642.157" stroke="white" stroke-width="0.603504" stroke-miterlimit="10"/>
<path d="M571.835 272.845L756.491 718.644" stroke="white" stroke-width="0.603504" stroke-miterlimit="10"/>
<path d="M571.835 272.845L941.148 642.157" stroke="white" stroke-width="0.603504" stroke-miterlimit="10"/>
<path d="M495.348 457.5L571.835 642.157" stroke="white" stroke-width="0.603504" stroke-miterlimit="10"/>
<path d="M495.348 457.5L756.491 718.644" stroke="white" stroke-width="0.603504" stroke-miterlimit="10"/>
<path d="M495.348 457.5L941.147 642.157" stroke="white" stroke-width="0.603504" stroke-miterlimit="10"/>
<path d="M571.835 642.157L756.491 718.644" stroke="white" stroke-width="0.603504" stroke-miterlimit="10"/>
<path d="M571.835 642.157H941.148" stroke="white" stroke-width="0.603504" stroke-miterlimit="10"/>
<path d="M756.491 718.644L941.147 642.157" stroke="white" stroke-width="0.603504" stroke-miterlimit="10"/>
<path d="M1100.04 457.5L999.419 214.573" stroke="white" stroke-width="0.603504" stroke-miterlimit="10"/>
<path d="M1100.04 457.5L756.492 113.949" stroke="white" stroke-width="0.603504" stroke-miterlimit="10"/>
<path d="M1100.04 457.5L513.565 214.573" stroke="white" stroke-width="0.603504" stroke-miterlimit="10"/>
<path d="M1100.04 457.5H412.941" stroke="white" stroke-width="0.603504" stroke-miterlimit="10"/>
<path d="M1100.04 457.5L513.565 700.428" stroke="white" stroke-width="0.603504" stroke-miterlimit="10"/>
<path d="M1100.04 457.5L756.492 801.051" stroke="white" stroke-width="0.603504" stroke-miterlimit="10"/>
<path d="M1100.04 457.5L999.419 700.428" stroke="white" stroke-width="0.603504" stroke-miterlimit="10"/>
<path d="M999.419 214.573L756.492 113.949" stroke="white" stroke-width="0.603504" stroke-miterlimit="10"/>
<path d="M999.419 214.573H513.565" stroke="white" stroke-width="0.603504" stroke-miterlimit="10"/>
<path d="M999.419 214.573L412.941 457.5" stroke="white" stroke-width="0.603504" stroke-miterlimit="10"/>
<path d="M999.419 214.573L513.565 700.428" stroke="white" stroke-width="0.603504" stroke-miterlimit="10"/>
<path d="M999.419 214.573L756.492 801.051" stroke="white" stroke-width="0.603504" stroke-miterlimit="10"/>
<path d="M999.419 214.573V700.428" stroke="white" stroke-width="0.603504" stroke-miterlimit="10"/>
<path d="M756.492 113.949L513.565 214.573" stroke="white" stroke-width="0.603504" stroke-miterlimit="10"/>
<path d="M756.491 113.949L412.941 457.5" stroke="white" stroke-width="0.603504" stroke-miterlimit="10"/>
<path d="M756.492 113.949L513.565 700.428" stroke="white" stroke-width="0.603504" stroke-miterlimit="10"/>
<path d="M756.492 113.949V801.051" stroke="white" stroke-width="0.603504" stroke-miterlimit="10"/>
<path d="M756.492 113.949L999.419 700.428" stroke="white" stroke-width="0.603504" stroke-miterlimit="10"/>
<path d="M513.564 214.573L412.941 457.5" stroke="white" stroke-width="0.603504" stroke-miterlimit="10"/>
<path d="M513.565 214.573V700.428" stroke="white" stroke-width="0.603504" stroke-miterlimit="10"/>
<path d="M513.565 214.573L756.492 801.051" stroke="white" stroke-width="0.603504" stroke-miterlimit="10"/>
<path d="M513.565 214.573L999.419 700.428" stroke="white" stroke-width="0.603504" stroke-miterlimit="10"/>
<path d="M412.941 457.5L513.564 700.428" stroke="white" stroke-width="0.603504" stroke-miterlimit="10"/>
<path d="M412.941 457.5L756.492 801.051" stroke="white" stroke-width="0.603504" stroke-miterlimit="10"/>
<path d="M412.941 457.5L999.419 700.428" stroke="white" stroke-width="0.603504" stroke-miterlimit="10"/>
<path d="M513.565 700.428L756.492 801.051" stroke="white" stroke-width="0.603504" stroke-miterlimit="10"/>
<path d="M513.565 700.428H999.419" stroke="white" stroke-width="0.603504" stroke-miterlimit="10"/>
<path d="M756.492 801.051L999.419 700.428" stroke="white" stroke-width="0.603504" stroke-miterlimit="10"/>
<path d="M473.709 824.885C292.027 757.813 138.987 627.205 43.7771 457.427C297.31 5.32594 898.185 -97.0673 1286.95 235.421C1359.99 297.892 1421.88 373.028 1469.21 457.427C1270.04 812.589 845.508 962.141 473.709 824.885Z" stroke="white" stroke-width="0.603504" stroke-miterlimit="10"/>
<path d="M1286.95 679.434L1039.28 824.885" stroke="white" stroke-width="0.603504" stroke-miterlimit="10"/>
<path d="M1286.95 679.434L756.492 875.177" stroke="white" stroke-width="0.603504" stroke-miterlimit="10"/>
<path d="M1286.95 679.434L473.709 824.885" stroke="white" stroke-width="0.603504" stroke-miterlimit="10"/>
<path d="M1286.95 679.434H226.038" stroke="white" stroke-width="0.603504" stroke-miterlimit="10"/>
<path d="M1286.95 679.434L43.7771 457.428" stroke="white" stroke-width="0.603504" stroke-miterlimit="10"/>
<path d="M1286.95 679.433L226.038 235.421" stroke="white" stroke-width="0.603504" stroke-miterlimit="10"/>
<path d="M1286.95 679.433L473.709 89.9702" stroke="white" stroke-width="0.603504" stroke-miterlimit="10"/>
<path d="M1286.95 679.433L756.492 39.6777" stroke="white" stroke-width="0.603504" stroke-miterlimit="10"/>
<path d="M1286.95 679.433L1039.28 89.9702" stroke="white" stroke-width="0.603504" stroke-miterlimit="10"/>
<path d="M1286.95 679.433V235.421" stroke="white" stroke-width="0.603504" stroke-miterlimit="10"/>
<path d="M1286.95 679.434L1469.21 457.428" stroke="white" stroke-width="0.603504" stroke-miterlimit="10"/>
<path d="M1039.27 824.885L756.492 875.177" stroke="white" stroke-width="0.603504" stroke-miterlimit="10"/>
<path d="M1039.27 824.885H473.709" stroke="white" stroke-width="0.603504" stroke-miterlimit="10"/>
<path d="M1039.27 824.885L226.038 679.434" stroke="white" stroke-width="0.603504" stroke-miterlimit="10"/>
<path d="M1039.27 824.885L43.7771 457.428" stroke="white" stroke-width="0.603504" stroke-miterlimit="10"/>
<path d="M1039.27 824.885L226.038 235.421" stroke="white" stroke-width="0.603504" stroke-miterlimit="10"/>
<path d="M1039.27 824.885L473.709 89.9702" stroke="white" stroke-width="0.603504" stroke-miterlimit="10"/>
<path d="M1039.27 824.885L756.492 39.6777" stroke="white" stroke-width="0.603504" stroke-miterlimit="10"/>
<path d="M1039.28 824.885V89.9702" stroke="white" stroke-width="0.603504" stroke-miterlimit="10"/>
<path d="M1039.28 824.885L1286.95 235.421" stroke="white" stroke-width="0.603504" stroke-miterlimit="10"/>
<path d="M1039.28 824.885L1469.21 457.428" stroke="white" stroke-width="0.603504" stroke-miterlimit="10"/>
<path d="M756.492 875.177L473.709 824.885" stroke="white" stroke-width="0.603504" stroke-miterlimit="10"/>
<path d="M756.492 875.177L226.038 679.434" stroke="white" stroke-width="0.603504" stroke-miterlimit="10"/>
<path d="M756.492 875.177L43.7771 457.428" stroke="white" stroke-width="0.603504" stroke-miterlimit="10"/>
<path d="M756.492 875.177L226.038 235.421" stroke="white" stroke-width="0.603504" stroke-miterlimit="10"/>
<path d="M756.492 875.177L473.709 89.9702" stroke="white" stroke-width="0.603504" stroke-miterlimit="10"/>
<path d="M756.492 875.177V39.6777" stroke="white" stroke-width="0.603504" stroke-miterlimit="10"/>
<path d="M756.492 875.177L1039.27 89.9702" stroke="white" stroke-width="0.603504" stroke-miterlimit="10"/>
<path d="M756.492 875.177L1286.95 235.421" stroke="white" stroke-width="0.603504" stroke-miterlimit="10"/>
<path d="M756.492 875.177L1469.21 457.428" stroke="white" stroke-width="0.603504" stroke-miterlimit="10"/>
<path d="M473.709 824.885L226.038 679.434" stroke="white" stroke-width="0.603504" stroke-miterlimit="10"/>
<path d="M473.709 824.885L43.7771 457.428" stroke="white" stroke-width="0.603504" stroke-miterlimit="10"/>
<path d="M473.709 824.885L226.038 235.421" stroke="white" stroke-width="0.603504" stroke-miterlimit="10"/>
<path d="M473.709 824.885V89.9702" stroke="white" stroke-width="0.603504" stroke-miterlimit="10"/>
<path d="M473.709 824.885L756.492 39.6777" stroke="white" stroke-width="0.603504" stroke-miterlimit="10"/>
<path d="M473.709 824.885L1039.27 89.9702" stroke="white" stroke-width="0.603504" stroke-miterlimit="10"/>
<path d="M473.709 824.885L1286.95 235.421" stroke="white" stroke-width="0.603504" stroke-miterlimit="10"/>
<path d="M473.709 824.885L1469.21 457.428" stroke="white" stroke-width="0.603504" stroke-miterlimit="10"/>
<path d="M226.038 679.434L43.7771 457.428" stroke="white" stroke-width="0.603504" stroke-miterlimit="10"/>
<path d="M226.038 679.433V235.421" stroke="white" stroke-width="0.603504" stroke-miterlimit="10"/>
<path d="M226.038 679.433L473.709 89.9702" stroke="white" stroke-width="0.603504" stroke-miterlimit="10"/>
<path d="M226.038 679.433L756.492 39.6777" stroke="white" stroke-width="0.603504" stroke-miterlimit="10"/>
<path d="M226.038 679.433L1039.27 89.9702" stroke="white" stroke-width="0.603504" stroke-miterlimit="10"/>
<path d="M226.038 679.433L1286.95 235.421" stroke="white" stroke-width="0.603504" stroke-miterlimit="10"/>
<path d="M226.038 679.434L1469.21 457.428" stroke="white" stroke-width="0.603504" stroke-miterlimit="10"/>
<path d="M43.7771 457.427L226.038 235.421" stroke="white" stroke-width="0.603504" stroke-miterlimit="10"/>
<path d="M43.7771 457.427L473.709 89.9702" stroke="white" stroke-width="0.603504" stroke-miterlimit="10"/>
<path d="M43.7772 457.427L756.492 39.6777" stroke="white" stroke-width="0.603504" stroke-miterlimit="10"/>
<path d="M43.7771 457.427L1039.27 89.9702" stroke="white" stroke-width="0.603504" stroke-miterlimit="10"/>
<path d="M43.7771 457.427L1286.95 235.421" stroke="white" stroke-width="0.603504" stroke-miterlimit="10"/>
<path d="M43.7771 457.428H1469.21" stroke="white" stroke-width="0.603504" stroke-miterlimit="10"/>
<path d="M226.038 235.421L473.709 89.9702" stroke="white" stroke-width="0.603504" stroke-miterlimit="10"/>
<path d="M226.038 235.421L756.492 39.6777" stroke="white" stroke-width="0.603504" stroke-miterlimit="10"/>
<path d="M226.038 235.421L1039.27 89.9702" stroke="white" stroke-width="0.603504" stroke-miterlimit="10"/>
<path d="M226.038 235.421H1286.95" stroke="white" stroke-width="0.603504" stroke-miterlimit="10"/>
<path d="M226.038 235.421L1469.21 457.427" stroke="white" stroke-width="0.603504" stroke-miterlimit="10"/>
<path d="M473.709 89.9703L756.492 39.6777" stroke="white" stroke-width="0.603504" stroke-miterlimit="10"/>
<path d="M473.709 89.9702H1039.27" stroke="white" stroke-width="0.603504" stroke-miterlimit="10"/>
<path d="M473.709 89.9702L1286.95 235.421" stroke="white" stroke-width="0.603504" stroke-miterlimit="10"/>
<path d="M473.709 89.9702L1469.21 457.427" stroke="white" stroke-width="0.603504" stroke-miterlimit="10"/>
<path d="M756.492 39.6777L1039.27 89.9703" stroke="white" stroke-width="0.603504" stroke-miterlimit="10"/>
<path d="M756.492 39.6777L1286.95 235.421" stroke="white" stroke-width="0.603504" stroke-miterlimit="10"/>
<path d="M756.492 39.6777L1469.21 457.427" stroke="white" stroke-width="0.603504" stroke-miterlimit="10"/>
<path d="M1039.28 89.9702L1286.95 235.421" stroke="white" stroke-width="0.603504" stroke-miterlimit="10"/>
<path d="M1039.28 89.9702L1469.21 457.427" stroke="white" stroke-width="0.603504" stroke-miterlimit="10"/>
<path d="M1286.95 235.421L1469.21 457.427" stroke="white" stroke-width="0.603504" stroke-miterlimit="10"/>
<path d="M756.768 478.479C768.3 478.479 777.649 469.131 777.649 457.599C777.649 446.067 768.3 436.718 756.768 436.718C745.236 436.718 735.888 446.067 735.888 457.599C735.888 469.131 745.236 478.479 756.768 478.479Z" fill="white"/>
</g>
</svg>
