<svg width="570" height="568" viewBox="0 0 570 568" fill="none" xmlns="http://www.w3.org/2000/svg">
<g style="mix-blend-mode:color-dodge">
<path d="M424.507 35.5132L444.15 65.2067L478.461 74.7131" stroke="white" stroke-opacity="0.5" stroke-width="0.3" stroke-miterlimit="10"/>
<path d="M564.681 340.07L542.511 367.928L544.072 403.497" stroke="white" stroke-opacity="0.5" stroke-width="0.3" stroke-miterlimit="10"/>
<path d="M318.345 567.498L285 555.022L251.654 567.498" stroke="white" stroke-opacity="0.5" stroke-width="0.3" stroke-miterlimit="10"/>
<path d="M25.9276 403.497L27.4889 367.928L5.31897 340.07" stroke="white" stroke-opacity="0.5" stroke-width="0.3" stroke-miterlimit="10"/>
<path d="M91.5391 74.7131L125.849 65.2067L145.493 35.5132" stroke="white" stroke-opacity="0.5" stroke-width="0.3" stroke-miterlimit="10"/>
<path d="M332.264 1L411.927 79.3222L405.366 118.588L440.682 100.214L539.789 151.776" stroke="white" stroke-opacity="0.5" stroke-width="0.3" stroke-miterlimit="10"/>
<path d="M569 241.677L519.128 341.645L479.757 347.539L508.145 375.449L489.732 485.638" stroke="white" stroke-opacity="0.5" stroke-width="0.3" stroke-miterlimit="10"/>
<path d="M413.258 541.2L302.771 524.661L285 489.038L267.228 524.661L156.742 541.2" stroke="white" stroke-opacity="0.5" stroke-width="0.3" stroke-miterlimit="10"/>
<path d="M80.2676 485.638L61.8548 375.449L90.2429 347.539L50.8713 341.645L1 241.677" stroke="white" stroke-opacity="0.5" stroke-width="0.3" stroke-miterlimit="10"/>
<path d="M30.2108 151.776L129.317 100.214L164.634 118.588L158.072 79.3222L237.736 1" stroke="white" stroke-opacity="0.5" stroke-width="0.3" stroke-miterlimit="10"/>
<path d="M285 39.5239L369.213 93.2014L311.723 239.247L308.414 252.032L319.55 244.934L440.683 145.127L517.756 208.631L492.729 305.31L336.066 295.765L322.885 296.568L333.076 304.966L465.43 389.328L428.851 482.253L329.17 488.326L289.837 336.381L285 324.093L280.163 336.381L240.829 488.326L141.148 482.253L104.569 389.328L236.923 304.966L247.115 296.568L233.934 295.765L77.2703 305.31L52.2433 208.631L129.317 145.127L250.45 244.934L261.586 252.032L258.276 239.247L200.787 93.2014L285 39.5239Z" stroke="white" stroke-opacity="0.5" stroke-width="0.3" stroke-miterlimit="10"/>
<path d="M285 104.233L308.36 112.973L285 148.285L261.64 112.973L285 104.233Z" stroke="white" stroke-opacity="0.5" stroke-width="0.3" stroke-miterlimit="10"/>
<path d="M456.214 228.627L455.12 253.545L414.318 242.24L440.682 209.111L456.214 228.627Z" stroke="white" stroke-opacity="0.5" stroke-width="0.3" stroke-miterlimit="10"/>
<path d="M390.816 429.902L366.78 436.562L364.923 394.263L404.578 409.1L390.816 429.902Z" stroke="white" stroke-opacity="0.5" stroke-width="0.3" stroke-miterlimit="10"/>
<path d="M179.184 429.902L165.422 409.1L205.077 394.263L203.22 436.562L179.184 429.902Z" stroke="white" stroke-opacity="0.5" stroke-width="0.3" stroke-miterlimit="10"/>
<path d="M113.786 228.627L129.317 209.111L155.682 242.24L114.88 253.545L113.786 228.627Z" stroke="white" stroke-opacity="0.5" stroke-width="0.3" stroke-miterlimit="10"/>
<path d="M424.507 35.5132L411.49 79.4649L425.808 90.4528L440.683 100.675L478.461 74.7131" stroke="white" stroke-opacity="0.5" stroke-width="0.3" stroke-miterlimit="10"/>
<path d="M564.681 340.07L518.858 341.272L512.832 358.285L507.707 375.591L544.072 403.497" stroke="white" stroke-opacity="0.5" stroke-width="0.3" stroke-miterlimit="10"/>
<path d="M318.345 567.497L303.042 524.288L285 523.815L266.958 524.288L251.654 567.497" stroke="white" stroke-opacity="0.5" stroke-width="0.3" stroke-miterlimit="10"/>
<path d="M25.9276 403.497L62.2929 375.591L57.1675 358.285L51.1421 341.272L5.31897 340.07" stroke="white" stroke-opacity="0.5" stroke-width="0.3" stroke-miterlimit="10"/>
<path d="M91.5391 74.7131L129.317 100.675L144.192 90.4528L158.51 79.4649L145.493 35.5132" stroke="white" stroke-opacity="0.5" stroke-width="0.3" stroke-miterlimit="10"/>
<path d="M332.264 1L352.422 98.6567L378.291 155.853L440.682 162.782L539.789 151.776" stroke="white" stroke-opacity="0.5" stroke-width="0.3" stroke-miterlimit="10"/>
<path d="M569 241.677L482.352 291.027L435.949 333.305L448.639 394.783L489.732 485.638" stroke="white" stroke-opacity="0.5" stroke-width="0.3" stroke-miterlimit="10"/>
<path d="M413.258 541.199L339.548 474.042L285 442.975L230.452 474.042L156.742 541.199" stroke="white" stroke-opacity="0.5" stroke-width="0.3" stroke-miterlimit="10"/>
<path d="M80.2676 485.638L121.36 394.783L134.051 333.305L87.6478 291.027L1 241.677" stroke="white" stroke-opacity="0.5" stroke-width="0.3" stroke-miterlimit="10"/>
<path d="M30.2108 151.776L129.317 162.782L191.708 155.853L217.578 98.6567L237.736 1" stroke="white" stroke-opacity="0.5" stroke-width="0.3" stroke-miterlimit="10"/>
<path d="M285 78.9341L309.001 112.765L310.422 238.824L285 272.998L259.577 238.824L260.999 112.765L285 78.9341Z" stroke="white" stroke-opacity="0.5" stroke-width="0.3" stroke-miterlimit="10"/>
<path d="M480.274 220.809L455.516 254.09L336.066 294.396L295.709 280.778L320.354 246.039L440.683 208.437L480.274 220.809Z" stroke="white" stroke-opacity="0.5" stroke-width="0.3" stroke-miterlimit="10"/>
<path d="M405.686 450.368L366.383 437.106L291.138 335.957L291.618 293.367L332.272 306.071L405.218 408.891L405.686 450.368Z" stroke="white" stroke-opacity="0.5" stroke-width="0.3" stroke-miterlimit="10"/>
<path d="M164.314 450.368L164.781 408.891L237.727 306.071L278.382 293.367L278.862 335.957L203.616 437.106L164.314 450.368Z" stroke="white" stroke-opacity="0.5" stroke-width="0.3" stroke-miterlimit="10"/>
<path d="M89.7253 220.809L129.317 208.437L249.645 246.039L274.291 280.778L233.933 294.396L114.483 254.09L89.7253 220.809Z" stroke="white" stroke-opacity="0.5" stroke-width="0.3" stroke-miterlimit="10"/>
<path d="M424.507 35.5132L448.55 59.1513L478.461 74.7131" stroke="white" stroke-opacity="0.5" stroke-width="0.3" stroke-miterlimit="10"/>
<path d="M564.681 340.07L549.629 370.241L544.072 403.497" stroke="white" stroke-opacity="0.5" stroke-width="0.3" stroke-miterlimit="10"/>
<path d="M318.345 567.497L285 562.506L251.654 567.497" stroke="white" stroke-opacity="0.5" stroke-width="0.3" stroke-miterlimit="10"/>
<path d="M25.9276 403.497L20.3705 370.241L5.31897 340.07" stroke="white" stroke-opacity="0.5" stroke-width="0.3" stroke-miterlimit="10"/>
<path d="M91.5391 74.7131L121.45 59.1513L145.493 35.5132" stroke="white" stroke-opacity="0.5" stroke-width="0.3" stroke-miterlimit="10"/>
<path d="M332.264 1L440.55 70.022L440.431 70.3251L440.682 70.118L539.789 151.776" stroke="white" stroke-opacity="0.5" stroke-width="0.3" stroke-miterlimit="10"/>
<path d="M569 241.677L536.819 365.993L536.494 365.973L536.768 366.148L489.732 485.638" stroke="white" stroke-opacity="0.5" stroke-width="0.3" stroke-miterlimit="10"/>
<path d="M413.258 541.2L285.081 549.009L285 548.694L284.918 549.009L156.742 541.2" stroke="white" stroke-opacity="0.5" stroke-width="0.3" stroke-miterlimit="10"/>
<path d="M80.2676 485.638L33.2318 366.148L33.5064 365.973L33.1814 365.993L1 241.677" stroke="white" stroke-opacity="0.5" stroke-width="0.3" stroke-miterlimit="10"/>
<path d="M30.2108 151.776L129.317 70.118L129.568 70.3251L129.449 70.022L237.736 1" stroke="white" stroke-opacity="0.5" stroke-width="0.3" stroke-miterlimit="10"/>
<path d="M285 26.0874L420.146 76.6525L312.429 239.477L312.101 246.957L319.114 244.333L440.683 91.5734L530.535 204.479L524.207 348.636L336.066 296.507L328.851 298.507L333.513 304.365L516.363 372.779L436.749 493.124L297.692 531.652L289.131 336.611L285 330.366L280.869 336.611L272.307 531.652L133.25 493.124L53.6366 372.779L236.487 304.365L241.149 298.507L233.934 296.507L45.7921 348.636L39.4643 204.479L129.317 91.5734L250.886 244.333L257.898 246.957L257.57 239.477L149.854 76.6525L285 26.0874Z" stroke="white" stroke-opacity="0.5" stroke-width="0.3" stroke-miterlimit="10"/>
<path d="M285 73.165L384.868 88.1144L285 186.301L185.131 88.1144L285 73.165Z" stroke="white" stroke-opacity="0.5" stroke-width="0.3" stroke-miterlimit="10"/>
<path d="M485.762 219.027L502.405 318.628L378.163 253.988L440.683 128.666L485.762 219.027Z" stroke="white" stroke-opacity="0.5" stroke-width="0.3" stroke-miterlimit="10"/>
<path d="M409.077 455.036L319.495 501.643L342.577 363.507L481.086 384.24L409.077 455.036Z" stroke="white" stroke-opacity="0.5" stroke-width="0.3" stroke-miterlimit="10"/>
<path d="M160.922 455.036L88.9138 384.24L227.422 363.507L250.505 501.643L160.922 455.036Z" stroke="white" stroke-opacity="0.5" stroke-width="0.3" stroke-miterlimit="10"/>
<path d="M84.2383 219.027L129.317 128.666L191.837 253.988L67.5948 318.628L84.2383 219.027Z" stroke="white" stroke-opacity="0.5" stroke-width="0.3" stroke-miterlimit="10"/>
<path d="M285 117.34L297.214 116.596L285 124.381L272.786 116.596L285 117.34Z" stroke="white" stroke-opacity="0.5" stroke-width="0.3" stroke-miterlimit="10"/>
<path d="M443.749 232.678L448.231 244.064L437.053 234.854L440.683 220.832L443.749 232.678Z" stroke="white" stroke-opacity="0.5" stroke-width="0.3" stroke-miterlimit="10"/>
<path d="M383.112 419.298L373.669 427.079L378.974 413.602L393.431 412.721L383.112 419.298Z" stroke="white" stroke-opacity="0.5" stroke-width="0.3" stroke-miterlimit="10"/>
<path d="M186.887 419.298L176.569 412.721L191.026 413.602L196.331 427.079L186.887 419.298Z" stroke="white" stroke-opacity="0.5" stroke-width="0.3" stroke-miterlimit="10"/>
<path d="M126.251 232.678L129.317 220.832L132.947 234.854L121.769 244.064L126.251 232.678Z" stroke="white" stroke-opacity="0.5" stroke-width="0.3" stroke-miterlimit="10"/>
<path d="M424.506 35.5132L401.243 82.794L423.027 94.2801L440.683 111.448L478.461 74.7131" stroke="white" stroke-opacity="0.5" stroke-width="0.3" stroke-miterlimit="10"/>
<path d="M564.681 340.07L512.525 332.557L508.333 356.823L497.461 378.92L544.072 403.497" stroke="white" stroke-opacity="0.5" stroke-width="0.3" stroke-miterlimit="10"/>
<path d="M318.345 567.497L309.375 515.572L285 519.084L260.625 515.572L251.654 567.497" stroke="white" stroke-opacity="0.5" stroke-width="0.3" stroke-miterlimit="10"/>
<path d="M25.9276 403.497L72.5387 378.92L61.6668 356.823L57.4743 332.557L5.31897 340.07" stroke="white" stroke-opacity="0.5" stroke-width="0.3" stroke-miterlimit="10"/>
<path d="M91.5391 74.7131L129.317 111.448L146.973 94.2801L168.756 82.794L145.493 35.5132" stroke="white" stroke-opacity="0.5" stroke-width="0.3" stroke-miterlimit="10"/>
<path d="M332.264 1L345.424 100.931L376.546 158.256L440.682 170.14L539.789 151.776" stroke="white" stroke-opacity="0.5" stroke-width="0.3" stroke-miterlimit="10"/>
<path d="M569 241.677L478.027 285.074L433.124 332.387L441.641 397.057L489.732 485.638" stroke="white" stroke-opacity="0.5" stroke-width="0.3" stroke-miterlimit="10"/>
<path d="M413.258 541.199L343.873 468.089L285 440.005L226.127 468.089L156.742 541.199" stroke="white" stroke-opacity="0.5" stroke-width="0.3" stroke-miterlimit="10"/>
<path d="M80.2676 485.638L128.359 397.057L136.875 332.387L91.9729 285.074L1 241.677" stroke="white" stroke-opacity="0.5" stroke-width="0.3" stroke-miterlimit="10"/>
<path d="M30.2108 151.776L129.317 170.14L193.454 158.256L224.576 100.931L237.736 1" stroke="white" stroke-opacity="0.5" stroke-width="0.3" stroke-miterlimit="10"/>
<path d="M285 78.1182L309.7 112.538L310.442 238.831L285 273.42L259.558 238.831L260.3 112.538L285 78.1182Z" stroke="white" stroke-opacity="0.5" stroke-width="0.3" stroke-miterlimit="10"/>
<path d="M481.051 220.557L455.948 254.684L336.066 294.417L295.308 280.908L320.342 246.023L440.683 207.702L481.051 220.557Z" stroke="white" stroke-opacity="0.5" stroke-width="0.3" stroke-miterlimit="10"/>
<path d="M406.166 451.029L365.952 437.7L291.118 335.964L291.371 293.026L332.285 306.055L405.917 408.664L406.166 451.029Z" stroke="white" stroke-opacity="0.5" stroke-width="0.3" stroke-miterlimit="10"/>
<path d="M163.834 451.029L164.083 408.664L237.715 306.055L278.629 293.026L278.882 335.964L204.048 437.7L163.834 451.029Z" stroke="white" stroke-opacity="0.5" stroke-width="0.3" stroke-miterlimit="10"/>
<path d="M88.949 220.557L129.317 207.702L249.658 246.023L274.692 280.908L233.934 294.417L114.052 254.684L88.949 220.557Z" stroke="white" stroke-opacity="0.5" stroke-width="0.3" stroke-miterlimit="10"/>
<path d="M478.461 74.7131L440.683 132.508L419.167 99.5927L381.215 89.3017L424.507 35.5132" stroke="white" stroke-opacity="0.5" stroke-width="0.3" stroke-miterlimit="10"/>
<path d="M544.072 403.497L477.432 385.428L502.088 354.794L500.147 315.519L564.681 340.07" stroke="white" stroke-opacity="0.5" stroke-width="0.3" stroke-miterlimit="10"/>
<path d="M251.654 567.498L248.247 498.536L285 512.518L321.753 498.536L318.345 567.498" stroke="white" stroke-opacity="0.5" stroke-width="0.3" stroke-miterlimit="10"/>
<path d="M5.31897 340.07L69.8528 315.519L67.9121 354.794L92.5674 385.428L25.9276 403.497" stroke="white" stroke-opacity="0.5" stroke-width="0.3" stroke-miterlimit="10"/>
<path d="M145.493 35.5132L188.785 89.3017L150.832 99.5927L129.317 132.508L91.5391 74.7131" stroke="white" stroke-opacity="0.5" stroke-width="0.3" stroke-miterlimit="10"/>
<path d="M424.506 35.5129L332.264 1" stroke="white" stroke-opacity="0.5" stroke-width="0.3" stroke-miterlimit="10"/>
<path d="M91.539 74.7129L30.2108 151.776" stroke="white" stroke-opacity="0.5" stroke-width="0.3" stroke-miterlimit="10"/>
<path d="M25.9277 403.498L80.2676 485.639" stroke="white" stroke-opacity="0.5" stroke-width="0.3" stroke-miterlimit="10"/>
<path d="M318.345 567.497L413.257 541.2" stroke="white" stroke-opacity="0.5" stroke-width="0.3" stroke-miterlimit="10"/>
<path d="M564.681 340.071L569 241.677" stroke="white" stroke-opacity="0.5" stroke-width="0.3" stroke-miterlimit="10"/>
<path d="M478.461 74.7129L539.789 151.776" stroke="white" stroke-opacity="0.5" stroke-width="0.3" stroke-miterlimit="10"/>
<path d="M145.493 35.5129L237.736 1" stroke="white" stroke-opacity="0.5" stroke-width="0.3" stroke-miterlimit="10"/>
<path d="M5.31905 340.071L1 241.677" stroke="white" stroke-opacity="0.5" stroke-width="0.3" stroke-miterlimit="10"/>
<path d="M251.654 567.497L156.742 541.2" stroke="white" stroke-opacity="0.5" stroke-width="0.3" stroke-miterlimit="10"/>
<path d="M544.072 403.498L489.732 485.639" stroke="white" stroke-opacity="0.5" stroke-width="0.3" stroke-miterlimit="10"/>
<path d="M478.46 74.7131L440.682 161.718L415.75 104.296L353.434 98.3281L424.506 35.5132" stroke="white" stroke-opacity="0.5" stroke-width="0.3" stroke-miterlimit="10"/>
<path d="M544.072 403.498L449.652 394.455L496.558 352.998L482.978 291.888L564.681 340.071" stroke="white" stroke-opacity="0.5" stroke-width="0.3" stroke-miterlimit="10"/>
<path d="M251.654 567.497L231.077 474.904L285 506.703L338.922 474.904L318.345 567.497" stroke="white" stroke-opacity="0.5" stroke-width="0.3" stroke-miterlimit="10"/>
<path d="M5.31897 340.071L87.0221 291.888L73.4417 352.998L120.348 394.455L25.9276 403.498" stroke="white" stroke-opacity="0.5" stroke-width="0.3" stroke-miterlimit="10"/>
<path d="M145.493 35.5132L216.565 98.3281L154.25 104.296L129.317 161.718L91.5391 74.7131" stroke="white" stroke-opacity="0.5" stroke-width="0.3" stroke-miterlimit="10"/>
<path d="M145.493 35.5127L285 14.6299L424.506 35.5127" stroke="white" stroke-opacity="0.5" stroke-width="0.3" stroke-miterlimit="10"/>
<path d="M478.461 74.7129L541.432 200.939L564.681 340.071" stroke="white" stroke-opacity="0.5" stroke-width="0.3" stroke-miterlimit="10"/>
<path d="M544.072 403.498L443.483 502.393L318.345 567.498" stroke="white" stroke-opacity="0.5" stroke-width="0.3" stroke-miterlimit="10"/>
<path d="M251.654 567.498L126.516 502.393L25.9277 403.498" stroke="white" stroke-opacity="0.5" stroke-width="0.3" stroke-miterlimit="10"/>
<path d="M5.31897 340.071L28.5682 200.939L91.5389 74.7129" stroke="white" stroke-opacity="0.5" stroke-width="0.3" stroke-miterlimit="10"/>
<path d="M354.026 306.686L336.066 297.342L331.915 299.502L334.004 303.689L354.026 306.686Z" stroke="white" stroke-opacity="0.5" stroke-width="0.3" stroke-miterlimit="10"/>
<path d="M285 356.836L288.337 336.868L285 333.588L281.663 336.868L285 356.836Z" stroke="white" stroke-opacity="0.5" stroke-width="0.3" stroke-miterlimit="10"/>
<path d="M215.974 306.686L235.996 303.689L238.085 299.502L233.934 297.342L215.974 306.686Z" stroke="white" stroke-opacity="0.5" stroke-width="0.3" stroke-miterlimit="10"/>
<path d="M242.339 225.541L251.377 243.657L256.005 244.35L256.776 239.734L242.339 225.541Z" stroke="white" stroke-opacity="0.5" stroke-width="0.3" stroke-miterlimit="10"/>
<path d="M327.66 225.541L313.224 239.734L313.995 244.35L318.623 243.657L327.66 225.541Z" stroke="white" stroke-opacity="0.5" stroke-width="0.3" stroke-miterlimit="10"/>
<path d="M478.461 74.7131L440.683 182.531L414.077 106.599L333.64 104.76L424.507 35.5132" stroke="white" stroke-opacity="0.5" stroke-width="0.3" stroke-miterlimit="10"/>
<path d="M544.072 403.496L429.858 400.885L493.851 352.117L470.744 275.049L564.681 340.07" stroke="white" stroke-opacity="0.5" stroke-width="0.3" stroke-miterlimit="10"/>
<path d="M251.654 567.497L218.844 458.066L285 503.857L351.156 458.066L318.345 567.497" stroke="white" stroke-opacity="0.5" stroke-width="0.3" stroke-miterlimit="10"/>
<path d="M5.31897 340.07L99.2556 275.049L76.1485 352.117L140.142 400.885L25.9276 403.496" stroke="white" stroke-opacity="0.5" stroke-width="0.3" stroke-miterlimit="10"/>
<path d="M145.493 35.5132L236.36 104.76L155.923 106.599L129.317 182.531L91.5391 74.7131" stroke="white" stroke-opacity="0.5" stroke-width="0.3" stroke-miterlimit="10"/>
<path d="M145.493 35.5132L285 44.013L424.506 35.5132" stroke="white" stroke-opacity="0.5" stroke-width="0.3" stroke-miterlimit="10"/>
<path d="M478.461 74.7129L513.487 210.018L564.681 340.071" stroke="white" stroke-opacity="0.5" stroke-width="0.3" stroke-miterlimit="10"/>
<path d="M544.072 403.498L426.212 478.622L318.345 567.498" stroke="white" stroke-opacity="0.5" stroke-width="0.3" stroke-miterlimit="10"/>
<path d="M251.654 567.498L143.787 478.622L25.9277 403.498" stroke="white" stroke-opacity="0.5" stroke-width="0.3" stroke-miterlimit="10"/>
<path d="M5.31897 340.071L56.5127 210.018L91.5389 74.7129" stroke="white" stroke-opacity="0.5" stroke-width="0.3" stroke-miterlimit="10"/>
<path d="M383.897 148.138L285 211.175L186.102 148.138L215.493 261.674L124.98 336.252L242.043 343.384L285 452.513L327.957 343.384L445.019 336.252L354.506 261.674L383.897 148.138ZM285 275.203L287.312 281.076L293.612 281.46L288.741 285.474L290.323 291.585L285 288.192L279.677 291.585L281.259 285.474L276.387 281.46L282.688 281.076L285 275.203Z" stroke="white" stroke-opacity="0.5" stroke-width="0.3" stroke-miterlimit="10"/>
<path d="M478.461 74.7131L440.683 180.694L414.207 106.42L335.387 104.192L424.507 35.5132" stroke="white" stroke-opacity="0.5" stroke-width="0.3" stroke-miterlimit="10"/>
<path d="M544.072 403.497L431.604 400.318L494.061 352.186L471.823 276.535L564.68 340.07" stroke="white" stroke-opacity="0.5" stroke-width="0.3" stroke-miterlimit="10"/>
<path d="M251.654 567.498L219.923 459.552L285 504.079L350.077 459.552L318.345 567.498" stroke="white" stroke-opacity="0.5" stroke-width="0.3" stroke-miterlimit="10"/>
<path d="M5.31897 340.07L98.1762 276.535L75.9384 352.186L138.396 400.318L25.9276 403.497" stroke="white" stroke-opacity="0.5" stroke-width="0.3" stroke-miterlimit="10"/>
<path d="M145.493 35.5132L234.613 104.192L155.793 106.42L129.317 180.694L91.5391 74.7131" stroke="white" stroke-opacity="0.5" stroke-width="0.3" stroke-miterlimit="10"/>
<path d="M145.493 35.5132L285 74.1666L424.506 35.5132" stroke="white" stroke-opacity="0.5" stroke-width="0.3" stroke-miterlimit="10"/>
<path d="M478.461 74.7129L484.809 219.336L564.681 340.071" stroke="white" stroke-opacity="0.5" stroke-width="0.3" stroke-miterlimit="10"/>
<path d="M544.072 403.498L408.489 454.227L318.345 567.498" stroke="white" stroke-opacity="0.5" stroke-width="0.3" stroke-miterlimit="10"/>
<path d="M251.654 567.498L161.511 454.227L25.9277 403.498" stroke="white" stroke-opacity="0.5" stroke-width="0.3" stroke-miterlimit="10"/>
<path d="M5.31897 340.071L85.1906 219.336L91.5389 74.7129" stroke="white" stroke-opacity="0.5" stroke-width="0.3" stroke-miterlimit="10"/>
<path d="M400.696 125.015L285 168.303L169.303 125.015L174.72 248.426L97.7986 345.083L216.843 378.067L285 481.093L353.156 378.067L472.201 345.083L395.279 248.426L400.696 125.015Z" stroke="white" stroke-opacity="0.5" stroke-width="0.3" stroke-miterlimit="10"/>
<path d="M478.461 74.7131L440.683 164.736L415.477 104.672L350.564 99.2609L424.507 35.5132" stroke="white" stroke-opacity="0.5" stroke-width="0.3" stroke-miterlimit="10"/>
<path d="M544.072 403.498L446.781 395.387L496.116 352.854L481.203 289.446L564.68 340.071" stroke="white" stroke-opacity="0.5" stroke-width="0.3" stroke-miterlimit="10"/>
<path d="M251.654 567.497L229.303 472.461L285 506.239L340.697 472.461L318.345 567.497" stroke="white" stroke-opacity="0.5" stroke-width="0.3" stroke-miterlimit="10"/>
<path d="M5.31897 340.071L88.7963 289.446L73.8835 352.854L123.219 395.387L25.9276 403.498" stroke="white" stroke-opacity="0.5" stroke-width="0.3" stroke-miterlimit="10"/>
<path d="M145.493 35.5132L219.436 99.2609L154.523 104.672L129.317 164.736L91.5391 74.7131" stroke="white" stroke-opacity="0.5" stroke-width="0.3" stroke-miterlimit="10"/>
<path d="M409.325 113.139L285 131.749L160.674 113.139L139.955 237.13L83.8364 349.62L195.357 407.641L285 495.774L374.642 407.641L486.163 349.62L430.045 237.13L409.325 113.139Z" stroke="white" stroke-opacity="0.5" stroke-width="0.3" stroke-miterlimit="10"/>
<path d="M478.461 74.7129L452.542 229.82L564.68 340.071" stroke="white" stroke-opacity="0.5" stroke-width="0.3" stroke-miterlimit="10"/>
<path d="M544.072 403.498L388.546 426.779L318.345 567.498" stroke="white" stroke-opacity="0.5" stroke-width="0.3" stroke-miterlimit="10"/>
<path d="M251.654 567.498L181.453 426.779L25.9277 403.498" stroke="white" stroke-opacity="0.5" stroke-width="0.3" stroke-miterlimit="10"/>
<path d="M5.31897 340.071L117.458 229.82L91.5389 74.7129" stroke="white" stroke-opacity="0.5" stroke-width="0.3" stroke-miterlimit="10"/>
<path d="M145.493 35.5132L285 108.094L424.506 35.5132" stroke="white" stroke-opacity="0.5" stroke-width="0.3" stroke-miterlimit="10"/>
<path d="M478.461 74.7131L440.683 147.023L417.268 102.206L367.41 93.7873L424.507 35.5132" stroke="white" stroke-opacity="0.5" stroke-width="0.3" stroke-miterlimit="10"/>
<path d="M544.072 403.497L463.627 389.913L499.015 353.796L491.615 303.776L564.681 340.07" stroke="white" stroke-opacity="0.5" stroke-width="0.3" stroke-miterlimit="10"/>
<path d="M251.654 567.498L239.715 486.793L285 509.288L330.285 486.793L318.345 567.498" stroke="white" stroke-opacity="0.5" stroke-width="0.3" stroke-miterlimit="10"/>
<path d="M5.31897 340.07L78.3848 303.776L70.9848 353.796L106.373 389.913L25.9276 403.497" stroke="white" stroke-opacity="0.5" stroke-width="0.3" stroke-miterlimit="10"/>
<path d="M145.493 35.5132L202.59 93.7873L152.731 102.206L129.317 147.023L91.5391 74.7131" stroke="white" stroke-opacity="0.5" stroke-width="0.3" stroke-miterlimit="10"/>
<path d="M478.461 74.7131L440.683 170.684L414.971 105.368L344.907 101.099L424.507 35.5132" stroke="white" stroke-opacity="0.5" stroke-width="0.3" stroke-miterlimit="10"/>
<path d="M544.072 403.497L441.124 397.224L495.299 352.588L477.707 284.633L564.681 340.07" stroke="white" stroke-opacity="0.5" stroke-width="0.3" stroke-miterlimit="10"/>
<path d="M251.654 567.497L225.807 467.65L285 505.379L344.193 467.65L318.345 567.497" stroke="white" stroke-opacity="0.5" stroke-width="0.3" stroke-miterlimit="10"/>
<path d="M5.31897 340.07L92.2925 284.633L74.7012 352.588L128.876 397.224L25.9276 403.497" stroke="white" stroke-opacity="0.5" stroke-width="0.3" stroke-miterlimit="10"/>
<path d="M145.493 35.5132L225.093 101.099L155.028 105.368L129.317 170.684L91.5391 74.7131" stroke="white" stroke-opacity="0.5" stroke-width="0.3" stroke-miterlimit="10"/>
<path d="M478.461 74.7131L440.683 132.161L419.219 99.5217L381.545 89.1945L424.507 35.5132" stroke="white" stroke-opacity="0.5" stroke-width="0.3" stroke-miterlimit="10"/>
<path d="M544.072 403.497L477.762 385.321L502.171 354.822L500.351 315.8L564.681 340.071" stroke="white" stroke-opacity="0.5" stroke-width="0.3" stroke-miterlimit="10"/>
<path d="M251.655 567.497L248.451 498.815L285 512.605L321.549 498.815L318.346 567.497" stroke="white" stroke-opacity="0.5" stroke-width="0.3" stroke-miterlimit="10"/>
<path d="M5.31897 340.071L69.6488 315.8L67.8286 354.822L92.2374 385.321L25.9276 403.497" stroke="white" stroke-opacity="0.5" stroke-width="0.3" stroke-miterlimit="10"/>
<path d="M145.493 35.5132L188.455 89.1945L150.781 99.5217L129.317 132.161L91.5391 74.7131" stroke="white" stroke-opacity="0.5" stroke-width="0.3" stroke-miterlimit="10"/>
<path d="M478.461 74.7131L440.683 131.819L419.27 99.4513L381.87 89.0888L424.507 35.5132" stroke="white" stroke-opacity="0.5" stroke-width="0.3" stroke-miterlimit="10"/>
<path d="M544.072 403.498L478.088 385.216L502.254 354.849L500.552 316.077L564.681 340.071" stroke="white" stroke-opacity="0.5" stroke-width="0.3" stroke-miterlimit="10"/>
<path d="M251.654 567.497L248.652 499.093L285 512.692L321.348 499.093L318.345 567.497" stroke="white" stroke-opacity="0.5" stroke-width="0.3" stroke-miterlimit="10"/>
<path d="M5.31897 340.071L69.4478 316.077L67.7459 354.849L91.9122 385.216L25.9276 403.498" stroke="white" stroke-opacity="0.5" stroke-width="0.3" stroke-miterlimit="10"/>
<path d="M145.493 35.5132L188.13 89.0888L150.73 99.4513L129.317 131.819L91.5391 74.7131" stroke="white" stroke-opacity="0.5" stroke-width="0.3" stroke-miterlimit="10"/>
<path d="M478.461 74.7131L440.683 120.563L421.153 96.8603L392.575 85.6108L424.507 35.5132" stroke="white" stroke-opacity="0.5" stroke-width="0.3" stroke-miterlimit="10"/>
<path d="M544.072 403.497L488.792 381.737L505.299 355.838L507.167 325.182L564.681 340.07" stroke="white" stroke-opacity="0.5" stroke-width="0.3" stroke-miterlimit="10"/>
<path d="M251.654 567.497L255.267 508.198L285 515.894L314.732 508.198L318.345 567.497" stroke="white" stroke-opacity="0.5" stroke-width="0.3" stroke-miterlimit="10"/>
<path d="M5.31897 340.07L62.8322 325.182L64.7 355.838L81.2079 381.737L25.9276 403.497" stroke="white" stroke-opacity="0.5" stroke-width="0.3" stroke-miterlimit="10"/>
<path d="M145.493 35.5132L177.425 85.6108L148.847 96.8603L129.317 120.563L91.5391 74.7131" stroke="white" stroke-opacity="0.5" stroke-width="0.3" stroke-miterlimit="10"/>
<path d="M478.461 74.7131L440.682 111.855L422.935 94.4065L400.857 82.9197L424.506 35.5132" stroke="white" stroke-opacity="0.5" stroke-width="0.3" stroke-miterlimit="10"/>
<path d="M544.072 403.497L497.074 379.045L508.184 356.775L512.286 332.227L564.681 340.07" stroke="white" stroke-opacity="0.5" stroke-width="0.3" stroke-miterlimit="10"/>
<path d="M251.654 567.496L260.386 515.243L285 518.927L309.614 515.243L318.345 567.496" stroke="white" stroke-opacity="0.5" stroke-width="0.3" stroke-miterlimit="10"/>
<path d="M5.31897 340.07L57.7135 332.227L61.8154 356.775L72.9256 379.045L25.9276 403.497" stroke="white" stroke-opacity="0.5" stroke-width="0.3" stroke-miterlimit="10"/>
<path d="M145.493 35.5132L169.143 82.9197L147.064 94.4065L129.317 111.855L91.5391 74.7131" stroke="white" stroke-opacity="0.5" stroke-width="0.3" stroke-miterlimit="10"/>
<path d="M478.461 74.7131L440.683 111.652L422.982 94.3435L401.05 82.8569L424.507 35.5132" stroke="white" stroke-opacity="0.5" stroke-width="0.3" stroke-miterlimit="10"/>
<path d="M544.072 403.497L497.267 378.982L508.258 356.799L512.406 332.391L564.681 340.07" stroke="white" stroke-opacity="0.5" stroke-width="0.3" stroke-miterlimit="10"/>
<path d="M251.654 567.497L260.506 515.408L285 519.006L309.494 515.408L318.345 567.497" stroke="white" stroke-opacity="0.5" stroke-width="0.3" stroke-miterlimit="10"/>
<path d="M5.31897 340.07L57.594 332.391L61.7413 356.799L72.7322 378.982L25.9276 403.497" stroke="white" stroke-opacity="0.5" stroke-width="0.3" stroke-miterlimit="10"/>
<path d="M145.493 35.5132L168.95 82.8569L147.019 94.3435L129.317 111.652L91.5391 74.7131" stroke="white" stroke-opacity="0.5" stroke-width="0.3" stroke-miterlimit="10"/>
<path d="M478.461 74.7131L440.683 98.7929L426.374 89.6729L413.279 78.8833L424.507 35.5132" stroke="white" stroke-opacity="0.5" stroke-width="0.3" stroke-miterlimit="10"/>
<path d="M544.072 403.497L509.497 375.009L513.749 358.583L519.964 342.795L564.681 340.07" stroke="white" stroke-opacity="0.5" stroke-width="0.3" stroke-miterlimit="10"/>
<path d="M251.654 567.497L268.064 525.811L285 524.779L301.936 525.811L318.345 567.497" stroke="white" stroke-opacity="0.5" stroke-width="0.3" stroke-miterlimit="10"/>
<path d="M5.31897 340.07L50.0358 342.795L56.2507 358.583L60.5028 375.009L25.9276 403.497" stroke="white" stroke-opacity="0.5" stroke-width="0.3" stroke-miterlimit="10"/>
<path d="M145.493 35.5132L156.72 78.8833L143.625 89.6729L129.317 98.7929L91.5391 74.7131" stroke="white" stroke-opacity="0.5" stroke-width="0.3" stroke-miterlimit="10"/>
<path d="M478.461 74.7131L440.683 104.883L424.635 92.0673L407.487 80.7653L424.507 35.5132" stroke="white" stroke-opacity="0.5" stroke-width="0.3" stroke-miterlimit="10"/>
<path d="M544.072 403.497L503.704 376.891L510.934 357.668L516.384 337.867L564.681 340.07" stroke="white" stroke-opacity="0.5" stroke-width="0.3" stroke-miterlimit="10"/>
<path d="M251.654 567.498L264.484 520.885L285 521.82L305.516 520.885L318.345 567.498" stroke="white" stroke-opacity="0.5" stroke-width="0.3" stroke-miterlimit="10"/>
<path d="M5.31897 340.07L53.6157 337.867L59.0655 357.668L66.2952 376.891L25.9276 403.497" stroke="white" stroke-opacity="0.5" stroke-width="0.3" stroke-miterlimit="10"/>
<path d="M145.493 35.5132L162.513 80.7653L145.365 92.0673L129.317 104.883L91.5391 74.7131" stroke="white" stroke-opacity="0.5" stroke-width="0.3" stroke-miterlimit="10"/>
<path d="M478.461 74.7131L440.683 88.8478L429.904 84.815L422.738 75.8101L424.507 35.5132" stroke="white" stroke-opacity="0.5" stroke-width="0.3" stroke-miterlimit="10"/>
<path d="M544.072 403.497L518.955 371.936L519.46 360.439L525.809 350.84L564.681 340.07" stroke="white" stroke-opacity="0.5" stroke-width="0.3" stroke-miterlimit="10"/>
<path d="M251.654 567.497L273.909 533.857L285 530.784L296.09 533.857L318.345 567.497" stroke="white" stroke-opacity="0.5" stroke-width="0.3" stroke-miterlimit="10"/>
<path d="M5.31897 340.07L44.1903 350.84L50.5399 360.439L51.0446 371.936L25.9276 403.497" stroke="white" stroke-opacity="0.5" stroke-width="0.3" stroke-miterlimit="10"/>
<path d="M145.493 35.5132L147.262 75.8101L140.096 84.815L129.317 88.8478L91.5391 74.7131" stroke="white" stroke-opacity="0.5" stroke-width="0.3" stroke-miterlimit="10"/>
<path d="M478.461 74.7131L440.683 99.9958L426.009 90.1757L412.135 79.255L424.507 35.5132" stroke="white" stroke-opacity="0.5" stroke-width="0.3" stroke-miterlimit="10"/>
<path d="M544.072 403.497L508.353 375.381L513.158 358.391L519.257 341.822L564.681 340.07" stroke="white" stroke-opacity="0.5" stroke-width="0.3" stroke-miterlimit="10"/>
<path d="M251.654 567.497L267.357 524.838L285 524.158L302.643 524.838L318.345 567.497" stroke="white" stroke-opacity="0.5" stroke-width="0.3" stroke-miterlimit="10"/>
<path d="M5.31897 340.07L50.7429 341.822L56.8418 358.391L61.6469 375.381L25.9276 403.497" stroke="white" stroke-opacity="0.5" stroke-width="0.3" stroke-miterlimit="10"/>
<path d="M145.493 35.5132L157.864 79.255L143.991 90.1757L129.317 99.9958L91.5391 74.7131" stroke="white" stroke-opacity="0.5" stroke-width="0.3" stroke-miterlimit="10"/>
<path d="M478.461 74.7131L440.683 80.3682L433.875 79.3491L430.803 73.1898L424.507 35.5132" stroke="white" stroke-opacity="0.5" stroke-width="0.3" stroke-miterlimit="10"/>
<path d="M544.072 403.497L527.02 369.316L525.885 362.526L530.794 357.701L564.681 340.07" stroke="white" stroke-opacity="0.5" stroke-width="0.3" stroke-miterlimit="10"/>
<path d="M251.654 567.498L278.894 540.717L285 537.54L291.106 540.717L318.345 567.498" stroke="white" stroke-opacity="0.5" stroke-width="0.3" stroke-miterlimit="10"/>
<path d="M5.31897 340.07L39.206 357.701L44.1144 362.526L42.9799 369.316L25.9276 403.497" stroke="white" stroke-opacity="0.5" stroke-width="0.3" stroke-miterlimit="10"/>
<path d="M145.493 35.5132L139.197 73.1898L136.125 79.3491L129.317 80.3682L91.5391 74.7131" stroke="white" stroke-opacity="0.5" stroke-width="0.3" stroke-miterlimit="10"/>
<path d="M478.461 74.7131L440.683 97.0959L426.91 88.9359L414.893 78.3589L424.507 35.5132" stroke="white" stroke-opacity="0.5" stroke-width="0.3" stroke-miterlimit="10"/>
<path d="M544.072 403.497L511.111 374.485L514.616 358.865L520.961 344.168L564.681 340.07" stroke="white" stroke-opacity="0.5" stroke-width="0.3" stroke-miterlimit="10"/>
<path d="M251.654 567.497L269.061 527.184L285 525.69L300.939 527.184L318.345 567.497" stroke="white" stroke-opacity="0.5" stroke-width="0.3" stroke-miterlimit="10"/>
<path d="M5.31897 340.07L49.0383 344.168L55.3843 358.865L58.889 374.485L25.9276 403.497" stroke="white" stroke-opacity="0.5" stroke-width="0.3" stroke-miterlimit="10"/>
<path d="M145.493 35.5132L155.106 78.3589L143.09 88.9359L129.317 97.0959L91.5391 74.7131" stroke="white" stroke-opacity="0.5" stroke-width="0.3" stroke-miterlimit="10"/>
<path d="M478.461 74.7131L440.683 72.4114L438.834 72.5241L438.37 70.731L424.507 35.5132" stroke="white" stroke-opacity="0.5" stroke-width="0.3" stroke-miterlimit="10"/>
<path d="M544.072 403.497L534.587 366.857L533.909 365.133L535.47 364.138L564.681 340.07" stroke="white" stroke-opacity="0.5" stroke-width="0.3" stroke-miterlimit="10"/>
<path d="M251.654 567.498L283.57 547.154L285 545.977L286.429 547.154L318.345 567.498" stroke="white" stroke-opacity="0.5" stroke-width="0.3" stroke-miterlimit="10"/>
<path d="M5.31897 340.07L34.5291 364.138L36.091 365.133L35.4126 366.857L25.9276 403.497" stroke="white" stroke-opacity="0.5" stroke-width="0.3" stroke-miterlimit="10"/>
<path d="M145.493 35.5132L131.63 70.731L131.166 72.5241L129.317 72.4114L91.5391 74.7131" stroke="white" stroke-opacity="0.5" stroke-width="0.3" stroke-miterlimit="10"/>
<path d="M478.461 74.7131L440.683 96.8213L426.999 88.8135L415.155 78.2741L424.507 35.5132" stroke="white" stroke-opacity="0.5" stroke-width="0.3" stroke-miterlimit="10"/>
<path d="M544.072 403.497L511.372 374.4L514.759 358.911L521.122 344.39L564.68 340.07" stroke="white" stroke-opacity="0.5" stroke-width="0.3" stroke-miterlimit="10"/>
<path d="M251.654 567.497L269.223 527.406L285 525.841L300.777 527.406L318.345 567.497" stroke="white" stroke-opacity="0.5" stroke-width="0.3" stroke-miterlimit="10"/>
<path d="M5.31897 340.07L48.877 344.39L55.2404 358.911L58.6278 374.4L25.9276 403.497" stroke="white" stroke-opacity="0.5" stroke-width="0.3" stroke-miterlimit="10"/>
<path d="M145.493 35.5132L154.845 78.2741L143.001 88.8135L129.317 96.8213L91.5391 74.7131" stroke="white" stroke-opacity="0.5" stroke-width="0.3" stroke-miterlimit="10"/>
<path d="M332.264 1L328.214 106.523L372.885 163.294L440.683 188.236L539.789 151.776" stroke="white" stroke-opacity="0.5" stroke-width="0.3" stroke-miterlimit="10"/>
<path d="M569 241.677L467.39 270.434L427.202 330.462L424.431 402.649L489.732 485.638" stroke="white" stroke-opacity="0.5" stroke-width="0.3" stroke-miterlimit="10"/>
<path d="M413.258 541.2L354.509 453.45L285 433.778L215.49 453.45L156.742 541.2" stroke="white" stroke-opacity="0.5" stroke-width="0.3" stroke-miterlimit="10"/>
<path d="M80.2676 485.638L145.569 402.649L142.798 330.462L102.609 270.434L1 241.677" stroke="white" stroke-opacity="0.5" stroke-width="0.3" stroke-miterlimit="10"/>
<path d="M30.2108 151.776L129.317 188.236L197.114 163.294L241.786 106.523L237.736 1" stroke="white" stroke-opacity="0.5" stroke-width="0.3" stroke-miterlimit="10"/>
<path d="M285 90.2749L300.48 115.534L310.172 238.743L285 268.218L259.828 238.743L269.52 115.534L285 90.2749Z" stroke="white" stroke-opacity="0.5" stroke-width="0.3" stroke-miterlimit="10"/>
<path d="M469.489 224.314L450.25 246.842L336.066 294.134L300.255 279.302L320.509 246.254L440.683 217.397L469.489 224.314Z" stroke="white" stroke-opacity="0.5" stroke-width="0.3" stroke-miterlimit="10"/>
<path d="M399.021 441.194L371.65 429.858L291.389 335.877L294.428 297.235L332.118 306.285L396.697 411.66L399.021 441.194Z" stroke="white" stroke-opacity="0.5" stroke-width="0.3" stroke-miterlimit="10"/>
<path d="M170.979 441.194L173.302 411.66L237.882 306.285L275.571 297.235L278.611 335.877L198.35 429.858L170.979 441.194Z" stroke="white" stroke-opacity="0.5" stroke-width="0.3" stroke-miterlimit="10"/>
<path d="M100.511 224.314L129.317 217.397L249.491 246.254L269.744 279.302L233.934 294.134L119.75 246.842L100.511 224.314Z" stroke="white" stroke-opacity="0.5" stroke-width="0.3" stroke-miterlimit="10"/>
<path d="M539.789 151.776L440.683 215.716L368.591 169.205L302.078 115.014L332.264 1" stroke="white" stroke-opacity="0.5" stroke-width="0.3" stroke-miterlimit="10"/>
<path d="M489.732 485.638L398.295 411.141L420.253 328.205L451.238 248.202L569 241.677" stroke="white" stroke-opacity="0.5" stroke-width="0.3" stroke-miterlimit="10"/>
<path d="M156.742 541.2L199.338 431.218L285 426.472L370.662 431.218L413.258 541.2" stroke="white" stroke-opacity="0.5" stroke-width="0.3" stroke-miterlimit="10"/>
<path d="M1 241.677L118.762 248.202L149.747 328.205L171.704 411.141L80.2676 485.638" stroke="white" stroke-opacity="0.5" stroke-width="0.3" stroke-miterlimit="10"/>
<path d="M237.736 1L267.921 115.014L201.409 169.205L129.317 215.716L30.2108 151.776" stroke="white" stroke-opacity="0.5" stroke-width="0.3" stroke-miterlimit="10"/>
<path d="M237.736 1L285 3.87968L332.264 1" stroke="white" stroke-opacity="0.5" stroke-width="0.3" stroke-miterlimit="10"/>
<path d="M539.789 151.776L551.656 197.617L569 241.678" stroke="white" stroke-opacity="0.5" stroke-width="0.3" stroke-miterlimit="10"/>
<path d="M489.732 485.639L449.802 511.09L413.257 541.201" stroke="white" stroke-opacity="0.5" stroke-width="0.3" stroke-miterlimit="10"/>
<path d="M156.742 541.201L120.197 511.09L80.2675 485.639" stroke="white" stroke-opacity="0.5" stroke-width="0.3" stroke-miterlimit="10"/>
<path d="M1 241.678L18.3441 197.617L30.2107 151.776" stroke="white" stroke-opacity="0.5" stroke-width="0.3" stroke-miterlimit="10"/>
<path d="M341.007 302.456L336.066 298.385L333.92 300.153L334.617 302.845L341.007 302.456Z" stroke="white" stroke-opacity="0.5" stroke-width="0.3" stroke-miterlimit="10"/>
<path d="M285 343.148L287.345 337.191L285 335.696L282.655 337.191L285 343.148Z" stroke="white" stroke-opacity="0.5" stroke-width="0.3" stroke-miterlimit="10"/>
<path d="M228.993 302.456L235.383 302.845L236.08 300.153L233.934 298.385L228.993 302.456Z" stroke="white" stroke-opacity="0.5" stroke-width="0.3" stroke-miterlimit="10"/>
<path d="M250.386 236.617L251.99 242.814L254.766 242.645L255.784 240.058L250.386 236.617Z" stroke="white" stroke-opacity="0.5" stroke-width="0.3" stroke-miterlimit="10"/>
<path d="M319.614 236.617L314.215 240.058L315.234 242.645L318.009 242.814L319.614 236.617Z" stroke="white" stroke-opacity="0.5" stroke-width="0.3" stroke-miterlimit="10"/>
<path d="M365.386 173.615L285 128.189L204.614 173.615L136.57 236.03L154.932 326.519L193.265 410.52L285 421.019L376.735 410.52L415.068 326.519L433.43 236.03L365.386 173.615Z" stroke="white" stroke-opacity="0.5" stroke-width="0.3" stroke-miterlimit="10"/>
<path d="M539.789 151.776L455.892 228.732L569 241.678" stroke="white" stroke-opacity="0.5" stroke-width="0.3" stroke-miterlimit="10"/>
<path d="M489.732 485.638L390.617 429.628L413.258 541.2" stroke="white" stroke-opacity="0.5" stroke-width="0.3" stroke-miterlimit="10"/>
<path d="M156.742 541.2L179.383 429.628L80.2675 485.638" stroke="white" stroke-opacity="0.5" stroke-width="0.3" stroke-miterlimit="10"/>
<path d="M1 241.678L114.108 228.732L30.2107 151.776" stroke="white" stroke-opacity="0.5" stroke-width="0.3" stroke-miterlimit="10"/>
<path d="M237.736 1L285 104.571L332.264 1" stroke="white" stroke-opacity="0.5" stroke-width="0.3" stroke-miterlimit="10"/>
<path d="M237.736 1L285 14.0955L332.264 1" stroke="white" stroke-opacity="0.5" stroke-width="0.3" stroke-miterlimit="10"/>
<path d="M539.789 151.776L541.94 200.774L569 241.678" stroke="white" stroke-opacity="0.5" stroke-width="0.3" stroke-miterlimit="10"/>
<path d="M489.732 485.639L443.797 502.825L413.257 541.201" stroke="white" stroke-opacity="0.5" stroke-width="0.3" stroke-miterlimit="10"/>
<path d="M156.742 541.201L126.202 502.825L80.2675 485.639" stroke="white" stroke-opacity="0.5" stroke-width="0.3" stroke-miterlimit="10"/>
<path d="M1 241.678L28.0599 200.774L30.2107 151.776" stroke="white" stroke-opacity="0.5" stroke-width="0.3" stroke-miterlimit="10"/>
<path d="M339.025 209.898L285 230.112L230.975 209.898L233.505 267.526L197.586 312.66L253.174 328.062L285 376.171L316.826 328.062L372.415 312.66L336.496 267.526L339.025 209.898ZM285 231.33L303.327 259.033L335.338 267.902L314.654 293.893L316.11 327.077L285 315.437L253.89 327.077L255.347 293.893L234.663 267.902L266.673 259.033L285 231.33Z" stroke="white" stroke-opacity="0.5" stroke-width="0.3" stroke-miterlimit="10"/>
<path d="M363.984 175.546L285 138.194L206.016 175.546L146.085 239.122L157.201 325.783L199.146 402.427L285 418.634L370.855 402.427L412.799 325.783L423.916 239.122L363.984 175.546Z" stroke="white" stroke-opacity="0.5" stroke-width="0.3" stroke-miterlimit="10"/>
<path d="M539.789 151.776L472.257 223.415L569 241.678" stroke="white" stroke-opacity="0.5" stroke-width="0.3" stroke-miterlimit="10"/>
<path d="M489.732 485.638L400.731 443.549L413.257 541.2" stroke="white" stroke-opacity="0.5" stroke-width="0.3" stroke-miterlimit="10"/>
<path d="M156.742 541.2L169.269 443.549L80.2675 485.638" stroke="white" stroke-opacity="0.5" stroke-width="0.3" stroke-miterlimit="10"/>
<path d="M1 241.678L97.743 223.415L30.2107 151.776" stroke="white" stroke-opacity="0.5" stroke-width="0.3" stroke-miterlimit="10"/>
<path d="M237.736 1L285 87.3646L332.264 1" stroke="white" stroke-opacity="0.5" stroke-width="0.3" stroke-miterlimit="10"/>
<path d="M237.736 1L285 25.59L332.264 1" stroke="white" stroke-opacity="0.5" stroke-width="0.3" stroke-miterlimit="10"/>
<path d="M539.789 151.776L531.008 204.326L569 241.678" stroke="white" stroke-opacity="0.5" stroke-width="0.3" stroke-miterlimit="10"/>
<path d="M489.732 485.639L437.041 493.526L413.257 541.201" stroke="white" stroke-opacity="0.5" stroke-width="0.3" stroke-miterlimit="10"/>
<path d="M156.742 541.201L132.958 493.526L80.2675 485.639" stroke="white" stroke-opacity="0.5" stroke-width="0.3" stroke-miterlimit="10"/>
<path d="M1 241.678L38.9917 204.326L30.2107 151.776" stroke="white" stroke-opacity="0.5" stroke-width="0.3" stroke-miterlimit="10"/>
<path d="M348.996 196.175L285 205.755L221.004 196.175L210.339 259.999L181.453 317.902L238.857 347.768L285 393.134L331.143 347.768L388.547 317.902L359.661 259.999L348.996 196.175ZM285 264.971L293.174 273.007L303.343 278.298L298.226 288.555L296.336 299.861L285 298.164L273.664 299.861L271.774 288.555L266.657 278.298L276.826 273.007L285 264.971Z" stroke="white" stroke-opacity="0.5" stroke-width="0.3" stroke-miterlimit="10"/>
<path d="M364.089 175.401L285 137.475L205.91 175.401L145.401 238.9L157.03 325.838L198.723 403.008L285 418.813L371.277 403.008L412.969 325.838L424.599 238.9L364.089 175.401Z" stroke="white" stroke-opacity="0.5" stroke-width="0.3" stroke-miterlimit="10"/>
<path d="M539.789 151.776L471.194 223.761L569 241.678" stroke="white" stroke-opacity="0.5" stroke-width="0.3" stroke-miterlimit="10"/>
<path d="M489.732 485.638L400.074 442.644L413.258 541.2" stroke="white" stroke-opacity="0.5" stroke-width="0.3" stroke-miterlimit="10"/>
<path d="M156.742 541.2L169.926 442.644L80.2675 485.638" stroke="white" stroke-opacity="0.5" stroke-width="0.3" stroke-miterlimit="10"/>
<path d="M1 241.678L98.8061 223.761L30.2107 151.776" stroke="white" stroke-opacity="0.5" stroke-width="0.3" stroke-miterlimit="10"/>
<path d="M237.736 1L285 88.4825L332.264 1" stroke="white" stroke-opacity="0.5" stroke-width="0.3" stroke-miterlimit="10"/>
<path d="M355.519 187.197L285 182.901L214.48 187.197L188.603 252.938L170.897 321.333L225.423 366.26L285 404.234L344.577 366.26L399.103 321.333L381.397 252.938L355.519 187.197Z" stroke="white" stroke-opacity="0.5" stroke-width="0.3" stroke-miterlimit="10"/>
<path d="M539.789 151.776L517.358 208.761L569 241.678" stroke="white" stroke-opacity="0.5" stroke-width="0.3" stroke-miterlimit="10"/>
<path d="M489.732 485.637L428.605 481.913L413.257 541.199" stroke="white" stroke-opacity="0.5" stroke-width="0.3" stroke-miterlimit="10"/>
<path d="M156.742 541.199L141.395 481.913L80.2675 485.637" stroke="white" stroke-opacity="0.5" stroke-width="0.3" stroke-miterlimit="10"/>
<path d="M1 241.678L52.6421 208.761L30.2107 151.776" stroke="white" stroke-opacity="0.5" stroke-width="0.3" stroke-miterlimit="10"/>
<path d="M237.736 1L285 39.9428L332.264 1" stroke="white" stroke-opacity="0.5" stroke-width="0.3" stroke-miterlimit="10"/>
<path d="M365.15 173.94L285 129.94L204.849 173.94L138.235 236.571L155.313 326.396L194.294 409.104L285 420.618L375.705 409.104L414.686 326.396L431.765 236.571L365.15 173.94Z" stroke="white" stroke-opacity="0.5" stroke-width="0.3" stroke-miterlimit="10"/>
<path d="M539.789 151.776L459.02 227.716L569 241.678" stroke="white" stroke-opacity="0.5" stroke-width="0.3" stroke-miterlimit="10"/>
<path d="M489.732 485.638L392.55 432.288L413.257 541.2" stroke="white" stroke-opacity="0.5" stroke-width="0.3" stroke-miterlimit="10"/>
<path d="M156.742 541.2L177.45 432.288L80.2675 485.638" stroke="white" stroke-opacity="0.5" stroke-width="0.3" stroke-miterlimit="10"/>
<path d="M1 241.678L110.98 227.716L30.2107 151.776" stroke="white" stroke-opacity="0.5" stroke-width="0.3" stroke-miterlimit="10"/>
<path d="M237.736 1L285 101.283L332.264 1" stroke="white" stroke-opacity="0.5" stroke-width="0.3" stroke-miterlimit="10"/>
<path d="M360.486 180.36L285 159.445L209.513 180.36L166.295 245.689L162.86 323.943L211.636 385.234L285 412.683L358.363 385.234L407.139 323.943L403.704 245.689L360.486 180.36Z" stroke="white" stroke-opacity="0.5" stroke-width="0.3" stroke-miterlimit="10"/>
<path d="M539.789 151.776L497.911 215.08L569 241.678" stroke="white" stroke-opacity="0.5" stroke-width="0.3" stroke-miterlimit="10"/>
<path d="M489.732 485.637L416.586 465.371L413.257 541.199" stroke="white" stroke-opacity="0.5" stroke-width="0.3" stroke-miterlimit="10"/>
<path d="M156.742 541.199L153.414 465.371L80.2675 485.637" stroke="white" stroke-opacity="0.5" stroke-width="0.3" stroke-miterlimit="10"/>
<path d="M1 241.678L72.0888 215.08L30.2107 151.776" stroke="white" stroke-opacity="0.5" stroke-width="0.3" stroke-miterlimit="10"/>
<path d="M237.736 1L285 60.3903L332.264 1" stroke="white" stroke-opacity="0.5" stroke-width="0.3" stroke-miterlimit="10"/>
<path d="M539.789 151.776L440.683 230.37L366.75 171.739L288.142 119.543L332.264 1" stroke="white" stroke-opacity="0.5" stroke-width="0.3" stroke-miterlimit="10"/>
<path d="M489.732 485.638L384.359 415.669L417.274 327.237L442.625 236.347L569 241.677" stroke="white" stroke-opacity="0.5" stroke-width="0.3" stroke-miterlimit="10"/>
<path d="M156.742 541.199L190.724 419.362L285 423.339L379.275 419.362L413.258 541.199" stroke="white" stroke-opacity="0.5" stroke-width="0.3" stroke-miterlimit="10"/>
<path d="M1 241.677L127.375 236.347L152.726 327.237L185.641 415.669L80.2676 485.638" stroke="white" stroke-opacity="0.5" stroke-width="0.3" stroke-miterlimit="10"/>
<path d="M237.736 1L281.858 119.543L203.25 171.739L129.317 230.37L30.2108 151.776" stroke="white" stroke-opacity="0.5" stroke-width="0.3" stroke-miterlimit="10"/>
<path d="M364.721 174.531L285 133.055L205.278 174.531L141.197 237.534L156.008 326.17L196.124 406.585L285 419.888L373.875 406.585L413.992 326.17L428.803 237.534L364.721 174.531Z" stroke="white" stroke-opacity="0.5" stroke-width="0.3" stroke-miterlimit="10"/>
<path d="M539.789 151.776L464.29 226.004L569 241.678" stroke="white" stroke-opacity="0.5" stroke-width="0.3" stroke-miterlimit="10"/>
<path d="M489.732 485.638L395.808 436.772L413.258 541.2" stroke="white" stroke-opacity="0.5" stroke-width="0.3" stroke-miterlimit="10"/>
<path d="M156.742 541.2L174.192 436.772L80.2675 485.638" stroke="white" stroke-opacity="0.5" stroke-width="0.3" stroke-miterlimit="10"/>
<path d="M1 241.678L105.709 226.004L30.2107 151.776" stroke="white" stroke-opacity="0.5" stroke-width="0.3" stroke-miterlimit="10"/>
<path d="M237.736 1L285 95.7411L332.264 1" stroke="white" stroke-opacity="0.5" stroke-width="0.3" stroke-miterlimit="10"/>
<path d="M539.789 151.776L440.683 215.329L368.643 169.133L302.446 114.895L332.264 1" stroke="white" stroke-opacity="0.5" stroke-width="0.3" stroke-miterlimit="10"/>
<path d="M489.732 485.638L398.664 411.021L420.338 328.232L451.465 248.515L569 241.677" stroke="white" stroke-opacity="0.5" stroke-width="0.3" stroke-miterlimit="10"/>
<path d="M156.742 541.2L199.565 431.531L285 426.561L370.435 431.531L413.258 541.2" stroke="white" stroke-opacity="0.5" stroke-width="0.3" stroke-miterlimit="10"/>
<path d="M1 241.677L118.535 248.515L149.662 328.232L171.336 411.021L80.2676 485.638" stroke="white" stroke-opacity="0.5" stroke-width="0.3" stroke-miterlimit="10"/>
<path d="M237.736 1L267.553 114.895L201.357 169.133L129.317 215.329L30.2108 151.776" stroke="white" stroke-opacity="0.5" stroke-width="0.3" stroke-miterlimit="10"/>
<path d="M539.789 151.776L440.683 214.946L368.695 169.061L302.811 114.776L332.264 1" stroke="white" stroke-opacity="0.5" stroke-width="0.3" stroke-miterlimit="10"/>
<path d="M489.732 485.638L399.028 410.903L420.422 328.259L451.69 248.825L569 241.677" stroke="white" stroke-opacity="0.5" stroke-width="0.3" stroke-miterlimit="10"/>
<path d="M156.742 541.199L199.79 431.84L285 426.649L370.209 431.84L413.258 541.199" stroke="white" stroke-opacity="0.5" stroke-width="0.3" stroke-miterlimit="10"/>
<path d="M1 241.677L118.309 248.825L149.578 328.259L170.972 410.903L80.2676 485.638" stroke="white" stroke-opacity="0.5" stroke-width="0.3" stroke-miterlimit="10"/>
<path d="M237.736 1L267.189 114.776L201.305 169.061L129.317 214.946L30.2108 151.776" stroke="white" stroke-opacity="0.5" stroke-width="0.3" stroke-miterlimit="10"/>
<path d="M539.789 151.776L440.683 201.218L370.699 166.304L315.868 110.534L332.264 1" stroke="white" stroke-opacity="0.5" stroke-width="0.3" stroke-miterlimit="10"/>
<path d="M489.732 485.638L412.085 406.66L423.663 329.313L459.76 259.931L569 241.677" stroke="white" stroke-opacity="0.5" stroke-width="0.3" stroke-miterlimit="10"/>
<path d="M156.742 541.2L207.86 442.948L285 430.057L362.14 442.948L413.258 541.2" stroke="white" stroke-opacity="0.5" stroke-width="0.3" stroke-miterlimit="10"/>
<path d="M1 241.677L110.24 259.931L146.337 329.313L157.915 406.66L80.2676 485.638" stroke="white" stroke-opacity="0.5" stroke-width="0.3" stroke-miterlimit="10"/>
<path d="M237.736 1L254.132 110.534L199.301 166.304L129.317 201.218L30.2108 151.776" stroke="white" stroke-opacity="0.5" stroke-width="0.3" stroke-miterlimit="10"/>
<path d="M539.789 151.776L440.683 188.857L372.773 163.448L327.623 106.714L332.264 1" stroke="white" stroke-opacity="0.5" stroke-width="0.3" stroke-miterlimit="10"/>
<path d="M489.732 485.638L423.84 402.841L427.02 330.403L467.025 269.932L569 241.677" stroke="white" stroke-opacity="0.5" stroke-width="0.3" stroke-miterlimit="10"/>
<path d="M156.742 541.199L215.125 452.947L285 433.587L354.874 452.947L413.258 541.199" stroke="white" stroke-opacity="0.5" stroke-width="0.3" stroke-miterlimit="10"/>
<path d="M1 241.677L102.974 269.932L142.979 330.403L146.159 402.841L80.2676 485.638" stroke="white" stroke-opacity="0.5" stroke-width="0.3" stroke-miterlimit="10"/>
<path d="M237.736 1L242.376 106.714L197.226 163.448L129.317 188.857L30.2108 151.776" stroke="white" stroke-opacity="0.5" stroke-width="0.3" stroke-miterlimit="10"/>
<path d="M539.789 151.776L440.683 188.547L372.829 163.372L327.918 106.619L332.264 1" stroke="white" stroke-opacity="0.5" stroke-width="0.3" stroke-miterlimit="10"/>
<path d="M489.732 485.638L424.135 402.745L427.111 330.433L467.207 270.182L569 241.677" stroke="white" stroke-opacity="0.5" stroke-width="0.3" stroke-miterlimit="10"/>
<path d="M156.742 541.2L215.307 453.199L285 433.683L354.692 453.199L413.258 541.2" stroke="white" stroke-opacity="0.5" stroke-width="0.3" stroke-miterlimit="10"/>
<path d="M1 241.677L102.792 270.182L142.889 330.433L145.865 402.745L80.2676 485.638" stroke="white" stroke-opacity="0.5" stroke-width="0.3" stroke-miterlimit="10"/>
<path d="M237.736 1L242.082 106.619L197.171 163.372L129.317 188.547L30.2108 151.776" stroke="white" stroke-opacity="0.5" stroke-width="0.3" stroke-miterlimit="10"/>
<path d="M539.789 151.776L440.682 166.611L377.362 157.133L348.78 99.8401L332.264 1" stroke="white" stroke-opacity="0.5" stroke-width="0.3" stroke-miterlimit="10"/>
<path d="M489.732 485.638L444.997 395.966L434.445 332.816L480.101 287.929L569 241.677" stroke="white" stroke-opacity="0.5" stroke-width="0.3" stroke-miterlimit="10"/>
<path d="M156.742 541.2L228.201 470.945L285 441.394L341.799 470.945L413.258 541.2" stroke="white" stroke-opacity="0.5" stroke-width="0.3" stroke-miterlimit="10"/>
<path d="M1 241.677L89.8987 287.929L135.555 332.816L125.002 395.966L80.2676 485.638" stroke="white" stroke-opacity="0.5" stroke-width="0.3" stroke-miterlimit="10"/>
<path d="M237.736 1L221.22 99.8401L192.638 157.133L129.317 166.611L30.2108 151.776" stroke="white" stroke-opacity="0.5" stroke-width="0.3" stroke-miterlimit="10"/>
<path d="M539.789 151.776L440.682 177.612L374.935 160.472L338.317 103.24L332.264 1" stroke="white" stroke-opacity="0.5" stroke-width="0.3" stroke-miterlimit="10"/>
<path d="M489.732 485.638L434.535 399.366L430.519 331.54L473.635 279.028L569 241.677" stroke="white" stroke-opacity="0.5" stroke-width="0.3" stroke-miterlimit="10"/>
<path d="M156.742 541.2L221.735 462.044L285 437.266L348.265 462.044L413.258 541.2" stroke="white" stroke-opacity="0.5" stroke-width="0.3" stroke-miterlimit="10"/>
<path d="M1 241.677L96.365 279.028L139.481 331.54L135.465 399.366L80.2676 485.638" stroke="white" stroke-opacity="0.5" stroke-width="0.3" stroke-miterlimit="10"/>
<path d="M237.736 1L231.682 103.24L195.064 160.472L129.317 177.612L30.2108 151.776" stroke="white" stroke-opacity="0.5" stroke-width="0.3" stroke-miterlimit="10"/>
<path d="M539.789 151.776L440.682 145.738L383.091 149.247L368.632 93.3898L332.264 1" stroke="white" stroke-opacity="0.5" stroke-width="0.3" stroke-miterlimit="10"/>
<path d="M489.732 485.638L464.849 389.516L443.716 335.828L492.37 304.816L569 241.677" stroke="white" stroke-opacity="0.5" stroke-width="0.3" stroke-miterlimit="10"/>
<path d="M156.742 541.2L240.47 487.832L285 451.142L329.53 487.832L413.258 541.2" stroke="white" stroke-opacity="0.5" stroke-width="0.3" stroke-miterlimit="10"/>
<path d="M1 241.677L77.6295 304.816L126.284 335.828L105.15 389.516L80.2676 485.638" stroke="white" stroke-opacity="0.5" stroke-width="0.3" stroke-miterlimit="10"/>
<path d="M237.736 1L201.368 93.3898L186.908 149.247L129.317 145.738L30.2108 151.776" stroke="white" stroke-opacity="0.5" stroke-width="0.3" stroke-miterlimit="10"/>
<path d="M539.789 151.776L440.682 168.881L376.833 157.861L346.622 100.541L332.264 1" stroke="white" stroke-opacity="0.5" stroke-width="0.3" stroke-miterlimit="10"/>
<path d="M489.732 485.638L442.839 396.668L433.589 332.538L478.767 286.093L569 241.677" stroke="white" stroke-opacity="0.5" stroke-width="0.3" stroke-miterlimit="10"/>
<path d="M156.742 541.199L226.867 469.108L285 440.493L343.133 469.108L413.258 541.199" stroke="white" stroke-opacity="0.5" stroke-width="0.3" stroke-miterlimit="10"/>
<path d="M1 241.677L91.2326 286.093L136.411 332.538L127.161 396.668L80.2676 485.638" stroke="white" stroke-opacity="0.5" stroke-width="0.3" stroke-miterlimit="10"/>
<path d="M237.736 1L223.378 100.541L193.167 157.861L129.317 168.881L30.2108 151.776" stroke="white" stroke-opacity="0.5" stroke-width="0.3" stroke-miterlimit="10"/>
<path d="M539.789 151.776L440.682 124.316L391.254 138.012L389.005 86.7702L332.264 1" stroke="white" stroke-opacity="0.5" stroke-width="0.3" stroke-miterlimit="10"/>
<path d="M489.732 485.638L485.222 382.897L456.923 340.119L504.961 322.146L569 241.677" stroke="white" stroke-opacity="0.5" stroke-width="0.3" stroke-miterlimit="10"/>
<path d="M156.742 541.2L253.061 505.162L285 465.029L316.938 505.162L413.258 541.2" stroke="white" stroke-opacity="0.5" stroke-width="0.3" stroke-miterlimit="10"/>
<path d="M1 241.677L65.0384 322.146L113.077 340.119L84.7775 382.897L80.2676 485.638" stroke="white" stroke-opacity="0.5" stroke-width="0.3" stroke-miterlimit="10"/>
<path d="M237.736 1L180.995 86.7702L178.746 138.012L129.317 124.316L30.2108 151.776" stroke="white" stroke-opacity="0.5" stroke-width="0.3" stroke-miterlimit="10"/>
<path d="M539.789 151.776L440.682 163.324L378.157 156.038L351.907 98.8241L332.264 1" stroke="white" stroke-opacity="0.5" stroke-width="0.3" stroke-miterlimit="10"/>
<path d="M489.732 485.638L448.124 394.951L435.731 333.234L482.033 290.588L568.999 241.677" stroke="white" stroke-opacity="0.5" stroke-width="0.3" stroke-miterlimit="10"/>
<path d="M156.742 541.199L230.133 473.604L285 442.746L339.866 473.604L413.258 541.199" stroke="white" stroke-opacity="0.5" stroke-width="0.3" stroke-miterlimit="10"/>
<path d="M1 241.677L87.9662 290.588L134.268 333.234L121.876 394.951L80.2676 485.638" stroke="white" stroke-opacity="0.5" stroke-width="0.3" stroke-miterlimit="10"/>
<path d="M237.736 1L218.093 98.8241L191.843 156.038L129.317 163.324L30.2108 151.776" stroke="white" stroke-opacity="0.5" stroke-width="0.3" stroke-miterlimit="10"/>
<path d="M285 141.803L309.468 238.514L285 258.901L260.532 238.514L285 141.803Z" stroke="white" stroke-opacity="0.5" stroke-width="0.3" stroke-miterlimit="10"/>
<path d="M420.483 240.237L336.066 293.393L309.116 276.423L320.944 246.852L420.483 240.237Z" stroke="white" stroke-opacity="0.5" stroke-width="0.3" stroke-miterlimit="10"/>
<path d="M368.733 399.507L292.093 335.648L299.904 304.772L331.683 306.884L368.733 399.507Z" stroke="white" stroke-opacity="0.5" stroke-width="0.3" stroke-miterlimit="10"/>
<path d="M201.267 399.507L238.317 306.884L270.096 304.772L277.907 335.648L201.267 399.507Z" stroke="white" stroke-opacity="0.5" stroke-width="0.3" stroke-miterlimit="10"/>
<path d="M149.517 240.237L249.056 246.852L260.884 276.423L233.934 293.393L149.517 240.237Z" stroke="white" stroke-opacity="0.5" stroke-width="0.3" stroke-miterlimit="10"/>
<path d="M285 250.076L308.277 238.128L285 192.103L261.722 238.128L285 250.076Z" stroke="white" stroke-opacity="0.5" stroke-width="0.3" stroke-miterlimit="10"/>
<path d="M317.509 273.696L336.066 292.142L372.645 255.781L321.679 247.865L317.509 273.696Z" stroke="white" stroke-opacity="0.5" stroke-width="0.3" stroke-miterlimit="10"/>
<path d="M305.092 311.912L293.283 335.261L339.168 358.813L330.947 307.896L305.092 311.912Z" stroke="white" stroke-opacity="0.5" stroke-width="0.3" stroke-miterlimit="10"/>
<path d="M264.908 311.912L239.053 307.896L230.832 358.813L276.717 335.261L264.908 311.912Z" stroke="white" stroke-opacity="0.5" stroke-width="0.3" stroke-miterlimit="10"/>
<path d="M252.491 273.696L248.32 247.865L197.355 255.781L233.934 292.142L252.491 273.696Z" stroke="white" stroke-opacity="0.5" stroke-width="0.3" stroke-miterlimit="10"/>
<path d="M285 244.6L306.94 237.694L285 208.074L263.059 237.694L285 244.6Z" stroke="white" stroke-opacity="0.5" stroke-width="0.3" stroke-miterlimit="10"/>
<path d="M322.718 272.002L336.066 290.735L357.456 260.715L322.506 249.001L322.718 272.002Z" stroke="white" stroke-opacity="0.5" stroke-width="0.3" stroke-miterlimit="10"/>
<path d="M308.311 316.343L294.62 334.826L329.78 345.893L330.121 309.033L308.311 316.343Z" stroke="white" stroke-opacity="0.5" stroke-width="0.3" stroke-miterlimit="10"/>
<path d="M261.689 316.343L239.879 309.033L240.22 345.893L275.38 334.826L261.689 316.343Z" stroke="white" stroke-opacity="0.5" stroke-width="0.3" stroke-miterlimit="10"/>
<path d="M247.281 272.002L247.494 249.001L212.544 260.715L233.934 290.735L247.281 272.002Z" stroke="white" stroke-opacity="0.5" stroke-width="0.3" stroke-miterlimit="10"/>
<path d="M285 242.442L306.155 237.438L285 212.834L263.845 237.438L285 242.442Z" stroke="white" stroke-opacity="0.5" stroke-width="0.3" stroke-miterlimit="10"/>
<path d="M324.769 271.336L336.066 289.909L352.928 262.187L322.992 249.67L324.769 271.336Z" stroke="white" stroke-opacity="0.5" stroke-width="0.3" stroke-miterlimit="10"/>
<path d="M309.579 318.088L295.406 334.571L326.982 342.041L329.635 309.702L309.579 318.088Z" stroke="white" stroke-opacity="0.5" stroke-width="0.3" stroke-miterlimit="10"/>
<path d="M260.421 318.088L240.365 309.702L243.018 342.041L274.594 334.571L260.421 318.088Z" stroke="white" stroke-opacity="0.5" stroke-width="0.3" stroke-miterlimit="10"/>
<path d="M245.231 271.336L247.008 249.67L217.072 262.187L233.934 289.909L245.231 271.336Z" stroke="white" stroke-opacity="0.5" stroke-width="0.3" stroke-miterlimit="10"/>
<path d="M285 242.6L306.219 237.459L285 212.509L263.78 237.459L285 242.6Z" stroke="white" stroke-opacity="0.5" stroke-width="0.3" stroke-miterlimit="10"/>
<path d="M324.619 271.385L336.066 289.978L353.237 262.087L322.952 249.616L324.619 271.385Z" stroke="white" stroke-opacity="0.5" stroke-width="0.3" stroke-miterlimit="10"/>
<path d="M309.486 317.961L295.341 334.593L327.173 342.305L329.675 309.648L309.486 317.961Z" stroke="white" stroke-opacity="0.5" stroke-width="0.3" stroke-miterlimit="10"/>
<path d="M260.514 317.961L240.325 309.648L242.827 342.305L274.659 334.593L260.514 317.961Z" stroke="white" stroke-opacity="0.5" stroke-width="0.3" stroke-miterlimit="10"/>
<path d="M245.38 271.385L247.048 249.616L216.762 262.087L233.934 289.978L245.38 271.385Z" stroke="white" stroke-opacity="0.5" stroke-width="0.3" stroke-miterlimit="10"/>
<path d="M285 231.787L291.979 232.831L285 229.201L278.021 232.831L285 231.787Z" stroke="white" stroke-opacity="0.5" stroke-width="0.3" stroke-miterlimit="10"/>
<path d="M334.903 268.043L336.066 275.003L337.363 267.244L331.753 261.729L334.903 268.043Z" stroke="white" stroke-opacity="0.5" stroke-width="0.3" stroke-miterlimit="10"/>
<path d="M315.842 326.708L309.582 329.965L317.362 328.801L320.874 321.761L315.842 326.708Z" stroke="white" stroke-opacity="0.5" stroke-width="0.3" stroke-miterlimit="10"/>
<path d="M254.158 326.708L249.126 321.761L252.638 328.801L260.418 329.965L254.158 326.708Z" stroke="white" stroke-opacity="0.5" stroke-width="0.3" stroke-miterlimit="10"/>
<path d="M235.097 268.043L238.247 261.729L232.637 267.244L233.934 275.003L235.097 268.043Z" stroke="white" stroke-opacity="0.5" stroke-width="0.3" stroke-miterlimit="10"/>
<path d="M285 244.227L306.819 237.653L285 208.944L263.181 237.653L285 244.227Z" stroke="white" stroke-opacity="0.5" stroke-width="0.3" stroke-miterlimit="10"/>
<path d="M323.072 271.888L336.066 290.609L356.628 260.985L322.581 249.106L323.072 271.888Z" stroke="white" stroke-opacity="0.5" stroke-width="0.3" stroke-miterlimit="10"/>
<path d="M308.53 316.644L294.741 334.787L329.269 345.189L330.046 309.137L308.53 316.644Z" stroke="white" stroke-opacity="0.5" stroke-width="0.3" stroke-miterlimit="10"/>
<path d="M261.47 316.644L239.954 309.137L240.731 345.189L275.258 334.787L261.47 316.644Z" stroke="white" stroke-opacity="0.5" stroke-width="0.3" stroke-miterlimit="10"/>
<path d="M246.927 271.888L247.418 249.106L213.371 260.985L233.933 290.609L246.927 271.888Z" stroke="white" stroke-opacity="0.5" stroke-width="0.3" stroke-miterlimit="10"/>
<path d="M285 237.597L303.227 236.486L285 221.468L266.773 236.486L285 237.597Z" stroke="white" stroke-opacity="0.5" stroke-width="0.3" stroke-miterlimit="10"/>
<path d="M329.377 269.839L336.066 286.831L344.717 264.855L324.801 252.161L329.377 269.839Z" stroke="white" stroke-opacity="0.5" stroke-width="0.3" stroke-miterlimit="10"/>
<path d="M312.427 322.007L298.333 333.62L321.907 335.056L327.826 312.192L312.427 322.007Z" stroke="white" stroke-opacity="0.5" stroke-width="0.3" stroke-miterlimit="10"/>
<path d="M257.573 322.007L242.174 312.192L248.093 335.056L271.667 333.62L257.573 322.007Z" stroke="white" stroke-opacity="0.5" stroke-width="0.3" stroke-miterlimit="10"/>
<path d="M240.622 269.839L245.199 252.161L225.283 264.855L233.934 286.831L240.622 269.839Z" stroke="white" stroke-opacity="0.5" stroke-width="0.3" stroke-miterlimit="10"/>
<path d="M285 246.83L307.574 237.899L285 202.349L262.425 237.899L285 246.83Z" stroke="white" stroke-opacity="0.5" stroke-width="0.3" stroke-miterlimit="10"/>
<path d="M320.597 272.692L336.066 291.402L362.901 258.947L322.114 248.463L320.597 272.692Z" stroke="white" stroke-opacity="0.5" stroke-width="0.3" stroke-miterlimit="10"/>
<path d="M307 314.539L293.986 335.033L333.145 350.525L330.512 308.495L307 314.539Z" stroke="white" stroke-opacity="0.5" stroke-width="0.3" stroke-miterlimit="10"/>
<path d="M263 314.539L239.488 308.495L236.855 350.525L276.014 335.033L263 314.539Z" stroke="white" stroke-opacity="0.5" stroke-width="0.3" stroke-miterlimit="10"/>
<path d="M249.403 272.692L247.885 248.463L207.099 258.947L233.934 291.402L249.403 272.692Z" stroke="white" stroke-opacity="0.5" stroke-width="0.3" stroke-miterlimit="10"/>
<path d="M285 243.559L306.587 237.578L285 210.452L263.413 237.578L285 243.559Z" stroke="white" stroke-opacity="0.5" stroke-width="0.3" stroke-miterlimit="10"/>
<path d="M323.707 271.682L336.066 290.365L355.194 261.452L322.724 249.303L323.707 271.682Z" stroke="white" stroke-opacity="0.5" stroke-width="0.3" stroke-miterlimit="10"/>
<path d="M308.922 317.185L294.973 334.713L328.382 343.97L329.902 309.335L308.922 317.185Z" stroke="white" stroke-opacity="0.5" stroke-width="0.3" stroke-miterlimit="10"/>
<path d="M261.078 317.185L240.097 309.335L241.618 343.97L275.027 334.713L261.078 317.185Z" stroke="white" stroke-opacity="0.5" stroke-width="0.3" stroke-miterlimit="10"/>
<path d="M246.293 271.682L247.275 249.303L214.806 261.452L233.934 290.365L246.293 271.682Z" stroke="white" stroke-opacity="0.5" stroke-width="0.3" stroke-miterlimit="10"/>
<path d="M285 250.172L308.296 238.133L285 191.755L261.704 238.133L285 250.172Z" stroke="white" stroke-opacity="0.5" stroke-width="0.3" stroke-miterlimit="10"/>
<path d="M317.417 273.726L336.066 292.161L372.975 255.674L321.668 247.85L317.417 273.726Z" stroke="white" stroke-opacity="0.5" stroke-width="0.3" stroke-miterlimit="10"/>
<path d="M305.035 311.834L293.265 335.267L339.371 359.094L330.958 307.881L305.035 311.834Z" stroke="white" stroke-opacity="0.5" stroke-width="0.3" stroke-miterlimit="10"/>
<path d="M264.965 311.834L239.042 307.881L230.628 359.094L276.735 335.267L264.965 311.834Z" stroke="white" stroke-opacity="0.5" stroke-width="0.3" stroke-miterlimit="10"/>
<path d="M252.582 273.726L248.331 247.85L197.024 255.674L233.933 292.161L252.582 273.726Z" stroke="white" stroke-opacity="0.5" stroke-width="0.3" stroke-miterlimit="10"/>
<path d="M285 250.269L308.314 238.139L285 191.407L261.687 238.139L285 250.269Z" stroke="white" stroke-opacity="0.5" stroke-width="0.3" stroke-miterlimit="10"/>
<path d="M317.326 273.755L336.066 292.179L373.307 255.565L321.657 247.834L317.326 273.755Z" stroke="white" stroke-opacity="0.5" stroke-width="0.3" stroke-miterlimit="10"/>
<path d="M304.978 311.757L293.247 335.273L339.576 359.377L330.969 307.866L304.978 311.757Z" stroke="white" stroke-opacity="0.5" stroke-width="0.3" stroke-miterlimit="10"/>
<path d="M265.021 311.757L239.031 307.866L230.423 359.377L276.753 335.273L265.021 311.757Z" stroke="white" stroke-opacity="0.5" stroke-width="0.3" stroke-miterlimit="10"/>
<path d="M252.674 273.755L248.342 247.834L196.693 255.565L233.934 292.179L252.674 273.755Z" stroke="white" stroke-opacity="0.5" stroke-width="0.3" stroke-miterlimit="10"/>
<path d="M285 254.165L308.925 238.337L285 174.392L261.074 238.337L285 254.165Z" stroke="white" stroke-opacity="0.5" stroke-width="0.3" stroke-miterlimit="10"/>
<path d="M313.62 274.959L336.066 292.822L389.489 250.308L321.28 247.313L313.62 274.959Z" stroke="white" stroke-opacity="0.5" stroke-width="0.3" stroke-miterlimit="10"/>
<path d="M302.688 308.604L292.635 335.472L349.578 373.142L331.347 307.346L302.688 308.604Z" stroke="white" stroke-opacity="0.5" stroke-width="0.3" stroke-miterlimit="10"/>
<path d="M267.312 308.604L238.653 307.346L220.422 373.142L277.365 335.472L267.312 308.604Z" stroke="white" stroke-opacity="0.5" stroke-width="0.3" stroke-miterlimit="10"/>
<path d="M256.38 274.959L248.72 247.313L180.511 250.308L233.933 292.822L256.38 274.959Z" stroke="white" stroke-opacity="0.5" stroke-width="0.3" stroke-miterlimit="10"/>
<path d="M285 258.645L309.443 238.506L285 144.083L260.557 238.506L285 258.645Z" stroke="white" stroke-opacity="0.5" stroke-width="0.3" stroke-miterlimit="10"/>
<path d="M309.359 276.343L336.066 293.366L418.313 240.941L320.959 246.873L309.359 276.343Z" stroke="white" stroke-opacity="0.5" stroke-width="0.3" stroke-miterlimit="10"/>
<path d="M300.055 304.978L292.118 335.639L367.392 397.66L331.667 306.904L300.055 304.978Z" stroke="white" stroke-opacity="0.5" stroke-width="0.3" stroke-miterlimit="10"/>
<path d="M269.945 304.978L238.333 306.904L202.607 397.66L277.882 335.639L269.945 304.978Z" stroke="white" stroke-opacity="0.5" stroke-width="0.3" stroke-miterlimit="10"/>
<path d="M260.641 276.343L249.04 246.873L151.686 240.941L233.934 293.366L260.641 276.343Z" stroke="white" stroke-opacity="0.5" stroke-width="0.3" stroke-miterlimit="10"/>
<path d="M285 258.773L309.455 238.511L285 142.96L260.544 238.511L285 258.773Z" stroke="white" stroke-opacity="0.5" stroke-width="0.3" stroke-miterlimit="10"/>
<path d="M309.238 276.383L336.066 293.38L419.383 240.595L320.952 246.863L309.238 276.383Z" stroke="white" stroke-opacity="0.5" stroke-width="0.3" stroke-miterlimit="10"/>
<path d="M299.98 304.877L292.105 335.644L368.053 398.572L331.675 306.895L299.98 304.877Z" stroke="white" stroke-opacity="0.5" stroke-width="0.3" stroke-miterlimit="10"/>
<path d="M270.02 304.877L238.325 306.895L201.947 398.572L277.895 335.644L270.02 304.877Z" stroke="white" stroke-opacity="0.5" stroke-width="0.3" stroke-miterlimit="10"/>
<path d="M260.762 276.383L249.048 246.863L150.617 240.595L233.934 293.38L260.762 276.383Z" stroke="white" stroke-opacity="0.5" stroke-width="0.3" stroke-miterlimit="10"/>
<path d="M285 270.58L310.303 238.786L304.83 114.121L285 84.145L265.17 114.121L259.697 238.786L285 270.58Z" stroke="white" stroke-opacity="0.5" stroke-width="0.3" stroke-miterlimit="10"/>
<path d="M298.009 280.03L336.066 294.269L452.939 250.541L475.319 222.419L440.683 212.822L320.428 246.141L298.009 280.03Z" stroke="white" stroke-opacity="0.5" stroke-width="0.3" stroke-miterlimit="10"/>
<path d="M293.04 295.325L291.258 335.919L368.961 433.559L402.624 446.154L401.047 410.247L332.198 306.174L293.04 295.325Z" stroke="white" stroke-opacity="0.5" stroke-width="0.3" stroke-miterlimit="10"/>
<path d="M276.96 295.325L237.801 306.174L168.952 410.247L167.376 446.154L201.038 433.559L278.742 335.919L276.96 295.325Z" stroke="white" stroke-opacity="0.5" stroke-width="0.3" stroke-miterlimit="10"/>
<path d="M271.991 280.03L249.572 246.141L129.317 212.822L94.6808 222.419L117.061 250.541L233.934 294.269L271.991 280.03Z" stroke="white" stroke-opacity="0.5" stroke-width="0.3" stroke-miterlimit="10"/>
<path d="M285 263.879L309.888 238.651L291.676 118.395L285 105.508L278.323 118.395L260.112 238.651L285 263.879Z" stroke="white" stroke-opacity="0.5" stroke-width="0.3" stroke-miterlimit="10"/>
<path d="M304.382 277.961L336.066 293.835L444.809 239.353L455.002 229.021L440.683 226.654L320.684 246.495L304.382 277.961Z" stroke="white" stroke-opacity="0.5" stroke-width="0.3" stroke-miterlimit="10"/>
<path d="M296.979 300.745L291.672 335.784L377.091 422.369L390.067 428.87L387.894 414.52L331.942 306.526L296.979 300.745Z" stroke="white" stroke-opacity="0.5" stroke-width="0.3" stroke-miterlimit="10"/>
<path d="M273.021 300.745L238.057 306.526L182.106 414.52L179.933 428.87L192.909 422.369L278.327 335.784L273.021 300.745Z" stroke="white" stroke-opacity="0.5" stroke-width="0.3" stroke-miterlimit="10"/>
<path d="M265.618 277.961L249.316 246.495L129.317 226.654L114.998 229.021L125.191 239.353L233.934 293.835L265.618 277.961Z" stroke="white" stroke-opacity="0.5" stroke-width="0.3" stroke-miterlimit="10"/>
<path d="M296.071 269.02L311.035 239.024L333.462 104.817L285 57.1719L236.538 104.817L258.964 239.024L273.928 269.02L250.025 245.519L129.317 182.718L69.0277 214.085L99.3659 274.898L233.934 295.041L267.086 290.079L237.348 305.55L140.321 400.944L151.522 467.975L218.733 457.914L279.475 336.157L285 303.094L290.525 336.157L351.266 457.914L418.478 467.975L429.679 400.944L332.651 305.55L302.914 290.079L336.066 295.041L470.634 274.898L500.972 214.085L440.683 182.718L319.975 245.519L296.071 269.02Z" stroke="white" stroke-opacity="0.5" stroke-width="0.3" stroke-miterlimit="10"/>
<path d="M285 269.035L310.219 238.758L302.018 115.034L285 88.0181L267.982 115.034L259.781 238.758L285 269.035Z" stroke="white" stroke-opacity="0.5" stroke-width="0.3" stroke-miterlimit="10"/>
<path d="M299.478 279.553L336.066 294.182L451.201 248.15L471.636 223.616L440.683 215.779L320.48 246.213L299.478 279.553Z" stroke="white" stroke-opacity="0.5" stroke-width="0.3" stroke-miterlimit="10"/>
<path d="M293.948 296.574L291.342 335.892L370.699 431.166L400.347 443.02L398.235 411.16L332.146 306.245L293.948 296.574Z" stroke="white" stroke-opacity="0.5" stroke-width="0.3" stroke-miterlimit="10"/>
<path d="M276.052 296.574L237.853 306.245L171.765 411.16L169.653 443.02L199.301 431.166L278.658 335.892L276.052 296.574Z" stroke="white" stroke-opacity="0.5" stroke-width="0.3" stroke-miterlimit="10"/>
<path d="M270.522 279.553L249.52 246.213L129.317 215.779L98.3643 223.616L118.799 248.15L233.934 294.182L270.522 279.553Z" stroke="white" stroke-opacity="0.5" stroke-width="0.3" stroke-miterlimit="10"/>
</g>
</svg>
