<svg width="41" height="24" viewBox="0 0 41 24" fill="none" xmlns="http://www.w3.org/2000/svg">
<rect x="3" y="1" width="2" height="2" fill="#333333"/>
<rect x="2" y="2" width="1" height="3" fill="#333333"/>
<rect x="1" y="3" width="1" height="3" fill="#333333"/>
<rect y="5" width="2" height="1" fill="#333333"/>
<rect width="2" height="2" transform="matrix(-1 0 0 1 38 1)" fill="#333333"/>
<rect width="1" height="3" transform="matrix(-1 0 0 1 39 2)" fill="#333333"/>
<rect width="1" height="3" transform="matrix(-1 0 0 1 40 3)" fill="#333333"/>
<rect width="2" height="1" transform="matrix(-1 0 0 1 41 5)" fill="#333333"/>
<rect x="3" y="21" width="2" height="2" fill="#333333"/>
<rect x="2" y="19" width="1" height="3" fill="#333333"/>
<rect width="1" height="3" transform="matrix(1 0 0 -1 1 21)" fill="#333333"/>
<rect width="2" height="1" transform="matrix(1 0 0 -1 0 19)" fill="#333333"/>
<rect width="2" height="2" transform="matrix(-1 0 0 1 38 21)" fill="#333333"/>
<rect width="1" height="3" transform="matrix(-1 0 0 1 39 19)" fill="#333333"/>
<rect x="40" y="21" width="1" height="3" transform="rotate(180 40 21)" fill="#333333"/>
<rect x="41" y="19" width="2" height="1" transform="rotate(180 41 19)" fill="#333333"/>
<rect x="5" width="31" height="2" fill="#333333"/>
<rect x="5" y="22" width="31" height="2" fill="#333333"/>
<path d="M13.6758 11.6055H16.1172V11.1172H16.6055V10.1406H16.1172V9.65234H13.6758V11.6055ZM12.6992 15.5117V8.67578H16.6055V9.16406H17.0938V9.65234H17.582V11.6055H17.0938V12.582H17.582V14.5352H17.0938V15.0234H16.6055V15.5117H12.6992ZM13.6758 14.5352H16.1172V14.0469H16.6055V13.0703H16.1172V12.582H13.6758V14.5352ZM19.0469 14.5352H18.5586V8.67578H19.5352V14.0469H20.0234V14.5352H21.9766V14.0469H22.4648V8.67578H23.4414V14.5352H22.9531V15.0234H22.4648V15.5117H19.5352V15.0234H19.0469V14.5352ZM27.3477 15.5117H26.3711V13.0703H25.8828V12.582H25.3945V12.0938H24.9062V11.6055H24.418V8.67578H25.3945V11.1172H25.8828V11.6055H26.3711V12.0938H27.3477V11.6055H27.8359V11.1172H28.3242V8.67578H29.3008V11.6055H28.8125V12.0938H28.3242V12.582H27.8359V13.0703H27.3477V15.5117Z" fill="#333333"/>
<rect y="6" width="2" height="12" fill="#333333"/>
<rect width="2" height="12" transform="matrix(-1 0 0 1 41 6)" fill="#333333"/>
</svg>
