<svg width="130" height="37" viewBox="0 0 130 37" fill="none" xmlns="http://www.w3.org/2000/svg">
<rect x="3" y="1" width="2" height="2" fill="#828282"/>
<rect x="2" y="2" width="1" height="3" fill="#828282"/>
<rect x="1" y="3" width="1" height="3" fill="#828282"/>
<rect y="5" width="2" height="1" fill="#828282"/>
<rect width="2" height="2" transform="matrix(-1 0 0 1 127 1)" fill="#828282"/>
<rect width="1" height="3" transform="matrix(-1 0 0 1 128 2)" fill="#828282"/>
<rect width="1" height="3" transform="matrix(-1 0 0 1 129 3)" fill="#828282"/>
<rect width="2" height="1" transform="matrix(-1 0 0 1 130 5)" fill="#828282"/>
<rect x="3" y="34" width="2" height="2" fill="#828282"/>
<rect x="2" y="32" width="1" height="3" fill="#828282"/>
<rect width="1" height="3" transform="matrix(1 0 0 -1 1 34)" fill="#828282"/>
<rect width="2" height="1" transform="matrix(1 0 0 -1 0 32)" fill="#828282"/>
<rect width="2" height="2" transform="matrix(-1 0 0 1 127 34)" fill="#828282"/>
<rect width="1" height="3" transform="matrix(-1 0 0 1 128 32)" fill="#828282"/>
<rect x="129" y="34" width="1" height="3" transform="rotate(180 129 34)" fill="#828282"/>
<rect x="130" y="32" width="2" height="1" transform="rotate(180 130 32)" fill="#828282"/>
<rect x="5" width="120" height="2" fill="#828282"/>
<rect x="5" y="35" width="120" height="2" fill="#828282"/>
<path d="M46.9763 18.4531H52.8357V17.2812H54.0076V14.9375H52.8357V13.7656H46.9763V18.4531ZM44.6326 27.8281V11.4219H54.0076V12.5938H55.1795V13.7656H56.3513V18.4531H55.1795V20.7969H56.3513V25.4844H55.1795V26.6562H54.0076V27.8281H44.6326ZM46.9763 25.4844H52.8357V24.3125H54.0076V21.9688H52.8357V20.7969H46.9763V25.4844ZM59.867 25.4844H58.6951V11.4219H61.0388V24.3125H62.2107V25.4844H66.8982V24.3125H68.0701V11.4219H70.4138V25.4844H69.242V26.6562H68.0701V27.8281H61.0388V26.6562H59.867V25.4844ZM79.7888 27.8281H77.4451V21.9688H76.2732V20.7969H75.1013V19.625H73.9295V18.4531H72.7576V11.4219H75.1013V17.2812H76.2732V18.4531H77.4451V19.625H79.7888V18.4531H80.9607V17.2812H82.1326V11.4219H84.4763V18.4531H83.3045V19.625H82.1326V20.7969H80.9607V21.9688H79.7888V27.8281Z" fill="#828282"/>
<rect y="6" width="2" height="25" fill="#828282"/>
<rect width="2" height="25" transform="matrix(-1 0 0 1 130 6)" fill="#828282"/>
</svg>
