<svg width="32" height="32" viewBox="0 0 32 32" fill="none" xmlns="http://www.w3.org/2000/svg">
<path fill-rule="evenodd" clip-rule="evenodd" d="M4 4H7.42857V7.42857H4V4ZM10.8571 10.8571H7.42857V7.42857H10.8571V10.8571ZM14.2857 14.2857H10.8571V10.8571H14.2857V14.2857ZM17.7143 14.2857H14.2857V17.7143H10.8571V21.1429H7.42857V24.5714H4V28H7.42857V24.5714H10.8571L10.8571 21.1429H14.2857V17.7143H17.7143V21.1429H21.1429V24.5714H24.5714V28H28V24.5714H24.5714V21.1429H21.1429V17.7143H17.7143V14.2857ZM21.1429 10.8571V14.2857H17.7143L17.7143 10.8571H21.1429ZM24.5714 7.42857V10.8571H21.1429V7.42857H24.5714ZM24.5714 7.42857V4H28V7.42857H24.5714Z" fill="#F2F2F2"/>
</svg>
