<svg width="161" height="31" viewBox="0 0 161 31" fill="none" xmlns="http://www.w3.org/2000/svg">
<rect width="160.21" height="30.21" rx="15.105" fill="white" fill-opacity="0.3"/>
<g clip-path="url(#clip0_291_347)">
<path d="M23.3085 22.2907H26.9014V20.4943H23.3085V22.2907Z" fill="#562D8B"/>
<path d="M28.6978 18.6979H26.9014V20.4943H28.6978V18.6979Z" fill="#562D8B"/>
<path d="M23.3084 18.6979H21.512V20.4943H23.3084V18.6979Z" fill="#562D8B"/>
<path d="M28.6978 7.91919V18.6979H30.4942V7.91919H28.6978Z" fill="#562D8B"/>
<path d="M21.512 7.91919H19.7156V18.6979H21.512V7.91919Z" fill="#562D8B"/>
<path d="M28.6978 20.4944H26.9014V22.2908H28.6978V20.4944Z" fill="#B3B3BB"/>
<path d="M23.3085 20.4944H21.5121V22.2908H23.3085V20.4944Z" fill="#B3B3BB"/>
<path d="M30.4943 18.6979H28.6979V20.4943H30.4943V18.6979Z" fill="#B3B3BB"/>
<path d="M21.512 18.6979H19.7156V20.4943H21.512V18.6979Z" fill="#B3B3BB"/>
<path d="M23.3085 24.0872H26.9014V22.2908H23.3085V24.0872Z" fill="#B3B3BB"/>
<path d="M28.6979 6.1228V7.91925H30.4943V18.6979H32.2908V6.1228H28.6979Z" fill="#B3B3BB"/>
<path d="M21.5121 7.91925V6.1228H17.9192V18.6979H19.7156V7.91925H21.5121Z" fill="#B3B3BB"/>
</g>
<path d="M43.2656 12.3979H47.6016V13.8433H43.2656V12.3979ZM41.8203 13.8433H43.2656V18.1792H41.8203V13.8433ZM47.6016 13.8433H49.0469V15.2886H47.6016V13.8433ZM47.6016 16.7339H49.0469V18.1792H47.6016V16.7339ZM43.2656 18.1792H47.6016V19.605H43.2656V18.1792ZM50.4676 12.3979H56.2488V13.8433H51.9129V15.2886H56.2488V16.7339H51.9129V19.605H50.4676V12.3979ZM56.2488 13.8433H57.6941V15.2886H56.2488V13.8433ZM56.2488 16.7339H57.6941V19.605H56.2488V16.7339ZM59.1148 12.3979H60.5602V13.8433H59.1148V12.3979ZM64.8961 12.3979H66.3414V13.8433H64.8961V12.3979ZM60.5602 13.8433H62.0055V15.2886H60.5602V13.8433ZM63.4508 13.8433H64.8961V15.2886H63.4508V13.8433ZM62.0055 15.2886H63.4508V19.605H62.0055V15.2886ZM67.7621 12.3979H73.5434V13.8433H69.2074V15.2886H73.5434V16.7339H69.2074V19.605H67.7621V12.3979ZM73.5434 13.8433H74.9887V15.2886H73.5434V13.8433ZM76.4094 12.3979H83.6359V13.8433H80.7453V19.605H79.3V13.8433H76.4094V12.3979ZM86.502 12.3979H90.8379V13.8433H86.502V12.3979ZM85.0566 13.8433H86.502V18.1792H85.0566V13.8433ZM90.8379 13.8433H92.2832V18.1792H90.8379V13.8433ZM86.502 18.1792H90.8379V19.605H86.502V18.1792ZM93.7039 12.3979H95.1492V16.7339H93.7039V12.3979ZM99.4852 12.3979H100.93V16.7339H99.4852V12.3979ZM95.1492 16.7339H96.5945V18.1792H95.1492V16.7339ZM98.0398 16.7339H99.4852V18.1792H98.0398V16.7339ZM96.5945 18.1792H98.0398V19.605H96.5945V18.1792ZM103.796 12.3979H108.132V13.8433H103.796V12.3979ZM102.351 13.8433H103.796V18.1792H102.351V13.8433ZM108.132 13.8433H109.578V18.1792H108.132V13.8433ZM103.796 18.1792H108.132V19.605H103.796V18.1792ZM110.998 12.3979H112.444V13.8433H110.998V12.3979ZM116.78 12.3979H118.225V13.8433H116.78V12.3979ZM112.444 13.8433H113.889V15.2886H112.444V13.8433ZM115.334 13.8433H116.78V15.2886H115.334V13.8433ZM113.889 15.2886H115.334V16.7339H113.889V15.2886ZM112.444 16.7339H113.889V18.1792H112.444V16.7339ZM115.334 16.7339H116.78V18.1792H115.334V16.7339ZM110.998 18.1792H112.444V19.605H110.998V18.1792ZM116.78 18.1792H118.225V19.605H116.78V18.1792ZM119.646 12.3979H126.872V13.8433H121.091V15.2886H125.427V16.7339H121.091V18.1792H126.872V19.605H119.646V12.3979ZM128.293 12.3979H129.738V18.1792H135.52V19.605H128.293V12.3979ZM138.386 12.3979H144.167V13.8433H138.386V12.3979ZM136.94 13.8433H138.386V15.2886H136.94V13.8433ZM138.386 15.2886H142.721V16.7339H138.386V15.2886ZM142.721 16.7339H144.167V18.1792H142.721V16.7339ZM136.94 18.1792H142.721V19.605H136.94V18.1792Z" fill="black"/>
<defs>
<clipPath id="clip0_291_347">
<rect width="20.21" height="20.21" fill="white" transform="translate(15 5)"/>
</clipPath>
</defs>
</svg>
