<svg width="50" height="50" viewBox="0 0 50 50" fill="none" xmlns="http://www.w3.org/2000/svg">
<g clip-path="url(#clip0_287_335)">
<path d="M20.9535 27.0878C20.881 27.2852 20.9773 27.2931 21.1263 27.2923C21.9042 27.2894 22.6821 27.2923 23.4599 27.2923H24.6986C22.8263 26.4154 22.3886 24.8819 22.4153 23.0696C21.9288 24.4083 21.4447 25.7493 20.9535 27.0878Z" fill="#333333"/>
<path d="M27.546 25.2919C28.0571 24.2213 28.051 23.1188 27.5549 22.0453C27.2344 21.3517 26.645 21.0006 25.8792 20.9943C25.0987 20.9881 24.5238 21.3486 24.1598 22.0388C23.8915 22.5475 23.826 23.1015 23.8069 23.6636C23.8273 24.2292 23.8943 24.7832 24.1656 25.2906C24.5264 25.9653 25.0914 26.3225 25.8577 26.3233C26.6241 26.324 27.2166 25.9818 27.546 25.2919Z" fill="#333333"/>
<path d="M33.9598 41.5175C33.9598 41.4389 33.9575 41.3693 33.8834 41.3064C33.5268 41.004 32.8241 41.1035 32.6115 41.5101C32.4203 41.8751 32.4112 42.2618 32.6143 42.6263C32.8042 42.9667 33.138 43.0405 33.4977 43.035C33.9386 43.0282 33.9601 43.0057 33.9604 42.5797C33.9604 42.4311 33.9604 42.2828 33.9604 42.1346C33.9601 41.9288 33.9606 41.7238 33.9598 41.5175Z" fill="#333333"/>
<path d="M30.8376 27.0912C30.3239 25.7472 29.8118 24.4024 29.3012 23.057C29.2832 23.9181 29.2266 24.7555 28.8595 25.5443C28.4883 26.3424 27.8986 26.9181 27.0815 27.2687C28.2937 27.2902 29.4934 27.2886 30.6946 27.2923C30.8538 27.2931 30.896 27.2449 30.8376 27.0912Z" fill="#333333"/>
<path d="M16.7659 41.3955C16.6949 41.4724 16.613 41.567 16.6376 41.6623C16.6721 41.7971 16.8099 41.7191 16.8994 41.7264C17.0565 41.7395 17.217 41.7301 17.3759 41.7301C17.5689 41.7301 17.7624 41.722 17.9548 41.7322C18.1577 41.7426 18.152 41.6518 18.0889 41.507C17.9011 41.0732 17.1225 41.0064 16.7659 41.3955Z" fill="#333333"/>
<path d="M32.1446 30.7842C32.1046 30.5352 31.965 30.47 31.7173 30.4726C29.7814 30.4833 27.8455 30.4786 25.9096 30.4786C23.9509 30.4786 21.9922 30.4812 20.0332 30.4747C19.8355 30.4747 19.7352 30.5226 19.6648 30.7242C19.1073 32.3213 18.5405 33.9153 17.9645 35.5062C17.8889 35.7156 17.9315 35.7942 18.1504 35.7997C18.6542 35.8146 19.1574 35.8418 19.6611 35.8565C21.8382 35.9201 24.0129 35.935 26.1583 35.4724C28.3283 35.005 30.2831 34.1196 31.8561 32.5051C32.5033 31.8412 32.501 31.8391 32.208 30.9795C32.186 30.9148 32.1556 30.8509 32.1446 30.7842Z" fill="#333333"/>
<path d="M23.23 21.1319C23.9108 20.2841 24.7866 19.8659 25.8611 19.8657C26.9414 19.8657 27.8196 20.2945 28.5205 21.124C27.7064 18.9312 26.8361 16.772 25.9059 14.5959C25.4016 15.4778 23.2434 20.7485 23.23 21.1319Z" fill="#333333"/>
<path d="M25.0001 0C11.1931 0 -0.000671387 11.193 -0.000671387 25C-0.000671387 38.807 11.1923 50 24.9993 50C38.8064 50 49.9993 38.807 49.9993 25C49.9993 11.193 38.8071 0 25.0001 0ZM14.496 40.944C14.452 41.0823 14.4588 41.2582 14.225 41.1773C14.1486 41.1541 14.0693 41.1415 13.9894 41.1399C13.4919 41.1113 13.4275 41.1729 13.4275 41.6716C13.4275 42.1869 13.4275 42.7023 13.4275 43.218C13.4275 43.3866 13.4707 43.551 13.184 43.5528C12.8866 43.5547 12.919 43.3884 12.9206 43.2025C12.9237 42.859 12.9206 42.5152 12.9206 42.1715C12.9206 41.8049 12.9334 41.4384 12.9156 41.0718C12.9052 40.8553 12.9921 40.7639 13.1905 40.7207C13.5629 40.6395 13.9344 40.5953 14.3143 40.661C14.4842 40.6906 14.552 40.7683 14.496 40.944ZM18.6561 42.0552C18.6407 42.2162 18.5658 42.2385 18.4362 42.2369C18.1503 42.2332 17.8641 42.2369 17.5779 42.2369C17.3145 42.2369 17.0511 42.2435 16.7883 42.2351C16.6299 42.2298 16.5911 42.277 16.6354 42.4335C16.7139 42.7113 16.8781 42.8915 17.1551 42.9732C17.4955 43.0734 17.8358 43.0465 18.1717 42.9595C18.2765 42.9334 18.3762 42.8899 18.3964 43.0528C18.4131 43.1886 18.521 43.3337 18.3178 43.4355C17.7709 43.7086 16.7775 43.534 16.3989 43.0886C15.98 42.5972 15.9701 41.6612 16.3756 41.1312C16.7286 40.6699 17.4002 40.4942 17.9576 40.7173C18.4218 40.9029 18.7122 41.4753 18.6561 42.0552ZM22.39 43.4691C22.1999 43.512 22.0101 43.5536 21.8116 43.5432C21.2408 43.5397 20.7683 43.3434 20.5475 42.7839C20.3054 42.1709 20.3339 41.5601 20.7832 41.0433C21.1935 40.572 21.737 40.5662 22.3018 40.6984C22.5206 40.7508 22.4719 40.871 22.4465 41.0323C22.4091 41.2705 22.2761 41.2189 22.125 41.1878C21.2516 41.0084 20.74 41.5517 20.9683 42.4129C21.1057 42.9321 21.5244 43.1371 22.2078 42.9821C22.4505 42.9268 22.5366 42.9902 22.5578 43.2235C22.5727 43.3654 22.5251 43.4384 22.39 43.4691ZM25.0344 43.5429C24.2929 43.2913 23.9245 42.3927 24.2125 41.5384C24.455 40.8189 25.2025 40.4531 25.927 40.6992C26.4998 40.8938 26.8352 41.4229 26.8339 42.1296C26.8321 43.1936 25.9793 43.8634 25.0349 43.5429H25.0344ZM30.3782 40.9469C30.3348 41.0886 30.335 41.2593 30.1049 41.1763C30.0394 41.1559 29.9716 41.1441 29.903 41.1412C29.3891 41.1011 29.3095 41.1734 29.3095 41.6743C29.3095 42.2128 29.3027 42.7514 29.3129 43.2894C29.3165 43.4795 29.2624 43.5513 29.0628 43.5481C28.8796 43.5447 28.7919 43.5099 28.7994 43.3025C28.8138 42.9253 28.8036 42.5466 28.8034 42.1686C28.8034 41.802 28.8131 41.4355 28.7994 41.0689C28.7924 40.8775 28.8484 40.7765 29.0437 40.7306C29.4268 40.6403 29.8083 40.595 30.1999 40.6618C30.3733 40.6914 30.4319 40.7733 30.3788 40.9469H30.3782ZM34.4719 43.1172C34.4742 43.3528 34.3831 43.434 34.1695 43.4725C33.7943 43.54 33.417 43.5877 33.0436 43.513C32.2105 43.3468 31.7808 42.5338 32.0225 41.6106C32.2304 40.8118 32.8944 40.4586 33.7275 40.7047L33.9631 40.7752C33.9631 40.3416 33.9783 39.952 33.9582 39.564C33.9427 39.2676 34.1647 39.3003 34.3247 39.2788C34.5433 39.2498 34.4658 39.4417 34.4661 39.543C34.4687 40.7343 34.4601 41.9259 34.4724 43.1172H34.4719ZM38.4516 42.8064C38.4223 43.1991 38.1309 43.4541 37.6208 43.5264C37.4967 43.5439 37.3697 43.5405 37.2441 43.5468C37.0382 43.5455 36.8332 43.5218 36.6324 43.4764C36.3913 43.4269 36.3546 43.3138 36.4149 43.0876C36.4657 42.8962 36.5392 42.8844 36.7029 42.9399C36.9956 43.0446 37.3112 43.0679 37.6161 43.0075C37.7635 42.9768 37.9232 42.9373 37.9363 42.7517C37.9478 42.5919 37.8245 42.5045 37.6944 42.4521C37.4828 42.3668 37.2647 42.2979 37.0493 42.222C36.6094 42.0665 36.4209 41.819 36.4361 41.4226C36.4518 41.0495 36.6895 40.7846 37.1213 40.6744C37.4616 40.5874 37.802 40.6304 38.14 40.7037C38.378 40.756 38.2853 40.9066 38.2636 41.0495C38.2406 41.2009 38.2034 41.2697 38.0232 41.2166C37.7494 41.1354 37.4661 41.0886 37.1802 41.1904C37.0642 41.232 36.9673 41.2891 36.9521 41.4166C36.9369 41.5441 37.0202 41.6405 37.1278 41.686C37.3373 41.7748 37.5541 41.8473 37.7698 41.9217C38.294 42.0987 38.4875 42.3469 38.4524 42.8064H38.4516ZM38.9957 29.9571C38.6139 31.0884 38.0589 32.1444 37.3794 33.1288C37.2485 33.3205 37.2399 33.4781 37.32 33.6897C37.7389 34.8024 38.1387 35.9228 38.5587 37.0355C38.6527 37.2843 38.6372 37.3646 38.3398 37.3607C37.1713 37.3453 36.0022 37.3434 34.8337 37.3623C34.5504 37.367 34.4171 37.2774 34.3538 37.013C34.3145 36.8494 34.2326 36.6959 34.159 36.5108C33.3552 37.0868 32.5357 37.5859 31.669 38.0009C29.5936 38.9932 27.3958 39.549 25.1219 39.826C21.987 40.208 18.8551 40.0355 15.7263 39.7446C14.8272 39.6614 13.9375 39.4956 13.0531 39.3034C12.786 39.2453 12.7043 39.1479 12.7075 38.8775C12.7216 37.6055 12.7138 36.3338 12.7138 35.0619C12.7138 25.8038 12.7109 16.5457 12.7051 7.28761C12.7051 6.94357 12.808 6.82208 13.1369 6.75218C14.8557 6.38562 16.5974 6.21832 18.3472 6.12878C20.1336 6.03714 21.9205 5.98215 23.7064 6.11568C26.8187 6.34949 29.8153 7.01138 32.5681 8.55065C35.8852 10.4049 38.124 13.1679 39.2109 16.7874C40.5297 21.1816 40.4689 25.5933 38.9964 29.9571H38.9957Z" fill="#333333"/>
<path d="M30.1351 12.179C29.5417 11.792 28.9051 11.4757 28.2382 11.2365C30.5713 16.3721 32.7568 21.4827 34.7275 26.7194C34.7694 26.6555 34.7849 26.6409 34.7896 26.623C34.8071 26.5565 34.8249 26.49 34.8362 26.4222C35.2881 23.6896 35.2643 20.9703 34.5089 18.2918C33.7876 15.7375 32.3975 13.6392 30.1351 12.179Z" fill="#333333"/>
<path d="M23.7605 10.2648C21.7791 10.1422 19.7997 10.1949 17.8195 10.308C17.5016 10.326 17.4053 10.3983 17.4061 10.7337C17.4186 15.7748 17.4215 20.8159 17.4147 25.8569V26.2496C17.4825 26.1069 17.5095 26.0593 17.5286 26.0088C19.497 20.8194 21.7063 15.7322 23.9899 10.6766C24.164 10.2907 24.1617 10.2896 23.7605 10.2648Z" fill="#333333"/>
<path d="M25.4747 41.1386C24.9772 41.142 24.6405 41.5313 24.635 42.1092C24.6295 42.7017 24.9754 43.1064 25.4857 43.1041C25.9831 43.1007 26.3201 42.7113 26.3256 42.1335C26.3321 41.5405 25.9847 41.1349 25.4747 41.1386Z" fill="#333333"/>
</g>
<defs>
<clipPath id="clip0_287_335">
<rect width="50" height="50" fill="white"/>
</clipPath>
</defs>
</svg>
