<svg width="50" height="50" viewBox="0 0 50 50" fill="none" xmlns="http://www.w3.org/2000/svg">
<g clip-path="url(#clip0_340_1040)">
<path d="M20.9535 27.0875C20.881 27.285 20.9773 27.2928 21.1263 27.292C21.9042 27.2892 22.6821 27.292 23.4599 27.292H24.6986C22.8263 26.4152 22.3886 24.8817 22.4153 23.0693C21.9288 24.408 21.4447 25.7491 20.9535 27.0875Z" fill="#F2F2F2"/>
<path d="M27.546 25.2918C28.0571 24.2212 28.051 23.1187 27.5549 22.0452C27.2344 21.3516 26.645 21.0005 25.8792 20.9942C25.0987 20.9879 24.5238 21.3485 24.1598 22.0386C23.8915 22.5474 23.826 23.1014 23.8069 23.6635C23.8273 24.2291 23.8943 24.7831 24.1656 25.2905C24.5264 25.9652 25.0914 26.3223 25.8577 26.3231C26.6241 26.3239 27.2166 25.9817 27.546 25.2918Z" fill="#F2F2F2"/>
<path d="M33.9599 41.5175C33.9599 41.4389 33.9576 41.3693 33.8835 41.3064C33.5269 41.004 32.8241 41.1035 32.6115 41.5101C32.4204 41.8751 32.4112 42.2618 32.6144 42.6263C32.8042 42.9667 33.1381 43.0405 33.4978 43.035C33.9387 43.0282 33.9602 43.0057 33.9604 42.5797C33.9604 42.4311 33.9604 42.2828 33.9604 42.1346C33.9602 41.9288 33.9607 41.7238 33.9599 41.5175Z" fill="#F2F2F2"/>
<path d="M30.8377 27.0913C30.324 25.7473 29.8118 24.4026 29.3013 23.0571C29.2832 23.9183 29.2267 24.7556 28.8596 25.5445C28.4883 26.3425 27.8987 26.9183 27.0815 27.2688C28.2938 27.2903 29.4935 27.2887 30.6947 27.2924C30.8539 27.2932 30.896 27.245 30.8377 27.0913Z" fill="#F2F2F2"/>
<path d="M16.7659 41.3956C16.695 41.4726 16.613 41.5671 16.6376 41.6624C16.6722 41.7972 16.8099 41.7192 16.8995 41.7265C17.0566 41.7396 17.2171 41.7302 17.376 41.7302C17.569 41.7302 17.7624 41.7221 17.9549 41.7323C18.1578 41.7428 18.152 41.6519 18.0889 41.5071C17.9012 41.0733 17.1225 41.0065 16.7659 41.3956Z" fill="#F2F2F2"/>
<path d="M32.1446 30.7843C32.1046 30.5353 31.965 30.4701 31.7173 30.4727C29.7814 30.4835 27.8455 30.4788 25.9096 30.4788C23.9509 30.4788 21.9922 30.4814 20.0332 30.4748C19.8355 30.4748 19.7352 30.5227 19.6648 30.7243C19.1073 32.3215 18.5405 33.9155 17.9645 35.5063C17.8889 35.7158 17.9315 35.7943 18.1504 35.7998C18.6542 35.8147 19.1574 35.8419 19.6611 35.8566C21.8382 35.9202 24.0129 35.9352 26.1583 35.4725C28.3283 35.0052 30.2831 34.1197 31.8561 32.5053C32.5033 31.8413 32.501 31.8392 32.208 30.9796C32.186 30.915 32.1556 30.8511 32.1446 30.7843Z" fill="#F2F2F2"/>
<path d="M23.2301 21.1316C23.9108 20.2838 24.7866 19.8657 25.8612 19.8654C26.9415 19.8654 27.8196 20.2943 28.5205 21.1238C27.7065 18.931 26.8362 16.7717 25.9059 14.5957C25.4017 15.4775 23.2435 20.7483 23.2301 21.1316Z" fill="#F2F2F2"/>
<path d="M25.0001 0C11.193 0 -0.000732422 11.193 -0.000732422 25C-0.000732422 38.807 11.1922 50 24.9993 50C38.8063 50 49.9993 38.807 49.9993 25C49.9993 11.193 38.8071 0 25.0001 0ZM14.4959 40.944C14.452 41.0823 14.4588 41.2582 14.225 41.1773C14.1485 41.1541 14.0692 41.1415 13.9893 41.1399C13.4918 41.1113 13.4274 41.1729 13.4274 41.6716C13.4274 42.1869 13.4274 42.7023 13.4274 43.218C13.4274 43.3866 13.4706 43.551 13.1839 43.5528C12.8865 43.5547 12.919 43.3884 12.9205 43.2025C12.9237 42.859 12.9205 42.5152 12.9205 42.1715C12.9205 41.8049 12.9334 41.4384 12.9156 41.0718C12.9051 40.8553 12.992 40.7639 13.1905 40.7207C13.5628 40.6395 13.9343 40.5953 14.3142 40.661C14.4842 40.6906 14.552 40.7683 14.4959 40.944ZM18.6561 42.0552C18.6406 42.2162 18.5657 42.2385 18.4361 42.2369C18.1502 42.2332 17.864 42.2369 17.5779 42.2369C17.3145 42.2369 17.0511 42.2435 16.7882 42.2351C16.6298 42.2298 16.5911 42.277 16.6353 42.4335C16.7139 42.7113 16.878 42.8915 17.155 42.9732C17.4954 43.0734 17.8358 43.0465 18.1717 42.9595C18.2764 42.9334 18.3762 42.8899 18.3963 43.0528C18.4131 43.1886 18.521 43.3337 18.3178 43.4355C17.7708 43.7086 16.7775 43.534 16.3989 43.0886C15.98 42.5972 15.97 41.6612 16.3756 41.1312C16.7285 40.6699 17.4001 40.4942 17.9575 40.7173C18.4217 40.9029 18.7121 41.4753 18.6561 42.0552ZM22.3899 43.4691C22.1998 43.512 22.01 43.5536 21.8116 43.5432C21.2408 43.5397 20.7682 43.3434 20.5475 42.7839C20.3053 42.1709 20.3338 41.5601 20.7831 41.0433C21.1934 40.572 21.7369 40.5662 22.3017 40.6984C22.5206 40.7508 22.4719 40.871 22.4465 41.0323C22.409 41.2705 22.276 41.2189 22.125 41.1878C21.2515 41.0084 20.7399 41.5517 20.9682 42.4129C21.1057 42.9321 21.5243 43.1371 22.2077 42.9821C22.4504 42.9268 22.5366 42.9902 22.5578 43.2235C22.5727 43.3654 22.525 43.4384 22.3899 43.4691ZM25.0344 43.5429C24.2929 43.2913 23.9245 42.3927 24.2125 41.5384C24.4549 40.8189 25.2024 40.4531 25.9269 40.6992C26.4998 40.8938 26.8352 41.4229 26.8339 42.1296C26.832 43.1936 25.9793 43.8634 25.0349 43.5429H25.0344ZM30.3782 40.9469C30.3347 41.0886 30.335 41.2593 30.1048 41.1763C30.0394 41.1559 29.9715 41.1441 29.903 41.1412C29.389 41.1011 29.3094 41.1734 29.3094 41.6743C29.3094 42.2128 29.3026 42.7514 29.3128 43.2894C29.3165 43.4795 29.2623 43.5513 29.0628 43.5481C28.8795 43.5447 28.7918 43.5099 28.7994 43.3025C28.8138 42.9253 28.8036 42.5466 28.8033 42.1686C28.8033 41.802 28.813 41.4355 28.7994 41.0689C28.7923 40.8775 28.8483 40.7765 29.0437 40.7306C29.4267 40.6403 29.8082 40.595 30.1999 40.6618C30.3732 40.6914 30.4319 40.7733 30.3787 40.9469H30.3782ZM34.4718 43.1172C34.4742 43.3528 34.383 43.434 34.1694 43.4725C33.7942 43.54 33.4169 43.5877 33.0435 43.513C32.2104 43.3468 31.7808 42.5338 32.0224 41.6106C32.2303 40.8118 32.8943 40.4586 33.7274 40.7047L33.9631 40.7752C33.9631 40.3416 33.9783 39.952 33.9581 39.564C33.9427 39.2676 34.1647 39.3003 34.3247 39.2788C34.5433 39.2498 34.4658 39.4417 34.466 39.543C34.4687 40.7343 34.46 41.9259 34.4723 43.1172H34.4718ZM38.4515 42.8064C38.4222 43.1991 38.1308 43.4541 37.6208 43.5264C37.4967 43.5439 37.3697 43.5405 37.244 43.5468C37.0382 43.5455 36.8331 43.5218 36.6324 43.4764C36.3912 43.4269 36.3546 43.3138 36.4148 43.0876C36.4656 42.8962 36.5392 42.8844 36.7028 42.9399C36.9955 43.0446 37.3111 43.0679 37.616 43.0075C37.7635 42.9768 37.9232 42.9373 37.9363 42.7517C37.9478 42.5919 37.8245 42.5045 37.6943 42.4521C37.4828 42.3668 37.2647 42.2979 37.0492 42.222C36.6093 42.0665 36.4208 41.819 36.436 41.4226C36.4517 41.0495 36.6894 40.7846 37.1212 40.6744C37.4616 40.5874 37.8019 40.6304 38.14 40.7037C38.378 40.756 38.2853 40.9066 38.2635 41.0495C38.2405 41.2009 38.2033 41.2697 38.0232 41.2166C37.7493 41.1354 37.466 41.0886 37.1801 41.1904C37.0641 41.232 36.9672 41.2891 36.9521 41.4166C36.9369 41.5441 37.0201 41.6405 37.1277 41.686C37.3372 41.7748 37.554 41.8473 37.7697 41.9217C38.2939 42.0987 38.4874 42.3469 38.4523 42.8064H38.4515ZM38.9956 29.9571C38.6139 31.0884 38.0588 32.1444 37.3794 33.1288C37.2484 33.3205 37.2398 33.4781 37.3199 33.6897C37.7388 34.8024 38.1386 35.9228 38.5586 37.0355C38.6526 37.2843 38.6372 37.3646 38.3397 37.3607C37.1712 37.3453 36.0022 37.3434 34.8336 37.3623C34.5503 37.367 34.4171 37.2774 34.3537 37.013C34.3144 36.8494 34.2325 36.6959 34.1589 36.5108C33.3551 37.0868 32.5356 37.5859 31.669 38.0009C29.5935 38.9932 27.3957 39.549 25.1218 39.826C21.987 40.208 18.855 40.0355 15.7262 39.7446C14.8271 39.6614 13.9375 39.4956 13.053 39.3034C12.786 39.2453 12.7043 39.1479 12.7074 38.8775C12.7216 37.6055 12.7137 36.3338 12.7137 35.0619C12.7137 25.8038 12.7108 16.5457 12.7051 7.28761C12.7051 6.94357 12.808 6.82208 13.1368 6.75218C14.8557 6.38562 16.5973 6.21832 18.3471 6.12878C20.1335 6.03714 21.9205 5.98215 23.7064 6.11568C26.8187 6.34949 29.8153 7.01138 32.5681 8.55065C35.8851 10.4049 38.124 13.1679 39.2108 16.7874C40.5296 21.1816 40.4689 25.5933 38.9964 29.9571H38.9956Z" fill="#F2F2F2"/>
<path d="M30.1352 12.1789C29.5417 11.7919 28.9051 11.4756 28.2383 11.2363C30.5714 16.372 32.7568 21.4825 34.7276 26.7193C34.7695 26.6554 34.7849 26.6407 34.7896 26.6229C34.8072 26.5564 34.825 26.4899 34.8362 26.4221C35.2881 23.6894 35.2643 20.9701 34.509 18.2917C33.7876 15.7373 32.3976 13.6391 30.1352 12.1789Z" fill="#F2F2F2"/>
<path d="M23.7605 10.2646C21.779 10.1421 19.7996 10.1947 17.8194 10.3078C17.5016 10.3259 17.4052 10.3982 17.406 10.7336C17.4186 15.7747 17.4215 20.8158 17.4146 25.8568V26.2495C17.4825 26.1068 17.5094 26.0592 17.5285 26.0086C19.4969 20.8193 21.7062 15.7321 23.9898 10.6765C24.1639 10.2906 24.1616 10.2895 23.7605 10.2646Z" fill="#F2F2F2"/>
<path d="M25.4747 41.1387C24.9773 41.1421 24.6406 41.5314 24.6351 42.1093C24.6296 42.7018 24.9754 43.1066 25.4857 43.1042C25.9832 43.1008 26.3202 42.7115 26.3257 42.1336C26.3322 41.5406 25.9848 41.135 25.4747 41.1387Z" fill="#F2F2F2"/>
</g>
<defs>
<clipPath id="clip0_340_1040">
<rect width="50" height="50" fill="white"/>
</clipPath>
</defs>
</svg>
