<svg width="50" height="50" viewBox="0 0 50 50" fill="none" xmlns="http://www.w3.org/2000/svg">
<g clip-path="url(#clip0_214_247)">
<path d="M20.9534 27.0878C20.8808 27.2852 20.9772 27.2931 21.1262 27.2923C21.9041 27.2894 22.6819 27.2923 23.4598 27.2923H24.6985C22.8262 26.4154 22.3884 24.8819 22.4151 23.0696C21.9287 24.4083 21.4446 25.7493 20.9534 27.0878Z" fill="#FFE600"/>
<path d="M27.5457 25.2919C28.0568 24.2213 28.0508 23.1188 27.5546 22.0453C27.2342 21.3517 26.6448 21.0006 25.879 20.9943C25.0985 20.9881 24.5235 21.3486 24.1596 22.0388C23.8912 22.5475 23.8258 23.1015 23.8066 23.6636C23.8271 24.2292 23.8941 24.7832 24.1653 25.2906C24.5261 25.9653 25.0911 26.3225 25.8575 26.3233C26.6239 26.324 27.2164 25.9818 27.5457 25.2919Z" fill="#FFE600"/>
<path d="M33.9597 41.5174C33.9597 41.4389 33.9573 41.3692 33.8832 41.3064C33.5266 41.004 32.8239 41.1035 32.6113 41.5101C32.4201 41.8751 32.411 42.2618 32.6142 42.6262C32.804 42.9666 33.1378 43.0404 33.4976 43.0349C33.9385 43.0281 33.9599 43.0056 33.9602 42.5796C33.9602 42.4311 33.9602 42.2827 33.9602 42.1345C33.9599 41.9287 33.9605 41.7237 33.9597 41.5174Z" fill="#FFE600"/>
<path d="M30.8377 27.0912C30.324 25.7472 29.8118 24.4024 29.3013 23.057C29.2832 23.9181 29.2267 24.7555 28.8596 25.5443C28.4883 26.3424 27.8987 26.9181 27.0815 27.2687C28.2938 27.2902 29.4935 27.2886 30.6947 27.2923C30.8539 27.2931 30.896 27.2449 30.8377 27.0912Z" fill="#FFE600"/>
<path d="M16.7661 41.3954C16.6951 41.4724 16.6132 41.5669 16.6378 41.6622C16.6723 41.797 16.81 41.719 16.8996 41.7264C17.0567 41.7394 17.2172 41.73 17.3761 41.73C17.5691 41.73 17.7626 41.7219 17.955 41.7321C18.1579 41.7426 18.1522 41.6517 18.0891 41.5069C17.9013 41.0731 17.1227 41.0063 16.7661 41.3954Z" fill="#FFE600"/>
<path d="M32.1449 30.7842C32.1048 30.5352 31.9653 30.47 31.7176 30.4726C29.7817 30.4834 27.8457 30.4787 25.9098 30.4787C23.9511 30.4787 21.9924 30.4813 20.0334 30.4747C19.8358 30.4747 19.7355 30.5226 19.665 30.7243C19.1075 32.3214 18.5408 33.9154 17.9648 35.5062C17.8891 35.7157 17.9318 35.7942 18.1507 35.7997C18.6544 35.8146 19.1576 35.8419 19.6614 35.8565C21.8384 35.9201 24.0132 35.9351 26.1585 35.4724C28.3285 35.0051 30.2833 34.1196 31.8564 32.5052C32.5036 31.8412 32.5012 31.8391 32.2083 30.9795C32.1863 30.9149 32.1559 30.851 32.1449 30.7842Z" fill="#FFE600"/>
<path d="M23.23 21.1318C23.9107 20.284 24.7865 19.8659 25.861 19.8656C26.9413 19.8656 27.8195 20.2945 28.5204 21.124C27.7064 18.9312 26.8361 16.7719 25.9058 14.5959C25.4015 15.4777 23.2433 20.7485 23.23 21.1318Z" fill="#FFE600"/>
<path d="M25.0003 0C11.1933 0 -0.000488281 11.193 -0.000488281 25C-0.000488281 38.807 11.1925 50 24.9995 50C38.8065 50 49.9995 38.807 49.9995 25C49.9995 11.193 38.8073 0 25.0003 0ZM14.4962 40.944C14.4522 41.0823 14.459 41.2582 14.2252 41.1773C14.1487 41.1541 14.0694 41.1415 13.9896 41.1399C13.4921 41.1113 13.4277 41.1729 13.4277 41.6716C13.4277 42.1869 13.4277 42.7023 13.4277 43.218C13.4277 43.3866 13.4709 43.551 13.1842 43.5528C12.8868 43.5547 12.9192 43.3884 12.9208 43.2025C12.9239 42.859 12.9208 42.5152 12.9208 42.1715C12.9208 41.8049 12.9336 41.4384 12.9158 41.0718C12.9053 40.8553 12.9923 40.7639 13.1907 40.7207C13.563 40.6395 13.9346 40.5953 14.3145 40.661C14.4844 40.6906 14.5522 40.7683 14.4962 40.944ZM18.6563 42.0552C18.6409 42.2162 18.566 42.2385 18.4364 42.2369C18.1505 42.2332 17.8643 42.2369 17.5781 42.2369C17.3147 42.2369 17.0513 42.2435 16.7885 42.2351C16.63 42.2298 16.5913 42.277 16.6355 42.4335C16.7141 42.7113 16.8783 42.8915 17.1553 42.9732C17.4956 43.0734 17.836 43.0465 18.1719 42.9595C18.2767 42.9334 18.3764 42.8899 18.3966 43.0528C18.4133 43.1886 18.5212 43.3337 18.318 43.4355C17.7711 43.7086 16.7777 43.534 16.3991 43.0886C15.9802 42.5972 15.9703 41.6612 16.3758 41.1312C16.7288 40.6699 17.4003 40.4942 17.9578 40.7173C18.422 40.9029 18.7123 41.4753 18.6563 42.0552ZM22.3902 43.4691C22.2001 43.512 22.0103 43.5536 21.8118 43.5432C21.241 43.5397 20.7684 43.3434 20.5477 42.7839C20.3055 42.1709 20.3341 41.5601 20.7834 41.0433C21.1936 40.572 21.7372 40.5662 22.3019 40.6984C22.5208 40.7508 22.4721 40.871 22.4467 41.0323C22.4093 41.2705 22.2763 41.2189 22.1252 41.1878C21.2518 41.0084 20.7402 41.5517 20.9685 42.4129C21.1059 42.9321 21.5246 43.1371 22.2079 42.9821C22.4507 42.9268 22.5368 42.9902 22.558 43.2235C22.5729 43.3654 22.5253 43.4384 22.3902 43.4691ZM25.0346 43.5429C24.2931 43.2913 23.9247 42.3927 24.2127 41.5384C24.4552 40.8189 25.2027 40.4531 25.9272 40.6992C26.5 40.8938 26.8354 41.4229 26.8341 42.1296C26.8323 43.1936 25.9795 43.8634 25.0351 43.5429H25.0346ZM30.3784 40.9469C30.335 41.0886 30.3352 41.2593 30.1051 41.1763C30.0396 41.1559 29.9717 41.1441 29.9032 41.1412C29.3893 41.1011 29.3097 41.1734 29.3097 41.6743C29.3097 42.2128 29.3029 42.7514 29.3131 43.2894C29.3167 43.4795 29.2625 43.5513 29.063 43.5481C28.8797 43.5447 28.792 43.5099 28.7996 43.3025C28.814 42.9253 28.8038 42.5466 28.8036 42.1686C28.8036 41.802 28.8132 41.4355 28.7996 41.0689C28.7926 40.8775 28.8486 40.7765 29.0439 40.7306C29.427 40.6403 29.8084 40.595 30.2001 40.6618C30.3735 40.6914 30.4321 40.7733 30.379 40.9469H30.3784ZM34.472 43.1172C34.4744 43.3528 34.3833 43.434 34.1696 43.4725C33.7944 43.54 33.4172 43.5877 33.0438 43.513C32.2107 43.3468 31.781 42.5338 32.0227 41.6106C32.2306 40.8118 32.8946 40.4586 33.7277 40.7047L33.9633 40.7752C33.9633 40.3416 33.9785 39.952 33.9583 39.564C33.9429 39.2676 34.1649 39.3003 34.3249 39.2788C34.5435 39.2498 34.466 39.4417 34.4663 39.543C34.4689 40.7343 34.4603 41.9259 34.4726 43.1172H34.472ZM38.4518 42.8064C38.4224 43.1991 38.131 43.4541 37.621 43.5264C37.4969 43.5439 37.3699 43.5405 37.2442 43.5468C37.0384 43.5455 36.8334 43.5218 36.6326 43.4764C36.3915 43.4269 36.3548 43.3138 36.415 43.0876C36.4658 42.8962 36.5394 42.8844 36.703 42.9399C36.9958 43.0446 37.3114 43.0679 37.6163 43.0075C37.7637 42.9768 37.9234 42.9373 37.9365 42.7517C37.948 42.5919 37.8247 42.5045 37.6946 42.4521C37.483 42.3668 37.2649 42.2979 37.0494 42.222C36.6096 42.0665 36.4211 41.819 36.4362 41.4226C36.452 41.0495 36.6897 40.7846 37.1214 40.6744C37.4618 40.5874 37.8022 40.6304 38.1402 40.7037C38.3782 40.756 38.2855 40.9066 38.2638 41.0495C38.2407 41.2009 38.2036 41.2697 38.0234 41.2166C37.7496 41.1354 37.4663 41.0886 37.1804 41.1904C37.0644 41.232 36.9675 41.2891 36.9523 41.4166C36.9371 41.5441 37.0204 41.6405 37.128 41.686C37.3374 41.7748 37.5542 41.8473 37.77 41.9217C38.2942 42.0987 38.4876 42.3469 38.4526 42.8064H38.4518ZM38.9958 29.9571C38.6141 31.0884 38.059 32.1444 37.3796 33.1288C37.2487 33.3205 37.24 33.4781 37.3202 33.6897C37.7391 34.8024 38.1389 35.9228 38.5589 37.0355C38.6529 37.2843 38.6374 37.3646 38.34 37.3607C37.1715 37.3453 36.0024 37.3434 34.8339 37.3623C34.5506 37.367 34.4173 37.2774 34.354 37.013C34.3147 36.8494 34.2327 36.6959 34.1592 36.5108C33.3554 37.0868 32.5359 37.5859 31.6692 38.0009C29.5937 38.9932 27.396 39.549 25.122 39.826C21.9872 40.208 18.8553 40.0355 15.7265 39.7446C14.8274 39.6614 13.9377 39.4956 13.0533 39.3034C12.7862 39.2453 12.7045 39.1479 12.7077 38.8775C12.7218 37.6055 12.7139 36.3338 12.7139 35.0619C12.7139 25.8038 12.7111 16.5457 12.7053 7.28761C12.7053 6.94357 12.8082 6.82208 13.1371 6.75218C14.8559 6.38562 16.5976 6.21832 18.3474 6.12878C20.1338 6.03714 21.9207 5.98215 23.7066 6.11568C26.8189 6.34949 29.8155 7.01138 32.5683 8.55065C35.8854 10.4049 38.1242 13.1679 39.2111 16.7874C40.5299 21.1816 40.4691 25.5933 38.9966 29.9571H38.9958Z" fill="#FFE600"/>
<path d="M30.1352 12.179C29.5417 11.792 28.9051 11.4757 28.2383 11.2365C30.5714 16.3721 32.7568 21.4827 34.7276 26.7194C34.7695 26.6555 34.7849 26.6409 34.7896 26.623C34.8072 26.5565 34.825 26.49 34.8362 26.4222C35.2881 23.6896 35.2643 20.9703 34.509 18.2918C33.7876 15.7375 32.3976 13.6392 30.1352 12.179Z" fill="#FFE600"/>
<path d="M23.7607 10.2648C21.7792 10.1423 19.7998 10.1949 17.8197 10.308C17.5018 10.3261 17.4055 10.3983 17.4063 10.7337C17.4188 15.7749 17.4217 20.816 17.4149 25.8569V26.2497C17.4827 26.107 17.5097 26.0593 17.5288 26.0088C19.4972 20.8194 21.7065 15.7322 23.9901 10.6766C24.1642 10.2907 24.1618 10.2897 23.7607 10.2648Z" fill="#FFE600"/>
<path d="M25.4745 41.1386C24.977 41.142 24.6403 41.5313 24.6348 42.1092C24.6293 42.7017 24.9752 43.1064 25.4855 43.1041C25.983 43.1007 26.3199 42.7113 26.3254 42.1335C26.332 41.5405 25.9845 41.1349 25.4745 41.1386Z" fill="#FFE600"/>
</g>
<defs>
<clipPath id="clip0_214_247">
<rect width="50" height="50" fill="white"/>
</clipPath>
</defs>
</svg>
