<svg width="32" height="32" viewBox="0 0 32 32" fill="none" xmlns="http://www.w3.org/2000/svg">
<rect width="32" height="32" rx="16" fill="#3A4662"/>
<path d="M20.9156 8.75001L17.5007 13.6992C17.4573 13.7689 17.4395 13.8516 17.4504 13.9329C17.4614 14.0143 17.5003 14.0894 17.5605 14.1452C17.6207 14.201 17.6985 14.2341 17.7804 14.2389C17.8624 14.2436 17.9435 14.2197 18.0097 14.1711L21.3027 11.5109V20.172L11.848 8.78359C11.5619 8.43998 11.1769 8.19285 10.7453 8.07583C10.3138 7.95882 9.85663 7.97759 9.43613 8.12961C9.01563 8.28162 8.65217 8.55949 8.39521 8.92541C8.13824 9.29133 8.00025 9.72753 8 10.1747V22.0174C8 23.944 10.2978 24.2604 11.0208 23.2016L14.5559 18.0987C14.5943 18.0431 14.6137 17.9765 14.6112 17.9089C14.6086 17.8414 14.5843 17.7765 14.5418 17.7239C14.4896 17.6584 14.4137 17.6163 14.3305 17.6067C14.2474 17.5971 14.1638 17.6208 14.0981 17.6727L10.6973 20.3824V11.6082L20.152 22.9824C21.6385 24.7288 24 23.6771 24 21.5914V9.74338C24 7.96521 21.833 7.44554 20.9156 8.75001Z" fill="#F5F6F7"/>
</svg>
