<svg width="14" height="14" viewBox="0 0 14 14" fill="none" xmlns="http://www.w3.org/2000/svg">
<path d="M11.2186 0.667852L8.29745 4.71852C8.09545 4.99437 8.48391 5.3283 8.7636 5.096L11.6382 2.75852C11.7159 2.70044 11.8246 2.744 11.8246 2.84563V10.1484C11.8246 10.2501 11.6848 10.2936 11.6226 10.221L2.9212 0.49363C2.64151 0.174222 2.23751 0 1.7869 0H1.47614C0.668147 0 0 0.624296 0 1.39378V11.6729C0 12.4424 0.668147 13.0667 1.49168 13.0667C2.00444 13.0667 2.48613 12.8199 2.76582 12.3988L5.68701 8.34815C5.88901 8.0723 5.50056 7.73837 5.22087 7.97067L2.34628 10.2936C2.26859 10.3517 2.15982 10.3081 2.15982 10.2065V2.91822C2.15982 2.81659 2.29967 2.77304 2.36182 2.84563L11.0633 12.573C11.343 12.8924 11.7625 13.0667 12.1976 13.0667H12.5083C13.3319 13.0667 14 12.4424 14 11.6729V1.39378C14 0.624296 13.3319 0 12.5083 0C11.98 0 11.4983 0.246815 11.2186 0.667852Z" fill="#F2F2F2"/>
</svg>
