<svg width="132" height="31" viewBox="0 0 132 31" fill="none" xmlns="http://www.w3.org/2000/svg">
<rect width="132" height="30.2138" rx="15.1069" fill="white" fill-opacity="0.3"/>
<path d="M20.9268 5.11234C20.7164 5.18745 20.416 5.35271 20.2507 5.48041C20.093 5.60811 18.9061 6.77243 17.6216 8.07196C14.9925 10.7161 15 10.7086 15 11.7377C15.0075 12.4813 15.1653 12.7893 16.0216 13.6532L16.6901 14.3367L16.307 14.7424C16.0892 14.9677 15.8338 15.3358 15.7286 15.5612C15.5709 15.9067 15.5484 16.0344 15.5784 16.5752C15.6009 16.9508 15.661 17.2814 15.7437 17.4466C15.8188 17.5893 17.4714 19.3095 19.4244 21.2626C22.0009 23.8541 23.0676 24.8757 23.338 25.0184C23.6535 25.1837 23.8113 25.2137 24.3146 25.2137C25.3286 25.2137 25.3286 25.2137 28.1531 22.3818C30.9624 19.5649 30.9925 19.5198 31 18.5734C31 17.7846 30.8197 17.4391 29.9859 16.5903L29.3099 15.8992L29.723 15.456C30.2113 14.9377 30.4366 14.4044 30.4366 13.7734C30.4366 12.8194 30.5568 12.9696 26.6131 9.01093C24.0066 6.38933 22.9399 5.36773 22.677 5.23252C22.1737 4.97712 21.4451 4.92454 20.9268 5.11234ZM22.0085 6.50952C22.1211 6.56961 23.7437 8.15459 25.6141 10.025C28.9568 13.3752 29.0094 13.4353 29.0094 13.7283C29.0094 13.8936 28.9793 14.0738 28.9418 14.1339C28.8742 14.2316 26.0798 17.0485 24.7577 18.3555C24.1643 18.9339 24.0366 19.0241 23.8188 19.0241C23.6761 19.0166 23.4883 18.979 23.4056 18.9264C23.3155 18.8738 22.4592 18.0776 21.4977 17.1461C20.5437 16.2147 19.7324 15.4485 19.7023 15.4335C19.6798 15.426 19.4319 15.6438 19.169 15.9142L18.6808 16.41L20.5211 18.2128C22.6845 20.3311 22.9174 20.4889 23.8488 20.4363C24.7277 20.3912 24.9305 20.2485 26.7108 18.4757L28.2808 16.9133L28.8441 17.4616C29.4601 18.0626 29.6479 18.3931 29.5728 18.7386C29.5352 18.8964 28.8667 19.6175 27.154 21.3227C25.8545 22.6222 24.6977 23.7264 24.5925 23.764C24.1268 23.9443 24.1042 23.9292 20.461 20.2785C17.0432 16.8607 16.9906 16.8006 16.9906 16.5076C16.9906 16.3424 17.0207 16.1621 17.0582 16.102C17.1258 16.0044 19.9202 13.1875 21.2423 11.8804C21.8357 11.302 21.9634 11.2119 22.1812 11.2119C22.3239 11.2194 22.5117 11.2569 22.6019 11.3095C22.6845 11.3621 23.5258 12.1508 24.4573 13.0673C25.3887 13.9912 26.185 14.7424 26.215 14.7424C26.2451 14.7424 26.493 14.5245 26.7559 14.2541L27.2441 13.7659L25.4413 11.9931C23.3155 9.91234 23.0751 9.74708 22.1512 9.79966C21.2723 9.84473 21.0695 9.97994 19.2892 11.7602L17.7192 13.3227L17.1634 12.7743C16.4873 12.1133 16.3596 11.8879 16.4272 11.5198C16.4723 11.287 16.8254 10.8964 18.7784 8.9283C20.0479 7.65881 21.1897 6.56961 21.3099 6.50952C21.6028 6.38182 21.7606 6.38182 22.0085 6.50952Z" fill="black"/>
<path d="M43.92 19.1069L42.31 16.8069C43.26 16.4369 43.8 15.6569 43.8 14.5969C43.8 13.0469 42.66 12.1069 40.82 12.1069H37.94V19.1069H39.24V17.0669H40.82C40.91 17.0669 41 17.0669 41.09 17.0569L42.52 19.1069H43.92ZM42.49 14.5969C42.49 15.4769 41.9 15.9969 40.76 15.9969H39.24V13.2069H40.76C41.9 13.2069 42.49 13.7169 42.49 14.5969ZM46.7545 18.0169V16.0869H50.1345V15.0169H46.7545V13.1969H50.5645V12.1069H45.4545V19.1069H50.7045V18.0169H46.7545ZM57.5937 19.1069H58.9537L55.7937 12.1069H54.5137L51.3637 19.1069H52.7037L53.3937 17.4869H56.8937L57.5937 19.1069ZM53.8337 16.4669L55.1437 13.4069L56.4637 16.4669H53.8337ZM60.0439 19.1069H65.0039V18.0069H61.3439V12.1069H60.0439V19.1069ZM66.2302 19.1069H67.5302V12.1069H66.2302V19.1069ZM71.0436 19.1069H72.3436V13.2069H74.6636V12.1069H68.7236V13.2069H71.0436V19.1069ZM81.5016 12.1069H80.2216L78.1516 15.5169L76.1016 12.1069H74.7116L77.4616 16.6569V19.1069H78.7616V16.6369L81.5016 12.1069ZM85.4902 19.2069C86.6402 19.2069 87.6202 18.7969 88.2702 18.0369L87.4302 17.2369C86.9202 17.7969 86.2902 18.0669 85.5602 18.0669C84.1102 18.0669 83.0602 17.0469 83.0602 15.6069C83.0602 14.1669 84.1102 13.1469 85.5602 13.1469C86.2902 13.1469 86.9202 13.4169 87.4302 13.9669L88.2702 13.1769C87.6202 12.4169 86.6402 12.0069 85.5002 12.0069C83.3502 12.0069 81.7502 13.5169 81.7502 15.6069C81.7502 17.6969 83.3502 19.2069 85.4902 19.2069ZM94.6358 12.1069V14.9969H91.0158V12.1069H89.7158V19.1069H91.0158V16.1069H94.6358V19.1069H95.9358V12.1069H94.6358ZM103.251 19.1069H104.611L101.451 12.1069H100.171L97.0215 19.1069H98.3615L99.0515 17.4869H102.551L103.251 19.1069ZM99.4915 16.4669L100.801 13.4069L102.121 16.4669H99.4915ZM105.702 19.1069H107.002V12.1069H105.702V19.1069ZM114.025 12.1069V16.8469L110.165 12.1069H109.095V19.1069H110.385V14.3669L114.245 19.1069H115.315V12.1069H114.025Z" fill="black"/>
</svg>
