<svg width="130" height="37" viewBox="0 0 130 37" fill="none" xmlns="http://www.w3.org/2000/svg">
<rect width="130" height="37" rx="10" fill="#EAE723"/>
<rect x="3" y="1" width="2" height="2" fill="black"/>
<rect x="2" y="2" width="1" height="3" fill="black"/>
<rect x="1" y="3" width="1" height="3" fill="black"/>
<rect y="5" width="2" height="1" fill="black"/>
<rect width="2" height="2" transform="matrix(-1 0 0 1 127 1)" fill="black"/>
<rect width="1" height="3" transform="matrix(-1 0 0 1 128 2)" fill="black"/>
<rect width="1" height="3" transform="matrix(-1 0 0 1 129 3)" fill="black"/>
<rect width="2" height="1" transform="matrix(-1 0 0 1 130 5)" fill="black"/>
<rect x="3" y="34" width="2" height="2" fill="black"/>
<rect x="2" y="32" width="1" height="3" fill="black"/>
<rect width="1" height="3" transform="matrix(1 0 0 -1 1 34)" fill="black"/>
<rect width="2" height="1" transform="matrix(1 0 0 -1 0 32)" fill="black"/>
<rect width="2" height="2" transform="matrix(-1 0 0 1 127 34)" fill="black"/>
<rect width="1" height="3" transform="matrix(-1 0 0 1 128 32)" fill="black"/>
<rect x="129" y="34" width="1" height="3" transform="rotate(180 129 34)" fill="black"/>
<rect x="130" y="32" width="2" height="1" transform="rotate(180 130 32)" fill="black"/>
<rect x="5" width="120" height="2" fill="black"/>
<rect x="5" y="35" width="120" height="2" fill="black"/>
<path d="M48.1482 13.7656H49.3201V16.1094H46.9763V14.9375H45.8045V13.7656H41.117V14.9375H39.9451V17.2812H41.117V18.4531H46.9763V19.625H48.1482V20.7969H49.3201V25.4844H48.1482V26.6562H46.9763V27.8281H39.9451V26.6562H38.7732V25.4844H37.6013V23.1406H39.9451V24.3125H41.117V25.4844H45.8045V24.3125H46.9763V21.9688H45.8045V20.7969H39.9451V19.625H38.7732V18.4531H37.6013V13.7656H38.7732V12.5938H39.9451V11.4219H46.9763V12.5938H48.1482V13.7656ZM63.3826 11.4219V13.7656H54.0076V18.4531H61.0388V20.7969H54.0076V25.4844H63.3826V27.8281H51.6638V11.4219H63.3826ZM68.0701 18.4531V27.8281H65.7263V11.4219H68.0701V14.9375H69.242V16.1094H70.4138V17.2812H71.5857V18.4531H72.7576V19.625H73.9295V20.7969H75.1013V11.4219H77.4451V27.8281H75.1013V24.3125H73.9295V23.1406H72.7576V21.9688H71.5857V20.7969H70.4138V19.625H69.242V18.4531H68.0701ZM82.1326 13.7656V25.4844H87.992V24.3125H89.1638V14.9375H87.992V13.7656H82.1326ZM79.7888 27.8281V11.4219H89.1638V12.5938H90.3357V13.7656H91.5076V25.4844H90.3357V26.6562H89.1638V27.8281H79.7888Z" fill="black"/>
<rect y="6" width="2" height="25" fill="black"/>
<rect width="2" height="25" transform="matrix(-1 0 0 1 130 6)" fill="black"/>
</svg>
