<svg width="209" height="32" viewBox="0 0 209 32" fill="none" xmlns="http://www.w3.org/2000/svg">
<path d="M15.0496 10.8894C14.6269 10.4313 14.1738 10.0785 13.6892 9.83174C13.2036 9.586 12.5028 9.46215 11.5857 9.46215C10.6676 9.46215 9.9894 9.59485 9.54904 9.85926C9.10869 10.1247 8.88851 10.4412 8.88851 10.8108C8.88851 11.4457 9.45272 11.8949 10.5831 12.1594L14.971 13.2956C16.5751 13.7026 17.7822 14.4123 18.5921 15.4267C19.4041 16.4391 19.811 17.6501 19.811 19.0596C19.811 20.365 19.466 21.5032 18.7769 22.4724C18.0899 23.4426 17.1069 24.1926 15.8281 24.7214C14.5513 25.2483 13.0582 25.5117 11.3498 25.5117C9.40947 25.5117 7.64213 25.1912 6.04583 24.5484C4.45149 23.9036 3.34568 23.0622 2.72741 22.0242C2.64091 21.8463 2.59766 21.7136 2.59766 21.6271C2.59766 21.4492 2.69399 21.2909 2.88861 21.1513L5.6094 19.2719C5.80304 19.1491 5.97997 19.0872 6.14019 19.0872C6.33383 19.0872 6.49209 19.1678 6.61594 19.327C7.21553 20.1006 7.82398 20.6471 8.44028 20.9665C9.05561 21.284 9.87538 21.4423 10.8976 21.4423C11.8855 21.4423 12.665 21.3066 13.2371 21.0334C13.8111 20.7582 14.0981 20.3837 14.0981 19.9089C14.0981 19.5737 13.9566 19.2828 13.6735 19.036C13.3924 18.7874 12.9785 18.6016 12.431 18.4777L8.41276 17.5026C6.82629 17.1154 5.56615 16.388 4.63039 15.3205C3.69659 14.254 3.23067 13.0243 3.23067 11.6325C3.23067 10.4844 3.56487 9.4307 4.23328 8.47134C4.90365 7.51002 5.8571 6.75217 7.09168 6.19877C8.32626 5.64341 9.7535 5.36523 11.3734 5.36523C12.9618 5.36523 14.4333 5.6267 15.7888 6.14766C17.1462 6.66665 18.1252 7.35766 18.7258 8.21971C18.8487 8.37993 18.9106 8.52934 18.9106 8.66793C18.9106 8.79178 18.8487 8.90679 18.7258 9.01393L15.8438 11.1017C15.7544 11.1725 15.6571 11.2079 15.5529 11.2079C15.429 11.2079 15.2619 11.1017 15.0496 10.8894Z" fill="#333333"/>
<path d="M30.8606 25.5117C28.939 25.5117 27.2601 25.1028 25.824 24.285C24.387 23.4652 23.2811 22.3014 22.5056 20.7935C21.7291 19.2867 21.3418 17.5184 21.3418 15.4896C21.3418 13.4637 21.733 11.6895 22.5174 10.1659C23.3038 8.64041 24.4145 7.45989 25.8516 6.6234C27.2876 5.78495 28.9577 5.36523 30.8606 5.36523C32.7479 5.36523 34.4051 5.78495 35.8343 6.6234C37.2626 7.45989 38.3684 8.64041 39.1528 10.1659C39.9362 11.6895 40.3284 13.4637 40.3284 15.4896C40.3284 17.5007 39.9401 19.2641 39.1646 20.7817C38.388 22.2975 37.2862 23.4652 35.8579 24.285C34.4317 25.1028 32.7656 25.5117 30.8606 25.5117ZM30.8606 21.3872C31.6362 21.3872 32.2535 21.1985 32.7125 20.8211C33.1706 20.4416 33.5048 19.8283 33.7151 18.981C33.9274 18.1347 34.0336 16.9984 34.0336 15.5721C34.0336 13.3861 33.7869 11.8173 33.2944 10.8658C32.801 9.91234 31.99 9.43463 30.8606 9.43463C29.7145 9.43463 28.8908 9.91234 28.3875 10.8658C27.8862 11.8173 27.6366 13.3861 27.6366 15.5721C27.6366 16.9984 27.7408 18.1347 27.9511 18.981C28.1634 19.8283 28.5026 20.4416 28.9695 20.8211C29.4383 21.1985 30.0684 21.3872 30.8606 21.3872Z" fill="#333333"/>
<path d="M59.2349 17.5039C59.2349 20.3927 58.5036 22.45 57.041 23.6768C55.5783 24.9015 53.4886 25.5129 50.7737 25.5129C47.7226 25.5129 45.5493 24.8081 44.2548 23.3976C42.9593 21.9881 42.3125 19.8462 42.3125 16.9731V6.23931C42.3125 6.04567 42.3557 5.89626 42.4422 5.79109C42.5307 5.68394 42.6555 5.62988 42.8158 5.62988H47.8367C48.1532 5.62988 48.3124 5.81468 48.3124 6.18426V17.6061C48.3124 18.9114 48.564 19.8551 49.0673 20.437C49.5706 21.0189 50.2881 21.3098 51.2219 21.3098C52.139 21.3098 52.8792 21.0189 53.4434 20.437C54.0066 19.8551 54.2887 18.8859 54.2887 17.5275V6.23931C54.2887 5.83335 54.4558 5.62988 54.792 5.62988H58.7591C59.0757 5.62988 59.2349 5.81468 59.2349 6.18426V17.5039Z" fill="#333333"/>
<path d="M78.7489 5.62988C79.0133 5.62988 79.146 5.77929 79.146 6.07811V24.7737C79.146 24.9153 79.088 25.0313 78.973 25.1197C78.86 25.2062 78.7145 25.2495 78.5366 25.2495H74.9154C74.7581 25.2495 74.6303 25.2239 74.534 25.1708C74.4367 25.1187 74.3256 25.0126 74.1998 24.8524L66.93 14.9915C66.8592 14.903 66.7973 14.8676 66.7452 14.8853C66.6921 14.904 66.6665 14.9561 66.6665 15.0426V24.6676C66.6842 24.8799 66.6449 25.0313 66.5486 25.1197C66.4513 25.2062 66.2783 25.2495 66.0296 25.2495H62.4359C61.9956 25.2495 61.7754 25.0725 61.7754 24.7187V6.23931C61.7754 5.83335 61.969 5.62988 62.3573 5.62988H66.6665C66.8946 5.62988 67.0656 5.66134 67.1816 5.72425C67.2966 5.78519 67.4234 5.91199 67.563 6.10563L73.9089 14.9364C74.016 15.0966 74.1133 15.1762 74.1998 15.1762C74.2883 15.1762 74.3335 15.0612 74.3335 14.8303V6.18426C74.3335 5.81468 74.5271 5.62988 74.9154 5.62988H78.7489Z" fill="#333333"/>
<path d="M85.7319 5.62988C87.8285 5.62988 89.1329 5.63971 89.644 5.65741C93.0824 5.78126 95.6833 6.71112 97.4447 8.44897C99.2081 10.1849 100.091 12.4977 100.091 15.3886C100.091 17.3259 99.6937 19.0353 98.8995 20.5156C98.1052 21.9969 96.9228 23.1568 95.353 23.9952C93.7852 24.8317 91.8734 25.2495 89.6165 25.2495H82.6651C82.3997 25.2495 82.2061 25.1885 82.0832 25.0647C81.9594 24.9418 81.8984 24.7383 81.8984 24.4553V6.29042C81.8984 6.04469 81.9505 5.87267 82.0557 5.77536C82.1599 5.67903 82.3447 5.62988 82.6101 5.62988H85.7319ZM88.1657 9.78184C88.0762 9.78184 88.0094 9.80838 87.9652 9.86048C87.92 9.91356 87.8983 10.0099 87.8983 10.1514V20.7004C87.8983 20.8606 87.9239 20.9668 87.977 21.0189C88.032 21.072 88.1283 21.0975 88.2679 21.0975H88.4566C90.1994 21.0975 91.5244 20.6444 92.4317 19.7371C93.3409 18.8279 93.796 17.3505 93.796 15.306C93.796 13.5446 93.451 12.2333 92.7619 11.3703C92.0749 10.5053 91.0713 10.0119 89.7502 9.888L88.1657 9.78184Z" fill="#333333"/>
<path d="M117.855 11.8174C117.487 11.4164 117.091 11.1087 116.667 10.8944C116.247 10.6811 115.637 10.574 114.838 10.574C114.039 10.574 113.446 10.69 113.06 10.9229C112.677 11.152 112.486 11.4272 112.486 11.7496C112.486 12.301 112.977 12.6913 113.96 12.9203L117.787 13.916C119.187 14.2689 120.238 14.8881 120.944 15.7738C121.653 16.6545 122.008 17.7112 122.008 18.9418C122.008 20.0781 121.707 21.0689 121.107 21.9123C120.507 22.7566 119.65 23.4093 118.536 23.8713C117.421 24.3323 116.12 24.5633 114.631 24.5633C112.938 24.5633 111.397 24.2831 110.005 23.7248C108.617 23.1616 107.655 22.4263 107.118 21.5191C107.039 21.3648 107 21.2507 107 21.1751C107 21.0217 107.085 20.8831 107.253 20.7593L109.627 19.1217C109.796 19.0165 109.95 18.9644 110.089 18.9644C110.257 18.9644 110.397 19.0313 110.505 19.1669C111.027 19.8451 111.556 20.3238 112.093 20.601C112.632 20.8753 113.347 21.0119 114.236 21.0119C115.099 21.0119 115.78 20.8939 116.279 20.658C116.778 20.4172 117.027 20.0909 117.027 19.679C117.027 19.3861 116.903 19.1325 116.655 18.9192C116.412 18.701 116.052 18.5378 115.575 18.4297L112.07 17.5794C110.689 17.2423 109.592 16.6083 108.778 15.6774C107.964 14.7476 107.556 13.6762 107.556 12.4642C107.556 11.4626 107.847 10.5435 108.429 9.70703C109.014 8.87055 109.844 8.21001 110.916 7.7264C111.992 7.24279 113.239 7 114.652 7C116.037 7 117.32 7.22706 118.501 7.68118C119.683 8.13137 120.537 8.73392 121.062 9.48783C121.167 9.62643 121.219 9.75814 121.219 9.882C121.219 9.98619 121.167 10.0864 121.062 10.1798L118.547 12.0032C118.472 12.0632 118.387 12.0926 118.293 12.0926C118.189 12.0926 118.042 12.0012 117.855 11.8174ZM138.828 12.7856C138.828 13.8924 138.563 14.8528 138.035 15.6666C137.506 16.4805 136.761 17.1066 135.8 17.546C134.84 17.9815 133.737 18.1987 132.492 18.1987H129.335C129.152 18.1987 129.059 18.2852 129.059 18.4572V23.6629C129.059 23.9106 128.997 24.0846 128.873 24.1858C128.75 24.2831 128.559 24.3323 128.299 24.3323H124.423C124.194 24.3323 124.036 24.2871 123.95 24.1976C123.867 24.1032 123.826 23.9568 123.826 23.7582V7.75982C123.826 7.40792 123.973 7.23099 124.264 7.23099H131.895C133.186 7.23099 134.356 7.44331 135.407 7.86696C136.461 8.28766 137.293 8.91183 137.905 9.74045C138.52 10.5701 138.828 11.5845 138.828 12.7856ZM133.483 12.7178C133.483 12.1772 133.299 11.7427 132.931 11.4124C132.563 11.0822 132.109 10.917 131.569 10.917H129.588C129.39 10.917 129.251 10.9564 129.172 11.035C129.097 11.1107 129.059 11.2326 129.059 11.4006V14.0064C129.059 14.1902 129.09 14.322 129.15 14.4006C129.214 14.4753 129.313 14.5127 129.448 14.5127H131.709C132.246 14.5127 132.676 14.3406 132.998 13.9946C133.321 13.6496 133.483 13.224 133.483 12.7178ZM140.674 7.75982C140.674 7.59173 140.712 7.46198 140.787 7.37155C140.865 7.27817 140.975 7.23099 141.113 7.23099H145.491C145.768 7.23099 145.908 7.3922 145.908 7.71558V20.2304C145.908 20.3543 145.927 20.4378 145.964 20.4831C146.001 20.5283 146.074 20.5509 146.183 20.5509H153.122C153.475 20.5509 153.651 20.6973 153.651 20.9893V23.8261C153.651 23.9794 153.599 24.1032 153.498 24.1976C153.401 24.2871 153.26 24.3323 153.077 24.3323H141.299C141.066 24.3323 140.903 24.2871 140.809 24.1976C140.719 24.1032 140.674 23.9568 140.674 23.7582V7.75982ZM155.286 24.3323C155.162 24.3323 155.061 24.291 154.982 24.2084C154.907 24.1219 154.869 24.002 154.869 23.8487C154.869 23.7396 154.894 23.6157 154.942 23.4771L160.519 7.75982C160.594 7.56126 160.679 7.42463 160.772 7.34895C160.866 7.27031 161.013 7.23099 161.211 7.23099H165.753C165.936 7.23099 166.102 7.28899 166.248 7.40596C166.393 7.51801 166.505 7.66644 166.579 7.85025L172.111 23.5499C172.141 23.6737 172.156 23.7661 172.156 23.8261C172.156 23.9647 172.126 24.0846 172.066 24.1858C172.006 24.2831 171.915 24.3323 171.791 24.3323H167.272C167.009 24.3323 166.841 24.2006 166.765 23.9381L165.865 21.2881C165.82 21.1829 165.777 21.1112 165.736 21.0738C165.699 21.0325 165.627 21.0119 165.522 21.0119H160.631C160.448 21.0119 160.334 21.0964 160.288 21.2655L159.343 23.9892C159.249 24.2183 159.066 24.3323 158.791 24.3323H155.286ZM164.369 17.0958C164.537 17.0958 164.621 17.0192 164.621 16.8648C164.621 16.8354 164.606 16.7577 164.576 16.6338L163.192 12.6952C163.163 12.6165 163.115 12.5772 163.051 12.5772C162.992 12.5772 162.946 12.6165 162.917 12.6952L161.509 16.6122C161.48 16.6722 161.465 16.7489 161.465 16.8422C161.465 17.0113 161.556 17.0958 161.74 17.0958H164.369ZM184.094 11.8174C183.727 11.4164 183.332 11.1087 182.907 10.8944C182.487 10.6811 181.878 10.574 181.079 10.574C180.28 10.574 179.687 10.69 179.301 10.9229C178.918 11.152 178.727 11.4272 178.727 11.7496C178.727 12.301 179.218 12.6913 180.201 12.9203L184.028 13.916C185.426 14.2689 186.479 14.8881 187.184 15.7738C187.893 16.6545 188.247 17.7112 188.247 18.9418C188.247 20.0781 187.948 21.0689 187.347 21.9123C186.747 22.7566 185.89 23.4093 184.776 23.8713C183.662 24.3323 182.359 24.5633 180.87 24.5633C179.179 24.5633 177.636 24.2831 176.245 23.7248C174.857 23.1616 173.894 22.4263 173.358 21.5191C173.279 21.3648 173.24 21.2507 173.24 21.1751C173.24 21.0217 173.324 20.8831 173.493 20.7593L175.868 19.1217C176.036 19.0165 176.191 18.9644 176.329 18.9644C176.498 18.9644 176.637 19.0313 176.746 19.1669C177.267 19.8451 177.796 20.3238 178.332 20.601C178.873 20.8753 179.588 21.0119 180.476 21.0119C181.339 21.0119 182.02 20.8939 182.519 20.658C183.018 20.4172 183.268 20.0909 183.268 19.679C183.268 19.3861 183.144 19.1325 182.896 18.9192C182.652 18.701 182.293 18.5378 181.816 18.4297L178.31 17.5794C176.93 17.2423 175.832 16.6083 175.018 15.6774C174.204 14.7476 173.797 13.6762 173.797 12.4642C173.797 11.4626 174.088 10.5435 174.669 9.70703C175.255 8.87055 176.083 8.21001 177.157 7.7264C178.233 7.24279 179.478 7 180.893 7C182.277 7 183.561 7.22706 184.742 7.68118C185.924 8.13137 186.777 8.73392 187.303 9.48783C187.407 9.62643 187.46 9.75814 187.46 9.882C187.46 9.98619 187.407 10.0864 187.303 10.1798L184.787 12.0032C184.712 12.0632 184.627 12.0926 184.534 12.0926C184.429 12.0926 184.282 12.0012 184.094 11.8174ZM195.666 17.4841C195.56 17.4841 195.472 17.5195 195.401 17.5912C195.333 17.6581 195.3 17.7387 195.3 17.833V23.6629C195.3 23.9106 195.238 24.0846 195.114 24.1858C194.99 24.2831 194.799 24.3323 194.54 24.3323H190.691C190.458 24.3323 190.295 24.2871 190.201 24.1976C190.111 24.1032 190.066 23.9568 190.066 23.7582V7.75982C190.066 7.59173 190.104 7.46198 190.179 7.37155C190.257 7.27817 190.367 7.23099 190.505 7.23099H194.883C195.007 7.23099 195.106 7.27424 195.181 7.36074C195.26 7.44331 195.3 7.56126 195.3 7.71558V13.0608C195.3 13.3685 195.439 13.5228 195.716 13.5228H199.588C199.861 13.5228 199.998 13.3685 199.998 13.0608V7.71558C199.998 7.56126 200.036 7.44331 200.11 7.36074C200.189 7.27424 200.29 7.23099 200.414 7.23099H204.792C204.932 7.23099 205.038 7.27817 205.114 7.37155C205.192 7.46198 205.232 7.59173 205.232 7.75982V23.7582C205.232 23.9568 205.184 24.1032 205.091 24.1976C205.001 24.2871 204.841 24.3323 204.612 24.3323H200.763C200.501 24.3323 200.308 24.2831 200.184 24.1858C200.06 24.0846 199.998 23.9106 199.998 23.6629V17.833C199.998 17.7387 199.964 17.6581 199.897 17.5912C199.829 17.5195 199.741 17.4841 199.633 17.4841H195.666Z" stroke="#333333" stroke-width="0.864374"/>
</svg>
