<svg width="2528" height="994" viewBox="0 0 2528 994" fill="none" xmlns="http://www.w3.org/2000/svg">
<path opacity="0.5" d="M2527.81 991.977V994H0.242331V991.977L0 990.099L931.667 0.144409L931.909 2.02271V0H1596.14V2.02271L1596.38 0.144409L2528 990.099L2527.81 991.977ZM1609.42 18.204H1576.61L1586.3 29.7621H1620.28L1609.42 18.204ZM1237.73 193.31L1236.23 223.794H1291.82L1290.32 193.31H1237.73ZM1290.07 189.265L1288.77 162.681H1239.23L1237.93 189.265H1290.07ZM1293.13 223.65H1348.67L1344.16 193.165H1291.63L1293.13 223.65ZM1236.37 193.31H1183.84L1179.33 223.794H1234.87L1236.37 193.31ZM1178.75 227.695L1173.51 262.803H1232.93L1234.68 227.695H1178.75ZM1234.29 262.803H1293.76L1292.01 227.695H1235.99L1234.29 262.803ZM1295.07 262.803H1354.49L1349.25 227.695H1293.32L1295.07 262.803ZM1355.89 262.803H1415.17L1406.49 227.695H1350.71L1355.89 262.803ZM1405.52 223.65L1397.96 193.165H1345.57L1350.08 223.65H1405.52ZM1396.99 189.265L1390.4 162.681H1341.06L1344.99 189.265H1396.99ZM1339.61 162.825H1290.12L1291.43 189.409H1343.58L1339.61 162.825ZM1339.03 158.78L1335.58 135.519H1288.77L1289.93 158.78H1339.03ZM1287.41 135.519H1240.54L1239.38 158.78H1288.52L1287.41 135.519ZM1239.23 135.519H1192.42L1188.93 158.78H1238.02L1239.23 135.519ZM1188.39 162.825L1184.47 189.409H1236.62L1237.93 162.825H1188.39ZM1186.94 162.825H1137.6L1131.01 189.409H1182.96L1186.94 162.825ZM1130.04 193.31L1122.48 223.65H1177.88L1182.38 193.165H1130.04V193.31ZM1121.51 227.695L1112.83 262.803H1172.11L1177.34 227.695H1121.51ZM1111.86 266.704L1101.78 307.446H1165.47L1171.53 266.704H1111.86ZM1166.87 307.446H1230.7L1232.74 266.704H1172.93L1166.87 307.446ZM1232.06 307.446H1295.94L1293.9 266.704H1234.1L1232.06 307.446ZM1297.3 307.446H1361.13L1355.07 266.704H1295.26L1297.3 307.446ZM1362.58 307.446H1426.27L1416.18 266.704H1356.52L1362.58 307.446ZM1427.86 307.446H1491.31L1477.15 266.704H1417.73L1427.86 307.446ZM1475.85 262.803L1463.68 227.695H1408.14L1416.81 262.803H1475.85ZM1462.32 223.65L1451.76 193.165H1399.61L1407.17 223.65H1462.32ZM1450.4 189.265L1441.19 162.681H1392.05L1398.64 189.265H1450.4ZM1439.79 158.78L1431.69 135.519H1385.26L1391.03 158.78H1439.79ZM1383.66 135.519H1337.04L1340.53 158.78H1389.48L1383.66 135.519ZM1382.69 131.618L1377.6 111.103H1333.4L1336.46 131.618H1382.69ZM1331.9 110.958H1287.51L1288.52 131.474H1334.95L1331.9 110.958ZM1286.2 110.958H1241.75L1240.74 131.474H1287.22L1286.2 110.958ZM1240.45 110.958H1196.05L1193 131.474H1239.43L1240.45 110.958ZM1194.64 110.958H1150.44L1145.35 131.474H1191.59L1194.64 110.958ZM1144.34 135.519L1138.57 158.78H1187.52L1191.01 135.519H1144.34ZM1142.69 135.519H1096.31L1088.21 158.78H1136.92L1142.69 135.519ZM1086.86 162.825L1077.65 189.409H1129.41L1136 162.825H1086.86ZM1076.24 193.31L1065.68 223.794H1120.83L1128.39 193.31H1076.24ZM1064.32 227.695L1052.15 262.803H1111.19L1119.86 227.695H1064.32ZM1050.8 266.704L1036.64 307.446H1100.09L1110.17 266.704H1050.8ZM1035.29 311.347L1018.76 359.169H1087.34L1099.17 311.347H1035.29ZM1088.94 359.169H1157.76L1164.84 311.347H1100.77L1088.94 359.169ZM1159.22 359.169H1228.18L1230.56 311.347H1166.29L1159.22 359.169ZM1229.49 359.169H1298.51L1296.13 311.347H1231.87L1229.49 359.169ZM1299.82 359.169H1368.78L1361.71 311.347H1297.49L1299.82 359.169ZM1370.24 359.169H1439.06L1427.23 311.347H1363.16L1370.24 359.169ZM1440.71 359.169H1509.24L1492.66 311.347H1428.83L1440.71 359.169ZM1511.18 359.169H1579.47L1558.19 311.347H1494.6L1511.18 359.169ZM1556.4 307.446L1538.22 266.704H1479.09L1493.25 307.446H1556.4ZM1536.48 262.803L1520.82 227.695H1465.57L1477.74 262.803H1536.48ZM1519.08 223.65L1505.51 193.165H1453.65L1464.21 223.65H1519.08ZM1503.76 189.265L1491.94 162.681H1443.08L1452.29 189.265H1503.76ZM1490.14 158.78L1479.72 135.519H1433.63L1441.73 158.78H1490.14ZM1477.98 131.618L1468.82 111.103H1425.1L1432.23 131.618H1477.98ZM1423.21 110.958H1379.2L1384.29 131.474H1430.34L1423.21 110.958ZM1421.85 107.057L1415.55 88.8531H1373.78L1378.28 107.057H1421.85ZM1372.08 88.8531H1330.06L1332.77 107.057H1376.59L1372.08 88.8531ZM1328.65 88.8531H1286.49L1287.41 107.057H1331.37L1328.65 88.8531ZM1285.13 88.8531H1242.92L1242 107.057H1286.05L1285.13 88.8531ZM1241.56 88.8531H1199.39L1196.68 107.057H1240.64L1241.56 88.8531ZM1197.94 88.8531H1155.92L1151.41 107.057H1195.23L1197.94 88.8531ZM1154.27 88.8531H1112.49L1106.19 107.057H1149.81L1154.27 88.8531ZM1104.79 110.958L1097.66 131.474H1143.71L1148.8 110.958H1104.79ZM1102.9 110.958H1059.18L1050.02 131.474H1095.77L1102.9 110.958ZM1048.23 135.519L1037.81 158.78H1086.27L1094.37 135.519H1048.23ZM1036.11 162.825L1024.29 189.409H1075.76L1084.97 162.825H1036.11ZM1022.49 193.31L1008.92 223.794H1063.79L1074.35 193.31H1022.49ZM1007.18 227.695L991.523 262.803H1050.26L1062.43 227.695H1007.18ZM989.778 266.704L971.603 307.446H1034.75L1048.91 266.704H989.778ZM969.858 311.347L948.582 359.169H1016.82L1033.4 311.347H969.858ZM946.788 363.07L921.586 419.56H995.885L1015.51 363.07H946.788ZM997.775 419.705H1072.36L1086.37 363.215H1017.36L997.775 419.705ZM1073.96 419.705H1148.75L1157.13 363.215H1087.97L1073.96 419.705ZM1150.2 419.705H1225.13L1227.94 363.215H1158.63L1150.2 419.705ZM1226.49 419.705H1301.46L1298.65 363.215H1229.3L1226.49 419.705ZM1302.82 419.705H1377.75L1369.37 363.215H1300.06L1302.82 419.705ZM1379.2 419.705H1453.99L1439.98 363.215H1370.82L1379.2 419.705ZM1455.68 419.705H1530.27L1510.64 363.215H1441.68L1455.68 419.705ZM1532.12 419.705H1606.41L1581.21 363.215H1512.53L1532.12 419.705ZM1608.6 419.705H1682.55L1651.73 363.215H1583.39L1608.6 419.705ZM1649.65 359.169L1623.62 311.347H1560.37L1581.65 359.169H1649.65ZM1621.49 307.446L1599.29 266.704H1540.45L1558.63 307.446H1621.49ZM1597.11 262.803L1577.96 227.695H1523L1538.66 262.803H1597.11ZM1575.83 223.65L1559.26 193.165H1507.69L1521.26 223.65H1575.83ZM1557.12 189.265L1542.63 162.681H1494.12L1505.94 189.265H1557.12ZM1540.5 158.78L1527.8 135.519H1481.95L1492.37 158.78H1540.5ZM1525.62 131.618L1514.43 111.103H1471L1480.16 131.618H1525.62ZM1512.29 107.057L1502.36 88.8531H1461.16L1469.25 107.057H1512.29ZM1458.98 88.8531H1417.44L1423.74 107.057H1467.07L1458.98 88.8531ZM1457.19 84.9523L1449.96 68.7709H1410.42L1416.04 84.9523H1457.19ZM1408.57 68.7709H1368.78L1372.81 84.9523H1414.2L1408.57 68.7709ZM1367.14 68.7709H1327.1L1329.53 84.9523H1371.11L1367.14 68.7709ZM1325.65 68.7709H1285.47L1286.29 84.9523H1328.07L1325.65 68.7709ZM1284.11 68.7709H1243.89L1243.06 84.9523H1284.89L1284.11 68.7709ZM1242.53 68.7709H1202.35L1199.93 84.9523H1241.71L1242.53 68.7709ZM1200.9 68.7709H1160.86L1156.84 84.9523H1198.47L1200.9 68.7709ZM1159.22 68.7709H1119.43L1113.8 84.9523H1155.19L1159.22 68.7709ZM1117.53 68.7709H1077.99L1070.77 84.9523H1111.91L1117.53 68.7709ZM1069.02 88.8531L1060.93 107.057H1104.26L1110.56 88.8531H1069.02ZM1066.84 88.8531H1025.64L1015.71 107.057H1058.75L1066.84 88.8531ZM1013.57 110.958L1002.38 131.474H1047.84L1057 110.958H1013.57ZM1000.2 135.519L987.5 158.78H1035.63L1046.05 135.519H1000.2ZM985.367 162.825L970.876 189.409H1022.06L1033.88 162.825H985.367ZM968.744 193.31L952.168 223.794H1006.74L1020.31 193.31H968.744ZM949.987 227.695L930.843 262.803H989.293L1004.95 227.695H949.987ZM928.759 266.704L906.561 307.446H969.374L987.548 266.704H928.759ZM904.38 311.347L878.354 359.169H946.352L967.629 311.347H904.38ZM876.221 363.07L845.397 419.56H919.405L944.607 363.07H876.221ZM843.264 423.606L806.333 491.365H887.417L917.612 423.606H843.264ZM889.598 491.365H971.021L994.528 423.606H919.841L889.598 491.365ZM972.912 491.365H1054.58L1071.35 423.606H996.418L972.912 491.365ZM1056.23 491.365H1138.13L1148.21 423.606H1072.99L1056.23 491.365ZM1139.54 491.365H1221.59L1224.94 423.606H1149.62L1139.54 491.365ZM1222.95 491.365H1305.05L1301.71 423.606H1226.29L1222.95 491.365ZM1306.41 491.365H1388.46L1378.38 423.606H1303.02L1306.41 491.365ZM1389.87 491.365H1471.77L1455.01 423.606H1379.83L1389.87 491.365ZM1473.42 491.365H1555.09L1531.58 423.606H1456.6L1473.42 491.365ZM1556.98 491.365H1638.35L1608.16 423.606H1533.47L1556.98 491.365ZM1640.58 491.365H1721.67L1684.74 423.606H1610.39L1640.58 491.365ZM1724.19 491.365H1804.93L1761.31 423.606H1687.26L1724.19 491.365ZM1758.74 419.705L1722.35 363.215H1654.3L1685.12 419.705H1758.74ZM1719.83 359.169L1689.05 311.347H1626.14L1652.17 359.169H1719.83ZM1686.53 307.446L1660.26 266.704H1601.76L1623.96 307.446H1686.53ZM1657.74 262.803L1635.15 227.695H1580.53L1599.68 262.803H1657.74ZM1632.59 223.65L1613.01 193.165H1561.78L1578.35 223.65H1632.59ZM1610.49 189.265L1593.38 162.681H1545.15L1559.64 189.265H1610.49ZM1590.81 158.78L1575.78 135.519H1530.27L1542.97 158.78H1590.81ZM1573.26 131.618L1560.03 111.103H1516.95L1528.14 131.618H1573.26ZM1557.51 107.057L1545.78 88.8531H1504.88L1514.81 107.057H1557.51ZM1543.21 84.9523L1532.79 68.7709H1493.92L1502.74 84.9523H1543.21ZM1491.4 68.7709H1452.19L1459.42 84.9523H1500.22L1491.4 68.7709ZM1489.27 64.8701L1481.42 50.4224H1444L1450.4 64.8701H1489.27ZM1441.82 50.4224H1404.12L1409.11 64.8701H1448.27L1441.82 50.4224ZM1402.23 50.4224H1364.23L1367.81 64.8701H1407.22L1402.23 50.4224ZM1362.58 50.4224H1324.34L1326.47 64.8701H1366.12L1362.58 50.4224ZM1322.93 50.4224H1284.55L1285.28 64.8701H1325.07L1322.93 50.4224ZM1283.19 50.4224H1244.76L1244.03 64.8701H1283.87L1283.19 50.4224ZM1243.45 50.4224H1205.06L1202.93 64.8701H1242.72L1243.45 50.4224ZM1203.66 50.4224H1165.42L1161.83 64.8701H1201.48L1203.66 50.4224ZM1163.77 50.4224H1125.77L1120.78 64.8701H1160.19L1163.77 50.4224ZM1123.88 50.4224H1086.18L1079.78 64.8701H1118.94L1123.88 50.4224ZM1084 50.4224H1046.58L1038.73 64.8701H1077.55L1084 50.4224ZM1036.6 68.7709L1027.78 84.9523H1068.58L1075.81 68.7709H1036.6ZM1034.08 68.7709H995.206L984.786 84.9523H1025.26L1034.08 68.7709ZM982.217 88.8531L970.488 107.057H1013.19L1023.12 88.8531H982.217ZM967.968 110.958L954.737 131.474H999.859L1011.05 110.958H967.968ZM952.216 135.519L937.192 158.78H984.98L997.678 135.519H952.216ZM934.623 162.825L917.515 189.409H968.356L982.847 162.825H934.623ZM914.994 193.31L895.414 223.794H949.648L966.223 193.31H914.994ZM892.845 227.695L870.26 262.803H928.371L947.515 227.695H892.845ZM867.74 266.704L841.471 307.446H903.993L926.19 266.704H867.74ZM838.951 311.347L808.175 359.169H875.834L901.86 311.347H838.951ZM805.655 363.07L769.256 419.56H842.925L873.75 363.07H805.655ZM766.688 423.606L723.068 491.365H803.813L840.744 423.606H766.688ZM720.548 495.266L667.477 577.763H756.801L801.729 495.266H720.548ZM759.272 577.763H848.935L885.672 495.266H804.201L759.272 577.763ZM851.116 577.763H941.069L969.664 495.266H887.853L851.116 577.763ZM942.959 577.763H1033.2L1053.61 495.266H971.555L942.959 577.763ZM1034.8 577.763H1125.24L1137.5 495.266H1055.26L1034.8 577.763ZM1126.74 577.763H1217.38L1221.45 495.266H1138.96L1126.74 577.763ZM1218.68 577.763H1309.36L1305.29 495.266H1222.76L1218.68 577.763ZM1310.67 577.763H1401.3L1389.04 495.266H1306.6L1310.67 577.763ZM1402.71 577.763H1493.15L1472.74 495.266H1390.45L1402.71 577.763ZM1494.8 577.763H1585.04L1556.45 495.266H1474.39L1494.8 577.763ZM1586.93 577.763H1676.88L1640.15 495.266H1558.38L1586.93 577.763ZM1679.11 577.763H1768.78L1723.85 495.266H1642.38L1679.11 577.763ZM1771.25 577.763H1860.57L1807.5 495.266H1726.37L1771.25 577.763ZM1863.43 577.763H1952.41L1891.15 495.266H1810.36L1863.43 577.763ZM1888.2 491.365L1837.84 423.606H1764.17L1807.79 491.365H1888.2ZM1834.93 419.705L1792.91 363.215H1725.2L1761.6 419.705H1834.93ZM1790 359.169L1754.48 311.347H1691.91L1722.68 359.169H1790ZM1751.57 307.446L1721.28 266.704H1663.12L1689.39 307.446H1751.57ZM1718.37 262.803L1692.3 227.695H1638.01L1660.6 262.803H1718.37ZM1689.34 223.65L1666.71 193.165H1615.82L1635.4 223.65H1689.34ZM1663.8 189.265L1644.07 162.681H1596.24L1613.34 189.265H1663.8ZM1641.16 158.78L1623.81 135.519H1578.64L1593.67 158.78H1641.16ZM1620.91 131.618L1605.64 111.103H1562.89L1576.12 131.618H1620.91ZM1602.68 107.057L1589.16 88.8531H1548.64L1560.37 107.057H1602.68ZM1586.25 84.9523L1574.23 68.7709H1535.7L1546.12 84.9523H1586.25ZM1571.28 64.8701L1560.56 50.4224H1523.83L1533.08 64.8701H1571.28ZM1521.02 50.4224H1483.94L1491.79 64.8701H1530.27L1521.02 50.4224ZM1518.5 46.5215L1510.21 33.663H1474.78L1481.81 46.5215H1518.5ZM1472.26 33.663H1436.54L1442.26 46.5215H1479.29L1472.26 33.663ZM1434.31 33.663H1398.25L1402.71 46.5215H1440.03L1434.31 33.663ZM1396.36 33.663H1360.06L1363.26 46.5215H1400.87L1396.36 33.663ZM1358.41 33.663H1321.87L1323.76 46.5215H1361.56L1358.41 33.663ZM1320.41 33.663H1283.73L1284.36 46.5215H1322.35L1320.41 33.663ZM1282.37 33.663H1245.63L1245 46.5215H1283.05L1282.37 33.663ZM1244.27 33.663H1207.59L1205.7 46.5215H1243.64L1244.27 33.663ZM1206.13 33.663H1169.59L1166.39 46.5215H1204.19L1206.13 33.663ZM1167.94 33.663H1131.64L1127.18 46.5215H1164.79L1167.94 33.663ZM1129.7 33.663H1093.64L1087.92 46.5215H1125.24L1129.7 33.663ZM1091.46 33.663H1055.74L1048.71 46.5215H1085.74L1091.46 33.663ZM1053.22 33.663H1017.79L1009.5 46.5215H1046.19L1053.22 33.663ZM1006.98 50.4224L997.726 64.8701H1036.21L1044.06 50.4224H1006.98ZM1004.12 50.4224H967.386L956.675 64.8701H994.818L1004.12 50.4224ZM953.767 68.7709L941.748 84.9523H981.926L992.347 68.7709H953.767ZM938.84 88.8531L925.318 107.057H967.677L979.406 88.8531H938.84ZM922.361 110.958L907.094 131.474H951.877L965.109 110.958H922.361ZM904.186 135.519L886.836 158.78H934.284L949.309 135.519H904.186ZM883.928 162.825L864.202 189.409H914.704L931.812 162.825H883.928ZM861.245 193.31L838.612 223.794H892.506L912.086 193.31H861.245ZM835.704 227.695L809.629 262.803H867.401L889.986 227.695H835.704ZM806.721 266.704L776.429 307.446H838.612L864.88 266.704H806.721ZM773.521 311.347L738.044 359.169H805.364L836.14 311.347H773.521ZM735.088 363.07L693.067 419.705H766.348L802.747 363.215H735.088V363.07ZM690.159 423.606L639.803 491.365H720.209L763.828 423.606H690.159ZM636.895 495.266L575.634 577.763H664.618L717.688 495.266H636.895ZM572.677 581.663L496.779 683.808H596.232L662.001 581.663H572.677ZM599.14 683.808H698.98L754.62 581.663H664.909L599.14 683.808ZM701.452 683.808H801.632L847.142 581.663H757.091L701.452 683.808ZM803.813 683.808H904.283L939.712 581.663H849.371L803.813 683.808ZM906.174 683.808H1006.89L1032.19 581.663H941.554L906.174 683.808ZM1008.53 683.808H1109.49L1124.66 581.663H1033.83L1008.53 683.808ZM1110.94 683.808H1212.04L1217.08 581.663H1126.16L1110.94 683.808ZM1213.4 683.808H1314.55L1309.51 581.663H1218.49L1213.4 683.808ZM1315.91 683.808H1417.01L1401.84 581.663H1310.87L1315.91 683.808ZM1418.46 683.808H1519.42L1494.12 581.663H1403.29L1418.46 683.808ZM1521.11 683.808H1621.83L1586.4 581.663H1495.77L1521.11 683.808ZM1623.72 683.808H1724.19L1678.68 581.663H1588.34L1623.72 683.808ZM1726.37 683.808H1826.5L1770.86 581.663H1680.81L1726.37 683.808ZM1829.07 683.808H1928.91L1863.14 581.663H1773.38L1829.07 683.808ZM1931.72 683.808H2031.22L1955.32 581.663H1865.95L1931.72 683.808ZM2034.42 683.808H2133.53L2047.51 581.663H1958.52L2034.42 683.808ZM2044.21 577.763L1974.81 495.266H1894.35L1955.61 577.763H2044.21ZM1971.46 491.365L1914.42 423.606H1841.09L1891.44 491.365H1971.46ZM1911.07 419.705L1863.48 363.215H1796.11L1838.13 419.705H1911.07ZM1860.13 359.169L1819.91 311.347H1757.68L1793.15 359.169H1860.13ZM1816.61 307.446L1782.3 266.704H1724.53L1754.82 307.446H1816.61ZM1778.95 262.803L1749.39 227.695H1695.45L1721.52 262.803H1778.95ZM1746.09 223.65L1720.46 193.165H1669.95L1692.59 223.65H1746.09ZM1717.16 189.265L1694.77 162.681H1647.27L1667 189.265H1717.16ZM1691.47 158.78L1671.84 135.519H1627.01L1644.36 158.78H1691.47ZM1668.5 131.618L1651.2 111.103H1608.84L1624.1 131.618H1668.5ZM1647.9 107.057L1632.59 88.8531H1592.41L1605.93 107.057H1647.9ZM1629.24 84.9523L1615.62 68.7709H1577.43L1589.45 84.9523H1629.24ZM1612.33 64.8701L1600.21 50.4224H1563.86L1574.57 64.8701H1612.33ZM1596.87 46.5215L1586.06 33.663H1551.36L1560.9 46.5215H1596.87ZM1548.11 33.663H1513.07L1521.36 46.5215H1557.71L1548.11 33.663ZM1545.2 29.6177L1536.67 18.0596H1503.13L1510.55 29.6177H1545.2ZM1500.22 18.204H1466.35L1472.6 29.7621H1507.59L1500.22 18.204ZM1463.87 18.204H1429.66L1434.8 29.7621H1470.13L1463.87 18.204ZM1427.43 18.204H1392.92L1396.89 29.7621H1432.57L1427.43 18.204ZM1391.03 18.204H1356.23L1359.09 29.7621H1395L1391.03 18.204ZM1354.58 18.204H1319.54L1321.24 29.7621H1357.39L1354.58 18.204ZM1318.14 18.204H1282.95L1283.53 29.7621H1319.83L1318.14 18.204ZM1281.59 18.204H1246.36L1245.78 29.7621H1282.13L1281.59 18.204ZM1245.05 18.204H1209.86L1208.17 29.7621H1244.47L1245.05 18.204ZM1208.41 18.204H1173.37L1170.51 29.7621H1206.66L1208.41 18.204ZM1171.77 18.204H1136.97L1133 29.7621H1168.91L1171.77 18.204ZM1135.08 18.204H1100.57L1095.43 29.7621H1131.11L1135.08 18.204ZM1098.34 18.204H1064.13L1057.87 29.7621H1093.2L1098.34 18.204ZM1061.6 18.204H1027.73L1020.31 29.7621H1055.3L1061.6 18.204ZM1024.92 18.204H991.377L982.847 29.7621H1017.5L1024.92 18.204ZM979.891 33.663L970.343 46.5215H1006.69L1014.98 33.663H979.891ZM976.692 33.663H941.99L931.182 46.5215H967.144L976.692 33.663ZM927.838 50.4224L915.721 64.8701H953.525L964.236 50.4224H927.838ZM912.377 68.7709L898.758 84.9523H938.549L950.569 68.7709H912.377ZM895.463 88.8531L880.147 107.057H922.119L935.641 88.8531H895.463ZM876.803 110.958L859.501 131.474H903.896L919.163 110.958H876.803ZM856.156 135.519L836.528 158.78H883.637L900.988 135.519H856.156ZM833.232 162.825L810.84 189.409H860.955L880.68 162.825H833.232ZM807.545 193.31L781.906 223.794H835.461L858.095 193.31H807.545ZM778.562 227.695L748.998 262.803H806.382L832.456 227.695H778.562ZM745.702 266.704L711.388 307.446H773.231L803.522 266.704H745.702ZM708.092 311.347L667.865 359.169H734.797L770.274 311.347H708.092ZM664.521 363.07L616.927 419.56H689.869L731.889 363.07H664.521ZM613.583 423.606L556.538 491.365H636.604L686.961 423.606H613.583ZM553.242 495.266L483.839 577.763H572.386L633.648 495.266H553.242ZM480.494 581.663L394.467 683.808H493.58L569.479 581.663H480.494ZM391.171 687.709L282.171 817.16H394.515L490.672 687.709H391.171ZM397.714 817.16H510.398L593.76 687.709H493.92L397.714 817.16ZM513.258 817.16H626.281L696.799 687.709H596.571L513.258 817.16ZM628.801 817.16H742.164L799.887 687.709H699.368L628.801 817.16ZM744.345 817.16H857.998L902.878 687.709H802.02L744.345 817.16ZM859.937 817.16H973.881L1005.92 687.709H904.817L859.937 817.16ZM975.529 817.16H1089.72L1108.96 687.709H1007.56L975.529 817.16ZM1091.12 817.16H1205.45L1211.85 687.709H1110.36L1091.12 817.16ZM1206.81 817.16H1321.19L1314.79 687.709H1213.21L1206.81 817.16ZM1322.55 817.16H1436.88L1417.64 687.709H1316.1L1322.55 817.16ZM1438.28 817.16H1552.47L1520.43 687.709H1419.09L1438.28 817.16ZM1554.12 817.16H1668.06L1623.18 687.709H1522.03L1554.12 817.16ZM1669.95 817.16H1783.61L1725.88 687.709H1625.07L1669.95 817.16ZM1785.84 817.16H1899.2L1828.68 687.709H1728.16L1785.84 817.16ZM1901.72 817.16H2014.74L1931.38 687.709H1831.15L1901.72 817.16ZM2017.6 817.16H2130.29L2034.13 687.709H1934.29L2017.6 817.16ZM2133.53 817.16H2245.88L2136.88 687.709H2037.38L2133.53 817.16ZM2249.42 817.16H2361.37L2239.58 687.709H2140.42L2249.42 817.16ZM2235.85 683.808L2139.74 581.663H2051.09L2137.12 683.808H2235.85ZM2136 577.763L2058.41 495.266H1978.34L2047.75 577.763H2136ZM2054.73 491.365L1990.95 423.606H1917.96L1975 491.365H2054.73ZM1987.21 419.705L1934 363.215H1867.02L1914.61 419.705H1987.21ZM1930.31 359.169L1885.39 311.347H1823.54L1863.77 359.169H1930.31ZM1881.65 307.446L1843.27 266.704H1785.84L1820.15 307.446H1881.65ZM1839.59 262.803L1806.58 227.695H1753.02L1782.59 262.803H1839.59ZM1802.85 223.65L1774.2 193.165H1724.04L1749.68 223.65H1802.85ZM1770.52 189.265L1745.51 162.681H1698.35L1720.75 189.265H1770.52ZM1741.78 158.78L1719.83 135.519H1675.38L1695.01 158.78H1741.78ZM1716.14 131.618L1696.8 111.103H1654.78L1672.09 131.618H1716.14ZM1693.07 107.057L1675.96 88.8531H1636.12L1651.44 107.057H1693.07ZM1672.23 84.9523L1657.01 68.7709H1619.21L1632.83 84.9523H1672.23ZM1653.33 64.8701L1639.76 50.4224H1603.75L1615.86 64.8701H1653.33ZM1636.03 46.5215L1623.91 33.663H1589.55L1600.36 46.5215H1636.03ZM1573.02 18.204H1539.87L1548.4 29.7621H1582.71L1573.02 18.204ZM1569.73 14.1587L1561.05 3.90088H1529.3L1536.96 14.1587H1569.73ZM1526.06 3.90088H1493.92L1500.56 14.1587H1533.71L1526.06 3.90088ZM1491.06 3.90088H1458.59L1464.21 14.1587H1497.7L1491.06 3.90088ZM1456.07 3.90088H1423.26L1427.86 14.1587H1461.69L1456.07 3.90088ZM1421.08 3.90088H1387.98L1391.56 14.1587H1425.68L1421.08 3.90088ZM1386.09 3.90088H1352.69L1355.26 14.1587H1389.67L1386.09 3.90088ZM1351.05 3.90088H1317.46L1319.01 14.1587H1353.66L1351.05 3.90088ZM1316 3.90088H1282.22L1282.76 14.1587H1317.56L1316 3.90088ZM1280.91 3.90088H1247.09L1246.55 14.1587H1281.4L1280.91 3.90088ZM1245.78 3.90088H1212L1210.44 14.1587H1245.24L1245.78 3.90088ZM1210.54 3.90088H1176.95L1174.39 14.1587H1209.04L1210.54 3.90088ZM1175.31 3.90088H1141.91L1138.33 14.1587H1172.74L1175.31 3.90088ZM1140.02 3.90088H1106.92L1102.32 14.1587H1136.44L1140.02 3.90088ZM1104.69 3.90088H1071.88L1066.26 14.1587H1100.09L1104.69 3.90088ZM1069.41 3.90088H1036.94L1030.3 14.1587H1063.79L1069.41 3.90088ZM1034.08 3.90088H1001.94L994.285 14.1587H1027.44L1034.08 3.90088ZM998.744 3.90088H966.95L958.275 14.1587H991.038L998.744 3.90088ZM954.979 18.204L945.286 29.7621H979.6L988.13 18.204H954.979ZM951.393 18.204H918.581L907.773 29.7621H941.699L951.393 18.204ZM904.041 33.663L891.925 46.5215H927.547L938.355 33.663H904.041ZM888.241 50.4224L874.671 64.8701H912.135L924.252 50.4224H888.241ZM870.987 68.7709L855.769 84.9523H895.172L908.791 68.7709H870.987ZM852.037 88.8531L834.928 107.057H876.561L891.876 88.8531H852.037ZM831.196 110.958L811.858 131.474H855.914L873.216 110.958H831.196ZM808.175 135.519L786.22 158.78H832.99L852.618 135.519H808.175ZM782.488 162.825L757.479 189.409H807.254L829.645 162.825H782.488ZM753.796 193.31L725.152 223.794H778.32L803.958 193.31H753.796ZM721.42 227.695L688.415 262.803H745.459L775.024 227.695H721.42ZM684.683 266.704L646.298 307.446H707.753L742.067 266.704H684.683ZM642.614 311.347L597.686 359.169H664.279L704.505 311.347H642.614ZM594.002 363.07L540.786 419.705H613.389L660.983 363.215H594.002V363.07ZM537.055 423.606L473.273 491.365H552.952L609.996 423.606H537.055ZM469.59 495.266L391.995 577.763H480.252L549.656 495.266H469.59ZM388.263 581.663L292.155 683.808H390.929L476.956 581.663H388.263ZM288.423 687.709L166.627 817.16H278.584L387.585 687.709H288.423ZM162.895 821.206L4.02272 990.099H133.088L275.24 821.206H162.895ZM136.675 989.955H266.128L391.559 821.061H278.826L136.675 989.955ZM269.327 989.955H399.12L507.829 821.061H394.758L269.327 989.955ZM401.979 989.955H532.159L624.148 821.061H510.737L401.979 989.955ZM534.68 989.955H665.151L740.419 821.061H626.669L534.68 989.955ZM667.332 989.955H798.142L856.69 821.061H742.648L667.332 989.955ZM800.032 989.955H931.085L972.912 821.061H858.58L800.032 989.955ZM932.733 989.955H1064.03L1089.13 821.061H974.56L932.733 989.955ZM1065.48 989.955H1196.92L1205.31 821.061H1090.54L1065.48 989.955ZM1198.23 989.955H1329.72L1321.34 821.061H1206.62L1198.23 989.955ZM1331.08 989.955H1462.52L1437.41 821.061H1322.74L1331.08 989.955ZM1463.97 989.955H1595.27L1553.44 821.061H1438.87L1463.97 989.955ZM1596.91 989.955H1727.97L1669.42 821.061H1555.09L1596.91 989.955ZM1729.86 989.955H1860.67L1785.4 821.061H1671.36L1729.86 989.955ZM1862.85 989.955H1993.32L1901.33 821.206H1787.58L1862.85 989.955ZM1995.84 989.955H2125.97L2017.26 821.061H1903.85L1995.84 989.955ZM2128.88 989.955H2258.67L2133.24 821.061H2020.17L2128.88 989.955ZM2261.87 989.955H2391.33L2249.17 821.061H2136.44L2261.87 989.955ZM2394.86 989.955H2523.93L2365.06 821.061H2252.71L2394.86 989.955ZM1595.99 3.90088H1564.59L1573.26 14.1587H1605.69L1595.99 3.90088ZM922.313 14.1587H954.737L963.412 3.90088H932.006L922.313 14.1587Z" fill="white"/>
</svg>
