<svg width="160" height="36" viewBox="0 0 160 36" fill="none" xmlns="http://www.w3.org/2000/svg">
<rect x="3" y="1" width="2" height="2" fill="#333333"/>
<rect x="2" y="2" width="1" height="3" fill="#333333"/>
<rect x="1" y="3" width="1" height="3" fill="#333333"/>
<rect y="5" width="2" height="1" fill="#333333"/>
<rect width="2" height="2" transform="matrix(-1 0 0 1 157 1)" fill="#333333"/>
<rect width="1" height="3" transform="matrix(-1 0 0 1 158 2)" fill="#333333"/>
<rect width="1" height="3" transform="matrix(-1 0 0 1 159 3)" fill="#333333"/>
<rect width="2" height="1" transform="matrix(-1 0 0 1 160 5)" fill="#333333"/>
<rect x="3" y="33" width="2" height="2" fill="#333333"/>
<rect x="2" y="31" width="1" height="3" fill="#333333"/>
<rect width="1" height="3" transform="matrix(1 0 0 -1 1 33)" fill="#333333"/>
<rect width="2" height="1" transform="matrix(1 0 0 -1 0 31)" fill="#333333"/>
<rect width="2" height="2" transform="matrix(-1 0 0 1 157 33)" fill="#333333"/>
<rect width="1" height="3" transform="matrix(-1 0 0 1 158 31)" fill="#333333"/>
<rect x="159" y="33" width="1" height="3" transform="rotate(180 159 33)" fill="#333333"/>
<rect x="160" y="31" width="2" height="1" transform="rotate(180 160 31)" fill="#333333"/>
<rect x="5" width="150" height="2" fill="#333333"/>
<rect x="5" y="34" width="150" height="2" fill="#333333"/>
<rect y="6" width="2" height="24" fill="#333333"/>
<rect width="2" height="24" transform="matrix(-1 0 0 1 160 6)" fill="#333333"/>
<path d="M20.5966 10.4205V8.54545H33.6875V10.4205H28.1989V26H26.0852V10.4205H20.5966ZM36.9496 26V8.54545H42.8473C44.2109 8.54545 45.3303 8.77841 46.2053 9.24432C47.0803 9.70454 47.728 10.3381 48.1484 11.1449C48.5689 11.9517 48.7791 12.8693 48.7791 13.8977C48.7791 14.9261 48.5689 15.8381 48.1484 16.6335C47.728 17.429 47.0831 18.054 46.2138 18.5085C45.3445 18.9574 44.2337 19.1818 42.8814 19.1818H38.1087V17.2727H42.8132C43.745 17.2727 44.495 17.1364 45.0632 16.8636C45.6371 16.5909 46.0518 16.2045 46.3075 15.7045C46.5689 15.1989 46.6996 14.5966 46.6996 13.8977C46.6996 13.1989 46.5689 12.5881 46.3075 12.0653C46.0462 11.5426 45.6286 11.1392 45.0547 10.8551C44.4808 10.5653 43.7223 10.4205 42.7791 10.4205H39.0632V26H36.9496ZM45.1655 18.1591L49.4609 26H47.0064L42.7791 18.1591H45.1655ZM53.017 26H50.8011L57.2102 8.54545H59.392L65.8011 26H63.5852L58.3693 11.3068H58.233L53.017 26ZM53.8352 19.1818H62.767V21.0568H53.8352V19.1818ZM82.3608 8.54545V26H80.3153L70.804 12.2955H70.6335V26H68.5199V8.54545H70.5653L80.1108 22.2841H80.2812V8.54545H82.3608ZM96.1357 12.9091C96.0334 12.0455 95.6186 11.375 94.8913 10.8977C94.1641 10.4205 93.272 10.1818 92.2152 10.1818C91.4425 10.1818 90.7663 10.3068 90.1868 10.5568C89.6129 10.8068 89.1641 11.1506 88.8402 11.5881C88.522 12.0256 88.3629 12.5227 88.3629 13.0795C88.3629 13.5455 88.4737 13.946 88.6953 14.2812C88.9226 14.6108 89.2124 14.8864 89.5646 15.108C89.9169 15.3239 90.2862 15.5028 90.6726 15.6449C91.0589 15.7812 91.4141 15.892 91.7379 15.9773L93.5107 16.4545C93.9652 16.5739 94.4709 16.7386 95.0277 16.9489C95.5902 17.1591 96.1271 17.446 96.6385 17.8097C97.1555 18.1676 97.5817 18.6278 97.9169 19.1903C98.2521 19.7528 98.4197 20.4432 98.4197 21.2614C98.4197 22.2045 98.1726 23.0568 97.6783 23.8182C97.1896 24.5795 96.4737 25.1847 95.5305 25.6335C94.593 26.0824 93.4538 26.3068 92.1129 26.3068C90.8629 26.3068 89.7805 26.1051 88.8658 25.7017C87.9567 25.2983 87.2408 24.7358 86.718 24.0142C86.201 23.2926 85.9084 22.4545 85.8402 21.5H88.022C88.0788 22.1591 88.3004 22.7045 88.6868 23.1364C89.0788 23.5625 89.5732 23.8807 90.1697 24.0909C90.772 24.2955 91.4197 24.3977 92.1129 24.3977C92.9197 24.3977 93.6442 24.267 94.2862 24.0057C94.9283 23.7386 95.4368 23.3693 95.8118 22.8977C96.1868 22.4205 96.3743 21.8636 96.3743 21.2273C96.3743 20.6477 96.2124 20.1761 95.8885 19.8125C95.5646 19.4489 95.1385 19.1534 94.6101 18.9261C94.0817 18.6989 93.5107 18.5 92.897 18.3295L90.7493 17.7159C89.3857 17.3239 88.3061 16.7642 87.5107 16.0369C86.7152 15.3097 86.3175 14.358 86.3175 13.1818C86.3175 12.2045 86.5817 11.3523 87.1101 10.625C87.6442 9.89205 88.3601 9.32386 89.2578 8.92045C90.1612 8.51136 91.1697 8.30682 92.2834 8.30682C93.4084 8.30682 94.4084 8.50852 95.2834 8.91193C96.1584 9.30966 96.8516 9.85511 97.3629 10.5483C97.88 11.2415 98.1527 12.0284 98.1811 12.9091H96.1357ZM101.895 26V8.54545H112.361V10.4205H104.009V16.3182H111.577V18.1932H104.009V26H101.895ZM115.981 26V8.54545H126.515V10.4205H118.094V16.3182H125.969V18.1932H118.094V24.125H126.651V26H115.981ZM130.325 26V8.54545H136.222C137.586 8.54545 138.705 8.77841 139.58 9.24432C140.455 9.70454 141.103 10.3381 141.523 11.1449C141.944 11.9517 142.154 12.8693 142.154 13.8977C142.154 14.9261 141.944 15.8381 141.523 16.6335C141.103 17.429 140.458 18.054 139.589 18.5085C138.719 18.9574 137.609 19.1818 136.256 19.1818H131.484V17.2727H136.188C137.12 17.2727 137.87 17.1364 138.438 16.8636C139.012 16.5909 139.427 16.2045 139.683 15.7045C139.944 15.1989 140.075 14.5966 140.075 13.8977C140.075 13.1989 139.944 12.5881 139.683 12.0653C139.421 11.5426 139.004 11.1392 138.43 10.8551C137.856 10.5653 137.097 10.4205 136.154 10.4205H132.438V26H130.325ZM138.54 18.1591L142.836 26H140.381L136.154 18.1591H138.54Z" fill="#333333"/>
</svg>
