<svg width="216" height="70" viewBox="0 0 216 70" fill="none" xmlns="http://www.w3.org/2000/svg">
<g filter="url(#filter0_d_292_402)">
<rect x="16" width="184" height="6" fill="#333333"/>
<rect x="16" y="56" width="184" height="6" fill="#333333"/>
<rect x="108" y="6" width="98" height="50" fill="#A053C4"/>
<rect x="10" y="6" width="98" height="50" fill="#BAAD34"/>
<rect x="206" y="12" width="6" height="38" fill="#333333"/>
<rect x="4" y="12" width="6" height="38" fill="#333333"/>
<rect x="200" y="6" width="6" height="6" fill="#333333"/>
<rect x="10" y="6" width="6" height="6" fill="#333333"/>
<rect x="10" y="50" width="6" height="6" fill="#333333"/>
<rect x="200" y="50" width="6" height="6" fill="#333333"/>
<path d="M67.9531 19.9375H86.4531V24.5625H72.5781V29.1875H86.4531V33.8125H72.5781V38.4375H86.4531V43H67.9531V19.9375ZM86.4531 24.5625H91.0781V29.1875H86.4531V24.5625ZM86.4531 33.8125H91.0781V38.4375H86.4531V33.8125ZM96.5844 19.9375H101.209V38.4375H96.5844V19.9375ZM115.084 19.9375H119.709V38.4375H115.084V19.9375ZM101.209 38.4375H115.084V43H101.209V38.4375ZM125.216 19.9375H129.841V24.5625H125.216V19.9375ZM143.716 19.9375H148.341V24.5625H143.716V19.9375ZM129.841 24.5625H134.466V29.1875H129.841V24.5625ZM139.091 24.5625H143.716V29.1875H139.091V24.5625ZM134.466 29.1875H139.091V43H134.466V29.1875Z" fill="#333333"/>
<path d="M67.9531 19.9375V19.4375H67.4531V19.9375H67.9531ZM86.4531 19.9375H86.9531V19.4375H86.4531V19.9375ZM86.4531 24.5625V25.0625H86.9531V24.5625H86.4531ZM72.5781 24.5625V24.0625H72.0781V24.5625H72.5781ZM72.5781 29.1875H72.0781V29.6875H72.5781V29.1875ZM86.4531 29.1875H86.9531V28.6875H86.4531V29.1875ZM86.4531 33.8125V34.3125H86.9531V33.8125H86.4531ZM72.5781 33.8125V33.3125H72.0781V33.8125H72.5781ZM72.5781 38.4375H72.0781V38.9375H72.5781V38.4375ZM86.4531 38.4375H86.9531V37.9375H86.4531V38.4375ZM86.4531 43V43.5H86.9531V43H86.4531ZM67.9531 43H67.4531V43.5H67.9531V43ZM86.4531 24.5625V24.0625H85.9531V24.5625H86.4531ZM91.0781 24.5625H91.5781V24.0625H91.0781V24.5625ZM91.0781 29.1875V29.6875H91.5781V29.1875H91.0781ZM86.4531 29.1875H85.9531V29.6875H86.4531V29.1875ZM86.4531 33.8125V33.3125H85.9531V33.8125H86.4531ZM91.0781 33.8125H91.5781V33.3125H91.0781V33.8125ZM91.0781 38.4375V38.9375H91.5781V38.4375H91.0781ZM86.4531 38.4375H85.9531V38.9375H86.4531V38.4375ZM67.9531 20.4375H86.4531V19.4375H67.9531V20.4375ZM85.9531 19.9375V24.5625H86.9531V19.9375H85.9531ZM86.4531 24.0625H72.5781V25.0625H86.4531V24.0625ZM72.0781 24.5625V29.1875H73.0781V24.5625H72.0781ZM72.5781 29.6875H86.4531V28.6875H72.5781V29.6875ZM85.9531 29.1875V33.8125H86.9531V29.1875H85.9531ZM86.4531 33.3125H72.5781V34.3125H86.4531V33.3125ZM72.0781 33.8125V38.4375H73.0781V33.8125H72.0781ZM72.5781 38.9375H86.4531V37.9375H72.5781V38.9375ZM85.9531 38.4375V43H86.9531V38.4375H85.9531ZM86.4531 42.5H67.9531V43.5H86.4531V42.5ZM68.4531 43V19.9375H67.4531V43H68.4531ZM86.4531 25.0625H91.0781V24.0625H86.4531V25.0625ZM90.5781 24.5625V29.1875H91.5781V24.5625H90.5781ZM91.0781 28.6875H86.4531V29.6875H91.0781V28.6875ZM86.9531 29.1875V24.5625H85.9531V29.1875H86.9531ZM86.4531 34.3125H91.0781V33.3125H86.4531V34.3125ZM90.5781 33.8125V38.4375H91.5781V33.8125H90.5781ZM91.0781 37.9375H86.4531V38.9375H91.0781V37.9375ZM86.9531 38.4375V33.8125H85.9531V38.4375H86.9531ZM96.5844 19.9375V19.4375H96.0844V19.9375H96.5844ZM101.209 19.9375H101.709V19.4375H101.209V19.9375ZM101.209 38.4375V38.9375H101.709V38.4375H101.209ZM96.5844 38.4375H96.0844V38.9375H96.5844V38.4375ZM115.084 19.9375V19.4375H114.584V19.9375H115.084ZM119.709 19.9375H120.209V19.4375H119.709V19.9375ZM119.709 38.4375V38.9375H120.209V38.4375H119.709ZM115.084 38.4375H114.584V38.9375H115.084V38.4375ZM101.209 38.4375V37.9375H100.709V38.4375H101.209ZM115.084 38.4375H115.584V37.9375H115.084V38.4375ZM115.084 43V43.5H115.584V43H115.084ZM101.209 43H100.709V43.5H101.209V43ZM96.5844 20.4375H101.209V19.4375H96.5844V20.4375ZM100.709 19.9375V38.4375H101.709V19.9375H100.709ZM101.209 37.9375H96.5844V38.9375H101.209V37.9375ZM97.0844 38.4375V19.9375H96.0844V38.4375H97.0844ZM115.084 20.4375H119.709V19.4375H115.084V20.4375ZM119.209 19.9375V38.4375H120.209V19.9375H119.209ZM119.709 37.9375H115.084V38.9375H119.709V37.9375ZM115.584 38.4375V19.9375H114.584V38.4375H115.584ZM101.209 38.9375H115.084V37.9375H101.209V38.9375ZM114.584 38.4375V43H115.584V38.4375H114.584ZM115.084 42.5H101.209V43.5H115.084V42.5ZM101.709 43V38.4375H100.709V43H101.709ZM125.216 19.9375V19.4375H124.716V19.9375H125.216ZM129.841 19.9375H130.341V19.4375H129.841V19.9375ZM129.841 24.5625V25.0625H130.341V24.5625H129.841ZM125.216 24.5625H124.716V25.0625H125.216V24.5625ZM143.716 19.9375V19.4375H143.216V19.9375H143.716ZM148.341 19.9375H148.841V19.4375H148.341V19.9375ZM148.341 24.5625V25.0625H148.841V24.5625H148.341ZM143.716 24.5625H143.216V25.0625H143.716V24.5625ZM129.841 24.5625V24.0625H129.341V24.5625H129.841ZM134.466 24.5625H134.966V24.0625H134.466V24.5625ZM134.466 29.1875V29.6875H134.966V29.1875H134.466ZM129.841 29.1875H129.341V29.6875H129.841V29.1875ZM139.091 24.5625V24.0625H138.591V24.5625H139.091ZM143.716 24.5625H144.216V24.0625H143.716V24.5625ZM143.716 29.1875V29.6875H144.216V29.1875H143.716ZM139.091 29.1875H138.591V29.6875H139.091V29.1875ZM134.466 29.1875V28.6875H133.966V29.1875H134.466ZM139.091 29.1875H139.591V28.6875H139.091V29.1875ZM139.091 43V43.5H139.591V43H139.091ZM134.466 43H133.966V43.5H134.466V43ZM125.216 20.4375H129.841V19.4375H125.216V20.4375ZM129.341 19.9375V24.5625H130.341V19.9375H129.341ZM129.841 24.0625H125.216V25.0625H129.841V24.0625ZM125.716 24.5625V19.9375H124.716V24.5625H125.716ZM143.716 20.4375H148.341V19.4375H143.716V20.4375ZM147.841 19.9375V24.5625H148.841V19.9375H147.841ZM148.341 24.0625H143.716V25.0625H148.341V24.0625ZM144.216 24.5625V19.9375H143.216V24.5625H144.216ZM129.841 25.0625H134.466V24.0625H129.841V25.0625ZM133.966 24.5625V29.1875H134.966V24.5625H133.966ZM134.466 28.6875H129.841V29.6875H134.466V28.6875ZM130.341 29.1875V24.5625H129.341V29.1875H130.341ZM139.091 25.0625H143.716V24.0625H139.091V25.0625ZM143.216 24.5625V29.1875H144.216V24.5625H143.216ZM143.716 28.6875H139.091V29.6875H143.716V28.6875ZM139.591 29.1875V24.5625H138.591V29.1875H139.591ZM134.466 29.6875H139.091V28.6875H134.466V29.6875ZM138.591 29.1875V43H139.591V29.1875H138.591ZM139.091 42.5H134.466V43.5H139.091V42.5ZM134.966 43V29.1875H133.966V43H134.966Z" fill="#333333"/>
</g>
<defs>
<filter id="filter0_d_292_402" x="0" y="0" width="216" height="70" filterUnits="userSpaceOnUse" color-interpolation-filters="sRGB">
<feFlood flood-opacity="0" result="BackgroundImageFix"/>
<feColorMatrix in="SourceAlpha" type="matrix" values="0 0 0 0 0 0 0 0 0 0 0 0 0 0 0 0 0 0 127 0" result="hardAlpha"/>
<feOffset dy="4"/>
<feGaussianBlur stdDeviation="2"/>
<feComposite in2="hardAlpha" operator="out"/>
<feColorMatrix type="matrix" values="0 0 0 0 0 0 0 0 0 0 0 0 0 0 0 0 0 0 0.25 0"/>
<feBlend mode="normal" in2="BackgroundImageFix" result="effect1_dropShadow_292_402"/>
<feBlend mode="normal" in="SourceGraphic" in2="effect1_dropShadow_292_402" result="shape"/>
</filter>
</defs>
</svg>
