<svg width="208" height="62" viewBox="0 0 208 62" fill="none" xmlns="http://www.w3.org/2000/svg">
<rect x="12" width="184" height="6" fill="#333333"/>
<rect x="12" y="56" width="184" height="6" fill="#333333"/>
<rect x="104" y="6" width="98" height="50" fill="#D57CFF"/>
<rect x="6" y="6" width="98" height="50" fill="#FFE600"/>
<rect x="202" y="12" width="6" height="38" fill="#333333"/>
<rect y="12" width="6" height="38" fill="#333333"/>
<rect x="196" y="6" width="6" height="6" fill="#333333"/>
<rect x="6" y="6" width="6" height="6" fill="#333333"/>
<rect x="6" y="50" width="6" height="6" fill="#333333"/>
<rect x="196" y="50" width="6" height="6" fill="#333333"/>
<path d="M63.9531 19.9375H82.4531V24.5625H68.5781V29.1875H82.4531V33.8125H68.5781V38.4375H82.4531V43H63.9531V19.9375ZM82.4531 24.5625H87.0781V29.1875H82.4531V24.5625ZM82.4531 33.8125H87.0781V38.4375H82.4531V33.8125ZM92.5844 19.9375H97.2094V38.4375H92.5844V19.9375ZM111.084 19.9375H115.709V38.4375H111.084V19.9375ZM97.2094 38.4375H111.084V43H97.2094V38.4375ZM121.216 19.9375H125.841V24.5625H121.216V19.9375ZM139.716 19.9375H144.341V24.5625H139.716V19.9375ZM125.841 24.5625H130.466V29.1875H125.841V24.5625ZM135.091 24.5625H139.716V29.1875H135.091V24.5625ZM130.466 29.1875H135.091V43H130.466V29.1875Z" fill="#333333"/>
<path d="M63.9531 19.9375V19.4375H63.4531V19.9375H63.9531ZM82.4531 19.9375H82.9531V19.4375H82.4531V19.9375ZM82.4531 24.5625V25.0625H82.9531V24.5625H82.4531ZM68.5781 24.5625V24.0625H68.0781V24.5625H68.5781ZM68.5781 29.1875H68.0781V29.6875H68.5781V29.1875ZM82.4531 29.1875H82.9531V28.6875H82.4531V29.1875ZM82.4531 33.8125V34.3125H82.9531V33.8125H82.4531ZM68.5781 33.8125V33.3125H68.0781V33.8125H68.5781ZM68.5781 38.4375H68.0781V38.9375H68.5781V38.4375ZM82.4531 38.4375H82.9531V37.9375H82.4531V38.4375ZM82.4531 43V43.5H82.9531V43H82.4531ZM63.9531 43H63.4531V43.5H63.9531V43ZM82.4531 24.5625V24.0625H81.9531V24.5625H82.4531ZM87.0781 24.5625H87.5781V24.0625H87.0781V24.5625ZM87.0781 29.1875V29.6875H87.5781V29.1875H87.0781ZM82.4531 29.1875H81.9531V29.6875H82.4531V29.1875ZM82.4531 33.8125V33.3125H81.9531V33.8125H82.4531ZM87.0781 33.8125H87.5781V33.3125H87.0781V33.8125ZM87.0781 38.4375V38.9375H87.5781V38.4375H87.0781ZM82.4531 38.4375H81.9531V38.9375H82.4531V38.4375ZM63.9531 20.4375H82.4531V19.4375H63.9531V20.4375ZM81.9531 19.9375V24.5625H82.9531V19.9375H81.9531ZM82.4531 24.0625H68.5781V25.0625H82.4531V24.0625ZM68.0781 24.5625V29.1875H69.0781V24.5625H68.0781ZM68.5781 29.6875H82.4531V28.6875H68.5781V29.6875ZM81.9531 29.1875V33.8125H82.9531V29.1875H81.9531ZM82.4531 33.3125H68.5781V34.3125H82.4531V33.3125ZM68.0781 33.8125V38.4375H69.0781V33.8125H68.0781ZM68.5781 38.9375H82.4531V37.9375H68.5781V38.9375ZM81.9531 38.4375V43H82.9531V38.4375H81.9531ZM82.4531 42.5H63.9531V43.5H82.4531V42.5ZM64.4531 43V19.9375H63.4531V43H64.4531ZM82.4531 25.0625H87.0781V24.0625H82.4531V25.0625ZM86.5781 24.5625V29.1875H87.5781V24.5625H86.5781ZM87.0781 28.6875H82.4531V29.6875H87.0781V28.6875ZM82.9531 29.1875V24.5625H81.9531V29.1875H82.9531ZM82.4531 34.3125H87.0781V33.3125H82.4531V34.3125ZM86.5781 33.8125V38.4375H87.5781V33.8125H86.5781ZM87.0781 37.9375H82.4531V38.9375H87.0781V37.9375ZM82.9531 38.4375V33.8125H81.9531V38.4375H82.9531ZM92.5844 19.9375V19.4375H92.0844V19.9375H92.5844ZM97.2094 19.9375H97.7094V19.4375H97.2094V19.9375ZM97.2094 38.4375V38.9375H97.7094V38.4375H97.2094ZM92.5844 38.4375H92.0844V38.9375H92.5844V38.4375ZM111.084 19.9375V19.4375H110.584V19.9375H111.084ZM115.709 19.9375H116.209V19.4375H115.709V19.9375ZM115.709 38.4375V38.9375H116.209V38.4375H115.709ZM111.084 38.4375H110.584V38.9375H111.084V38.4375ZM97.2094 38.4375V37.9375H96.7094V38.4375H97.2094ZM111.084 38.4375H111.584V37.9375H111.084V38.4375ZM111.084 43V43.5H111.584V43H111.084ZM97.2094 43H96.7094V43.5H97.2094V43ZM92.5844 20.4375H97.2094V19.4375H92.5844V20.4375ZM96.7094 19.9375V38.4375H97.7094V19.9375H96.7094ZM97.2094 37.9375H92.5844V38.9375H97.2094V37.9375ZM93.0844 38.4375V19.9375H92.0844V38.4375H93.0844ZM111.084 20.4375H115.709V19.4375H111.084V20.4375ZM115.209 19.9375V38.4375H116.209V19.9375H115.209ZM115.709 37.9375H111.084V38.9375H115.709V37.9375ZM111.584 38.4375V19.9375H110.584V38.4375H111.584ZM97.2094 38.9375H111.084V37.9375H97.2094V38.9375ZM110.584 38.4375V43H111.584V38.4375H110.584ZM111.084 42.5H97.2094V43.5H111.084V42.5ZM97.7094 43V38.4375H96.7094V43H97.7094ZM121.216 19.9375V19.4375H120.716V19.9375H121.216ZM125.841 19.9375H126.341V19.4375H125.841V19.9375ZM125.841 24.5625V25.0625H126.341V24.5625H125.841ZM121.216 24.5625H120.716V25.0625H121.216V24.5625ZM139.716 19.9375V19.4375H139.216V19.9375H139.716ZM144.341 19.9375H144.841V19.4375H144.341V19.9375ZM144.341 24.5625V25.0625H144.841V24.5625H144.341ZM139.716 24.5625H139.216V25.0625H139.716V24.5625ZM125.841 24.5625V24.0625H125.341V24.5625H125.841ZM130.466 24.5625H130.966V24.0625H130.466V24.5625ZM130.466 29.1875V29.6875H130.966V29.1875H130.466ZM125.841 29.1875H125.341V29.6875H125.841V29.1875ZM135.091 24.5625V24.0625H134.591V24.5625H135.091ZM139.716 24.5625H140.216V24.0625H139.716V24.5625ZM139.716 29.1875V29.6875H140.216V29.1875H139.716ZM135.091 29.1875H134.591V29.6875H135.091V29.1875ZM130.466 29.1875V28.6875H129.966V29.1875H130.466ZM135.091 29.1875H135.591V28.6875H135.091V29.1875ZM135.091 43V43.5H135.591V43H135.091ZM130.466 43H129.966V43.5H130.466V43ZM121.216 20.4375H125.841V19.4375H121.216V20.4375ZM125.341 19.9375V24.5625H126.341V19.9375H125.341ZM125.841 24.0625H121.216V25.0625H125.841V24.0625ZM121.716 24.5625V19.9375H120.716V24.5625H121.716ZM139.716 20.4375H144.341V19.4375H139.716V20.4375ZM143.841 19.9375V24.5625H144.841V19.9375H143.841ZM144.341 24.0625H139.716V25.0625H144.341V24.0625ZM140.216 24.5625V19.9375H139.216V24.5625H140.216ZM125.841 25.0625H130.466V24.0625H125.841V25.0625ZM129.966 24.5625V29.1875H130.966V24.5625H129.966ZM130.466 28.6875H125.841V29.6875H130.466V28.6875ZM126.341 29.1875V24.5625H125.341V29.1875H126.341ZM135.091 25.0625H139.716V24.0625H135.091V25.0625ZM139.216 24.5625V29.1875H140.216V24.5625H139.216ZM139.716 28.6875H135.091V29.6875H139.716V28.6875ZM135.591 29.1875V24.5625H134.591V29.1875H135.591ZM130.466 29.6875H135.091V28.6875H130.466V29.6875ZM134.591 29.1875V43H135.591V29.1875H134.591ZM135.091 42.5H130.466V43.5H135.091V42.5ZM130.966 43V29.1875H129.966V43H130.966Z" fill="#333333"/>
</svg>
