<svg width="70" height="67" viewBox="0 0 70 67" fill="none" xmlns="http://www.w3.org/2000/svg">
<path d="M3.38969 6.75027C3.78426 7.36255 14.0904 22.798 14.1082 22.8099C14.1289 22.8219 17.7364 20.4146 17.8699 20.2981C17.8758 20.2951 16.5527 18.297 14.9299 15.8598C13.3042 13.4256 11.9781 11.4305 11.9811 11.4275C11.9959 11.4185 28.0128 11.771 28.2591 11.7859C28.6002 11.8068 29.416 11.9711 29.9085 12.1144C32.1246 12.7655 33.7444 14.1126 34.6848 16.0898C35.3197 17.4249 35.649 19.0795 35.554 20.4295C35.3879 22.8129 34.6729 24.5661 33.3142 25.9161C31.7152 27.511 29.1698 28.4788 25.9896 28.7057C24.3698 28.8222 23.8269 28.7894 20.5398 28.3862C19.107 28.2099 17.9351 28.0666 17.9351 28.0696C17.9351 28.0785 35.4146 52.9042 35.5184 53.0446L35.5926 53.1432L45.4715 38.2155C50.9064 30.005 57.7593 19.65 60.7022 15.1997L66.0511 7.11465H56.6053H47.1566V9.3995V11.6844L52.36 11.6903L57.5665 11.6993L46.5187 28.3891L35.4739 45.079L34.2991 43.4124C33.6554 42.4955 31.7716 39.8224 30.1191 37.4748L27.111 33.2038L27.2771 33.1799C27.3691 33.1649 27.6776 33.1231 27.9624 33.0813C30.4751 32.7229 32.8217 31.8806 34.6255 30.6919C37.4972 28.7983 39.289 25.9818 39.8853 22.4217C40.1494 20.8596 40.1612 19.638 39.9328 18.1656C39.3958 14.692 37.8413 11.7978 35.4917 9.90127C33.8215 8.55426 31.7271 7.68213 29.2232 7.29386C28.8672 7.23711 27.8586 7.21023 16.17 6.95038C9.20431 6.79507 3.46386 6.66664 3.41936 6.66664H3.33333L3.38969 6.75027Z" fill="white"/>
<path d="M13.1376 56.073C13.102 56.1178 10.696 60.5441 10.696 60.565C10.696 60.571 10.8799 60.577 11.1054 60.577H11.5148L11.764 60.12L12.0162 59.666H13.1672H14.3212L14.5734 60.12L14.8285 60.577H15.2379C15.4664 60.577 15.6503 60.571 15.6503 60.565C15.6503 60.5411 13.2384 56.1088 13.2028 56.073C13.1732 56.0401 13.1613 56.0401 13.1376 56.073ZM14.0483 59.0896C14.0483 59.1045 13.6478 59.1135 13.1613 59.1135H12.2713L12.7222 58.2204L13.1732 57.3274L13.6093 58.1965C13.8495 58.6774 14.0483 59.0776 14.0483 59.0896Z" fill="white"/>
<path d="M40.0189 58.2683C39.3514 59.4958 38.8026 60.5173 38.7966 60.5382C38.7877 60.5711 38.8649 60.5771 39.1971 60.5711L39.6065 60.5621L39.8527 60.1052L40.1019 59.6512H41.2411H42.3803L42.4307 59.7318C42.4604 59.7736 42.579 59.9797 42.6918 60.1858L42.9024 60.5621L43.3118 60.5711C43.6945 60.5771 43.7212 60.5741 43.7063 60.5263C43.6797 60.4307 41.2886 56.055 41.2589 56.0431C41.2441 56.0401 40.6864 57.0377 40.0189 58.2683ZM41.698 58.2085C41.9353 58.6804 42.1341 59.0747 42.137 59.0896C42.143 59.1016 41.7454 59.1135 41.253 59.1135C40.7605 59.1135 40.363 59.1016 40.3689 59.0896C40.4105 58.9821 41.2411 57.3513 41.253 57.3513C41.2619 57.3513 41.4606 57.7366 41.698 58.2085Z" fill="white"/>
<path d="M46.1474 58.3043V60.5772H46.533H46.9187V59.0987V57.6173L47.3696 58.0145C47.6188 58.2326 48.3812 58.9136 49.0695 59.5228C49.7548 60.1351 50.3244 60.6369 50.3392 60.6369C50.3511 60.6369 50.36 59.6214 50.36 58.3819V56.1269H49.9743H49.5887V57.5934V59.0569L49.4878 58.9733C49.4344 58.9285 48.672 58.2505 47.7968 57.471C46.9187 56.6914 46.1889 56.0463 46.1741 56.0433C46.1592 56.0373 46.1474 56.9065 46.1474 58.3043Z" fill="white"/>
<path d="M60.8742 58.2656C60.2067 59.4931 59.6579 60.5146 59.652 60.5385C59.6431 60.5713 59.7172 60.5773 60.0495 60.5713L60.4589 60.5624L60.7081 60.1054L60.9573 59.6514H62.0964H63.2356L63.286 59.7321C63.3157 59.7769 63.4343 59.9799 63.5471 60.186L63.7577 60.5624L64.1641 60.5713C64.4044 60.5743 64.5705 60.5683 64.5705 60.5504C64.5705 60.5056 62.1439 56.0554 62.1142 56.0435C62.0994 56.0405 61.5417 57.0381 60.8742 58.2656ZM62.5533 58.2088C62.7906 58.6807 62.9894 59.078 62.9923 59.0899C62.9983 59.1019 62.6007 59.1138 62.1083 59.1138C61.6158 59.1138 61.2183 59.1019 61.2242 59.0899C61.2658 58.9824 62.0964 57.3517 62.1083 57.3517C62.1172 57.3517 62.3159 57.7369 62.5533 58.2088Z" fill="white"/>
<path d="M4.94073 58.3489V60.577H5.3264H5.71206V59.7407V58.9044H6.24012L6.76522 58.9074L7.29921 59.7407L7.83321 60.577H8.25743C8.5897 60.577 8.6787 60.568 8.6609 60.5381C8.64903 60.5202 8.37907 60.117 8.0646 59.6421C7.58401 58.9253 7.49798 58.782 7.54247 58.767C8.31083 58.5221 8.6965 57.9517 8.56003 57.2558C8.46213 56.745 8.1091 56.4016 7.48611 56.2104C7.28141 56.1507 7.20131 56.1447 6.10662 56.1328L4.94073 56.1238V58.3489ZM7.29624 56.8406C7.50984 56.9272 7.70267 57.1094 7.75311 57.2796C7.86584 57.6679 7.70564 58.0233 7.34074 58.1846C7.13011 58.2772 6.83938 58.3101 6.26089 58.3011L5.72689 58.2921L5.71799 57.5216L5.71206 56.748L6.41515 56.76C7.06781 56.7719 7.13308 56.7779 7.29624 56.8406Z" fill="white"/>
<path d="M18.0536 58.3489V60.577H18.4541H18.8546V59.7407V58.9044H19.3678H19.881L20.415 59.7317L20.949 60.562L21.3703 60.571C21.6017 60.574 21.7915 60.571 21.7915 60.559C21.7915 60.5501 21.5305 60.1529 21.213 59.678C20.8926 59.2031 20.6405 58.7999 20.6494 58.7849C20.6612 58.767 20.685 58.7551 20.7057 58.7551C20.7295 58.7551 20.8511 58.7013 20.9816 58.6356C21.2635 58.4952 21.4889 58.2712 21.6076 58.0174C21.6788 57.8591 21.6877 57.8113 21.6877 57.5007C21.6877 57.1721 21.6847 57.1482 21.5898 56.9541C21.4622 56.6943 21.2546 56.4882 20.9816 56.3568C20.5663 56.1537 20.5099 56.1477 19.2195 56.1328L18.0536 56.1238V58.3489ZM20.4091 56.8406C20.768 56.984 20.9164 57.2139 20.8956 57.5873C20.8808 57.871 20.7829 58.0144 20.5159 58.1488C20.2637 58.2772 20.0501 58.3071 19.3975 58.3071H18.8546V57.5275V56.748L19.5458 56.76C20.1836 56.7719 20.2459 56.7779 20.4091 56.8406Z" fill="white"/>
<path d="M24.4914 58.3518V60.577H26.1824H27.8734V60.2634V59.9498L26.577 59.9438L25.2776 59.9348V59.2777V58.6207L26.3248 58.6117L27.3691 58.6057V58.307V58.0084H26.3159H25.2628V57.3812V56.7539H26.5088H27.7547V56.4403V56.1267H26.1231H24.4914V58.3518Z" fill="white"/>
<path d="M33.0089 56.148C33.0119 56.2196 35.4327 60.6221 35.4683 60.6281C35.4979 60.634 35.8866 59.9441 36.7143 58.4149C37.3729 57.1933 37.9187 56.1778 37.9247 56.1599C37.9336 56.136 37.8149 56.1271 37.5123 56.133L37.091 56.142L36.5452 57.1724C36.2455 57.7399 35.8836 58.4358 35.7412 58.7166C35.5988 59.0003 35.4772 59.2333 35.4683 59.2333C35.4594 59.2333 35.3229 58.9734 35.1657 58.6568C35.0055 58.3432 34.6465 57.6473 34.3647 57.1127L33.8514 56.142L33.4272 56.133C33.1958 56.13 33.0059 56.136 33.0089 56.148Z" fill="white"/>
<path d="M53.4454 58.3551V60.5832L54.5223 60.5683C55.6911 60.5503 55.8721 60.5324 56.3675 60.3652C57.1122 60.1143 57.6491 59.5468 57.7945 58.8449C57.8657 58.5074 57.839 57.9519 57.7352 57.6293C57.6462 57.3515 57.4296 57.0021 57.2397 56.8318C56.9579 56.572 56.5366 56.354 56.1213 56.2494C55.7178 56.1479 55.4508 56.127 54.4362 56.127H53.4454V58.3551ZM55.7979 56.8378C56.6049 57.0618 57.035 57.5875 57.035 58.3521C57.035 58.7971 56.9045 59.1257 56.6138 59.4154C56.2222 59.8036 55.6199 59.9649 54.632 59.944L54.2316 59.9351L54.2227 58.3431L54.2167 56.7482L54.8901 56.7602C55.4627 56.7721 55.6021 56.784 55.7979 56.8378Z" fill="white"/>
<path d="M67.0037 58.3518V60.577H68.5018H70V60.2634V59.9498H68.9023H67.8047V58.0382V56.1267H67.4042H67.0037V58.3518Z" fill="white"/>
</svg>
